<svg width="24" height="16" viewBox="0 0 24 16" fill="none" xmlns="http://www.w3.org/2000/svg">
<g clip-path="url(#clip0_1098_2719)">
<path d="M16.3636 6.85714C18.1745 6.85714 19.6255 5.32571 19.6255 3.42857C19.6255 1.53143 18.1745 0 16.3636 0C14.5527 0 13.0909 1.53143 13.0909 3.42857C13.0909 5.32571 14.5527 6.85714 16.3636 6.85714ZM7.63636 6.85714C9.44727 6.85714 10.8982 5.32571 10.8982 3.42857C10.8982 1.53143 9.44727 0 7.63636 0C5.82545 0 4.36364 1.53143 4.36364 3.42857C4.36364 5.32571 5.82545 6.85714 7.63636 6.85714ZM7.63636 9.14286C5.09455 9.14286 0 10.48 0 13.1429V16H15.2727V13.1429C15.2727 10.48 10.1782 9.14286 7.63636 9.14286ZM16.3636 9.14286C16.0473 9.14286 15.6873 9.16571 15.3055 9.2C16.5709 10.16 17.4545 11.4514 17.4545 13.1429V16H24V13.1429C24 10.48 18.9055 9.14286 16.3636 9.14286Z" fill="current" fill-opacity="0.87"/>
</g>
<defs>
<clipPath id="clip0_1098_2719">
<rect width="24" height="16" fill="white"/>
</clipPath>
</defs>
</svg>
