<svg width="24" height="24" viewBox="0 0 24 24" fill="none" xmlns="http://www.w3.org/2000/svg">
<g clip-path="url(#clip0_1012_2416)">
<path d="M22.9373 7.93315L14.4833 4.29518C13.542 3.89504 12.7526 3.70314 11.9979 3.71539C11.2474 3.70314 10.458 3.89504 9.51237 4.29518L1.06272 7.93315C0.386047 8.22304 0 8.76199 0 9.35812C0 9.95015 0.386047 10.4973 1.06272 10.779L4.08169 12.0407L9.93309 9.48882C9.90706 9.44383 9.89845 9.40302 9.89845 9.35812C9.89845 8.64768 10.9351 8.1618 12.0152 8.1618C13.0952 8.1618 14.1276 8.63949 14.1276 9.35812C14.1276 10.0808 13.1039 10.5749 12.0152 10.5749C11.6768 10.5749 11.3385 10.5259 11.0393 10.4361L5.65625 12.7634L9.51237 14.4211C10.458 14.8335 11.2474 15.0131 11.9979 15.0009C12.7526 15.0131 13.542 14.8253 14.4833 14.4211L22.9373 10.779C23.6139 10.4851 24 9.95015 24 9.35812C24 8.76199 23.6139 8.22304 22.9373 7.93315ZM5.6389 14.2129V18.7164C7.22212 19.6024 9.45161 20.1292 11.9979 20.1292C17.0729 20.1292 20.8595 18.0386 20.8595 15.3479V13.1308L15.0645 15.6255C13.9628 16.1033 12.9434 16.3401 11.9979 16.3319C11.0566 16.3401 10.0372 16.1033 8.92678 15.6255L5.6389 14.2129ZM3.14043 13.1349V15.3479C3.14043 16.0543 3.48744 16.8382 4.11206 17.516V13.5554L3.14043 13.1349ZM4.11206 20.2598L5.6389 20.2639V18.7164C5.01428 18.3694 4.49811 17.9651 4.11206 17.516V20.2598ZM3.22285 20.6354V22.7055C3.22285 23.4853 3.76938 23.9998 4.59787 23.9998H5.14441C5.97289 23.9998 6.51943 23.4853 6.51943 22.7055V20.6354C6.51943 19.8514 5.97289 19.3411 5.14441 19.3411H4.59787C3.76938 19.3411 3.22285 19.8514 3.22285 20.6354Z" fill="current" fill-opacity="0.87"/>
</g>
<defs>
<clipPath id="clip0_1012_2416">
<rect width="24" height="24" fill="white"/>
</clipPath>
</defs>
</svg>
