<svg width="24" height="24" viewBox="0 0 24 24" fill="none" xmlns="http://www.w3.org/2000/svg">
<g clip-path="url(#clip0_2418_8628)">
<path d="M1.2977 17.2755H6.90138C6.13456 16.1606 7.07097 13.916 8.65619 12.6903C7.83782 12.144 6.78342 11.7379 5.40461 11.7379C2.07927 11.7379 0 14.1966 0 16.2418C0 16.9063 0.368664 17.2755 1.2977 17.2755ZM5.41198 10.6082C6.78342 10.6082 7.97788 9.36779 7.97788 7.76557C7.97788 6.17813 6.77604 5.00416 5.41198 5.00416C4.04055 5.00416 2.83134 6.20766 2.83871 7.78034C2.83871 9.36779 4.03318 10.6082 5.41198 10.6082ZM13.906 11.7601C10.0793 11.7601 7.69769 14.3885 7.69769 16.2935C7.69769 16.9432 8.11061 17.2755 9.27561 17.2755H15.5502C15.4544 16.9285 15.4102 16.5519 15.4102 16.1828C15.4102 14.706 16.0959 13.3844 17.1576 12.5131C16.2581 12.0554 15.1594 11.7601 13.906 11.7601ZM13.8986 10.4384C15.4839 10.4384 16.848 9.02076 16.848 7.18966C16.848 5.38071 15.4765 4 13.8986 4C12.3208 4 10.9493 5.35118 10.9493 7.1749C10.9493 9.02076 12.3134 10.4384 13.8986 10.4384ZM19.8562 20H20.4903C20.7189 20 20.8959 19.8671 20.9474 19.6308L21.1244 18.9073C21.2276 18.8777 21.3456 18.8261 21.4489 18.7743L22.0829 19.1583C22.2747 19.2838 22.4885 19.2838 22.6654 19.1066L23.1005 18.6636C23.2553 18.5012 23.27 18.2871 23.1447 18.0729L22.7686 17.4379C22.8277 17.3346 22.8571 17.2385 22.894 17.1352L23.624 16.9654C23.8525 16.9063 24 16.7291 24 16.5002V15.8726C24 15.6511 23.8451 15.4887 23.624 15.4296L22.9088 15.2524C22.8571 15.1269 22.8129 15.0383 22.776 14.9497L23.1742 14.2926C23.2922 14.1006 23.27 13.8644 23.1152 13.7166L22.6654 13.2811C22.4958 13.1112 22.2747 13.0817 22.0903 13.1998L21.4489 13.6059C21.3235 13.5395 21.2276 13.5099 21.1244 13.473L20.9474 12.7346C20.8959 12.5131 20.7189 12.3655 20.4903 12.3655H19.8562C19.6277 12.3655 19.4434 12.5205 19.3917 12.7346L19.2295 13.4656C19.0968 13.5099 19.0009 13.5395 18.8903 13.6059L18.2488 13.1998C18.0793 13.0891 17.8433 13.1112 17.6811 13.2811L17.2461 13.7166C17.0912 13.8717 17.0397 14.1006 17.165 14.2926L17.5705 14.9497C17.5337 15.0383 17.4894 15.1417 17.4378 15.2524L16.7226 15.4296C16.5014 15.4887 16.354 15.6585 16.354 15.8726V16.5002C16.354 16.7291 16.5014 16.9063 16.7226 16.9654L17.4452 17.1352C17.4968 17.2385 17.5337 17.3346 17.5778 17.4379L17.2018 18.0803C17.0765 18.2871 17.0986 18.5085 17.2535 18.6636L17.6811 19.1066C17.8433 19.2838 18.0645 19.2838 18.2636 19.1583L18.9051 18.7743C19.0304 18.8408 19.1262 18.8777 19.2295 18.9073L19.3917 19.6308C19.4434 19.8523 19.6277 20 19.8562 20ZM20.1733 17.4158C19.4875 17.4158 18.9493 16.8694 18.9493 16.1901C18.9493 15.5183 19.4875 14.9571 20.1733 14.9497C20.8369 14.9423 21.4046 15.5183 21.4046 16.1901C21.4046 16.8694 20.8369 17.4158 20.1733 17.4158Z" fill="current"/>
</g>
<defs>
<clipPath id="clip0_2418_8628">
<rect width="24" height="24" fill="white"/>
</clipPath>
</defs>
</svg>
