<svg width="24" height="24" viewBox="0 0 24 24" fill="none" xmlns="http://www.w3.org/2000/svg">
<path d="M19.4961 11.875L21.2031 13.5449C21.7227 14.0273 21.4629 14.8809 20.7949 15.0664L18.4941 15.6602L19.125 17.9609C19.3105 18.6289 18.7168 19.2227 18.0488 19.0371L15.748 18.4062L15.1543 20.707C14.9688 21.4121 14.1152 21.6348 13.6328 21.1152L12 19.4082L10.3301 21.1152C9.84766 21.5977 8.99414 21.4121 8.80859 20.707L8.21484 18.4062L5.91406 19.0371C5.24609 19.2227 4.65234 18.6289 4.83789 17.9609L5.46875 15.6602L3.16797 15.0664C2.5 14.8809 2.24023 14.0273 2.75977 13.5449L4.4668 11.875L2.75977 10.2051C2.24023 9.72266 2.5 8.86914 3.16797 8.7207L5.46875 8.12695L4.83789 5.82617C4.65234 5.1582 5.24609 4.52734 5.91406 4.71289L8.21484 5.38086L8.80859 3.04297C8.95703 2.375 9.84766 2.15234 10.3301 2.67188L12 4.37891L13.6328 2.67188C14.1152 2.15234 15.0059 2.41211 15.1543 3.04297L15.748 5.38086L18.0488 4.71289C18.7168 4.52734 19.3105 5.1582 19.125 5.82617L18.4941 8.12695L20.7949 8.7207C21.4629 8.86914 21.7227 9.72266 21.2031 10.2051L19.4961 11.875Z" fill="current"/>
</svg>
