<svg width="646" height="393" viewBox="0 0 646 393" fill="none" xmlns="http://www.w3.org/2000/svg">
<path d="M631.993 101.661L469.03 7.53241C451.641 -2.5108 423.544 -2.5108 406.267 7.53241L401.557 10.2698L393.378 15.0254L28.8243 226.976L20.6455 231.732L12.8705 236.252C4.01559 241.401 -0.256278 248.186 0.0178827 254.93C0.243905 260.505 0.375431 266.069 0.0290199 271.638C-0.400778 278.545 3.94334 285.54 13.0762 290.814L26.944 298.824L176.039 384.943C193.428 394.988 221.527 394.988 238.803 384.943L246.578 380.423L254.755 375.669L493.794 236.693L619.31 163.718L627.489 158.963L630.381 157.282L632.196 156.225C641.053 151.077 645.325 144.29 645.051 137.546C644.825 131.971 644.693 126.407 645.04 120.838C645.47 113.93 641.125 106.936 631.993 101.661Z" fill="#4097A2"/>
<path d="M626.716 134.869C640.953 126.592 640.877 113.104 626.548 104.827L463.585 10.698C449.256 2.42099 425.981 2.42099 411.745 10.698L407.036 13.4353L398.857 18.191L34.3035 230.142L26.1247 234.898L18.3516 239.416C4.11516 247.693 4.19111 261.182 18.5202 269.459L181.483 363.587C195.812 371.864 219.087 371.864 233.323 363.587L241.098 359.067L249.275 354.312L613.83 142.361L622.007 137.607L626.716 134.869ZM530.742 63.5439C531.955 62.8378 533.912 62.8452 535.121 63.5439C536.331 64.2426 536.349 65.3769 535.136 66.083C533.934 66.7817 531.966 66.7817 530.757 66.083C529.547 65.3843 529.54 64.2426 530.742 63.5439ZM500.305 63.1584C501.261 62.6024 502.812 62.6024 503.775 63.1584L535.888 81.7084C536.852 82.2644 536.855 83.1633 535.899 83.7193C534.943 84.2753 533.393 84.2753 532.43 83.7193L500.317 65.1693C499.353 64.6133 499.35 63.7144 500.305 63.1584ZM479.013 50.2778C481.269 48.9656 484.946 48.9582 487.218 50.2704C489.489 51.5825 489.502 53.7213 487.245 55.0334C484.989 56.3456 481.31 56.3382 479.039 55.026C476.768 53.7138 476.756 51.5899 479.013 50.2778ZM141.902 312.302C132.375 317.842 116.864 317.834 107.273 312.295C97.6831 306.755 97.6331 297.774 107.16 292.234C116.699 286.687 132.199 286.687 141.789 292.227C151.38 297.766 151.441 306.755 141.902 312.302ZM245.394 344.439L51.3539 232.359L397.405 31.1662L591.445 143.245L245.394 344.439Z" fill="white"/>
<path d="M51.3799 232.358L245.42 344.439L591.471 143.244L397.431 31.166L51.3799 232.358Z" fill="#EDF5FF"/>
<path d="M479.039 55.0261C481.31 56.3383 484.989 56.3457 487.246 55.0335C489.502 53.7214 489.489 51.5826 487.218 50.2705C484.947 48.9583 481.269 48.9657 479.013 50.2779C476.757 51.59 476.768 53.714 479.039 55.0261ZM479.863 50.769C481.653 49.7293 484.569 49.7219 486.371 50.7616C488.185 51.8106 488.183 53.5008 486.393 54.5405C484.604 55.5821 481.699 55.5821 479.886 54.5331C478.083 53.4934 478.074 51.8106 479.863 50.769Z" fill="white"/>
<path d="M479.885 54.533C481.699 55.582 484.604 55.582 486.393 54.5404C488.183 53.5007 488.185 51.8104 486.371 50.7614C484.569 49.7217 481.653 49.7291 479.863 50.7689C478.074 51.8104 478.083 53.4933 479.885 54.533Z" fill="#CDC8DF"/>
<path d="M530.758 66.083C531.967 66.7817 533.935 66.7817 535.137 66.083C536.35 65.3768 536.332 64.2426 535.122 63.5439C533.912 62.8452 531.956 62.8378 530.743 63.5439C529.541 64.2426 529.548 65.3843 530.758 66.083ZM531.2 63.8071C532.156 63.2511 533.718 63.2455 534.681 63.8015C535.645 64.3575 535.635 65.2619 534.679 65.8179C533.723 66.3739 532.175 66.3739 531.211 65.8179C530.248 65.2619 530.244 64.3631 531.2 63.8071Z" fill="white"/>
<path d="M531.212 65.8179C532.175 66.3739 533.724 66.3739 534.679 65.8179C535.635 65.2619 535.645 64.3574 534.681 63.8014C533.718 63.2454 532.156 63.251 531.2 63.807C530.245 64.363 530.248 65.2619 531.212 65.8179Z" fill="#CDC8DF"/>
<path d="M500.317 65.1691L532.43 83.7191C533.393 84.2751 534.944 84.2751 535.9 83.7191C536.856 83.1631 536.852 82.2642 535.889 81.7082L503.776 63.1582C502.812 62.6022 501.262 62.6022 500.306 63.1582C499.35 63.7142 499.354 64.6131 500.317 65.1691Z" fill="#CDC8DF"/>
<path d="M139.276 293.689C131.081 288.956 117.834 288.948 109.679 293.689C101.537 298.422 101.58 306.106 109.775 310.84C117.971 315.573 131.231 315.573 139.373 310.84C147.527 306.099 147.472 298.422 139.276 293.689Z" fill="url(#paint0_linear_1828_3872)"/>
<path d="M103.595 334.214L103.6 332.49C103.602 331.881 103.181 331.156 102.652 330.85L86.559 321.554C86.0292 321.248 85.6068 321.487 85.605 322.097L85.5994 323.82L85.5957 325.544C85.5939 326.141 86.0125 326.878 86.5423 327.186L94.5896 331.834L102.637 336.482C103.167 336.788 103.589 336.536 103.591 335.939L103.595 334.214Z" fill="#215057"/>
<path d="M187.369 201.445L187.357 200.933L187.904 203.455L197.318 246.636L215.358 256.431L253.692 235.223L268.388 242.704L287.155 232.434L273.862 223.238L286.451 216.434L286.431 217.098C286.431 217.098 286.101 218.095 285.466 218.41C284.83 218.725 275.703 223.922 275.703 223.922L285.997 230.014L285.951 230.066L288.258 232.434L288.28 232.742C288.28 232.742 288.224 233.628 288.08 233.96C287.935 234.291 270.857 244.514 269.51 244.659C268.163 244.803 255.437 237.216 254.027 237.464C252.617 237.713 221.06 258.859 215.358 259.17C209.656 259.482 197.348 252.741 196.014 248.996C194.68 245.25 187.369 201.445 187.369 201.445Z" fill="#4097A2"/>
<path d="M218.118 227.145L218.215 227.128L215.662 213.56L236.106 225.258L225.53 231.406L225.839 231.543L226.147 231.782L236.673 225.269L214.865 212.398L217.722 227.139L218.118 227.145Z" fill="#215057"/>
<path d="M218.172 227.136L225.632 231.465L236.423 225.238L215.358 213.06L218.159 227.136H218.172Z" fill="#215057"/>
<path d="M286.449 228.889V216.433C286.449 217.137 286.023 217.734 285.188 218.225L275.34 223.909L285.971 230.043C286.277 229.699 286.449 229.313 286.449 228.889Z" fill="#215057"/>
<path d="M287.02 234.226L272.021 242.885C271.185 243.376 270.15 243.615 268.929 243.615V256.071C270.15 256.071 271.185 255.832 272.021 255.341L287.02 246.683C287.858 246.191 288.28 245.608 288.28 244.89V232.434C288.28 233.138 287.858 233.735 287.02 234.226Z" fill="#215057"/>
<path d="M196.352 246.258L187.419 201.56C187.417 201.552 187.415 201.547 187.413 201.539C187.363 201.256 187.352 200.996 187.352 200.763C187.352 201.599 187.339 212.072 187.35 213.241C187.35 213.28 187.352 213.31 187.352 213.326C187.352 213.402 187.356 213.48 187.361 213.562C187.372 213.705 187.393 213.855 187.419 214.016L196.352 258.715C196.405 258.967 196.496 259.219 196.629 259.471V247.014C196.496 246.762 196.405 246.51 196.352 246.258Z" fill="#215057"/>
<path d="M215.013 257.705C213.792 257.705 212.77 257.453 211.919 256.974L199.787 249.963C198.181 249.048 197.12 248.064 196.629 247.015V259.471C197.12 260.52 198.181 261.504 199.787 262.42L211.919 269.431C212.77 269.909 213.792 270.161 215.013 270.161C215.134 270.161 215.239 270.161 215.358 270.135V257.679C215.239 257.705 215.134 257.705 215.013 257.705Z" fill="#215057"/>
<path d="M218.106 256.974C217.35 257.412 216.433 257.653 215.358 257.679V270.135C216.433 270.109 217.35 269.868 218.106 269.431L254.168 248.595V236.139L218.106 256.974Z" fill="#215057"/>
<path d="M265.85 242.885L254.168 236.139V248.595L265.85 255.342C266.685 255.833 267.708 256.072 268.929 256.072V243.616C267.708 243.616 266.685 243.376 265.85 242.885Z" fill="#215057"/>
<path d="M272.026 242.885C271.185 243.371 270.153 243.616 268.932 243.614C267.712 243.614 266.683 243.371 265.844 242.885L254.166 236.141L218.103 256.971C217.264 257.456 216.236 257.699 215.012 257.699C213.789 257.699 212.763 257.456 211.923 256.971L199.788 249.961C197.802 248.814 196.659 247.582 196.353 246.258L187.424 201.558C187.272 200.676 187.35 199.992 187.652 199.508C187.96 199.024 188.608 198.494 189.599 197.92L206.885 187.936C207.724 187.452 208.756 187.209 209.978 187.208C211.199 187.209 212.229 187.452 213.066 187.936L257.028 213.328L266.872 207.641C267.71 207.157 268.743 206.914 269.964 206.912C271.187 206.914 272.217 207.157 273.056 207.642L285.19 214.65C286.029 215.135 286.451 215.73 286.451 216.435C286.451 217.143 286.027 217.737 285.19 218.221L275.346 223.909L287.02 230.652C287.861 231.137 288.282 231.734 288.284 232.438C288.282 233.144 287.859 233.739 287.02 234.223L272.026 242.885ZM236.419 225.231L215.358 213.065L219.706 234.885L236.419 225.231Z" fill="#4097A2"/>
<path d="M253.842 173.028C253.842 172.955 253.671 171.039 253.738 170.852C253.805 170.665 254.966 175.648 258.286 179.006C261.606 182.365 294.719 207.77 321.401 205.887C348.082 204.004 366.629 179.815 367.241 177.811C367.852 175.808 367.241 184.101 367.241 184.101C367.241 184.101 363.903 193.677 358.338 196.183C352.773 198.689 339.564 209.725 318.513 208.788C297.461 207.85 263.282 190.447 256.804 180.389C256.191 179.429 253.842 173.028 253.842 173.028Z" fill="#E94234"/>
<path d="M286.202 175.291L286.667 173.847C286.667 173.847 281.478 169.071 282.849 166.793C284.22 164.515 295.09 157.187 304.147 159.576C313.204 161.965 339.985 175.862 338.157 180.389C336.329 184.917 334.75 186.754 334.75 186.754C334.75 186.754 335.504 187.462 336.134 187.122C336.764 186.783 340.567 182.736 340.252 181.475C339.937 180.215 339.789 178.167 337.883 176.227C335.977 174.286 311.036 156.57 303.788 155.479C296.539 154.387 286.917 157.853 283.453 161.832C279.988 165.811 280.309 171.202 282.619 172.935C284.929 174.668 286.202 175.291 286.202 175.291Z" fill="#E94234"/>
<path d="M284.325 172.307C284.962 172.97 285.705 173.634 286.555 174.271C286.941 174.019 287.326 173.767 287.75 173.515C290.045 172.201 292.289 171.297 294.506 170.805C296.724 170.327 298.886 170.155 300.983 170.314C303.08 170.474 305.138 170.887 307.168 171.563C309.186 172.255 311.229 173.102 313.287 174.112C319.924 177.604 326.334 181.295 332.52 185.226C333.329 185.73 334.074 186.249 334.75 186.753C336.382 185.699 337.566 184.652 338.242 183.606C339.077 182.331 339.383 181.069 339.157 179.835C338.931 178.614 338.229 177.407 337.047 176.238C335.852 175.07 334.352 173.914 332.52 172.772C326.334 168.841 319.924 165.136 313.287 161.657C311.229 160.647 309.186 159.799 307.168 159.107C305.138 158.431 303.08 158.017 300.983 157.858C298.886 157.699 296.724 157.871 294.506 158.349C292.289 158.84 290.045 159.745 287.75 161.059C285.468 162.386 283.901 163.689 283.065 164.964C282.23 166.239 281.937 167.486 282.202 168.695C282.48 169.916 283.184 171.111 284.325 172.307Z" fill="#D167CC"/>
<path d="M284.325 172.307C284.962 172.97 285.705 173.634 286.555 174.271C286.941 174.019 287.326 173.767 287.75 173.515C290.045 172.201 292.289 171.297 294.506 170.805C296.724 170.327 298.886 170.155 300.983 170.314C303.08 170.474 305.138 170.887 307.168 171.563C309.186 172.255 311.229 173.102 313.287 174.112C319.924 177.604 326.334 181.295 332.52 185.226C333.329 185.73 334.074 186.249 334.75 186.753C336.382 185.699 337.566 184.652 338.242 183.606C339.077 182.331 339.383 181.069 339.157 179.835C338.931 178.614 338.229 177.407 337.047 176.238C335.852 175.07 334.352 173.914 332.52 172.772C326.334 168.841 319.924 165.136 313.287 161.657C311.229 160.647 309.186 159.799 307.168 159.107C305.138 158.431 303.08 158.017 300.983 157.858C298.886 157.699 296.724 157.871 294.506 158.349C292.289 158.84 290.045 159.745 287.75 161.059C285.468 162.386 283.901 163.689 283.065 164.964C282.23 166.239 281.937 167.486 282.202 168.695C282.48 169.916 283.184 171.111 284.325 172.307Z" fill="#D81C18"/>
<path d="M320.63 207.125C319.61 207.162 318.587 207.203 317.576 207.19C312.053 207.124 306.718 206.382 301.607 204.974C296.498 203.567 291.759 201.732 287.406 199.475C284.127 197.762 280.703 195.865 277.106 193.793C273.521 191.721 270.163 189.702 267.03 187.71C263.142 185.2 259.968 182.465 257.54 179.516C255.083 176.555 253.811 173.489 253.705 170.289C253.772 172.268 253.625 180.567 253.705 182.745C253.811 185.946 255.083 189.011 257.54 191.973C259.968 194.921 263.142 197.657 267.03 200.166C270.163 202.158 273.521 204.177 277.106 206.249C280.703 208.321 284.127 210.219 287.406 211.944C291.759 214.188 296.498 216.021 301.607 217.43C306.718 218.839 312.053 219.58 317.576 219.647C318.587 219.66 319.61 219.619 320.63 219.582V207.125Z" fill="#D81C18"/>
<path d="M367.615 178.919C367.561 181.92 366.379 184.987 364.11 188.108C361.668 191.455 357.593 194.788 351.859 198.094C346.139 201.4 340.378 203.75 334.577 205.172C329.839 206.323 325.193 206.957 320.632 207.125V219.582C325.193 219.413 329.839 218.779 334.577 217.628C340.378 216.207 346.139 213.857 351.859 210.55C357.593 207.244 361.668 203.912 364.11 200.565C366.552 197.217 367.721 193.939 367.6 190.751C367.533 188.918 367.654 181.748 367.615 178.919Z" fill="#DF2D24"/>
<path d="M269.438 150.482C275.162 147.176 280.927 144.818 286.727 143.406C292.527 141.997 298.196 141.325 303.728 141.39C309.259 141.458 314.585 142.196 319.696 143.606C324.811 145.018 329.54 146.848 333.892 149.094C337.324 150.905 340.837 152.841 344.425 154.913C348.012 156.985 351.292 158.97 354.271 160.864C358.161 163.377 361.329 166.111 363.771 169.064C366.214 172.018 367.492 175.094 367.607 178.288C367.722 181.483 366.557 184.759 364.115 188.107C361.672 191.457 357.589 194.786 351.865 198.092C346.141 201.399 340.377 203.756 334.577 205.168C328.779 206.579 323.112 207.251 317.579 207.185C312.047 207.12 306.719 206.38 301.61 204.968C296.494 203.56 291.762 201.729 287.411 199.482C284.128 197.762 280.697 195.866 277.111 193.794C273.524 191.722 270.164 189.697 267.033 187.712C263.143 185.199 259.973 182.465 257.534 179.511C255.088 176.558 253.814 173.482 253.699 170.287C253.586 167.092 254.749 163.819 257.189 160.468C259.632 157.117 263.714 153.788 269.438 150.482ZM332.519 172.766C326.335 168.845 319.924 165.142 313.285 161.658C311.226 160.644 309.183 159.795 307.162 159.111C305.139 158.429 303.077 158.012 300.978 157.856C298.881 157.703 296.721 157.868 294.509 158.351C292.296 158.837 290.047 159.741 287.755 161.063C285.467 162.386 283.902 163.685 283.063 164.964C282.224 166.243 281.938 167.49 282.203 168.7C282.474 169.912 283.178 171.113 284.321 172.305C285.466 173.495 286.955 174.666 288.787 175.81C294.739 179.691 301.151 183.393 308.02 186.919C310.002 187.977 312.006 188.846 314.029 189.53C316.049 190.214 318.131 190.623 320.269 190.753C322.408 190.887 324.581 190.709 326.793 190.223C329.007 189.737 331.259 188.837 333.547 187.513C335.839 186.192 337.4 184.889 338.24 183.61C339.079 182.333 339.388 181.077 339.157 179.842C338.927 178.608 338.223 177.407 337.041 176.24C335.855 175.072 334.349 173.914 332.519 172.766Z" fill="#E94234"/>
<path d="M337.161 127.642C337.161 127.57 336.991 125.654 337.057 125.467C337.124 125.279 338.286 130.263 341.605 133.621C344.925 136.979 378.038 162.385 404.72 160.502C431.402 158.619 449.949 134.429 450.56 132.426C451.171 130.422 450.56 138.716 450.56 138.716C450.56 138.716 447.222 148.292 441.657 150.798C436.092 153.304 422.884 164.34 401.832 163.402C380.78 162.465 346.602 145.062 340.123 135.004C339.51 134.044 337.161 127.642 337.161 127.642Z" fill="#FFC600"/>
<path d="M369.521 129.905L369.986 128.462C369.986 128.462 364.797 123.686 366.168 121.408C367.539 119.13 378.409 111.802 387.466 114.191C396.523 116.58 423.305 130.476 421.476 135.004C419.648 139.532 418.07 141.368 418.07 141.368C418.07 141.368 418.824 142.076 419.453 141.737C420.083 141.398 423.886 137.35 423.571 136.09C423.257 134.83 423.108 132.782 421.202 130.841C419.296 128.901 394.356 111.185 387.107 110.093C379.858 109.002 370.236 112.467 366.772 116.447C363.308 120.426 363.628 125.817 365.938 127.55C368.248 129.283 369.521 129.905 369.521 129.905Z" fill="#FFC600"/>
<path d="M367.644 126.921C368.282 127.585 369.024 128.248 369.875 128.886C370.26 128.634 370.645 128.382 371.07 128.13C373.365 126.816 375.608 125.911 377.826 125.42C380.043 124.942 382.205 124.77 384.302 124.929C386.399 125.088 388.457 125.502 390.487 126.178C392.505 126.87 394.548 127.717 396.606 128.727C403.244 132.218 409.653 135.91 415.839 139.841C416.648 140.345 417.393 140.864 418.069 141.368C419.701 140.314 420.885 139.266 421.561 138.221C422.397 136.946 422.702 135.684 422.476 134.45C422.25 133.228 421.548 132.022 420.366 130.852C419.172 129.685 417.671 128.528 415.839 127.387C409.653 123.456 403.244 119.751 396.606 116.272C394.548 115.262 392.505 114.413 390.487 113.722C388.457 113.046 386.399 112.632 384.302 112.473C382.205 112.313 380.043 112.486 377.826 112.964C375.608 113.455 373.365 114.36 371.07 115.674C368.787 117.001 367.22 118.303 366.385 119.579C365.549 120.854 365.256 122.101 365.521 123.309C365.799 124.531 366.503 125.726 367.644 126.921Z" fill="#CCA000"/>
<path d="M403.95 161.74C402.929 161.777 401.906 161.818 400.895 161.805C395.373 161.738 390.037 160.997 384.926 159.588C379.817 158.182 375.079 156.347 370.725 154.09C367.446 152.377 364.023 150.479 360.425 148.407C356.841 146.335 353.482 144.317 350.349 142.325C346.461 139.815 343.288 137.08 340.859 134.131C338.403 131.169 337.13 128.104 337.024 124.903C337.091 126.883 336.945 135.182 337.024 137.36C337.13 140.56 338.403 143.626 340.859 146.587C343.288 149.536 346.461 152.271 350.349 154.781C353.482 156.773 356.841 158.792 360.425 160.864C364.023 162.936 367.446 164.833 370.725 166.559C375.079 168.803 379.817 170.636 384.926 172.045C390.037 173.453 395.373 174.195 400.895 174.261C401.906 174.274 402.929 174.234 403.95 174.196V161.74Z" fill="#CCA000"/>
<path d="M450.934 133.534C450.881 136.535 449.699 139.602 447.429 142.723C444.988 146.07 440.912 149.402 435.179 152.709C429.458 156.015 423.697 158.365 417.897 159.787C413.158 160.938 408.512 161.571 403.951 161.74V174.196C408.512 174.028 413.158 173.394 417.897 172.243C423.697 170.821 429.458 168.471 435.179 165.165C440.912 161.859 444.988 158.526 447.429 155.179C449.871 151.832 451.04 148.554 450.919 145.366C450.853 143.533 450.973 136.362 450.934 133.534Z" fill="#D2A500"/>
<path d="M352.757 105.097C358.481 101.79 364.246 99.4329 370.046 98.0207C375.847 96.6122 381.515 95.9394 387.047 96.0043C392.578 96.0729 397.904 96.8105 403.015 98.2209C408.13 99.6331 412.86 101.462 417.211 103.709C420.644 105.519 424.156 107.456 427.744 109.528C431.331 111.6 434.612 113.585 437.59 115.479C441.481 117.992 444.648 120.726 447.09 123.678C449.534 126.632 450.812 129.709 450.927 132.902C451.041 136.097 449.876 139.374 447.435 142.721C444.991 146.072 440.908 149.401 435.184 152.707C429.46 156.013 423.697 158.371 417.897 159.783C412.098 161.193 406.431 161.866 400.898 161.799C395.366 161.735 390.039 160.995 384.929 159.583C379.813 158.174 375.082 156.343 370.73 154.097C367.447 152.377 364.017 150.481 360.43 148.409C356.844 146.337 353.483 144.311 350.353 142.326C346.462 139.813 343.293 137.08 340.853 134.125C338.408 131.173 337.133 128.097 337.018 124.901C336.905 121.706 338.069 118.433 340.508 115.082C342.952 111.732 347.033 108.403 352.757 105.097ZM415.838 127.381C409.655 123.46 403.243 119.757 396.604 116.272C394.546 115.259 392.502 114.41 390.481 113.726C388.458 113.044 386.397 112.627 384.298 112.471C382.201 112.317 380.041 112.482 377.829 112.966C375.615 113.452 373.366 114.356 371.075 115.677C368.787 117.001 367.221 118.3 366.382 119.579C365.543 120.857 365.258 122.105 365.523 123.315C365.793 124.527 366.497 125.728 367.64 126.92C368.785 128.11 370.274 129.281 372.106 130.424C378.059 134.305 384.47 138.008 391.339 141.533C393.321 142.592 395.326 143.461 397.349 144.145C399.368 144.828 401.45 145.238 403.588 145.368C405.727 145.501 407.9 145.323 410.112 144.838C412.326 144.352 414.579 143.451 416.867 142.128C419.158 140.807 420.72 139.504 421.559 138.225C422.398 136.948 422.707 135.692 422.476 134.457C422.246 133.223 421.542 132.022 420.36 130.854C419.175 129.687 417.669 128.528 415.838 127.381Z" fill="#FFC600"/>
<defs>
<linearGradient id="paint0_linear_1828_3872" x1="105.224" y1="301.466" x2="147.079" y2="301.466" gradientUnits="userSpaceOnUse">
<stop offset="0.11" stop-color="white"/>
<stop offset="0.56" stop-color="#FBFCFB"/>
<stop offset="1" stop-color="#F8F9F8"/>
</linearGradient>
</defs>
</svg>
