<svg width="23" height="19" viewBox="0 0 23 19" fill="none" xmlns="http://www.w3.org/2000/svg">
<path d="M21.1719 0.789062C19.0234 0.90625 14.7656 1.33594 12.1484 2.9375C11.9531 3.05469 11.8359 3.25 11.8359 3.44531V17.6641C11.8359 18.1328 12.3438 18.4062 12.7734 18.2109C15.4688 16.8438 19.375 16.4531 21.2891 16.375C21.9531 16.3359 22.4609 15.7891 22.4609 15.1641V1.96094C22.5 1.29688 21.875 0.75 21.1719 0.789062ZM10.3125 2.9375C7.69531 1.33594 3.4375 0.90625 1.28906 0.789062C0.585938 0.75 0 1.29688 0 1.96094V15.1641C0 15.7891 0.507812 16.3359 1.17188 16.375C3.08594 16.4531 6.99219 16.8438 9.6875 18.2109C10.1172 18.4062 10.625 18.1328 10.625 17.6641V3.44531C10.625 3.25 10.5078 3.05469 10.3125 2.9375Z"/>
</svg>
