<svg width="24" height="24" viewBox="0 0 24 24" fill="none" xmlns="http://www.w3.org/2000/svg">
<g clip-path="url(#clip0_2618_8624)">
<path d="M9.18426 24C9.89043 24 10.4475 23.6998 10.8345 23.0982L23.5994 2.82342C23.8854 2.36738 24 1.98579 24 1.61026C24 0.657497 23.3424 0 22.3975 0C21.7272 0 21.338 0.229682 20.9315 0.879981L9.12995 19.9825L3.04846 12.0155C2.65273 11.4814 2.23745 11.2578 1.65079 11.2578C0.681176 11.2578 0 11.9494 0 12.9046C0 13.315 0.150468 13.7296 0.489154 14.1488L7.52506 23.1177C7.99357 23.7146 8.5001 24 9.18426 24Z" fill="white"/>
</g>
<defs>
<clipPath id="clip0_2618_8624">
<rect width="24" height="24" fill="white"/>
</clipPath>
</defs>
</svg>
