<svg width="37" height="65" viewBox="0 0 37 65" fill="none" xmlns="http://www.w3.org/2000/svg">
<g clip-path="url(#clip0_890_1932)">
<path d="M37 32.5187C37 31.5832 36.6632 30.7599 35.9522 30.049L6.27748 1.04763C5.64135 0.374374 4.81806 0.0375519 3.84515 0.0375519C1.89923 0.0375519 0.402416 1.49673 0.402416 3.44257C0.402416 4.41587 0.814037 5.23896 1.41277 5.87506L28.6552 32.5187L1.41277 59.1623C0.814037 59.7985 0.402416 60.6592 0.402416 61.5947C0.402416 63.5406 1.89923 65 3.84515 65C4.81806 65 5.64135 64.6632 6.27748 64.0271L35.9522 34.9885C36.6632 34.3149 37 33.4543 37 32.5187Z" fill="current"/>
</g>
<defs>
<clipPath id="clip0_890_1932">
<rect width="36.5976" height="65" fill="white" transform="matrix(-1 0 0 -1 37 65)"/>
</clipPath>
</defs>
</svg>
