<svg width="11" height="7" viewBox="0 0 11 7" fill="none" xmlns="http://www.w3.org/2000/svg">
<g clip-path="url(#clip0_1010_2411)">
<path d="M0.263565 4.80335C0.0907833 4.97983 0 5.1975 0 5.4534C0 5.97404 0.415846 6.39759 0.931259 6.39759C1.1919 6.39759 1.43204 6.29169 1.61946 6.0976L5.611 1.9737H5.13366L9.11348 6.0976C9.3009 6.29464 9.54398 6.39759 9.79876 6.39759C10.3112 6.39759 10.73 5.97404 10.73 5.4534C10.73 5.19456 10.6421 4.9769 10.4635 4.80335L6.13521 0.352972C5.90092 0.114716 5.66079 0.00588285 5.36794 0C5.07508 0 4.83495 0.111774 4.59774 0.352972L0.263565 4.80335Z" fill="current" />
</g>
<defs>
<clipPath id="clip0_1010_2411">
<rect width="10.73" height="6.73" fill="white"/>
</clipPath>
</defs>
</svg>
