<svg width="11" height="7" viewBox="0 0 11 7" fill="none" xmlns="http://www.w3.org/2000/svg">
<g clip-path="url(#clip0_987_7126)">
<path d="M5.37013 6.73242C5.6631 6.72948 5.90333 6.62112 6.13771 6.3867L10.4678 1.95117C10.6465 1.77246 10.7344 1.56152 10.7344 1.30664C10.7344 0.785154 10.3155 0.363281 9.80275 0.363281C9.54787 0.363281 9.30763 0.46582 9.11719 0.662112L5.13575 4.77246H5.61329L1.62012 0.662112C1.42969 0.47168 1.19238 0.363281 0.931639 0.363281C0.416016 0.363281 0 0.785154 0 1.30664C0 1.5586 0.0908203 1.76953 0.263672 1.9541L4.59962 6.3867C4.83985 6.62694 5.07715 6.73242 5.37013 6.73242Z" fill="current" fillOpacity={0.87} />
</g>
<defs>
<clipPath id="clip0_987_7126">
<rect width="10.7344" height="6.73242" fill="white"/>
</clipPath>
</defs>
</svg>
