<svg width="24" height="24" viewBox="0 0 24 24" fill="none" xmlns="http://www.w3.org/2000/svg">
<g clip-path="url(#clip0_2086_3783)">
<path d="M12 8C11.8272 8 11.6682 8.07158 11.5438 8.20756L6.17972 13.8763C6.06221 14.0051 6 14.1626 6 14.3487C6 14.7137 6.26959 15 6.62903 15C6.80184 15 6.96083 14.9284 7.07834 14.8139L12 9.60327L16.9217 14.8139C17.0392 14.9284 17.1912 15 17.371 15C17.7305 15 18 14.7137 18 14.3487C18 14.1626 17.9378 14.0051 17.8134 13.8763L12.4562 8.20756C12.3249 8.07158 12.1728 8 12 8Z" fill="current"/>
</g>
<defs>
<clipPath id="clip0_2086_3783">
<rect width="24" height="24" fill="white" transform="matrix(0 -1 1 0 0 24)"/>
</clipPath>
</defs>
</svg>
