<svg viewBox="0 0 37 65" fill="none" xmlns="http://www.w3.org/2000/svg">
  <g clip-path="url(#clip0_890_1938)">
    <path d="M0 32.4813C0 33.4168 0.336788 34.2401 1.04779 34.951L30.7225 63.9524C31.3587 64.6256 32.1819 64.9624 33.1549 64.9624C35.1008 64.9624 36.5976 63.5033 36.5976 61.5574C36.5976 60.5841 36.186 59.761 35.5872 59.1249L8.34483 32.4813L35.5872 5.83766C36.186 5.20149 36.5976 4.34081 36.5976 3.4053C36.5976 1.45941 35.1008 0 33.1549 0C32.1819 0 31.3587 0.336787 30.7225 0.97294L1.04779 30.0115C0.336788 30.6851 0 31.5457 0 32.4813Z" fill="current"/>
  </g>
  <defs>
    <clipPath id="clip0_890_1938">
      <rect width="36.5976" height="65" fill="white"/>
    </clipPath>
  </defs>
</svg>
