<svg width="24" height="24" viewBox="0 0 24 24" fill="none" xmlns="http://www.w3.org/2000/svg">
<g clip-path="url(#clip0_2496_8329)">
<path d="M5.84706 13.2705H11.9882C12.447 13.2705 12.8118 12.9177 12.8118 12.447V4.51764C12.8118 4.05882 12.447 3.70588 11.9882 3.70588C11.5294 3.70588 11.1765 4.05882 11.1765 4.51764V11.6353H5.84706C5.37646 11.6353 5.02352 11.9882 5.02352 12.447C5.02352 12.9177 5.37646 13.2705 5.84706 13.2705ZM12 24C18.5647 24 24 18.5529 24 12C24 5.43529 18.5529 0 11.9882 0C5.43529 0 0 5.43529 0 12C0 18.5529 5.44705 24 12 24ZM12 22C6.44705 22 2.01176 17.5529 2.01176 12C2.01176 6.44705 6.43529 2 11.9882 2C17.5411 2 22 6.44705 22 12C22 17.5529 17.5529 22 12 22Z" fill="current"/>
</g>
<defs>
<clipPath id="clip0_2496_8329">
<rect width="24" height="24" fill="white"/>
</clipPath>
</defs>
</svg>
