<svg width="20" height="20" viewBox="0 0 20 20" fill="none" xmlns="http://www.w3.org/2000/svg">
<path d="M9.99102 1.66675C5.39102 1.66675 1.66602 5.40008 1.66602 10.0001C1.66602 14.6001 5.39102 18.3334 9.99102 18.3334C14.5993 18.3334 18.3327 14.6001 18.3327 10.0001C18.3327 5.40008 14.5993 1.66675 9.99102 1.66675ZM9.99935 16.6667C6.31602 16.6667 3.33268 13.6834 3.33268 10.0001C3.33268 6.31675 6.31602 3.33341 9.99935 3.33341C13.6827 3.33341 16.666 6.31675 16.666 10.0001C16.666 13.6834 13.6827 16.6667 9.99935 16.6667ZM10.416 5.83342H9.16602V10.8334L13.541 13.4584L14.166 12.4334L10.416 10.2084V5.83342Z" fill="#252641" fill-opacity="0.8"/>
</svg>
