<svg width="46" height="28" viewBox="0 0 46 28" fill="none" xmlns="http://www.w3.org/2000/svg">
<g clip-path="url(#clip0_890_2633)">
<path d="M25.1031 9.8829C25.1031 15.3819 28.8938 19.4418 33.9705 19.4418C36.5041 19.4418 38.6315 18.565 40.169 16.821H41.0103C40.0723 20.1089 36.7362 23.2444 31.9979 24.3785C31.35 24.55 30.8762 24.7502 30.5571 25.0837C30.2283 25.3792 30.0542 25.808 30.0542 26.3227C30.0542 27.2948 30.8665 28 31.9979 28C32.9939 28 33.6901 27.838 34.8892 27.4568C37.4034 26.6086 39.7919 25.1504 41.7065 23.1681C44.5108 20.29 46 16.4683 46 12.2083C46 4.50789 41.136 0.0284958 35.0439 0.0284958C29.329 0.0284958 25.1031 4.14563 25.1031 9.8829ZM0 9.8829C0 15.3819 3.80992 19.4418 8.86729 19.4418C11.4105 19.4418 13.5573 18.565 15.0658 16.821H15.9265C14.9691 20.1089 11.6426 23.2444 6.90431 24.3785C6.26603 24.55 5.7729 24.7502 5.46336 25.0837C5.13461 25.3792 4.96054 25.808 4.96054 26.3227C4.96054 27.2948 5.7729 28 6.89461 28C7.90996 28 8.58686 27.838 9.79571 27.4568C12.3001 26.6086 14.6982 25.1504 16.6226 23.1681C19.4076 20.29 20.8967 16.4683 20.8967 12.2083C20.8967 4.50789 16.0328 0.0284958 9.95038 0.0284958C4.22561 0.0284958 0 4.14563 0 9.8829Z" fill="#15294B"/>
</g>
<defs>
<clipPath id="clip0_890_2633">
<rect width="46" height="28" fill="white" transform="matrix(-1 0 0 -1 46 28)"/>
</clipPath>
</defs>
</svg>
