<svg width="24" height="24" viewBox="0 0 24 24" fill="none" xmlns="http://www.w3.org/2000/svg">
<g clip-path="url(#clip0_2496_8399)">
<path d="M6.75669 5.39852H8.64042V3.20997C8.64042 2.34044 9.10155 1.8485 10.0357 1.8485H14.0658V6.36428C14.0658 7.53177 14.6924 8.13901 15.8743 8.13901H20.1162V15.9512C20.1162 16.8285 19.6472 17.3126 18.713 17.3126H16.9123V19.1612H18.8774C20.9308 19.1612 22 18.0948 22 16.0661V8.5883C22 7.34797 21.7371 6.55601 20.9779 5.79215L16.183 1.00464C15.464 0.281917 14.5992 0 13.4925 0H9.87921C7.82586 0 6.75669 1.06464 6.75669 3.09505V5.39852ZM15.6381 6.13106V2.62103L19.6259 6.59601H16.1041C15.7745 6.59601 15.6381 6.45448 15.6381 6.13106ZM2 20.905C2 22.9431 3.06302 24 5.12253 24H14.1225C16.182 24 17.245 22.9337 17.245 20.905V13.6432C17.245 12.3795 17.0818 11.7883 16.2762 10.9824L11.0649 5.78951C10.2909 5.01451 9.63154 4.83883 8.47333 4.83883H5.12253C3.0709 4.83883 2 5.89574 2 7.93388V20.905ZM3.88374 20.7901V8.04107C3.88374 7.17927 4.34487 6.68732 5.28079 6.68732H8.23546V11.8523C8.23546 13.2041 8.91658 13.863 10.2767 13.863H15.3595V20.7901C15.3595 21.6673 14.8905 22.1515 13.9643 22.1515H5.27291C4.34487 22.1515 3.88374 21.6673 3.88374 20.7901ZM10.4628 12.2328C10.0661 12.2328 9.89672 12.0683 9.89672 11.6773V7.05001L15.0978 12.2328H10.4628Z" fill="current"/>
</g>
<defs>
<clipPath id="clip0_2496_8399">
<rect width="24" height="24" fill="white"/>
</clipPath>
</defs>
</svg>
