<svg width="24" height="24" viewBox="0 0 24 24" fill="none" xmlns="http://www.w3.org/2000/svg">
<g clip-path="url(#clip0_2622_8669)">
<path d="M4.61374 10.3881C7.12936 10.3881 9.22749 8.26434 9.22749 5.70494C9.22749 3.13465 7.12936 1 4.61374 1C2.08743 1 0 3.13465 0 5.70494C0 8.26434 2.09813 10.3881 4.61374 10.3881ZM4.0678 8.22078C3.843 8.22078 3.69314 8.10097 3.53257 7.91583L2.33364 6.44553C2.22659 6.32573 2.19447 6.19504 2.19447 6.02078C2.19447 5.70494 2.42998 5.45445 2.71901 5.45445C2.9224 5.45445 3.07226 5.54157 3.21143 5.72673L4.0464 6.80494L5.95184 3.6901C6.0803 3.49405 6.24087 3.38514 6.43355 3.38514C6.73329 3.38514 6.99019 3.62474 6.99019 3.89702C6.99019 4.0495 6.94738 4.18019 6.85104 4.34355L4.61374 7.91583C4.49599 8.11187 4.30331 8.22078 4.0678 8.22078ZM12.4282 6.53266H23.1758C23.6253 6.53266 24 6.17326 24 5.70494C24 5.24752 23.6253 4.88811 23.1758 4.88811H12.4282C11.9786 4.88811 11.6146 5.24752 11.6146 5.70494C11.6146 6.17326 11.9786 6.53266 12.4282 6.53266ZM12.4282 19.1227H23.1758C23.6253 19.1227 24 18.7633 24 18.3059C24 17.8376 23.6253 17.4782 23.1758 17.4782H12.4282C11.9786 17.4782 11.6146 17.8376 11.6146 18.3059C11.6146 18.7633 11.9786 19.1227 12.4282 19.1227ZM4.61374 23C7.12936 23 9.22749 20.8762 9.22749 18.3168C9.22749 15.7356 7.12936 13.6009 4.61374 13.6009C2.08743 13.6009 0 15.7356 0 18.3168C0 20.8762 2.09813 23 4.61374 23ZM4.0678 20.8326C3.843 20.8326 3.69314 20.7019 3.53257 20.5277L2.33364 19.0465C2.22659 18.9267 2.19447 18.796 2.19447 18.6218C2.19447 18.3059 2.42998 18.0663 2.71901 18.0663C2.9224 18.0663 3.07226 18.1425 3.21143 18.3386L4.0464 19.4168L5.95184 16.3019C6.0803 16.0951 6.24087 15.9861 6.43355 15.9861C6.73329 15.9861 6.99019 16.2257 6.99019 16.5088C6.99019 16.6614 6.94738 16.7812 6.85104 16.9446L4.61374 20.5168C4.49599 20.7237 4.30331 20.8326 4.0678 20.8326Z" fill="current"/>
</g>
<defs>
<clipPath id="clip0_2622_8669">
<rect width="24" height="24" fill="white"/>
</clipPath>
</defs>
</svg>
