<svg width="24" height="24" viewBox="0 0 24 24" fill="none" xmlns="http://www.w3.org/2000/svg">
  <g clip-path="url(#clip0_2099_4940)">
    <path d="M7.82439 6.01755H9.50638V4.42809C9.50638 3.97396 9.83162 3.66515 10.3334 3.66515H13.6603C14.162 3.66515 14.4873 3.97396 14.4873 4.42809V6.01755H16.1599V4.33726C16.1599 2.96578 15.24 2.12109 13.7531 2.12109H10.2312C8.74437 2.12109 7.82439 2.96578 7.82439 4.33726V6.01755ZM3.69842 7.09839H20.3045C20.6855 7.09839 21.0015 6.7805 21.0015 6.40811C21.0015 6.03571 20.6855 5.7269 20.3045 5.7269H3.69842C3.32671 5.7269 3.00146 6.03571 3.00146 6.40811C3.00146 6.78958 3.32671 7.09839 3.69842 7.09839ZM18.9199 6.90765H5.09233L5.69635 20.3681C5.74282 21.4944 6.43977 22.1211 7.58278 22.1211H16.4202C17.5725 22.1211 18.2694 21.4944 18.3159 20.3681L18.9199 6.90765ZM9.06033 19.5234C8.72578 19.5234 8.49346 19.3145 8.48418 18.9876L8.1961 9.09657C8.18681 8.77868 8.41913 8.5607 8.78154 8.5607C9.10679 8.5607 9.3484 8.7696 9.35769 9.08749L9.63648 18.9876C9.64576 19.3055 9.41345 19.5234 9.06033 19.5234ZM12.0061 19.5234C11.653 19.5234 11.4021 19.3055 11.4021 18.9876V9.09657C11.4021 8.77868 11.653 8.5607 12.0061 8.5607C12.3592 8.5607 12.6009 8.77868 12.6009 9.09657V18.9876C12.6009 19.3055 12.3592 19.5234 12.0061 19.5234ZM14.9426 19.5234C14.5895 19.5234 14.3572 19.3055 14.3665 18.9876L14.6452 9.09657C14.6546 8.7696 14.8962 8.5607 15.2214 8.5607C15.5745 8.5607 15.8161 8.77868 15.8068 9.09657L15.5188 18.9876C15.5094 19.3145 15.2772 19.5234 14.9426 19.5234Z" fill="current"/>
  </g>
  <defs>
    <clipPath id="clip0_2099_4940">
      <rect width="24" height="24" fill="white"/>
    </clipPath>
  </defs>
</svg>
