<svg width="24" height="24" viewBox="0 0 24 24" fill="none" xmlns="http://www.w3.org/2000/svg">
<g clip-path="url(#clip0_1108_2727)">
<path d="M5.14286 0C2.30357 0 0 2.01562 0 4.5V19.5C0 21.9844 2.30357 24 5.14286 24H20.5714H22.2857C23.2339 24 24 23.3297 24 22.5C24 21.6703 23.2339 21 22.2857 21V18C23.2339 18 24 17.3297 24 16.5V1.5C24 0.670312 23.2339 0 22.2857 0H20.5714H5.14286ZM5.14286 18H18.8571V21H5.14286C4.19464 21 3.42857 20.3297 3.42857 19.5C3.42857 18.6703 4.19464 18 5.14286 18ZM6.85714 6.75C6.85714 6.3375 7.24286 6 7.71429 6H18C18.4714 6 18.8571 6.3375 18.8571 6.75C18.8571 7.1625 18.4714 7.5 18 7.5H7.71429C7.24286 7.5 6.85714 7.1625 6.85714 6.75ZM7.71429 9H18C18.4714 9 18.8571 9.3375 18.8571 9.75C18.8571 10.1625 18.4714 10.5 18 10.5H7.71429C7.24286 10.5 6.85714 10.1625 6.85714 9.75C6.85714 9.3375 7.24286 9 7.71429 9Z" fill="current" />
</g>
<defs>
<clipPath id="clip0_1108_2727">
<rect width="24" height="24" fill="white"/>
</clipPath>
</defs>
</svg>
