<svg width="24" height="24" viewBox="0 0 24 24" fill="none" xmlns="http://www.w3.org/2000/svg">
<g clip-path="url(#clip0_2099_4946)">
<path d="M8.41705 13.6653L13.5515 9.41711L7.58375 3.33852C6.39694 2.14664 5.13436 2.14664 3.98121 3.31298L2.86173 4.44527C1.70858 5.61161 1.70858 6.88863 2.88698 8.0805L8.41705 13.6653ZM7.92044 10.0216L4.57883 6.65876C4.44415 6.52254 4.45257 6.30971 4.57883 6.16498C4.7135 6.03728 4.93235 6.05431 5.05019 6.16498L8.40022 9.55333C8.53489 9.68954 8.52647 9.89386 8.40022 10.0216C8.27396 10.1578 8.05512 10.1578 7.92044 10.0216ZM9.02308 8.92333L5.6899 5.52648C5.56364 5.39877 5.55522 5.19445 5.6899 5.05824C5.80773 4.93053 6.02658 4.92202 6.16125 5.05824L9.50286 8.42955C9.62912 8.55726 9.62912 8.77009 9.49445 8.92333C9.38502 9.04252 9.14934 9.05955 9.02308 8.92333ZM19.999 21.6338L20.9839 20.6378C21.1438 20.476 21.1101 20.2717 20.967 19.9993L19.4435 17.1643C19.292 16.8834 19.0059 16.6961 18.7281 16.6876L17.8358 16.645L13.4674 12.2265L11.6997 14.074L16.043 18.4669L16.0851 19.3693C16.0934 19.6332 16.2702 19.9312 16.5565 20.0759L19.3761 21.6338C19.6287 21.7616 19.8307 21.8042 19.999 21.6338ZM3.31626 20.8932C4.78084 22.3575 6.74204 22.3746 8.18137 20.9103C10.0331 19.0203 9.69645 16.8749 15.639 10.8899L14.9067 10.1408C8.42546 16.7216 9.41027 17.9475 7.32282 20.0589C6.38851 21.0124 5.12595 21.0209 4.14956 20.0503C3.18158 19.0543 3.19842 17.7858 4.1243 16.8408C6.22859 14.721 7.44066 15.7256 13.9387 9.17022L13.2064 8.42955C7.28915 14.44 5.16803 14.0995 3.29942 15.9639C1.84326 17.4198 1.86009 19.4119 3.31626 20.8932ZM13.7872 10.294C15.7147 12.2436 18.7869 12.3117 20.6556 10.4302C22.1706 8.89779 22.4316 6.47998 21.3037 4.52189L20.4872 5.3562C21.1943 6.82051 20.9586 8.5232 19.8643 9.63846C18.4419 11.0773 16.0851 11.0091 14.5784 9.50224C13.0802 7.98685 13.0212 5.58607 14.4522 4.15581C15.5464 3.04907 17.2551 2.81069 18.6608 3.53433L19.4856 2.70002C17.5665 1.56773 15.1845 1.82313 13.6693 3.36407C11.8091 5.23702 11.8681 8.34442 13.7872 10.294ZM16.3376 6.47146L17.5834 7.72294C18.2062 8.35293 19.0059 8.36996 19.595 7.76551L21.3626 5.96917L20.622 5.2285L19.0142 6.83754C18.7869 7.0674 18.5008 7.08443 18.2567 6.83754L17.2298 5.79039C16.9857 5.53499 16.9604 5.23702 17.1877 5.00715L18.8122 3.38109L18.0463 2.6319L16.2955 4.41122C15.6727 5.03269 15.6895 5.83296 16.3376 6.47146ZM5.71514 19.5396C6.28751 19.5396 6.75887 19.0628 6.75887 18.4839C6.75887 17.905 6.28751 17.4368 5.71514 17.4368C5.14278 17.4368 4.67984 17.905 4.67984 18.4839C4.67984 19.0628 5.14278 19.5396 5.71514 19.5396Z" fill="current"/>
</g>
<defs>
<clipPath id="clip0_2099_4946">
<rect width="24" height="24" fill="white"/>
</clipPath>
</defs>
</svg>
