<svg width="892" height="300" viewBox="0 0 892 300" fill="none" xmlns="http://www.w3.org/2000/svg">
<g clip-path="url(#clip0_2996_10300)">
<path d="M304.88 171.24L183.41 292.72L168.66 277.97L253.09 193.54L182.22 122.67L196.96 107.92L267.83 178.8L275.39 171.25L187.45 83.3101L202.19 68.5601L290.13 156.5H290.14L304.88 171.24Z" fill="#0F2D85"/>
<path d="M4.88086 128.76L19.6309 143.51L107.581 231.45L122.321 216.71L34.3708 128.76L41.9209 121.21L106.831 186.12L121.571 171.38L56.6709 106.47L141.101 22.0301L126.361 7.29004L41.9209 91.72L27.1808 106.47L19.6309 114.02L4.88086 128.76Z" fill="#0F2D85"/>
<path d="M136.98 285.25L224.92 197.31L210.17 182.57L122.24 270.51L114.68 262.96L180.92 196.72L166.18 181.98L99.9398 248.22L15.4998 163.78L0.759766 178.52L85.1898 262.96L99.9398 277.7L107.49 285.26L122.23 300L136.98 285.25Z" fill="#0F2D85"/>
<path d="M309.01 121.48L187.53 0L172.79 14.75H172.8L84.8496 102.7L99.5896 117.44L187.54 29.5L195.09 37.05L130.98 101.16L145.72 115.91L209.83 51.79L294.26 136.22L309.01 121.48Z" fill="#0F2D85"/>
<path d="M398 203.1V102.1H467V121.93H422.46V142.65H462.61V162.53H422.46V203.1H398Z" fill="#0F2D85"/>
<path d="M509.129 204.53C501.209 204.53 494.376 202.96 488.629 199.82C482.969 196.761 478.362 192.067 475.409 186.35C472.343 180.516 470.806 173.573 470.799 165.52C470.644 158.403 472.237 151.357 475.439 145C478.394 139.273 482.931 134.515 488.509 131.29C494.578 127.906 501.443 126.21 508.389 126.38C513.434 126.32 518.448 127.174 523.189 128.9C527.549 130.499 531.503 133.039 534.769 136.34C538.138 139.807 540.729 143.952 542.369 148.5C544.255 153.793 545.173 159.382 545.079 165V171H479.239V157H522.639C522.652 154.595 522.024 152.231 520.819 150.15C519.658 148.164 517.978 146.533 515.959 145.43C513.738 144.296 511.276 143.713 508.782 143.731C506.288 143.748 503.835 144.365 501.629 145.53C499.539 146.685 497.788 148.367 496.549 150.41C495.27 152.523 494.579 154.94 494.549 157.41V171.67C494.483 174.485 495.108 177.273 496.369 179.79C497.54 182.051 499.338 183.927 501.549 185.19C504 186.524 506.76 187.186 509.549 187.11C511.525 187.135 513.491 186.834 515.369 186.22C517.035 185.676 518.566 184.782 519.859 183.6C521.125 182.435 522.09 180.98 522.669 179.36L544.819 180.01C544.004 184.797 541.933 189.283 538.819 193.01C535.512 196.813 531.318 199.742 526.609 201.54C521.028 203.646 515.094 204.661 509.129 204.53Z" fill="#0F2D85"/>
<path d="M623.61 150.47L601.46 151.06C601.238 149.511 600.591 148.054 599.59 146.85C598.509 145.572 597.138 144.57 595.59 143.93C593.535 143.137 591.336 142.782 589.135 142.889C586.934 142.995 584.78 143.561 582.81 144.55C581.948 144.954 581.218 145.596 580.708 146.4C580.198 147.204 579.928 148.138 579.93 149.09C579.913 149.825 580.066 150.553 580.377 151.219C580.687 151.885 581.147 152.471 581.72 152.93C582.96 154.023 585.174 154.897 588.36 155.55L602.96 158.31C610.52 159.763 616.154 162.167 619.86 165.52C623.567 168.874 625.43 173.31 625.45 178.83C625.512 183.748 623.885 188.538 620.84 192.4C617.554 196.443 613.259 199.547 608.39 201.4C602.63 203.609 596.499 204.689 590.33 204.58C579.51 204.58 570.984 202.354 564.75 197.9C561.776 195.866 559.279 193.208 557.435 190.112C555.591 187.015 554.443 183.555 554.07 179.97L577.9 179.38C578.106 180.659 578.576 181.88 579.28 182.966C579.984 184.053 580.907 184.981 581.99 185.69C584.529 187.229 587.465 187.984 590.43 187.86C593.056 187.97 595.664 187.372 597.98 186.13C598.848 185.71 599.586 185.062 600.115 184.256C600.643 183.449 600.942 182.514 600.98 181.55C600.974 180.729 600.764 179.922 600.367 179.203C599.971 178.483 599.401 177.874 598.71 177.43C596.567 176.148 594.185 175.315 591.71 174.98L578.48 172.47C570.88 171.09 565.214 168.533 561.48 164.8C559.633 162.915 558.194 160.67 557.251 158.205C556.308 155.74 555.883 153.107 556 150.47C555.83 145.81 557.24 141.229 560 137.47C563.02 133.665 567.061 130.8 571.65 129.21C577.362 127.188 583.393 126.219 589.45 126.35C599.71 126.35 607.8 128.497 613.72 132.79C616.598 134.798 618.983 137.432 620.696 140.494C622.409 143.556 623.405 146.967 623.61 150.47Z" fill="#0F2D85"/>
<path d="M703.46 150.47L681.32 151.06C681.098 149.509 680.447 148.051 679.44 146.85C678.363 145.567 676.99 144.565 675.44 143.93C673.384 143.137 671.185 142.782 668.984 142.889C666.783 142.995 664.629 143.561 662.66 144.55C661.797 144.954 661.068 145.596 660.558 146.4C660.048 147.204 659.778 148.138 659.78 149.09C659.767 149.825 659.923 150.553 660.235 151.219C660.547 151.884 661.007 152.47 661.58 152.93C662.813 154.023 665.027 154.897 668.22 155.55L682.81 158.31C690.377 159.763 696.01 162.167 699.71 165.52C703.41 168.874 705.277 173.31 705.31 178.83C705.372 183.748 703.745 188.538 700.7 192.4C697.409 196.443 693.112 199.547 688.24 201.4C682.499 203.603 676.388 204.683 670.24 204.58C659.42 204.58 650.893 202.354 644.66 197.9C641.681 195.86 639.184 193.194 637.343 190.088C635.502 186.983 634.361 183.512 634 179.92L657.83 179.33C658.036 180.609 658.505 181.83 659.21 182.916C659.914 184.003 660.837 184.931 661.92 185.64C664.458 187.179 667.394 187.934 670.36 187.81C672.986 187.919 675.593 187.321 677.91 186.08C678.78 185.663 679.52 185.016 680.049 184.208C680.577 183.401 680.875 182.465 680.91 181.5C680.909 180.679 680.701 179.871 680.306 179.152C679.911 178.432 679.342 177.823 678.65 177.38C676.507 176.098 674.125 175.265 671.65 174.93L658.43 172.42C650.83 171.04 645.163 168.483 641.43 164.75C639.582 162.874 638.139 160.639 637.189 158.183C636.24 155.726 635.804 153.101 635.91 150.47C635.74 145.81 637.15 141.229 639.91 137.47C642.929 133.665 646.97 130.8 651.56 129.21C657.271 127.188 663.302 126.219 669.36 126.35C679.62 126.35 687.71 128.497 693.63 132.79C696.499 134.802 698.874 137.438 700.576 140.501C702.279 143.563 703.265 146.972 703.46 150.47Z" fill="#0F2D85"/>
<path d="M729.31 118.5C726.055 118.565 722.904 117.356 720.53 115.13C719.382 114.107 718.463 112.853 717.833 111.45C717.204 110.047 716.879 108.527 716.879 106.99C716.879 105.452 717.204 103.932 717.833 102.529C718.463 101.126 719.382 99.8723 720.53 98.8497C722.923 96.6742 726.041 95.4688 729.275 95.4688C732.509 95.4688 735.627 96.6742 738.02 98.8497C739.154 99.8807 740.06 101.137 740.681 102.539C741.301 103.941 741.621 105.457 741.621 106.99C741.621 108.523 741.301 110.039 740.681 111.44C740.06 112.842 739.154 114.099 738.02 115.13C735.671 117.352 732.543 118.562 729.31 118.5ZM717.18 203.1V127.33H741.29V203.1H717.18Z" fill="#0F2D85"/>
<path d="M792 204.53C784.04 204.53 777.21 202.893 771.51 199.62C765.877 196.429 761.297 191.664 758.33 185.91C755.301 179.511 753.73 172.52 753.73 165.44C753.73 158.361 755.301 151.369 758.33 144.97C761.297 139.216 765.877 134.452 771.51 131.26C777.21 127.993 784.04 126.357 792 126.35C799.96 126.343 806.793 127.98 812.5 131.26C818.114 134.47 822.672 139.244 825.62 145C828.649 151.399 830.22 158.391 830.22 165.47C830.22 172.55 828.649 179.541 825.62 185.94C822.654 191.692 818.078 196.456 812.45 199.65C806.743 202.91 799.927 204.537 792 204.53ZM792.15 186.33C794.847 186.399 797.472 185.449 799.5 183.67C801.654 181.646 803.243 179.096 804.11 176.27C806.243 169.092 806.243 161.448 804.11 154.27C803.249 151.442 801.659 148.89 799.5 146.87C797.474 145.087 794.848 144.137 792.15 144.21C789.384 144.126 786.685 145.074 784.58 146.87C782.379 148.87 780.759 151.426 779.89 154.27C777.757 161.448 777.757 169.092 779.89 176.27C780.764 179.111 782.384 181.667 784.58 183.67C786.675 185.45 789.352 186.397 792.1 186.33H792.15Z" fill="#0F2D85"/>
<path d="M842.609 203.1V127.33H865.999V141.15H866.789C868.169 136.15 870.423 132.424 873.549 129.97C876.653 127.53 880.502 126.234 884.449 126.3C885.606 126.306 886.761 126.379 887.909 126.52C889.026 126.655 890.129 126.879 891.209 127.19V148.19C889.74 147.733 888.229 147.418 886.699 147.25C885.041 147.035 883.371 146.921 881.699 146.91C879.005 146.868 876.346 147.522 873.979 148.81C871.733 150.039 869.87 151.867 868.599 154.09C867.263 156.512 866.594 159.245 866.659 162.01V203.1H842.609Z" fill="#0F2D85"/>
</g>
<defs>
<clipPath id="clip0_2996_10300">
<rect width="892" height="300" fill="white"/>
</clipPath>
</defs>
</svg>
