<?xml version="1.0" standalone="no"?>
<!DOCTYPE svg PUBLIC "-//W3C//DTDSVG20010904//EN"  "http://www.w3.org/TR/2001/REC-SVG-20010904/DTD/svg10.dtd">
<svg version="1.0" xmlns="http://www.w3.org/2000/svg" width="1856.000000pt" height="626.000000pt" viewBox="0 0 1856.000000 626.000000" preserveAspectRatio="xMidYMid meet">

  <g transform="translate(0.000000,626.000000) scale(0.100000,-0.100000)" fill="#0B2878" stroke="none">
    <path d="M2825 5190 l-1070 -1070 155 -155 155 -155 915 915 915 915 78 -77
      77 -78 -667 -667 -668 -668 150 -150 c82 -82 154 -150 160 -150 5 0 308 298
      672 662 l663 663 880 -880 880 -880 150 150 c82 82 150 154 150 160 0 5 -568
      578 -1263 1273 l-1262 1262 -1070 -1070z"/>
    <path d="M1357 4842 l-1267 -1267 1070 -1070 1070 -1070 155 155 155 155 -915
      915 -915 915 77 78 78 77 675 -675 675 -675 155 155 155 155 -675 675 -675
      675 880 880 880 880 -155 155 -155 155 -1268 -1268z"/>
    <path d="M4047 4682 c-81 -81 -147 -152 -147 -157 0 -6 411 -421 912 -922
      l913 -913 -78 -77 -77 -78 -740 740 -740 740 -150 -150 c-82 -82 -150 -154
      -150 -160 0 -5 331 -341 735 -745 l735 -735 -875 -875 c-481 -481 -875 -880
      -875 -885 0 -6 68 -78 150 -160 l150 -150 1268 1268 1267 1267 -1070 1070
      c-588 588 -1072 1070 -1075 1070 -3 0 -72 -66 -153 -148z"/>
    <path d="M15095 4257 c-92 -37 -149 -99 -164 -180 -17 -96 20 -185 100 -239
      199 -134 461 35 400 258 -14 51 -71 119 -125 146 -49 25 -166 34 -211 15z"/>
    <path d="M8280 3080 l0 -1050 255 0 255 0 0 420 0 420 418 2 417 3 3 208 2
      207 -420 0 -420 0 0 215 0 215 465 0 465 0 0 205 0 205 -720 0 -720 0 0 -1050z"/>
    <path d="M10447 3619 c-245 -32 -451 -177 -561 -396 -97 -194 -114 -508 -40
      -733 78 -236 256 -399 509 -466 106 -28 399 -26 507 4 94 26 204 80 272 133
      93 73 177 205 200 315 l7 31 -152 6 c-84 4 -186 7 -228 7 l-76 0 -35 -47 c-24
      -33 -53 -57 -95 -78 -54 -27 -70 -30 -150 -30 -70 1 -100 5 -136 22 -54 24
      -111 79 -138 131 -22 42 -45 157 -36 172 4 6 199 10 532 10 l526 0 -7 131 c-8
      155 -24 248 -60 343 -123 327 -442 496 -839 445z m268 -383 c87 -40 143 -112
      160 -208 l7 -38 -295 0 -294 0 7 38 c12 60 27 89 72 138 61 67 124 94 218 94
      58 0 87 -6 125 -24z"/>
    <path d="M12121 3619 c-239 -28 -433 -140 -504 -291 -75 -158 -50 -367 57
      -486 89 -98 190 -139 479 -196 122 -24 241 -52 265 -61 111 -45 122 -147 20
      -205 -38 -22 -54 -25 -148 -25 -89 0 -111 3 -146 22 -47 25 -84 66 -103 112
      l-13 31 -128 0 c-70 0 -181 -3 -247 -6 l-120 -7 8 -41 c40 -213 210 -374 464
      -438 78 -19 115 -22 280 -22 213 0 286 14 420 78 196 93 300 234 312 422 12
      175 -64 301 -229 381 -85 41 -141 56 -380 102 -212 40 -267 57 -305 93 -53 50
      -34 132 40 169 51 27 163 36 225 19 53 -14 127 -79 142 -125 l11 -33 227 5
      c125 3 229 7 231 10 11 9 -22 133 -51 192 -109 226 -427 344 -807 300z"/>
    <path d="M13782 3619 c-280 -33 -474 -165 -527 -362 -26 -96 -18 -232 18 -310
      78 -170 195 -235 545 -301 106 -21 216 -44 243 -53 109 -36 144 -122 75 -187
      -18 -18 -51 -37 -73 -44 -57 -17 -171 -15 -228 4 -58 20 -120 80 -130 125 l-7
      32 -245 -6 c-135 -3 -248 -8 -251 -11 -3 -3 0 -31 7 -61 33 -147 143 -281 291
      -353 146 -72 215 -85 440 -86 173 0 205 2 279 22 232 63 390 193 442 363 30
      99 24 231 -13 311 -70 149 -200 216 -553 283 -240 45 -285 58 -324 94 -25 23
      -31 37 -31 69 0 81 81 132 209 132 111 0 212 -64 228 -143 l6 -30 81 7 c45 3
      147 6 229 6 l147 0 0 35 c0 45 -33 145 -67 198 -126 205 -432 308 -791 266z"/>
    <path d="M16357 3619 c-321 -37 -559 -248 -639 -564 -31 -126 -31 -371 1 -490
      95 -359 375 -565 766 -565 303 1 529 111 670 324 161 247 175 647 32 921 -51
      98 -171 222 -267 278 -149 86 -353 121 -563 96z m268 -407 c45 -31 98 -112
      122 -187 24 -75 29 -292 9 -378 -42 -180 -144 -275 -285 -265 -145 10 -236
      130 -262 346 -26 206 35 407 147 485 75 52 193 52 269 -1z"/>
    <path d="M18319 3617 c-123 -35 -216 -128 -258 -259 -7 -21 -17 -38 -22 -38
      -5 0 -9 63 -9 145 l0 145 -242 -2 -243 -3 -3 -787 -2 -788 255 0 254 0 3 478
      3 477 27 51 c31 60 84 109 147 138 51 22 167 28 274 13 l57 -8 0 214 c0 195
      -2 215 -17 222 -36 13 -178 15 -224 2z"/>
    <path d="M14930 2820 l0 -790 250 0 250 0 0 790 0 790 -250 0 -250 0 0 -790z"/>
    <path d="M155 2690 l-150 -150 1265 -1265 1265 -1265 1070 1070 1070 1070
    -153 152 -152 153 -915 -915 -915 -915 -77 78 -78 77 690 690 690 690 -155
    155 -155 155 -690 -690 -690 -690 -875 875 c-481 481 -880 875 -885 875 -6 0
    -78 -68 -160 -150z"/>
  </g>
</svg>
