<svg id="Layer_1" data-name="Layer 1" xmlns="http://www.w3.org/2000/svg" viewBox="0 0 1080 280"><defs><style>.cls-1{fill:current;}</style></defs><path class="cls-1" d="M312.93,221.49v-155H418.75V96.89H350.4v31.8H412v30.5H350.4v62.3Z"/><path class="cls-1" d="M483.41,223.68q-18.26,0-31.46-7.22a49.15,49.15,0,0,1-20.29-20.67q-7.08-13.42-7.07-32,0-18,7.11-31.53a51.63,51.63,0,0,1,20.06-21q12.94-7.53,30.51-7.53A64.32,64.32,0,0,1,505,107.57,48.66,48.66,0,0,1,522.76,119a52.1,52.1,0,0,1,11.66,18.65,72.12,72.12,0,0,1,4.16,25.4v9.23H437.53V150.79h66.61a20.77,20.77,0,0,0-2.8-10.52,19.31,19.31,0,0,0-7.45-7.23,23.86,23.86,0,0,0-22,.15,20.86,20.86,0,0,0-7.8,7.49,21.28,21.28,0,0,0-3,10.71v21.88a26.44,26.44,0,0,0,2.8,12.46,20.07,20.07,0,0,0,8,8.29A24.3,24.3,0,0,0,484.09,197,27.62,27.62,0,0,0,493,195.6a19,19,0,0,0,6.89-4,16.55,16.55,0,0,0,4.31-6.51l34,1a42,42,0,0,1-9.27,19.87A47,47,0,0,1,510.2,219Q498.62,223.68,483.41,223.68Z"/><path class="cls-1" d="M659.09,140.72l-34,.91a13,13,0,0,0-2.88-6.47,16,16,0,0,0-6.09-4.47,24.21,24.21,0,0,0-19.61.95c-3,1.71-4.48,4-4.42,7a7.36,7.36,0,0,0,2.76,5.9q2.83,2.5,10.18,4l22.4,4.23q17.43,3.34,25.94,11.06T662,184.25a32.94,32.94,0,0,1-7.08,20.82q-7,8.85-19.11,13.73t-27.71,4.88q-24.92,0-39.25-10.25a38.09,38.09,0,0,1-16.4-27.51L589,185a14.26,14.26,0,0,0,6.28,9.69q5.07,3.33,13,3.33,7.11,0,11.58-2.65c3-1.77,4.49-4.11,4.54-7a7.56,7.56,0,0,0-3.48-6.32q-3.4-2.4-10.67-3.76L589.9,174.4q-17.49-3.18-26-11.77t-8.47-21.91q-.07-11.65,6.2-19.94t17.87-12.68q11.58-4.39,27.32-4.39,23.61,0,37.25,9.88T659.09,140.72Z"/><path class="cls-1" d="M781.64,140.72l-34,.91a13,13,0,0,0-2.88-6.47,16,16,0,0,0-6.09-4.47,24.21,24.21,0,0,0-19.61.95c-3,1.71-4.49,4-4.43,7a7.34,7.34,0,0,0,2.77,5.9q2.83,2.5,10.18,4l22.4,4.23q17.41,3.34,25.93,11.06t8.59,20.44a32.94,32.94,0,0,1-7.08,20.82q-7,8.85-19.11,13.73t-27.7,4.88q-24.93,0-39.26-10.25A38,38,0,0,1,675,185.92l36.56-.91a14.24,14.24,0,0,0,6.29,9.69Q722.9,198,730.78,198q7.11,0,11.58-2.65c3-1.77,4.49-4.11,4.54-7a7.56,7.56,0,0,0-3.48-6.32q-3.4-2.4-10.67-3.76l-20.3-3.86q-17.49-3.18-26-11.77t-8.47-21.91q-.08-11.65,6.2-19.94T702,108.1q11.58-4.39,27.33-4.39,23.61,0,37.24,9.88T781.64,140.72Z"/><path class="cls-1" d="M821.31,91.66a19.1,19.1,0,0,1-13.47-5.18,16.73,16.73,0,0,1,0-25,20,20,0,0,1,26.83,0,16.81,16.81,0,0,1,0,25A18.88,18.88,0,0,1,821.31,91.66ZM802.69,221.49V105.22h37V221.49Z"/><path class="cls-1" d="M917.44,223.68q-18.32,0-31.45-7.53a51.06,51.06,0,0,1-20.22-21q-7.08-13.5-7.07-31.38t7.07-31.45a51.06,51.06,0,0,1,20.22-21q13.14-7.53,31.45-7.53t31.45,7.53a51.12,51.12,0,0,1,20.22,21q7.08,13.51,7.07,31.45t-7.07,31.38a51.12,51.12,0,0,1-20.22,21Q935.75,223.7,917.44,223.68Zm.23-27.92A16.45,16.45,0,0,0,929,191.67,25.92,25.92,0,0,0,936,180.31a52.44,52.44,0,0,0,2.46-16.81A52.86,52.86,0,0,0,936,146.55,25.92,25.92,0,0,0,929,135.19a16.44,16.44,0,0,0-11.28-4.08,17.17,17.17,0,0,0-11.62,4.08,25.38,25.38,0,0,0-7.19,11.36,52.86,52.86,0,0,0-2.46,16.95,52.44,52.44,0,0,0,2.46,16.81,25.38,25.38,0,0,0,7.19,11.36A17.18,17.18,0,0,0,917.67,195.76Z"/><path class="cls-1" d="M995.18,221.49V105.22h36v21.2h1.21q3.18-11.51,10.37-17.15a26.39,26.39,0,0,1,16.74-5.64,44.14,44.14,0,0,1,5.3.34,32.21,32.21,0,0,1,5.07,1v32.16a36.27,36.27,0,0,0-6.92-1.44,63.45,63.45,0,0,0-7.61-.53,24.15,24.15,0,0,0-11.86,2.92,21.27,21.27,0,0,0-8.25,8.1,23.89,23.89,0,0,0-3,12.15v63.13Z"/><polygon class="cls-1" points="246.85 161.78 148.63 260 136.71 248.08 204.97 179.82 147.67 122.51 159.59 110.59 216.89 167.9 223 161.79 151.9 90.69 163.82 78.77 234.92 149.87 234.93 149.86 246.85 161.78"/><polygon class="cls-1" points="13.52 118.22 25.44 130.14 25.44 130.14 96.55 201.24 108.47 189.32 37.36 118.22 43.47 112.11 95.94 164.59 107.86 152.67 55.38 100.19 123.65 31.92 111.73 20 43.46 88.27 43.46 88.27 31.54 100.19 31.54 100.19 25.44 106.3 25.44 106.3 13.52 118.21 13.52 118.21 13.52 118.22"/><polygon class="cls-1" points="120.32 244.74 191.42 173.64 179.5 161.72 108.4 232.82 102.29 226.72 155.84 173.16 143.93 161.24 90.37 214.8 22.1 146.53 10.18 158.45 78.45 226.72 78.45 226.72 90.37 238.64 90.37 238.64 96.48 244.74 96.48 244.74 108.39 256.66 108.4 256.66 108.4 256.66 120.32 244.74 120.32 244.74"/><polygon class="cls-1" points="250.18 121.55 151.97 23.33 140.04 35.26 140.05 35.26 68.94 106.37 80.86 118.29 151.97 47.18 158.08 53.29 106.24 105.13 118.16 117.05 170 65.21 238.26 133.47 250.18 121.55"/></svg>