<svg width="24" height="24" viewBox="0 0 24 24" fill="none" xmlns="http://www.w3.org/2000/svg">
<g clip-path="url(#clip0_1150_3914)">
<path d="M11.9971 24C18.5865 24 24 18.5853 24 12C24 5.40909 18.5808 0 11.9914 0C5.41349 0 0 5.40909 0 12C0 18.5853 5.41916 24 11.9971 24ZM11.6961 14.2329C10.7531 14.2329 10.2248 13.8239 10.2248 13.0454C10.2248 13.017 10.2248 12.9886 10.2248 12.9602C10.2248 12.0284 10.8156 11.4489 11.6506 10.8636C12.605 10.2045 13.1048 9.875 13.1048 9.21023C13.1048 8.59091 12.5652 8.10227 11.8153 8.10227C11.2417 8.10227 10.7815 8.35227 10.4009 8.92046L10.2646 9.10228C9.99195 9.45455 9.62271 9.64204 9.13988 9.64204C8.4923 9.64204 7.98106 9.15341 7.98106 8.50568C7.98106 8.25569 8.03786 8.03977 8.12307 7.81818C8.57751 6.6591 10.0317 5.79546 12.0823 5.79546C14.3659 5.79546 16.212 7.04546 16.212 9.04546C16.212 10.3693 15.5588 11.0398 14.3318 11.8181C13.6616 12.2499 13.1844 12.6421 13.0821 13.1818C13.0764 13.2102 13.0708 13.2671 13.0651 13.3182C12.9741 13.8409 12.4459 14.2329 11.6961 14.2329ZM11.6904 18.0738C10.7872 18.0738 10.0715 17.5 10.0715 16.6307C10.0715 15.7727 10.7815 15.1818 11.6904 15.1818C12.5993 15.1818 13.2866 15.7727 13.2866 16.6307C13.2866 17.5056 12.5936 18.0738 11.6904 18.0738Z" fill="current" fill-opacity="0.87"/>
</g>
<defs>
<clipPath id="clip0_1150_3914">
<rect width="24" height="24" fill="white"/>
</clipPath>
</defs>
</svg>
