<svg width="24" height="24" viewBox="0 0 24 24" fill="none" xmlns="http://www.w3.org/2000/svg">
<g clip-path="url(#clip0_1008_2364)">
<path d="M14.5504 19.7061H9.4448V13.3426C9.4448 12.8562 9.74765 12.5421 10.2019 12.5421H13.8029C14.2571 12.5421 14.5504 12.8562 14.5504 13.3426V19.7061ZM3.25079 19.8125C3.25079 21.3527 4.21136 22.3204 5.73029 22.3204H18.2744C19.7934 22.3204 20.7445 21.3527 20.7445 19.8125V12.6333L12.6152 5.32235C12.2319 4.97783 11.7728 4.9829 11.3943 5.32235L3.25079 12.6333V19.8125ZM0 10.5915C0 11.3059 0.48265 11.843 1.23975 11.843C1.58517 11.843 1.92587 11.6605 2.21452 11.4022L11.4843 3.0779C11.8202 2.76884 12.194 2.76884 12.5347 3.0779L21.7903 11.4022C22.0789 11.6605 22.4196 11.843 22.765 11.843C23.4843 11.843 24 11.3616 24 10.6067C24 10.1963 23.825 9.8214 23.5126 9.53767L13.6657 0.676376C12.6625 -0.225459 11.3612 -0.225459 10.3533 0.676376L0.492114 9.54274C0.175079 9.83153 0 10.2216 0 10.5915ZM17.631 5.08422L20.8344 7.95693V2.69284C20.8344 2.21659 20.5505 1.9126 20.1057 1.9126H18.3644C17.9243 1.9126 17.631 2.21659 17.631 2.69284V5.08422Z" fill="current" fill-opacity="0.87"/>
</g>
<defs>
<clipPath id="clip0_1008_2364">
<rect width="24" height="24" fill="white"/>
</clipPath>
</defs>
</svg>
