<svg width="24" height="24" viewBox="0 0 24 24" fill="none" xmlns="http://www.w3.org/2000/svg">
<g clip-path="url(#clip0_1098_2686)">
<path d="M11.9971 24C18.5865 24 24 18.5853 24 12C24 5.40909 18.5808 0 11.9914 0C5.41349 0 0 5.40909 0 12C0 18.5853 5.41916 24 11.9971 24ZM9.84994 18.4773C9.22508 18.4773 8.73657 18.034 8.73657 17.3864C8.73657 16.7955 9.22508 16.3181 9.84994 16.3181H11.1678V12.1591H10.0772C9.44662 12.1591 8.96378 11.716 8.96378 11.0739C8.96378 10.4773 9.44662 10 10.0772 10H12.3891C13.1958 10 13.6047 10.5511 13.6047 11.3977V16.3181H14.6726C15.3032 16.3181 15.786 16.7955 15.786 17.3864C15.786 18.034 15.3032 18.4773 14.6726 18.4773H9.84994ZM11.9802 8.375C11.0087 8.375 10.2078 7.56819 10.2078 6.5966C10.2078 5.59091 11.0087 4.80682 11.9802 4.80682C12.9515 4.80682 13.7467 5.59091 13.7467 6.5966C13.7467 7.56819 12.9515 8.375 11.9802 8.375Z" fill="current" fill-opacity="0.87"/>
</g>
<defs>
<clipPath id="clip0_1098_2686">
<rect width="24" height="24" fill="white"/>
</clipPath>
</defs>
</svg>
