<svg width="166" height="57" viewBox="0 0 166 57" fill="none" xmlns="http://www.w3.org/2000/svg">
<g clip-path="url(#clip0_981_3486)">
<path d="M7.29492 36.752V39.875C7.18945 40.0312 7.02148 40.207 6.79102 40.4023C6.56055 40.5938 6.24219 40.7617 5.83594 40.9062C5.43359 41.0469 4.91406 41.1172 4.27734 41.1172C3.75781 41.1172 3.2793 41.0273 2.8418 40.8477C2.4082 40.6641 2.03125 40.3984 1.71094 40.0508C1.39453 39.6992 1.14844 39.2734 0.972656 38.7734C0.800781 38.2695 0.714844 37.6992 0.714844 37.0625V36.4004C0.714844 35.7637 0.789062 35.1953 0.9375 34.6953C1.08984 34.1953 1.3125 33.7715 1.60547 33.4238C1.89844 33.0723 2.25781 32.8066 2.68359 32.627C3.10938 32.4434 3.59766 32.3516 4.14844 32.3516C4.80078 32.3516 5.3457 32.4648 5.7832 32.6914C6.22461 32.9141 6.56836 33.2227 6.81445 33.6172C7.06445 34.0117 7.22461 34.4609 7.29492 34.9648H6.16406C6.11328 34.6562 6.01172 34.375 5.85938 34.1211C5.71094 33.8672 5.49805 33.6641 5.2207 33.5117C4.94336 33.3555 4.58594 33.2773 4.14844 33.2773C3.75391 33.2773 3.41211 33.3496 3.12305 33.4941C2.83398 33.6387 2.5957 33.8457 2.4082 34.1152C2.2207 34.3848 2.08008 34.7109 1.98633 35.0938C1.89648 35.4766 1.85156 35.9082 1.85156 36.3887V37.0625C1.85156 37.5547 1.9082 37.9941 2.02148 38.3809C2.13867 38.7676 2.30469 39.0977 2.51953 39.3711C2.73438 39.6406 2.99023 39.8457 3.28711 39.9863C3.58789 40.127 3.91992 40.1973 4.2832 40.1973C4.68555 40.1973 5.01172 40.1641 5.26172 40.0977C5.51172 40.0273 5.70703 39.9453 5.84766 39.8516C5.98828 39.7539 6.0957 39.6621 6.16992 39.5762V37.666H4.19531V36.752H7.29492ZM8.71875 37.9004V37.7656C8.71875 37.3086 8.78516 36.8848 8.91797 36.4941C9.05078 36.0996 9.24219 35.7578 9.49219 35.4688C9.74219 35.1758 10.0449 34.9492 10.4004 34.7891C10.7559 34.625 11.1543 34.543 11.5957 34.543C12.041 34.543 12.4414 34.625 12.7969 34.7891C13.1562 34.9492 13.4609 35.1758 13.7109 35.4688C13.9648 35.7578 14.1582 36.0996 14.291 36.4941C14.4238 36.8848 14.4902 37.3086 14.4902 37.7656V37.9004C14.4902 38.3574 14.4238 38.7812 14.291 39.1719C14.1582 39.5625 13.9648 39.9043 13.7109 40.1973C13.4609 40.4863 13.1582 40.7129 12.8027 40.877C12.4512 41.0371 12.0527 41.1172 11.6074 41.1172C11.1621 41.1172 10.7617 41.0371 10.4062 40.877C10.0508 40.7129 9.74609 40.4863 9.49219 40.1973C9.24219 39.9043 9.05078 39.5625 8.91797 39.1719C8.78516 38.7812 8.71875 38.3574 8.71875 37.9004ZM9.80273 37.7656V37.9004C9.80273 38.2168 9.83984 38.5156 9.91406 38.7969C9.98828 39.0742 10.0996 39.3203 10.248 39.5352C10.4004 39.75 10.5898 39.9199 10.8164 40.0449C11.043 40.166 11.3066 40.2266 11.6074 40.2266C11.9043 40.2266 12.1641 40.166 12.3867 40.0449C12.6133 39.9199 12.8008 39.75 12.9492 39.5352C13.0977 39.3203 13.209 39.0742 13.2832 38.7969C13.3613 38.5156 13.4004 38.2168 13.4004 37.9004V37.7656C13.4004 37.4531 13.3613 37.1582 13.2832 36.8809C13.209 36.5996 13.0957 36.3516 12.9434 36.1367C12.7949 35.918 12.6074 35.7461 12.3809 35.6211C12.1582 35.4961 11.8965 35.4336 11.5957 35.4336C11.2988 35.4336 11.0371 35.4961 10.8105 35.6211C10.5879 35.7461 10.4004 35.918 10.248 36.1367C10.0996 36.3516 9.98828 36.5996 9.91406 36.8809C9.83984 37.1582 9.80273 37.4531 9.80273 37.7656ZM15.5625 37.9004V37.7656C15.5625 37.3086 15.6289 36.8848 15.7617 36.4941C15.8945 36.0996 16.0859 35.7578 16.3359 35.4688C16.5859 35.1758 16.8887 34.9492 17.2441 34.7891C17.5996 34.625 17.998 34.543 18.4395 34.543C18.8848 34.543 19.2852 34.625 19.6406 34.7891C20 34.9492 20.3047 35.1758 20.5547 35.4688C20.8086 35.7578 21.002 36.0996 21.1348 36.4941C21.2676 36.8848 21.334 37.3086 21.334 37.7656V37.9004C21.334 38.3574 21.2676 38.7812 21.1348 39.1719C21.002 39.5625 20.8086 39.9043 20.5547 40.1973C20.3047 40.4863 20.002 40.7129 19.6465 40.877C19.2949 41.0371 18.8965 41.1172 18.4512 41.1172C18.0059 41.1172 17.6055 41.0371 17.25 40.877C16.8945 40.7129 16.5898 40.4863 16.3359 40.1973C16.0859 39.9043 15.8945 39.5625 15.7617 39.1719C15.6289 38.7812 15.5625 38.3574 15.5625 37.9004ZM16.6465 37.7656V37.9004C16.6465 38.2168 16.6836 38.5156 16.7578 38.7969C16.832 39.0742 16.9434 39.3203 17.0918 39.5352C17.2441 39.75 17.4336 39.9199 17.6602 40.0449C17.8867 40.166 18.1504 40.2266 18.4512 40.2266C18.748 40.2266 19.0078 40.166 19.2305 40.0449C19.457 39.9199 19.6445 39.75 19.793 39.5352C19.9414 39.3203 20.0527 39.0742 20.127 38.7969C20.2051 38.5156 20.2441 38.2168 20.2441 37.9004V37.7656C20.2441 37.4531 20.2051 37.1582 20.127 36.8809C20.0527 36.5996 19.9395 36.3516 19.7871 36.1367C19.6387 35.918 19.4512 35.7461 19.2246 35.6211C19.002 35.4961 18.7402 35.4336 18.4395 35.4336C18.1426 35.4336 17.8809 35.4961 17.6543 35.6211C17.4316 35.7461 17.2441 35.918 17.0918 36.1367C16.9434 36.3516 16.832 36.5996 16.7578 36.8809C16.6836 37.1582 16.6465 37.4531 16.6465 37.7656ZM26.8008 34.6602H27.7852V40.8652C27.7852 41.4238 27.6719 41.9004 27.4453 42.2949C27.2188 42.6895 26.9023 42.9883 26.4961 43.1914C26.0938 43.3984 25.6289 43.502 25.1016 43.502C24.8828 43.502 24.625 43.4668 24.3281 43.3965C24.0352 43.3301 23.7461 43.2148 23.4609 43.0508C23.1797 42.8906 22.9434 42.6738 22.752 42.4004L23.3203 41.7559C23.5859 42.0762 23.8633 42.2988 24.1523 42.4238C24.4453 42.5488 24.7344 42.6113 25.0195 42.6113C25.3633 42.6113 25.6602 42.5469 25.9102 42.418C26.1602 42.2891 26.3535 42.0977 26.4902 41.8438C26.6309 41.5938 26.7012 41.2852 26.7012 40.918V36.0547L26.8008 34.6602ZM22.4355 37.9004V37.7773C22.4355 37.293 22.4922 36.8535 22.6055 36.459C22.7227 36.0605 22.8887 35.7188 23.1035 35.4336C23.3223 35.1484 23.5859 34.9297 23.8945 34.7773C24.2031 34.6211 24.5508 34.543 24.9375 34.543C25.3359 34.543 25.6836 34.6133 25.9805 34.7539C26.2812 34.8906 26.5352 35.0918 26.7422 35.3574C26.9531 35.6191 27.1191 35.9355 27.2402 36.3066C27.3613 36.6777 27.4453 37.0977 27.4922 37.5664V38.1055C27.4492 38.5703 27.3652 38.9883 27.2402 39.3594C27.1191 39.7305 26.9531 40.0469 26.7422 40.3086C26.5352 40.5703 26.2812 40.7715 25.9805 40.9121C25.6797 41.0488 25.3281 41.1172 24.9258 41.1172C24.5469 41.1172 24.2031 41.0371 23.8945 40.877C23.5898 40.7168 23.3281 40.4922 23.1094 40.2031C22.8906 39.9141 22.7227 39.5742 22.6055 39.1836C22.4922 38.7891 22.4355 38.3613 22.4355 37.9004ZM23.5195 37.7773V37.9004C23.5195 38.2168 23.5508 38.5137 23.6133 38.791C23.6797 39.0684 23.7793 39.3125 23.9121 39.5234C24.0488 39.7344 24.2227 39.9004 24.4336 40.0215C24.6445 40.1387 24.8965 40.1973 25.1895 40.1973C25.5488 40.1973 25.8457 40.1211 26.0801 39.9688C26.3145 39.8164 26.5 39.6152 26.6367 39.3652C26.7773 39.1152 26.8867 38.8438 26.9648 38.5508V37.1387C26.9219 36.9238 26.8555 36.7168 26.7656 36.5176C26.6797 36.3145 26.5664 36.1348 26.4258 35.9785C26.2891 35.8184 26.1191 35.6914 25.916 35.5977C25.7129 35.5039 25.4746 35.457 25.2012 35.457C24.9043 35.457 24.6484 35.5195 24.4336 35.6445C24.2227 35.7656 24.0488 35.9336 23.9121 36.1484C23.7793 36.3594 23.6797 36.6055 23.6133 36.8867C23.5508 37.1641 23.5195 37.4609 23.5195 37.7773ZM30.6094 32V41H29.5195V32H30.6094ZM34.9805 41.1172C34.5391 41.1172 34.1387 41.043 33.7793 40.8945C33.4238 40.7422 33.1172 40.5293 32.8594 40.2559C32.6055 39.9824 32.4102 39.6582 32.2734 39.2832C32.1367 38.9082 32.0684 38.498 32.0684 38.0527V37.8066C32.0684 37.291 32.1445 36.832 32.2969 36.4297C32.4492 36.0234 32.6562 35.6797 32.918 35.3984C33.1797 35.1172 33.4766 34.9043 33.8086 34.7598C34.1406 34.6152 34.4844 34.543 34.8398 34.543C35.293 34.543 35.6836 34.6211 36.0117 34.7773C36.3438 34.9336 36.6152 35.1523 36.8262 35.4336C37.0371 35.7109 37.1934 36.0391 37.2949 36.418C37.3965 36.793 37.4473 37.2031 37.4473 37.6484V38.1348H32.7129V37.25H36.3633V37.168C36.3477 36.8867 36.2891 36.6133 36.1875 36.3477C36.0898 36.082 35.9336 35.8633 35.7188 35.6914C35.5039 35.5195 35.2109 35.4336 34.8398 35.4336C34.5938 35.4336 34.3672 35.4863 34.1602 35.5918C33.9531 35.6934 33.7754 35.8457 33.627 36.0488C33.4785 36.252 33.3633 36.5 33.2812 36.793C33.1992 37.0859 33.1582 37.4238 33.1582 37.8066V38.0527C33.1582 38.3535 33.1992 38.6367 33.2812 38.9023C33.3672 39.1641 33.4902 39.3945 33.6504 39.5938C33.8145 39.793 34.0117 39.9492 34.2422 40.0625C34.4766 40.1758 34.7422 40.2324 35.0391 40.2324C35.4219 40.2324 35.7461 40.1543 36.0117 39.998C36.2773 39.8418 36.5098 39.6328 36.709 39.3711L37.3652 39.8926C37.2285 40.0996 37.0547 40.2969 36.8438 40.4844C36.6328 40.6719 36.373 40.8242 36.0645 40.9414C35.7598 41.0586 35.3984 41.1172 34.9805 41.1172ZM44.1621 41H42.3809L42.3926 40.0801H44.1621C44.7715 40.0801 45.2793 39.9531 45.6855 39.6992C46.0918 39.4414 46.3965 39.082 46.5996 38.6211C46.8066 38.1562 46.9102 37.6133 46.9102 36.9922V36.4707C46.9102 35.9824 46.8516 35.5488 46.7344 35.1699C46.6172 34.7871 46.4453 34.4648 46.2188 34.2031C45.9922 33.9375 45.7148 33.7363 45.3867 33.5996C45.0625 33.4629 44.6895 33.3945 44.2676 33.3945H42.3457V32.4688H44.2676C44.8262 32.4688 45.3359 32.5625 45.7969 32.75C46.2578 32.9336 46.6543 33.2012 46.9863 33.5527C47.3223 33.9004 47.5801 34.3223 47.7598 34.8184C47.9395 35.3105 48.0293 35.8652 48.0293 36.4824V36.9922C48.0293 37.6094 47.9395 38.166 47.7598 38.6621C47.5801 39.1543 47.3203 39.5742 46.9805 39.9219C46.6445 40.2695 46.2383 40.5371 45.7617 40.7246C45.2891 40.9082 44.7559 41 44.1621 41ZM42.9844 32.4688V41H41.8535V32.4688H42.9844ZM52.1953 41.1172C51.7539 41.1172 51.3535 41.043 50.9941 40.8945C50.6387 40.7422 50.332 40.5293 50.0742 40.2559C49.8203 39.9824 49.625 39.6582 49.4883 39.2832C49.3516 38.9082 49.2832 38.498 49.2832 38.0527V37.8066C49.2832 37.291 49.3594 36.832 49.5117 36.4297C49.6641 36.0234 49.8711 35.6797 50.1328 35.3984C50.3945 35.1172 50.6914 34.9043 51.0234 34.7598C51.3555 34.6152 51.6992 34.543 52.0547 34.543C52.5078 34.543 52.8984 34.6211 53.2266 34.7773C53.5586 34.9336 53.8301 35.1523 54.041 35.4336C54.252 35.7109 54.4082 36.0391 54.5098 36.418C54.6113 36.793 54.6621 37.2031 54.6621 37.6484V38.1348H49.9277V37.25H53.5781V37.168C53.5625 36.8867 53.5039 36.6133 53.4023 36.3477C53.3047 36.082 53.1484 35.8633 52.9336 35.6914C52.7188 35.5195 52.4258 35.4336 52.0547 35.4336C51.8086 35.4336 51.582 35.4863 51.375 35.5918C51.168 35.6934 50.9902 35.8457 50.8418 36.0488C50.6934 36.252 50.5781 36.5 50.4961 36.793C50.4141 37.0859 50.373 37.4238 50.373 37.8066V38.0527C50.373 38.3535 50.4141 38.6367 50.4961 38.9023C50.582 39.1641 50.7051 39.3945 50.8652 39.5938C51.0293 39.793 51.2266 39.9492 51.457 40.0625C51.6914 40.1758 51.957 40.2324 52.2539 40.2324C52.6367 40.2324 52.9609 40.1543 53.2266 39.998C53.4922 39.8418 53.7246 39.6328 53.9238 39.3711L54.5801 39.8926C54.4434 40.0996 54.2695 40.2969 54.0586 40.4844C53.8477 40.6719 53.5879 40.8242 53.2793 40.9414C52.9746 41.0586 52.6133 41.1172 52.1953 41.1172ZM57.7734 40.0215L59.5078 34.6602H60.6152L58.3359 41H57.6094L57.7734 40.0215ZM56.3262 34.6602L58.1133 40.0508L58.2363 41H57.5098L55.2129 34.6602H56.3262ZM64.207 41.1172C63.7656 41.1172 63.3652 41.043 63.0059 40.8945C62.6504 40.7422 62.3438 40.5293 62.0859 40.2559C61.832 39.9824 61.6367 39.6582 61.5 39.2832C61.3633 38.9082 61.2949 38.498 61.2949 38.0527V37.8066C61.2949 37.291 61.3711 36.832 61.5234 36.4297C61.6758 36.0234 61.8828 35.6797 62.1445 35.3984C62.4062 35.1172 62.7031 34.9043 63.0352 34.7598C63.3672 34.6152 63.7109 34.543 64.0664 34.543C64.5195 34.543 64.9102 34.6211 65.2383 34.7773C65.5703 34.9336 65.8418 35.1523 66.0527 35.4336C66.2637 35.7109 66.4199 36.0391 66.5215 36.418C66.623 36.793 66.6738 37.2031 66.6738 37.6484V38.1348H61.9395V37.25H65.5898V37.168C65.5742 36.8867 65.5156 36.6133 65.4141 36.3477C65.3164 36.082 65.1602 35.8633 64.9453 35.6914C64.7305 35.5195 64.4375 35.4336 64.0664 35.4336C63.8203 35.4336 63.5938 35.4863 63.3867 35.5918C63.1797 35.6934 63.002 35.8457 62.8535 36.0488C62.7051 36.252 62.5898 36.5 62.5078 36.793C62.4258 37.0859 62.3848 37.4238 62.3848 37.8066V38.0527C62.3848 38.3535 62.4258 38.6367 62.5078 38.9023C62.5938 39.1641 62.7168 39.3945 62.877 39.5938C63.041 39.793 63.2383 39.9492 63.4688 40.0625C63.7031 40.1758 63.9688 40.2324 64.2656 40.2324C64.6484 40.2324 64.9727 40.1543 65.2383 39.998C65.5039 39.8418 65.7363 39.6328 65.9355 39.3711L66.5918 39.8926C66.4551 40.0996 66.2812 40.2969 66.0703 40.4844C65.8594 40.6719 65.5996 40.8242 65.291 40.9414C64.9863 41.0586 64.625 41.1172 64.207 41.1172ZM69.1172 32V41H68.0273V32H69.1172ZM70.5703 37.9004V37.7656C70.5703 37.3086 70.6367 36.8848 70.7695 36.4941C70.9023 36.0996 71.0938 35.7578 71.3438 35.4688C71.5938 35.1758 71.8965 34.9492 72.252 34.7891C72.6074 34.625 73.0059 34.543 73.4473 34.543C73.8926 34.543 74.293 34.625 74.6484 34.7891C75.0078 34.9492 75.3125 35.1758 75.5625 35.4688C75.8164 35.7578 76.0098 36.0996 76.1426 36.4941C76.2754 36.8848 76.3418 37.3086 76.3418 37.7656V37.9004C76.3418 38.3574 76.2754 38.7812 76.1426 39.1719C76.0098 39.5625 75.8164 39.9043 75.5625 40.1973C75.3125 40.4863 75.0098 40.7129 74.6543 40.877C74.3027 41.0371 73.9043 41.1172 73.459 41.1172C73.0137 41.1172 72.6133 41.0371 72.2578 40.877C71.9023 40.7129 71.5977 40.4863 71.3438 40.1973C71.0938 39.9043 70.9023 39.5625 70.7695 39.1719C70.6367 38.7812 70.5703 38.3574 70.5703 37.9004ZM71.6543 37.7656V37.9004C71.6543 38.2168 71.6914 38.5156 71.7656 38.7969C71.8398 39.0742 71.9512 39.3203 72.0996 39.5352C72.252 39.75 72.4414 39.9199 72.668 40.0449C72.8945 40.166 73.1582 40.2266 73.459 40.2266C73.7559 40.2266 74.0156 40.166 74.2383 40.0449C74.4648 39.9199 74.6523 39.75 74.8008 39.5352C74.9492 39.3203 75.0605 39.0742 75.1348 38.7969C75.2129 38.5156 75.252 38.2168 75.252 37.9004V37.7656C75.252 37.4531 75.2129 37.1582 75.1348 36.8809C75.0605 36.5996 74.9473 36.3516 74.7949 36.1367C74.6465 35.918 74.459 35.7461 74.2324 35.6211C74.0098 35.4961 73.748 35.4336 73.4473 35.4336C73.1504 35.4336 72.8887 35.4961 72.6621 35.6211C72.4395 35.7461 72.252 35.918 72.0996 36.1367C71.9512 36.3516 71.8398 36.5996 71.7656 36.8809C71.6914 37.1582 71.6543 37.4531 71.6543 37.7656ZM78.7852 35.8789V43.4375H77.6953V34.6602H78.6914L78.7852 35.8789ZM83.0566 37.7773V37.9004C83.0566 38.3613 83.002 38.7891 82.8926 39.1836C82.7832 39.5742 82.623 39.9141 82.4121 40.2031C82.2051 40.4922 81.9492 40.7168 81.6445 40.877C81.3398 41.0371 80.9902 41.1172 80.5957 41.1172C80.1934 41.1172 79.8379 41.0508 79.5293 40.918C79.2207 40.7852 78.959 40.5918 78.7441 40.3379C78.5293 40.084 78.3574 39.7793 78.2285 39.4238C78.1035 39.0684 78.0176 38.668 77.9707 38.2227V37.5664C78.0176 37.0977 78.1055 36.6777 78.2344 36.3066C78.3633 35.9355 78.5332 35.6191 78.7441 35.3574C78.959 35.0918 79.2188 34.8906 79.5234 34.7539C79.8281 34.6133 80.1797 34.543 80.5781 34.543C80.9766 34.543 81.3301 34.6211 81.6387 34.7773C81.9473 34.9297 82.207 35.1484 82.418 35.4336C82.6289 35.7188 82.7871 36.0605 82.8926 36.459C83.002 36.8535 83.0566 37.293 83.0566 37.7773ZM81.9668 37.9004V37.7773C81.9668 37.4609 81.9336 37.1641 81.8672 36.8867C81.8008 36.6055 81.6973 36.3594 81.5566 36.1484C81.4199 35.9336 81.2441 35.7656 81.0293 35.6445C80.8145 35.5195 80.5586 35.457 80.2617 35.457C79.9883 35.457 79.75 35.5039 79.5469 35.5977C79.3477 35.6914 79.1777 35.8184 79.0371 35.9785C78.8965 36.1348 78.7812 36.3145 78.6914 36.5176C78.6055 36.7168 78.541 36.9238 78.498 37.1387V38.6562C78.5762 38.9297 78.6855 39.1875 78.8262 39.4297C78.9668 39.668 79.1543 39.8613 79.3887 40.0098C79.623 40.1543 79.918 40.2266 80.2734 40.2266C80.5664 40.2266 80.8184 40.166 81.0293 40.0449C81.2441 39.9199 81.4199 39.75 81.5566 39.5352C81.6973 39.3203 81.8008 39.0742 81.8672 38.7969C81.9336 38.5156 81.9668 38.2168 81.9668 37.9004ZM87.0703 41.1172C86.6289 41.1172 86.2285 41.043 85.8691 40.8945C85.5137 40.7422 85.207 40.5293 84.9492 40.2559C84.6953 39.9824 84.5 39.6582 84.3633 39.2832C84.2266 38.9082 84.1582 38.498 84.1582 38.0527V37.8066C84.1582 37.291 84.2344 36.832 84.3867 36.4297C84.5391 36.0234 84.7461 35.6797 85.0078 35.3984C85.2695 35.1172 85.5664 34.9043 85.8984 34.7598C86.2305 34.6152 86.5742 34.543 86.9297 34.543C87.3828 34.543 87.7734 34.6211 88.1016 34.7773C88.4336 34.9336 88.7051 35.1523 88.916 35.4336C89.127 35.7109 89.2832 36.0391 89.3848 36.418C89.4863 36.793 89.5371 37.2031 89.5371 37.6484V38.1348H84.8027V37.25H88.4531V37.168C88.4375 36.8867 88.3789 36.6133 88.2773 36.3477C88.1797 36.082 88.0234 35.8633 87.8086 35.6914C87.5938 35.5195 87.3008 35.4336 86.9297 35.4336C86.6836 35.4336 86.457 35.4863 86.25 35.5918C86.043 35.6934 85.8652 35.8457 85.7168 36.0488C85.5684 36.252 85.4531 36.5 85.3711 36.793C85.2891 37.0859 85.248 37.4238 85.248 37.8066V38.0527C85.248 38.3535 85.2891 38.6367 85.3711 38.9023C85.457 39.1641 85.5801 39.3945 85.7402 39.5938C85.9043 39.793 86.1016 39.9492 86.332 40.0625C86.5664 40.1758 86.832 40.2324 87.1289 40.2324C87.5117 40.2324 87.8359 40.1543 88.1016 39.998C88.3672 39.8418 88.5996 39.6328 88.7988 39.3711L89.4551 39.8926C89.3184 40.0996 89.1445 40.2969 88.9336 40.4844C88.7227 40.6719 88.4629 40.8242 88.1543 40.9414C87.8496 41.0586 87.4883 41.1172 87.0703 41.1172ZM91.8867 35.6562V41H90.8027V34.6602H91.8574L91.8867 35.6562ZM93.8672 34.625L93.8613 35.6328C93.7715 35.6133 93.6855 35.6016 93.6035 35.5977C93.5254 35.5898 93.4355 35.5859 93.334 35.5859C93.084 35.5859 92.8633 35.625 92.6719 35.7031C92.4805 35.7812 92.3184 35.8906 92.1855 36.0312C92.0527 36.1719 91.9473 36.3398 91.8691 36.5352C91.7949 36.7266 91.7461 36.9375 91.7227 37.168L91.418 37.3438C91.418 36.9609 91.4551 36.6016 91.5293 36.2656C91.6074 35.9297 91.7266 35.6328 91.8867 35.375C92.0469 35.1133 92.25 34.9102 92.4961 34.7656C92.7461 34.6172 93.043 34.543 93.3867 34.543C93.4648 34.543 93.5547 34.5527 93.6562 34.5723C93.7578 34.5879 93.8281 34.6055 93.8672 34.625ZM102.557 38.8438C102.557 38.6445 102.525 38.4688 102.463 38.3164C102.404 38.1602 102.299 38.0195 102.146 37.8945C101.998 37.7695 101.791 37.6504 101.525 37.5371C101.264 37.4238 100.932 37.3086 100.529 37.1914C100.107 37.0664 99.7266 36.9277 99.3867 36.7754C99.0469 36.6191 98.7559 36.4414 98.5137 36.2422C98.2715 36.043 98.0859 35.8145 97.957 35.5566C97.8281 35.2988 97.7637 35.0039 97.7637 34.6719C97.7637 34.3398 97.832 34.0332 97.9688 33.752C98.1055 33.4707 98.3008 33.2266 98.5547 33.0195C98.8125 32.8086 99.1191 32.6445 99.4746 32.5273C99.8301 32.4102 100.227 32.3516 100.664 32.3516C101.305 32.3516 101.848 32.4746 102.293 32.7207C102.742 32.9629 103.084 33.2812 103.318 33.6758C103.553 34.0664 103.67 34.4844 103.67 34.9297H102.545C102.545 34.6094 102.477 34.3262 102.34 34.0801C102.203 33.8301 101.996 33.6348 101.719 33.4941C101.441 33.3496 101.09 33.2773 100.664 33.2773C100.262 33.2773 99.9297 33.3379 99.668 33.459C99.4062 33.5801 99.2109 33.7441 99.082 33.9512C98.957 34.1582 98.8945 34.3945 98.8945 34.6602C98.8945 34.8398 98.9316 35.0039 99.0059 35.1523C99.084 35.2969 99.2031 35.4316 99.3633 35.5566C99.5273 35.6816 99.7344 35.7969 99.9844 35.9023C100.238 36.0078 100.541 36.1094 100.893 36.207C101.377 36.3438 101.795 36.4961 102.146 36.6641C102.498 36.832 102.787 37.0215 103.014 37.2324C103.244 37.4395 103.414 37.6758 103.523 37.9414C103.637 38.2031 103.693 38.5 103.693 38.832C103.693 39.1797 103.623 39.4941 103.482 39.7754C103.342 40.0566 103.141 40.2969 102.879 40.4961C102.617 40.6953 102.303 40.8496 101.936 40.959C101.572 41.0645 101.166 41.1172 100.717 41.1172C100.322 41.1172 99.9336 41.0625 99.5508 40.9531C99.1719 40.8438 98.8262 40.6797 98.5137 40.4609C98.2051 40.2422 97.957 39.9727 97.7695 39.6523C97.5859 39.3281 97.4941 38.9531 97.4941 38.5273H98.6191C98.6191 38.8203 98.6758 39.0723 98.7891 39.2832C98.9023 39.4902 99.0566 39.6621 99.252 39.7988C99.4512 39.9355 99.6758 40.0371 99.9258 40.1035C100.18 40.166 100.443 40.1973 100.717 40.1973C101.111 40.1973 101.445 40.1426 101.719 40.0332C101.992 39.9238 102.199 39.7676 102.34 39.5645C102.484 39.3613 102.557 39.1211 102.557 38.8438ZM107.625 34.6602V35.4922H104.197V34.6602H107.625ZM105.357 33.1191H106.441V39.4297C106.441 39.6445 106.475 39.8066 106.541 39.916C106.607 40.0254 106.693 40.0977 106.799 40.1328C106.904 40.168 107.018 40.1855 107.139 40.1855C107.229 40.1855 107.322 40.1777 107.42 40.1621C107.521 40.1426 107.598 40.127 107.648 40.1152L107.654 41C107.568 41.0273 107.455 41.0527 107.314 41.0762C107.178 41.1035 107.012 41.1172 106.816 41.1172C106.551 41.1172 106.307 41.0645 106.084 40.959C105.861 40.8535 105.684 40.6777 105.551 40.4316C105.422 40.1816 105.357 39.8457 105.357 39.4238V33.1191ZM112.775 39.5352V34.6602H113.865V41H112.828L112.775 39.5352ZM112.98 38.1992L113.432 38.1875C113.432 38.6094 113.387 39 113.297 39.3594C113.211 39.7148 113.07 40.0234 112.875 40.2852C112.68 40.5469 112.424 40.752 112.107 40.9004C111.791 41.0449 111.406 41.1172 110.953 41.1172C110.645 41.1172 110.361 41.0723 110.104 40.9824C109.85 40.8926 109.631 40.7539 109.447 40.5664C109.264 40.3789 109.121 40.1348 109.02 39.834C108.922 39.5332 108.873 39.1719 108.873 38.75V34.6602H109.957V38.7617C109.957 39.0469 109.988 39.2832 110.051 39.4707C110.117 39.6543 110.205 39.8008 110.314 39.9102C110.428 40.0156 110.553 40.0898 110.689 40.1328C110.83 40.1758 110.975 40.1973 111.123 40.1973C111.584 40.1973 111.949 40.1094 112.219 39.9336C112.488 39.7539 112.682 39.5137 112.799 39.2129C112.92 38.9082 112.98 38.5703 112.98 38.1992ZM119.514 39.7695V32H120.604V41H119.607L119.514 39.7695ZM115.248 37.9004V37.7773C115.248 37.293 115.307 36.8535 115.424 36.459C115.545 36.0605 115.715 35.7188 115.934 35.4336C116.156 35.1484 116.42 34.9297 116.725 34.7773C117.033 34.6211 117.377 34.543 117.756 34.543C118.154 34.543 118.502 34.6133 118.799 34.7539C119.1 34.8906 119.354 35.0918 119.561 35.3574C119.771 35.6191 119.938 35.9355 120.059 36.3066C120.18 36.6777 120.264 37.0977 120.311 37.5664V38.1055C120.268 38.5703 120.184 38.9883 120.059 39.3594C119.938 39.7305 119.771 40.0469 119.561 40.3086C119.354 40.5703 119.1 40.7715 118.799 40.9121C118.498 41.0488 118.146 41.1172 117.744 41.1172C117.373 41.1172 117.033 41.0371 116.725 40.877C116.42 40.7168 116.156 40.4922 115.934 40.2031C115.715 39.9141 115.545 39.5742 115.424 39.1836C115.307 38.7891 115.248 38.3613 115.248 37.9004ZM116.338 37.7773V37.9004C116.338 38.2168 116.369 38.5137 116.432 38.791C116.498 39.0684 116.6 39.3125 116.736 39.5234C116.873 39.7344 117.047 39.9004 117.258 40.0215C117.469 40.1387 117.721 40.1973 118.014 40.1973C118.373 40.1973 118.668 40.1211 118.898 39.9688C119.133 39.8164 119.32 39.6152 119.461 39.3652C119.602 39.1152 119.711 38.8438 119.789 38.5508V37.1387C119.742 36.9238 119.674 36.7168 119.584 36.5176C119.498 36.3145 119.385 36.1348 119.244 35.9785C119.107 35.8184 118.938 35.6914 118.734 35.5977C118.535 35.5039 118.299 35.457 118.025 35.457C117.729 35.457 117.473 35.5195 117.258 35.6445C117.047 35.7656 116.873 35.9336 116.736 36.1484C116.6 36.3594 116.498 36.6055 116.432 36.8867C116.369 37.1641 116.338 37.4609 116.338 37.7773ZM124.922 41.1172C124.48 41.1172 124.08 41.043 123.721 40.8945C123.365 40.7422 123.059 40.5293 122.801 40.2559C122.547 39.9824 122.352 39.6582 122.215 39.2832C122.078 38.9082 122.01 38.498 122.01 38.0527V37.8066C122.01 37.291 122.086 36.832 122.238 36.4297C122.391 36.0234 122.598 35.6797 122.859 35.3984C123.121 35.1172 123.418 34.9043 123.75 34.7598C124.082 34.6152 124.426 34.543 124.781 34.543C125.234 34.543 125.625 34.6211 125.953 34.7773C126.285 34.9336 126.557 35.1523 126.768 35.4336C126.979 35.7109 127.135 36.0391 127.236 36.418C127.338 36.793 127.389 37.2031 127.389 37.6484V38.1348H122.654V37.25H126.305V37.168C126.289 36.8867 126.23 36.6133 126.129 36.3477C126.031 36.082 125.875 35.8633 125.66 35.6914C125.445 35.5195 125.152 35.4336 124.781 35.4336C124.535 35.4336 124.309 35.4863 124.102 35.5918C123.895 35.6934 123.717 35.8457 123.568 36.0488C123.42 36.252 123.305 36.5 123.223 36.793C123.141 37.0859 123.1 37.4238 123.1 37.8066V38.0527C123.1 38.3535 123.141 38.6367 123.223 38.9023C123.309 39.1641 123.432 39.3945 123.592 39.5938C123.756 39.793 123.953 39.9492 124.184 40.0625C124.418 40.1758 124.684 40.2324 124.98 40.2324C125.363 40.2324 125.688 40.1543 125.953 39.998C126.219 39.8418 126.451 39.6328 126.65 39.3711L127.307 39.8926C127.17 40.0996 126.996 40.2969 126.785 40.4844C126.574 40.6719 126.314 40.8242 126.006 40.9414C125.701 41.0586 125.34 41.1172 124.922 41.1172ZM129.738 36.0137V41H128.654V34.6602H129.68L129.738 36.0137ZM129.48 37.5898L129.029 37.5723C129.033 37.1387 129.098 36.7383 129.223 36.3711C129.348 36 129.523 35.6777 129.75 35.4043C129.977 35.1309 130.246 34.9199 130.559 34.7715C130.875 34.6191 131.225 34.543 131.607 34.543C131.92 34.543 132.201 34.5859 132.451 34.6719C132.701 34.7539 132.914 34.8867 133.09 35.0703C133.27 35.2539 133.406 35.4922 133.5 35.7852C133.594 36.0742 133.641 36.4277 133.641 36.8457V41H132.551V36.834C132.551 36.502 132.502 36.2363 132.404 36.0371C132.307 35.834 132.164 35.6875 131.977 35.5977C131.789 35.5039 131.559 35.457 131.285 35.457C131.016 35.457 130.77 35.5137 130.547 35.627C130.328 35.7402 130.139 35.8965 129.979 36.0957C129.822 36.2949 129.699 36.5234 129.609 36.7812C129.523 37.0352 129.48 37.3047 129.48 37.5898ZM137.941 34.6602V35.4922H134.514V34.6602H137.941ZM135.674 33.1191H136.758V39.4297C136.758 39.6445 136.791 39.8066 136.857 39.916C136.924 40.0254 137.01 40.0977 137.115 40.1328C137.221 40.168 137.334 40.1855 137.455 40.1855C137.545 40.1855 137.639 40.1777 137.736 40.1621C137.838 40.1426 137.914 40.127 137.965 40.1152L137.971 41C137.885 41.0273 137.771 41.0527 137.631 41.0762C137.494 41.1035 137.328 41.1172 137.133 41.1172C136.867 41.1172 136.623 41.0645 136.4 40.959C136.178 40.8535 136 40.6777 135.867 40.4316C135.738 40.1816 135.674 39.8457 135.674 39.4238V33.1191ZM147.504 38.2871H148.629C148.57 38.8262 148.416 39.3086 148.166 39.7344C147.916 40.1602 147.562 40.498 147.105 40.748C146.648 40.9941 146.078 41.1172 145.395 41.1172C144.895 41.1172 144.439 41.0234 144.029 40.8359C143.623 40.6484 143.273 40.3828 142.98 40.0391C142.688 39.6914 142.461 39.2754 142.301 38.791C142.145 38.3027 142.066 37.7598 142.066 37.1621V36.3125C142.066 35.7148 142.145 35.1738 142.301 34.6895C142.461 34.2012 142.689 33.7832 142.986 33.4355C143.287 33.0879 143.648 32.8203 144.07 32.6328C144.492 32.4453 144.967 32.3516 145.494 32.3516C146.139 32.3516 146.684 32.4727 147.129 32.7148C147.574 32.957 147.92 33.293 148.166 33.7227C148.416 34.1484 148.57 34.6426 148.629 35.2051H147.504C147.449 34.8066 147.348 34.4648 147.199 34.1797C147.051 33.8906 146.84 33.668 146.566 33.5117C146.293 33.3555 145.936 33.2773 145.494 33.2773C145.115 33.2773 144.781 33.3496 144.492 33.4941C144.207 33.6387 143.967 33.8438 143.771 34.1094C143.58 34.375 143.436 34.6934 143.338 35.0645C143.24 35.4355 143.191 35.8477 143.191 36.3008V37.1621C143.191 37.5801 143.234 37.9727 143.32 38.3398C143.41 38.707 143.545 39.0293 143.725 39.3066C143.904 39.584 144.133 39.8027 144.41 39.9629C144.688 40.1191 145.016 40.1973 145.395 40.1973C145.875 40.1973 146.258 40.1211 146.543 39.9688C146.828 39.8164 147.043 39.5977 147.188 39.3125C147.336 39.0273 147.441 38.6855 147.504 38.2871ZM151.184 32V41H150.094V32H151.184ZM156.803 39.5352V34.6602H157.893V41H156.855L156.803 39.5352ZM157.008 38.1992L157.459 38.1875C157.459 38.6094 157.414 39 157.324 39.3594C157.238 39.7148 157.098 40.0234 156.902 40.2852C156.707 40.5469 156.451 40.752 156.135 40.9004C155.818 41.0449 155.434 41.1172 154.98 41.1172C154.672 41.1172 154.389 41.0723 154.131 40.9824C153.877 40.8926 153.658 40.7539 153.475 40.5664C153.291 40.3789 153.148 40.1348 153.047 39.834C152.949 39.5332 152.9 39.1719 152.9 38.75V34.6602H153.984V38.7617C153.984 39.0469 154.016 39.2832 154.078 39.4707C154.145 39.6543 154.232 39.8008 154.342 39.9102C154.455 40.0156 154.58 40.0898 154.717 40.1328C154.857 40.1758 155.002 40.1973 155.15 40.1973C155.611 40.1973 155.977 40.1094 156.246 39.9336C156.516 39.7539 156.709 39.5137 156.826 39.2129C156.947 38.9082 157.008 38.5703 157.008 38.1992ZM159.539 32H160.629V39.7695L160.535 41H159.539V32ZM164.912 37.7773V37.9004C164.912 38.3613 164.857 38.7891 164.748 39.1836C164.639 39.5742 164.479 39.9141 164.268 40.2031C164.057 40.4922 163.799 40.7168 163.494 40.877C163.189 41.0371 162.84 41.1172 162.445 41.1172C162.043 41.1172 161.689 41.0488 161.385 40.9121C161.084 40.7715 160.83 40.5703 160.623 40.3086C160.416 40.0469 160.25 39.7305 160.125 39.3594C160.004 38.9883 159.92 38.5703 159.873 38.1055V37.5664C159.92 37.0977 160.004 36.6777 160.125 36.3066C160.25 35.9355 160.416 35.6191 160.623 35.3574C160.83 35.0918 161.084 34.8906 161.385 34.7539C161.686 34.6133 162.035 34.543 162.434 34.543C162.832 34.543 163.186 34.6211 163.494 34.7773C163.803 34.9297 164.061 35.1484 164.268 35.4336C164.479 35.7188 164.639 36.0605 164.748 36.459C164.857 36.8535 164.912 37.293 164.912 37.7773ZM163.822 37.9004V37.7773C163.822 37.4609 163.793 37.1641 163.734 36.8867C163.676 36.6055 163.582 36.3594 163.453 36.1484C163.324 35.9336 163.154 35.7656 162.943 35.6445C162.732 35.5195 162.473 35.457 162.164 35.457C161.891 35.457 161.652 35.5039 161.449 35.5977C161.25 35.6914 161.08 35.8184 160.939 35.9785C160.799 36.1348 160.684 36.3145 160.594 36.5176C160.508 36.7168 160.443 36.9238 160.4 37.1387V38.5508C160.463 38.8242 160.564 39.0879 160.705 39.3418C160.85 39.5918 161.041 39.7969 161.279 39.957C161.521 40.1172 161.82 40.1973 162.176 40.1973C162.469 40.1973 162.719 40.1387 162.926 40.0215C163.137 39.9004 163.307 39.7344 163.436 39.5234C163.568 39.3125 163.666 39.0684 163.729 38.791C163.791 38.5137 163.822 38.2168 163.822 37.9004Z" fill="#656C73"/>
<path d="M70.8966 11.1342L78.3306 6.86163C79.1706 6.37906 79.7836 5.58421 80.0347 4.65194C80.2858 3.71966 80.1543 2.72632 79.6694 1.89045C79.1844 1.05458 78.3855 0.44465 77.4486 0.194829C76.5116 -0.054992 75.5133 0.0757643 74.6733 0.558333L61.8291 7.94015L70.8966 11.1342Z" fill="#EA4335"/>
<path d="M76.4978 22.108C77.3024 22.1078 78.0844 21.8436 78.7228 21.3564C79.3612 20.8692 79.8203 20.1861 80.029 19.413C80.2377 18.6398 80.1844 17.8198 79.8773 17.0798C79.5702 16.3399 79.0264 15.7214 78.3302 15.3201L65.4861 7.94017C64.646 7.4576 63.6477 7.32684 62.7108 7.57667C61.7738 7.82649 60.975 8.43642 60.49 9.27229C60.005 10.1082 59.8736 11.1015 60.1247 12.0338C60.3757 12.966 60.9887 13.7609 61.8288 14.2435L74.6729 21.6196C75.2273 21.9397 75.8569 22.1082 76.4978 22.108V22.108Z" fill="#4285F4"/>
<path d="M89.2738 22.1079C89.9147 22.1082 90.5443 21.9397 91.0986 21.6196L103.933 14.2434L94.989 10.9814L87.447 15.3181C86.7508 15.7194 86.2071 16.338 85.9 17.0779C85.5929 17.8178 85.5395 18.6379 85.7483 19.411C85.957 20.1841 86.4161 20.8672 87.0545 21.3544C87.6929 21.8417 88.4749 22.1058 89.2795 22.106L89.2738 22.1079Z" fill="#FBBC04"/>
<path d="M102.108 14.7301C102.913 14.7299 103.695 14.4657 104.333 13.9785C104.972 13.4913 105.431 12.8082 105.64 12.035C105.848 11.2619 105.795 10.4418 105.488 9.70192C105.181 8.96199 104.637 8.34348 103.941 7.94218L91.0985 0.562249C90.682 0.300501 90.2166 0.125182 89.7303 0.0468116C89.244 -0.0315588 88.7468 -0.0113645 88.2686 0.106183C87.7903 0.22373 87.3408 0.436207 86.9471 0.730862C86.5534 1.02552 86.2236 1.39628 85.9775 1.82089C85.7313 2.24551 85.574 2.71522 85.5148 3.20185C85.4556 3.68848 85.4958 4.182 85.633 4.65277C85.7703 5.12355 86.0017 5.56189 86.3134 5.94149C86.6251 6.32108 87.0106 6.63411 87.4469 6.86178L100.289 14.2398C100.842 14.5589 101.469 14.7279 102.108 14.7301Z" fill="#0F9D58"/>
<path d="M31.375 51.7578V52.3711H28.2969V51.7578H31.375ZM28.4141 49.3125V55H27.6602V49.3125H28.4141ZM32.0312 49.3125V55H31.2812V49.3125H32.0312ZM36.8047 53.1914H37.5547C37.5156 53.5508 37.4128 53.8724 37.2461 54.1562C37.0794 54.4401 36.8438 54.6654 36.5391 54.832C36.2344 54.9961 35.8542 55.0781 35.3984 55.0781C35.0651 55.0781 34.7617 55.0156 34.4883 54.8906C34.2174 54.7656 33.9844 54.5885 33.7891 54.3594C33.5938 54.1276 33.4427 53.8503 33.3359 53.5273C33.2318 53.2018 33.1797 52.8398 33.1797 52.4414V51.875C33.1797 51.4766 33.2318 51.1159 33.3359 50.793C33.4427 50.4674 33.5951 50.1888 33.793 49.957C33.9935 49.7253 34.2344 49.5469 34.5156 49.4219C34.7969 49.2969 35.1133 49.2344 35.4648 49.2344C35.8945 49.2344 36.2578 49.3151 36.5547 49.4766C36.8516 49.638 37.082 49.862 37.2461 50.1484C37.4128 50.4323 37.5156 50.7617 37.5547 51.1367H36.8047C36.7682 50.8711 36.7005 50.6432 36.6016 50.4531C36.5026 50.2604 36.362 50.112 36.1797 50.0078C35.9974 49.9036 35.7591 49.8516 35.4648 49.8516C35.2122 49.8516 34.9896 49.8997 34.7969 49.9961C34.6068 50.0924 34.4466 50.2292 34.3164 50.4062C34.1888 50.5833 34.0924 50.7956 34.0273 51.043C33.9622 51.2904 33.9297 51.5651 33.9297 51.8672V52.4414C33.9297 52.7201 33.9583 52.9818 34.0156 53.2266C34.0755 53.4714 34.1654 53.6862 34.2852 53.8711C34.4049 54.056 34.5573 54.2018 34.7422 54.3086C34.9271 54.4128 35.1458 54.4648 35.3984 54.4648C35.7188 54.4648 35.974 54.4141 36.1641 54.3125C36.3542 54.2109 36.4974 54.0651 36.5938 53.875C36.6927 53.6849 36.763 53.457 36.8047 53.1914ZM38.8203 49.3125H39.5508L41.4141 53.9492L43.2734 49.3125H44.0078L41.6953 55H41.125L38.8203 49.3125ZM38.582 49.3125H39.2266L39.332 52.7812V55H38.582V49.3125ZM43.5977 49.3125H44.2422V55H43.4922V52.7812L43.5977 49.3125ZM49 53.1914H49.75C49.7109 53.5508 49.6081 53.8724 49.4414 54.1562C49.2747 54.4401 49.0391 54.6654 48.7344 54.832C48.4297 54.9961 48.0495 55.0781 47.5938 55.0781C47.2604 55.0781 46.957 55.0156 46.6836 54.8906C46.4128 54.7656 46.1797 54.5885 45.9844 54.3594C45.7891 54.1276 45.638 53.8503 45.5312 53.5273C45.4271 53.2018 45.375 52.8398 45.375 52.4414V51.875C45.375 51.4766 45.4271 51.1159 45.5312 50.793C45.638 50.4674 45.7904 50.1888 45.9883 49.957C46.1888 49.7253 46.4297 49.5469 46.7109 49.4219C46.9922 49.2969 47.3086 49.2344 47.6602 49.2344C48.0898 49.2344 48.4531 49.3151 48.75 49.4766C49.0469 49.638 49.2773 49.862 49.4414 50.1484C49.6081 50.4323 49.7109 50.7617 49.75 51.1367H49C48.9635 50.8711 48.8958 50.6432 48.7969 50.4531C48.6979 50.2604 48.5573 50.112 48.375 50.0078C48.1927 49.9036 47.9544 49.8516 47.6602 49.8516C47.4076 49.8516 47.1849 49.8997 46.9922 49.9961C46.8021 50.0924 46.6419 50.2292 46.5117 50.4062C46.3841 50.5833 46.2878 50.7956 46.2227 51.043C46.1576 51.2904 46.125 51.5651 46.125 51.8672V52.4414C46.125 52.7201 46.1536 52.9818 46.2109 53.2266C46.2708 53.4714 46.3607 53.6862 46.4805 53.8711C46.6003 54.056 46.7526 54.2018 46.9375 54.3086C47.1224 54.4128 47.3411 54.4648 47.5938 54.4648C47.9141 54.4648 48.1693 54.4141 48.3594 54.3125C48.5495 54.2109 48.6927 54.0651 48.7891 53.875C48.888 53.6849 48.9583 53.457 49 53.1914ZM56.0156 49.3125H56.7656V53.1602C56.7656 53.5872 56.6706 53.9427 56.4805 54.2266C56.2904 54.5104 56.0378 54.724 55.7227 54.8672C55.4102 55.0078 55.0703 55.0781 54.7031 55.0781C54.3177 55.0781 53.9688 55.0078 53.6562 54.8672C53.3464 54.724 53.1003 54.5104 52.918 54.2266C52.7383 53.9427 52.6484 53.5872 52.6484 53.1602V49.3125H53.3945V53.1602C53.3945 53.457 53.4492 53.7018 53.5586 53.8945C53.668 54.0872 53.8203 54.2305 54.0156 54.3242C54.2135 54.418 54.4427 54.4648 54.7031 54.4648C54.9661 54.4648 55.1953 54.418 55.3906 54.3242C55.5885 54.2305 55.7422 54.0872 55.8516 53.8945C55.9609 53.7018 56.0156 53.457 56.0156 53.1602V49.3125ZM58.5625 51.6758V55H57.8398V50.7734H58.5234L58.5625 51.6758ZM58.3906 52.7266L58.0898 52.7148C58.0924 52.4258 58.1354 52.1589 58.2188 51.9141C58.3021 51.6667 58.4193 51.4518 58.5703 51.2695C58.7214 51.0872 58.901 50.9466 59.1094 50.8477C59.3203 50.7461 59.5534 50.6953 59.8086 50.6953C60.0169 50.6953 60.2044 50.724 60.3711 50.7812C60.5378 50.8359 60.6797 50.9245 60.7969 51.0469C60.9167 51.1693 61.0078 51.3281 61.0703 51.5234C61.1328 51.7161 61.1641 51.9518 61.1641 52.2305V55H60.4375V52.2227C60.4375 52.0013 60.4049 51.8242 60.3398 51.6914C60.2747 51.556 60.1797 51.4583 60.0547 51.3984C59.9297 51.3359 59.776 51.3047 59.5938 51.3047C59.4141 51.3047 59.25 51.3424 59.1016 51.418C58.9557 51.4935 58.8294 51.5977 58.7227 51.7305C58.6185 51.8633 58.5365 52.0156 58.4766 52.1875C58.4193 52.3568 58.3906 52.5365 58.3906 52.7266ZM63.0469 50.7734V55H62.3203V50.7734H63.0469ZM62.2656 49.6523C62.2656 49.5352 62.3008 49.4362 62.3711 49.3555C62.444 49.2747 62.5508 49.2344 62.6914 49.2344C62.8294 49.2344 62.9349 49.2747 63.0078 49.3555C63.0833 49.4362 63.1211 49.5352 63.1211 49.6523C63.1211 49.7643 63.0833 49.8607 63.0078 49.9414C62.9349 50.0195 62.8294 50.0586 62.6914 50.0586C62.5508 50.0586 62.444 50.0195 62.3711 49.9414C62.3008 49.8607 62.2656 49.7643 62.2656 49.6523ZM65.4922 54.3477L66.6484 50.7734H67.3867L65.8672 55H65.3828L65.4922 54.3477ZM64.5273 50.7734L65.7188 54.3672L65.8008 55H65.3164L63.7852 50.7734H64.5273ZM69.7812 55.0781C69.487 55.0781 69.2201 55.0286 68.9805 54.9297C68.7435 54.8281 68.5391 54.6862 68.3672 54.5039C68.1979 54.3216 68.0677 54.1055 67.9766 53.8555C67.8854 53.6055 67.8398 53.332 67.8398 53.0352V52.8711C67.8398 52.5273 67.8906 52.2214 67.9922 51.9531C68.0938 51.6823 68.2318 51.4531 68.4062 51.2656C68.5807 51.0781 68.7786 50.9362 69 50.8398C69.2214 50.7435 69.4505 50.6953 69.6875 50.6953C69.9896 50.6953 70.25 50.7474 70.4688 50.8516C70.6901 50.9557 70.8711 51.1016 71.0117 51.2891C71.1523 51.474 71.2565 51.6927 71.3242 51.9453C71.3919 52.1953 71.4258 52.4688 71.4258 52.7656V53.0898H68.2695V52.5H70.7031V52.4453C70.6927 52.2578 70.6536 52.0755 70.5859 51.8984C70.5208 51.7214 70.4167 51.5755 70.2734 51.4609C70.1302 51.3464 69.9349 51.2891 69.6875 51.2891C69.5234 51.2891 69.3724 51.3242 69.2344 51.3945C69.0964 51.4622 68.9779 51.5638 68.8789 51.6992C68.7799 51.8346 68.7031 52 68.6484 52.1953C68.5938 52.3906 68.5664 52.6159 68.5664 52.8711V53.0352C68.5664 53.2357 68.5938 53.4245 68.6484 53.6016C68.7057 53.776 68.7878 53.9297 68.8945 54.0625C69.0039 54.1953 69.1354 54.2995 69.2891 54.375C69.4453 54.4505 69.6224 54.4883 69.8203 54.4883C70.0755 54.4883 70.2917 54.4362 70.4688 54.332C70.6458 54.2279 70.8008 54.0885 70.9336 53.9141L71.3711 54.2617C71.2799 54.3997 71.1641 54.5312 71.0234 54.6562C70.8828 54.7812 70.7096 54.8828 70.5039 54.9609C70.3008 55.0391 70.0599 55.0781 69.7812 55.0781ZM72.9922 51.4375V55H72.2695V50.7734H72.9727L72.9922 51.4375ZM74.3125 50.75L74.3086 51.4219C74.2487 51.4089 74.1914 51.401 74.1367 51.3984C74.0846 51.3932 74.0247 51.3906 73.957 51.3906C73.7904 51.3906 73.6432 51.4167 73.5156 51.4688C73.388 51.5208 73.2799 51.5938 73.1914 51.6875C73.1029 51.7812 73.0326 51.8932 72.9805 52.0234C72.931 52.151 72.8984 52.2917 72.8828 52.4453L72.6797 52.5625C72.6797 52.3073 72.7044 52.0677 72.7539 51.8438C72.806 51.6198 72.8854 51.4219 72.9922 51.25C73.099 51.0755 73.2344 50.9401 73.3984 50.8438C73.5651 50.7448 73.763 50.6953 73.9922 50.6953C74.0443 50.6953 74.1042 50.7018 74.1719 50.7148C74.2396 50.7253 74.2865 50.737 74.3125 50.75ZM77.4414 53.8789C77.4414 53.7747 77.418 53.6784 77.3711 53.5898C77.3268 53.4987 77.2344 53.4167 77.0938 53.3438C76.9557 53.2682 76.7474 53.2031 76.4688 53.1484C76.2344 53.099 76.0221 53.0404 75.832 52.9727C75.6445 52.9049 75.4844 52.8229 75.3516 52.7266C75.2214 52.6302 75.1211 52.5169 75.0508 52.3867C74.9805 52.2565 74.9453 52.1042 74.9453 51.9297C74.9453 51.763 74.9818 51.6055 75.0547 51.457C75.1302 51.3086 75.2357 51.1771 75.3711 51.0625C75.5091 50.9479 75.6745 50.8581 75.8672 50.793C76.0599 50.7279 76.2747 50.6953 76.5117 50.6953C76.8503 50.6953 77.1393 50.7552 77.3789 50.875C77.6185 50.9948 77.8021 51.1549 77.9297 51.3555C78.0573 51.5534 78.1211 51.7734 78.1211 52.0156H77.3984C77.3984 51.8984 77.3633 51.7852 77.293 51.6758C77.2253 51.5638 77.125 51.4714 76.9922 51.3984C76.862 51.3255 76.7018 51.2891 76.5117 51.2891C76.3112 51.2891 76.1484 51.3203 76.0234 51.3828C75.901 51.4427 75.8112 51.5195 75.7539 51.6133C75.6992 51.707 75.6719 51.806 75.6719 51.9102C75.6719 51.9883 75.6849 52.0586 75.7109 52.1211C75.7396 52.181 75.7891 52.237 75.8594 52.2891C75.9297 52.3385 76.0286 52.3854 76.1562 52.4297C76.2839 52.474 76.4466 52.5182 76.6445 52.5625C76.9909 52.6406 77.276 52.7344 77.5 52.8438C77.724 52.9531 77.8906 53.0872 78 53.2461C78.1094 53.4049 78.1641 53.5977 78.1641 53.8242C78.1641 54.0091 78.125 54.1784 78.0469 54.332C77.9714 54.4857 77.8607 54.6185 77.7148 54.7305C77.5716 54.8398 77.3997 54.9258 77.1992 54.9883C77.0013 55.0482 76.7786 55.0781 76.5312 55.0781C76.1589 55.0781 75.8438 55.0117 75.5859 54.8789C75.3281 54.7461 75.1328 54.5742 75 54.3633C74.8672 54.1523 74.8008 53.9297 74.8008 53.6953H75.5273C75.5378 53.8932 75.5951 54.0508 75.6992 54.168C75.8034 54.2826 75.931 54.3646 76.082 54.4141C76.2331 54.4609 76.3828 54.4844 76.5312 54.4844C76.7292 54.4844 76.8945 54.4583 77.0273 54.4062C77.1628 54.3542 77.2656 54.2826 77.3359 54.1914C77.4062 54.1003 77.4414 53.9961 77.4414 53.8789ZM79.8984 50.7734V55H79.1719V50.7734H79.8984ZM79.1172 49.6523C79.1172 49.5352 79.1523 49.4362 79.2227 49.3555C79.2956 49.2747 79.4023 49.2344 79.543 49.2344C79.681 49.2344 79.7865 49.2747 79.8594 49.3555C79.9349 49.4362 79.9727 49.5352 79.9727 49.6523C79.9727 49.7643 79.9349 49.8607 79.8594 49.9414C79.7865 50.0195 79.681 50.0586 79.543 50.0586C79.4023 50.0586 79.2956 50.0195 79.2227 49.9414C79.1523 49.8607 79.1172 49.7643 79.1172 49.6523ZM82.8281 50.7734V51.3281H80.543V50.7734H82.8281ZM81.3164 49.7461H82.0391V53.9531C82.0391 54.0964 82.0612 54.2044 82.1055 54.2773C82.1497 54.3503 82.207 54.3984 82.2773 54.4219C82.3477 54.4453 82.4232 54.457 82.5039 54.457C82.5638 54.457 82.6263 54.4518 82.6914 54.4414C82.7591 54.4284 82.8099 54.418 82.8438 54.4102L82.8477 55C82.7904 55.0182 82.7148 55.0352 82.6211 55.0508C82.5299 55.069 82.4193 55.0781 82.2891 55.0781C82.112 55.0781 81.9492 55.043 81.8008 54.9727C81.6523 54.9023 81.5339 54.7852 81.4453 54.6211C81.3594 54.4544 81.3164 54.2305 81.3164 53.9492V49.7461ZM84.8633 54.5625L86.0391 50.7734H86.8125L85.1172 55.6523C85.0781 55.7565 85.026 55.8685 84.9609 55.9883C84.8984 56.1107 84.8177 56.2266 84.7188 56.3359C84.6198 56.4453 84.5 56.5339 84.3594 56.6016C84.2214 56.6719 84.056 56.707 83.8633 56.707C83.806 56.707 83.7331 56.6992 83.6445 56.6836C83.556 56.668 83.4935 56.6549 83.457 56.6445L83.4531 56.0586C83.474 56.0612 83.5065 56.0638 83.5508 56.0664C83.5977 56.0716 83.6302 56.0742 83.6484 56.0742C83.8125 56.0742 83.9518 56.0521 84.0664 56.0078C84.181 55.9661 84.2773 55.8945 84.3555 55.793C84.4362 55.694 84.5052 55.5573 84.5625 55.3828L84.8633 54.5625ZM84 50.7734L85.0977 54.0547L85.2852 54.8164L84.7656 55.082L83.2109 50.7734H84ZM89.2578 52.9336V52.8438C89.2578 52.5391 89.3021 52.2565 89.3906 51.9961C89.4792 51.7331 89.6068 51.5052 89.7734 51.3125C89.9401 51.1172 90.1419 50.9661 90.3789 50.8594C90.6159 50.75 90.8815 50.6953 91.1758 50.6953C91.4727 50.6953 91.7396 50.75 91.9766 50.8594C92.2161 50.9661 92.4193 51.1172 92.5859 51.3125C92.7552 51.5052 92.8841 51.7331 92.9727 51.9961C93.0612 52.2565 93.1055 52.5391 93.1055 52.8438V52.9336C93.1055 53.2383 93.0612 53.5208 92.9727 53.7812C92.8841 54.0417 92.7552 54.2695 92.5859 54.4648C92.4193 54.6576 92.2174 54.8086 91.9805 54.918C91.7461 55.0247 91.4805 55.0781 91.1836 55.0781C90.8867 55.0781 90.6198 55.0247 90.3828 54.918C90.1458 54.8086 89.9427 54.6576 89.7734 54.4648C89.6068 54.2695 89.4792 54.0417 89.3906 53.7812C89.3021 53.5208 89.2578 53.2383 89.2578 52.9336ZM89.9805 52.8438V52.9336C89.9805 53.1445 90.0052 53.3438 90.0547 53.5312C90.1042 53.7161 90.1784 53.8802 90.2773 54.0234C90.3789 54.1667 90.5052 54.2799 90.6562 54.3633C90.8073 54.444 90.9831 54.4844 91.1836 54.4844C91.3815 54.4844 91.5547 54.444 91.7031 54.3633C91.8542 54.2799 91.9792 54.1667 92.0781 54.0234C92.1771 53.8802 92.2513 53.7161 92.3008 53.5312C92.3529 53.3438 92.3789 53.1445 92.3789 52.9336V52.8438C92.3789 52.6354 92.3529 52.4388 92.3008 52.2539C92.2513 52.0664 92.1758 51.901 92.0742 51.7578C91.9753 51.612 91.8503 51.4974 91.6992 51.4141C91.5508 51.3307 91.3763 51.2891 91.1758 51.2891C90.9779 51.2891 90.8034 51.3307 90.6523 51.4141C90.5039 51.4974 90.3789 51.612 90.2773 51.7578C90.1784 51.901 90.1042 52.0664 90.0547 52.2539C90.0052 52.4388 89.9805 52.6354 89.9805 52.8438ZM95.0898 55H94.3672V50.3281C94.3672 50.0234 94.4219 49.7669 94.5312 49.5586C94.6432 49.3477 94.8034 49.1888 95.0117 49.082C95.2201 48.9727 95.4674 48.918 95.7539 48.918C95.8372 48.918 95.9206 48.9232 96.0039 48.9336C96.0898 48.944 96.1732 48.9596 96.2539 48.9805L96.2148 49.5703C96.1602 49.5573 96.0977 49.5482 96.0273 49.543C95.9596 49.5378 95.8919 49.5352 95.8242 49.5352C95.6706 49.5352 95.5378 49.5664 95.4258 49.6289C95.3164 49.6888 95.2331 49.7773 95.1758 49.8945C95.1185 50.0117 95.0898 50.1562 95.0898 50.3281V55ZM95.9883 50.7734V51.3281H93.6992V50.7734H95.9883ZM100.832 49.3125V55H100.09V49.3125H100.832ZM102.66 49.3125V49.9297H98.2656V49.3125H102.66ZM104.758 55.0781C104.464 55.0781 104.197 55.0286 103.957 54.9297C103.72 54.8281 103.516 54.6862 103.344 54.5039C103.174 54.3216 103.044 54.1055 102.953 53.8555C102.862 53.6055 102.816 53.332 102.816 53.0352V52.8711C102.816 52.5273 102.867 52.2214 102.969 51.9531C103.07 51.6823 103.208 51.4531 103.383 51.2656C103.557 51.0781 103.755 50.9362 103.977 50.8398C104.198 50.7435 104.427 50.6953 104.664 50.6953C104.966 50.6953 105.227 50.7474 105.445 50.8516C105.667 50.9557 105.848 51.1016 105.988 51.2891C106.129 51.474 106.233 51.6927 106.301 51.9453C106.368 52.1953 106.402 52.4688 106.402 52.7656V53.0898H103.246V52.5H105.68V52.4453C105.669 52.2578 105.63 52.0755 105.562 51.8984C105.497 51.7214 105.393 51.5755 105.25 51.4609C105.107 51.3464 104.911 51.2891 104.664 51.2891C104.5 51.2891 104.349 51.3242 104.211 51.3945C104.073 51.4622 103.954 51.5638 103.855 51.6992C103.757 51.8346 103.68 52 103.625 52.1953C103.57 52.3906 103.543 52.6159 103.543 52.8711V53.0352C103.543 53.2357 103.57 53.4245 103.625 53.6016C103.682 53.776 103.764 53.9297 103.871 54.0625C103.98 54.1953 104.112 54.2995 104.266 54.375C104.422 54.4505 104.599 54.4883 104.797 54.4883C105.052 54.4883 105.268 54.4362 105.445 54.332C105.622 54.2279 105.777 54.0885 105.91 53.9141L106.348 54.2617C106.257 54.3997 106.141 54.5312 106 54.6562C105.859 54.7812 105.686 54.8828 105.48 54.9609C105.277 55.0391 105.036 55.0781 104.758 55.0781ZM108.938 54.4844C109.109 54.4844 109.268 54.4492 109.414 54.3789C109.56 54.3086 109.68 54.2122 109.773 54.0898C109.867 53.9648 109.921 53.8229 109.934 53.6641H110.621C110.608 53.9141 110.523 54.1471 110.367 54.3633C110.214 54.5768 110.012 54.75 109.762 54.8828C109.512 55.013 109.237 55.0781 108.938 55.0781C108.62 55.0781 108.342 55.0221 108.105 54.9102C107.871 54.7982 107.676 54.6445 107.52 54.4492C107.366 54.2539 107.25 54.0299 107.172 53.7773C107.096 53.5221 107.059 53.2526 107.059 52.9688V52.8047C107.059 52.5208 107.096 52.2526 107.172 52C107.25 51.7448 107.366 51.5195 107.52 51.3242C107.676 51.1289 107.871 50.9753 108.105 50.8633C108.342 50.7513 108.62 50.6953 108.938 50.6953C109.268 50.6953 109.557 50.763 109.805 50.8984C110.052 51.0312 110.246 51.2135 110.387 51.4453C110.53 51.6745 110.608 51.9349 110.621 52.2266H109.934C109.921 52.0521 109.871 51.8945 109.785 51.7539C109.702 51.6133 109.587 51.5013 109.441 51.418C109.298 51.332 109.13 51.2891 108.938 51.2891C108.716 51.2891 108.53 51.3333 108.379 51.4219C108.23 51.5078 108.112 51.625 108.023 51.7734C107.938 51.9193 107.875 52.082 107.836 52.2617C107.799 52.4388 107.781 52.6198 107.781 52.8047V52.9688C107.781 53.1536 107.799 53.3359 107.836 53.5156C107.872 53.6953 107.934 53.8581 108.02 54.0039C108.108 54.1497 108.227 54.2669 108.375 54.3555C108.526 54.4414 108.714 54.4844 108.938 54.4844ZM112.156 49V55H111.434V49H112.156ZM111.984 52.7266L111.684 52.7148C111.686 52.4258 111.729 52.1589 111.812 51.9141C111.896 51.6667 112.013 51.4518 112.164 51.2695C112.315 51.0872 112.495 50.9466 112.703 50.8477C112.914 50.7461 113.147 50.6953 113.402 50.6953C113.611 50.6953 113.798 50.724 113.965 50.7812C114.132 50.8359 114.273 50.9245 114.391 51.0469C114.51 51.1693 114.602 51.3281 114.664 51.5234C114.727 51.7161 114.758 51.9518 114.758 52.2305V55H114.031V52.2227C114.031 52.0013 113.999 51.8242 113.934 51.6914C113.868 51.556 113.773 51.4583 113.648 51.3984C113.523 51.3359 113.37 51.3047 113.188 51.3047C113.008 51.3047 112.844 51.3424 112.695 51.418C112.549 51.4935 112.423 51.5977 112.316 51.7305C112.212 51.8633 112.13 52.0156 112.07 52.1875C112.013 52.3568 111.984 52.5365 111.984 52.7266ZM116.562 51.6758V55H115.84V50.7734H116.523L116.562 51.6758ZM116.391 52.7266L116.09 52.7148C116.092 52.4258 116.135 52.1589 116.219 51.9141C116.302 51.6667 116.419 51.4518 116.57 51.2695C116.721 51.0872 116.901 50.9466 117.109 50.8477C117.32 50.7461 117.553 50.6953 117.809 50.6953C118.017 50.6953 118.204 50.724 118.371 50.7812C118.538 50.8359 118.68 50.9245 118.797 51.0469C118.917 51.1693 119.008 51.3281 119.07 51.5234C119.133 51.7161 119.164 51.9518 119.164 52.2305V55H118.438V52.2227C118.438 52.0013 118.405 51.8242 118.34 51.6914C118.275 51.556 118.18 51.4583 118.055 51.3984C117.93 51.3359 117.776 51.3047 117.594 51.3047C117.414 51.3047 117.25 51.3424 117.102 51.418C116.956 51.4935 116.829 51.5977 116.723 51.7305C116.618 51.8633 116.536 52.0156 116.477 52.1875C116.419 52.3568 116.391 52.5365 116.391 52.7266ZM120.07 52.9336V52.8438C120.07 52.5391 120.115 52.2565 120.203 51.9961C120.292 51.7331 120.419 51.5052 120.586 51.3125C120.753 51.1172 120.954 50.9661 121.191 50.8594C121.428 50.75 121.694 50.6953 121.988 50.6953C122.285 50.6953 122.552 50.75 122.789 50.8594C123.029 50.9661 123.232 51.1172 123.398 51.3125C123.568 51.5052 123.697 51.7331 123.785 51.9961C123.874 52.2565 123.918 52.5391 123.918 52.8438V52.9336C123.918 53.2383 123.874 53.5208 123.785 53.7812C123.697 54.0417 123.568 54.2695 123.398 54.4648C123.232 54.6576 123.03 54.8086 122.793 54.918C122.559 55.0247 122.293 55.0781 121.996 55.0781C121.699 55.0781 121.432 55.0247 121.195 54.918C120.958 54.8086 120.755 54.6576 120.586 54.4648C120.419 54.2695 120.292 54.0417 120.203 53.7812C120.115 53.5208 120.07 53.2383 120.07 52.9336ZM120.793 52.8438V52.9336C120.793 53.1445 120.818 53.3438 120.867 53.5312C120.917 53.7161 120.991 53.8802 121.09 54.0234C121.191 54.1667 121.318 54.2799 121.469 54.3633C121.62 54.444 121.796 54.4844 121.996 54.4844C122.194 54.4844 122.367 54.444 122.516 54.3633C122.667 54.2799 122.792 54.1667 122.891 54.0234C122.99 53.8802 123.064 53.7161 123.113 53.5312C123.165 53.3438 123.191 53.1445 123.191 52.9336V52.8438C123.191 52.6354 123.165 52.4388 123.113 52.2539C123.064 52.0664 122.988 51.901 122.887 51.7578C122.788 51.612 122.663 51.4974 122.512 51.4141C122.363 51.3307 122.189 51.2891 121.988 51.2891C121.79 51.2891 121.616 51.3307 121.465 51.4141C121.316 51.4974 121.191 51.612 121.09 51.7578C120.991 51.901 120.917 52.0664 120.867 52.2539C120.818 52.4388 120.793 52.6354 120.793 52.8438ZM125.609 49V55H124.883V49H125.609ZM126.578 52.9336V52.8438C126.578 52.5391 126.622 52.2565 126.711 51.9961C126.799 51.7331 126.927 51.5052 127.094 51.3125C127.26 51.1172 127.462 50.9661 127.699 50.8594C127.936 50.75 128.202 50.6953 128.496 50.6953C128.793 50.6953 129.06 50.75 129.297 50.8594C129.536 50.9661 129.74 51.1172 129.906 51.3125C130.076 51.5052 130.204 51.7331 130.293 51.9961C130.382 52.2565 130.426 52.5391 130.426 52.8438V52.9336C130.426 53.2383 130.382 53.5208 130.293 53.7812C130.204 54.0417 130.076 54.2695 129.906 54.4648C129.74 54.6576 129.538 54.8086 129.301 54.918C129.066 55.0247 128.801 55.0781 128.504 55.0781C128.207 55.0781 127.94 55.0247 127.703 54.918C127.466 54.8086 127.263 54.6576 127.094 54.4648C126.927 54.2695 126.799 54.0417 126.711 53.7812C126.622 53.5208 126.578 53.2383 126.578 52.9336ZM127.301 52.8438V52.9336C127.301 53.1445 127.326 53.3438 127.375 53.5312C127.424 53.7161 127.499 53.8802 127.598 54.0234C127.699 54.1667 127.826 54.2799 127.977 54.3633C128.128 54.444 128.303 54.4844 128.504 54.4844C128.702 54.4844 128.875 54.444 129.023 54.3633C129.174 54.2799 129.299 54.1667 129.398 54.0234C129.497 53.8802 129.572 53.7161 129.621 53.5312C129.673 53.3438 129.699 53.1445 129.699 52.9336V52.8438C129.699 52.6354 129.673 52.4388 129.621 52.2539C129.572 52.0664 129.496 51.901 129.395 51.7578C129.296 51.612 129.171 51.4974 129.02 51.4141C128.871 51.3307 128.697 51.2891 128.496 51.2891C128.298 51.2891 128.124 51.3307 127.973 51.4141C127.824 51.4974 127.699 51.612 127.598 51.7578C127.499 51.901 127.424 52.0664 127.375 52.2539C127.326 52.4388 127.301 52.6354 127.301 52.8438ZM134.07 50.7734H134.727V54.9102C134.727 55.2826 134.651 55.6003 134.5 55.8633C134.349 56.1263 134.138 56.3255 133.867 56.4609C133.599 56.599 133.289 56.668 132.938 56.668C132.792 56.668 132.62 56.6445 132.422 56.5977C132.227 56.5534 132.034 56.4766 131.844 56.3672C131.656 56.2604 131.499 56.1159 131.371 55.9336L131.75 55.5039C131.927 55.7174 132.112 55.8659 132.305 55.9492C132.5 56.0326 132.693 56.0742 132.883 56.0742C133.112 56.0742 133.31 56.0312 133.477 55.9453C133.643 55.8594 133.772 55.7318 133.863 55.5625C133.957 55.3958 134.004 55.1901 134.004 54.9453V51.7031L134.07 50.7734ZM131.16 52.9336V52.8516C131.16 52.5286 131.198 52.2357 131.273 51.9727C131.352 51.707 131.462 51.4792 131.605 51.2891C131.751 51.099 131.927 50.9531 132.133 50.8516C132.339 50.7474 132.57 50.6953 132.828 50.6953C133.094 50.6953 133.326 50.7422 133.523 50.8359C133.724 50.9271 133.893 51.0612 134.031 51.2383C134.172 51.4128 134.283 51.6237 134.363 51.8711C134.444 52.1185 134.5 52.3984 134.531 52.7109V53.0703C134.503 53.3802 134.447 53.6589 134.363 53.9062C134.283 54.1536 134.172 54.3646 134.031 54.5391C133.893 54.7135 133.724 54.8477 133.523 54.9414C133.323 55.0326 133.089 55.0781 132.82 55.0781C132.568 55.0781 132.339 55.0247 132.133 54.918C131.93 54.8112 131.755 54.6615 131.609 54.4688C131.464 54.276 131.352 54.0495 131.273 53.7891C131.198 53.526 131.16 53.2409 131.16 52.9336ZM131.883 52.8516V52.9336C131.883 53.1445 131.904 53.3424 131.945 53.5273C131.99 53.7122 132.056 53.875 132.145 54.0156C132.236 54.1562 132.352 54.2669 132.492 54.3477C132.633 54.4258 132.801 54.4648 132.996 54.4648C133.236 54.4648 133.434 54.4141 133.59 54.3125C133.746 54.2109 133.87 54.0768 133.961 53.9102C134.055 53.7435 134.128 53.5625 134.18 53.3672V52.4258C134.151 52.2826 134.107 52.1445 134.047 52.0117C133.99 51.8763 133.914 51.7565 133.82 51.6523C133.729 51.5456 133.616 51.4609 133.48 51.3984C133.345 51.3359 133.186 51.3047 133.004 51.3047C132.806 51.3047 132.635 51.3464 132.492 51.4297C132.352 51.5104 132.236 51.6224 132.145 51.7656C132.056 51.9062 131.99 52.0703 131.945 52.2578C131.904 52.4427 131.883 52.6406 131.883 52.8516ZM137.012 54.5625L138.188 50.7734H138.961L137.266 55.6523C137.227 55.7565 137.174 55.8685 137.109 55.9883C137.047 56.1107 136.966 56.2266 136.867 56.3359C136.768 56.4453 136.648 56.5339 136.508 56.6016C136.37 56.6719 136.204 56.707 136.012 56.707C135.954 56.707 135.882 56.6992 135.793 56.6836C135.704 56.668 135.642 56.6549 135.605 56.6445L135.602 56.0586C135.622 56.0612 135.655 56.0638 135.699 56.0664C135.746 56.0716 135.779 56.0742 135.797 56.0742C135.961 56.0742 136.1 56.0521 136.215 56.0078C136.329 55.9661 136.426 55.8945 136.504 55.793C136.585 55.694 136.654 55.5573 136.711 55.3828L137.012 54.5625ZM136.148 50.7734L137.246 54.0547L137.434 54.8164L136.914 55.082L135.359 50.7734H136.148Z" fill="#656C73"/>
</g>
<defs>
<clipPath id="clip0_981_3486">
<rect width="166" height="57" fill="white"/>
</clipPath>
</defs>
</svg>
