<svg width="107" height="60" viewBox="0 0 107 60" fill="none" xmlns="http://www.w3.org/2000/svg">
<g clip-path="url(#clip0_945_1809)">
<path d="M6.14062 54.2871H7.26562C7.20703 54.8262 7.05273 55.3086 6.80273 55.7344C6.55273 56.1602 6.19922 56.498 5.74219 56.748C5.28516 56.9941 4.71484 57.1172 4.03125 57.1172C3.53125 57.1172 3.07617 57.0234 2.66602 56.8359C2.25977 56.6484 1.91016 56.3828 1.61719 56.0391C1.32422 55.6914 1.09766 55.2754 0.9375 54.791C0.78125 54.3027 0.703125 53.7598 0.703125 53.1621V52.3125C0.703125 51.7148 0.78125 51.1738 0.9375 50.6895C1.09766 50.2012 1.32617 49.7832 1.62305 49.4355C1.92383 49.0879 2.28516 48.8203 2.70703 48.6328C3.12891 48.4453 3.60352 48.3516 4.13086 48.3516C4.77539 48.3516 5.32031 48.4727 5.76562 48.7148C6.21094 48.957 6.55664 49.293 6.80273 49.7227C7.05273 50.1484 7.20703 50.6426 7.26562 51.2051H6.14062C6.08594 50.8066 5.98438 50.4648 5.83594 50.1797C5.6875 49.8906 5.47656 49.668 5.20312 49.5117C4.92969 49.3555 4.57227 49.2773 4.13086 49.2773C3.75195 49.2773 3.41797 49.3496 3.12891 49.4941C2.84375 49.6387 2.60352 49.8438 2.4082 50.1094C2.2168 50.375 2.07227 50.6934 1.97461 51.0645C1.87695 51.4355 1.82812 51.8477 1.82812 52.3008V53.1621C1.82812 53.5801 1.87109 53.9727 1.95703 54.3398C2.04688 54.707 2.18164 55.0293 2.36133 55.3066C2.54102 55.584 2.76953 55.8027 3.04688 55.9629C3.32422 56.1191 3.65234 56.1973 4.03125 56.1973C4.51172 56.1973 4.89453 56.1211 5.17969 55.9688C5.46484 55.8164 5.67969 55.5977 5.82422 55.3125C5.97266 55.0273 6.07812 54.6855 6.14062 54.2871ZM9.72656 48V57H8.64258V48H9.72656ZM9.46875 53.5898L9.01758 53.5723C9.02148 53.1387 9.08594 52.7383 9.21094 52.3711C9.33594 52 9.51172 51.6777 9.73828 51.4043C9.96484 51.1309 10.2344 50.9199 10.5469 50.7715C10.8633 50.6191 11.2129 50.543 11.5957 50.543C11.9082 50.543 12.1895 50.5859 12.4395 50.6719C12.6895 50.7539 12.9023 50.8867 13.0781 51.0703C13.2578 51.2539 13.3945 51.4922 13.4883 51.7852C13.582 52.0742 13.6289 52.4277 13.6289 52.8457V57H12.5391V52.834C12.5391 52.502 12.4902 52.2363 12.3926 52.0371C12.2949 51.834 12.1523 51.6875 11.9648 51.5977C11.7773 51.5039 11.5469 51.457 11.2734 51.457C11.0039 51.457 10.7578 51.5137 10.5352 51.627C10.3164 51.7402 10.127 51.8965 9.9668 52.0957C9.81055 52.2949 9.6875 52.5234 9.59766 52.7812C9.51172 53.0352 9.46875 53.3047 9.46875 53.5898ZM19.1309 55.5352V50.6602H20.2207V57H19.1836L19.1309 55.5352ZM19.3359 54.1992L19.7871 54.1875C19.7871 54.6094 19.7422 55 19.6523 55.3594C19.5664 55.7148 19.4258 56.0234 19.2305 56.2852C19.0352 56.5469 18.7793 56.752 18.4629 56.9004C18.1465 57.0449 17.7617 57.1172 17.3086 57.1172C17 57.1172 16.7168 57.0723 16.459 56.9824C16.2051 56.8926 15.9863 56.7539 15.8027 56.5664C15.6191 56.3789 15.4766 56.1348 15.375 55.834C15.2773 55.5332 15.2285 55.1719 15.2285 54.75V50.6602H16.3125V54.7617C16.3125 55.0469 16.3438 55.2832 16.4062 55.4707C16.4727 55.6543 16.5605 55.8008 16.6699 55.9102C16.7832 56.0156 16.9082 56.0898 17.0449 56.1328C17.1855 56.1758 17.3301 56.1973 17.4785 56.1973C17.9395 56.1973 18.3047 56.1094 18.5742 55.9336C18.8438 55.7539 19.0371 55.5137 19.1543 55.2129C19.2754 54.9082 19.3359 54.5703 19.3359 54.1992ZM17.1504 49.7227L18.2871 48H19.5938L18.0234 49.7227H17.1504ZM22.957 52.0137V57H21.873V50.6602H22.8984L22.957 52.0137ZM22.6992 53.5898L22.248 53.5723C22.252 53.1387 22.3164 52.7383 22.4414 52.3711C22.5664 52 22.7422 51.6777 22.9688 51.4043C23.1953 51.1309 23.4648 50.9199 23.7773 50.7715C24.0938 50.6191 24.4434 50.543 24.8262 50.543C25.1387 50.543 25.4199 50.5859 25.6699 50.6719C25.9199 50.7539 26.1328 50.8867 26.3086 51.0703C26.4883 51.2539 26.625 51.4922 26.7188 51.7852C26.8125 52.0742 26.8594 52.4277 26.8594 52.8457V57H25.7695V52.834C25.7695 52.502 25.7207 52.2363 25.623 52.0371C25.5254 51.834 25.3828 51.6875 25.1953 51.5977C25.0078 51.5039 24.7773 51.457 24.5039 51.457C24.2344 51.457 23.9883 51.5137 23.7656 51.627C23.5469 51.7402 23.3574 51.8965 23.1973 52.0957C23.041 52.2949 22.918 52.5234 22.8281 52.7812C22.7422 53.0352 22.6992 53.3047 22.6992 53.5898ZM32.6133 50.6602H33.5977V56.8652C33.5977 57.4238 33.4844 57.9004 33.2578 58.2949C33.0312 58.6895 32.7148 58.9883 32.3086 59.1914C31.9062 59.3984 31.4414 59.502 30.9141 59.502C30.6953 59.502 30.4375 59.4668 30.1406 59.3965C29.8477 59.3301 29.5586 59.2148 29.2734 59.0508C28.9922 58.8906 28.7559 58.6738 28.5645 58.4004L29.1328 57.7559C29.3984 58.0762 29.6758 58.2988 29.9648 58.4238C30.2578 58.5488 30.5469 58.6113 30.832 58.6113C31.1758 58.6113 31.4727 58.5469 31.7227 58.418C31.9727 58.2891 32.166 58.0977 32.3027 57.8438C32.4434 57.5938 32.5137 57.2852 32.5137 56.918V52.0547L32.6133 50.6602ZM28.248 53.9004V53.7773C28.248 53.293 28.3047 52.8535 28.418 52.459C28.5352 52.0605 28.7012 51.7188 28.916 51.4336C29.1348 51.1484 29.3984 50.9297 29.707 50.7773C30.0156 50.6211 30.3633 50.543 30.75 50.543C31.1484 50.543 31.4961 50.6133 31.793 50.7539C32.0938 50.8906 32.3477 51.0918 32.5547 51.3574C32.7656 51.6191 32.9316 51.9355 33.0527 52.3066C33.1738 52.6777 33.2578 53.0977 33.3047 53.5664V54.1055C33.2617 54.5703 33.1777 54.9883 33.0527 55.3594C32.9316 55.7305 32.7656 56.0469 32.5547 56.3086C32.3477 56.5703 32.0938 56.7715 31.793 56.9121C31.4922 57.0488 31.1406 57.1172 30.7383 57.1172C30.3594 57.1172 30.0156 57.0371 29.707 56.877C29.4023 56.7168 29.1406 56.4922 28.9219 56.2031C28.7031 55.9141 28.5352 55.5742 28.418 55.1836C28.3047 54.7891 28.248 54.3613 28.248 53.9004ZM29.332 53.7773V53.9004C29.332 54.2168 29.3633 54.5137 29.4258 54.791C29.4922 55.0684 29.5918 55.3125 29.7246 55.5234C29.8613 55.7344 30.0352 55.9004 30.2461 56.0215C30.457 56.1387 30.709 56.1973 31.002 56.1973C31.3613 56.1973 31.6582 56.1211 31.8926 55.9688C32.127 55.8164 32.3125 55.6152 32.4492 55.3652C32.5898 55.1152 32.6992 54.8438 32.7773 54.5508V53.1387C32.7344 52.9238 32.668 52.7168 32.5781 52.5176C32.4922 52.3145 32.3789 52.1348 32.2383 51.9785C32.1016 51.8184 31.9316 51.6914 31.7285 51.5977C31.5254 51.5039 31.2871 51.457 31.0137 51.457C30.7168 51.457 30.4609 51.5195 30.2461 51.6445C30.0352 51.7656 29.8613 51.9336 29.7246 52.1484C29.5918 52.3594 29.4922 52.6055 29.4258 52.8867C29.3633 53.1641 29.332 53.4609 29.332 53.7773ZM41.3027 48.4688V57H40.1895V48.4688H41.3027ZM44.0449 48.4688V49.3945H37.4531V48.4688H44.0449ZM48.2168 55.916V52.6523C48.2168 52.4023 48.166 52.1855 48.0645 52.002C47.9668 51.8145 47.8184 51.6699 47.6191 51.5684C47.4199 51.4668 47.1738 51.416 46.8809 51.416C46.6074 51.416 46.3672 51.4629 46.1602 51.5566C45.957 51.6504 45.7969 51.7734 45.6797 51.9258C45.5664 52.0781 45.5098 52.2422 45.5098 52.418H44.4258C44.4258 52.1914 44.4844 51.9668 44.6016 51.7441C44.7188 51.5215 44.8867 51.3203 45.1055 51.1406C45.3281 50.957 45.5938 50.8125 45.9023 50.707C46.2148 50.5977 46.5625 50.543 46.9453 50.543C47.4062 50.543 47.8125 50.6211 48.1641 50.7773C48.5195 50.9336 48.7969 51.1699 48.9961 51.4863C49.1992 51.7988 49.3008 52.1914 49.3008 52.6641V55.6172C49.3008 55.8281 49.3184 56.0527 49.3535 56.291C49.3926 56.5293 49.4492 56.7344 49.5234 56.9062V57H48.3926C48.3379 56.875 48.2949 56.709 48.2637 56.502C48.2324 56.291 48.2168 56.0957 48.2168 55.916ZM48.4043 53.1562L48.416 53.918H47.3203C47.0117 53.918 46.7363 53.9434 46.4941 53.9941C46.252 54.041 46.0488 54.1133 45.8848 54.2109C45.7207 54.3086 45.5957 54.4316 45.5098 54.5801C45.4238 54.7246 45.3809 54.8945 45.3809 55.0898C45.3809 55.2891 45.4258 55.4707 45.5156 55.6348C45.6055 55.7988 45.7402 55.9297 45.9199 56.0273C46.1035 56.1211 46.3281 56.168 46.5938 56.168C46.9258 56.168 47.2188 56.0977 47.4727 55.957C47.7266 55.8164 47.9277 55.6445 48.0762 55.4414C48.2285 55.2383 48.3105 55.041 48.3223 54.8496L48.7852 55.3711C48.7578 55.5352 48.6836 55.7168 48.5625 55.916C48.4414 56.1152 48.2793 56.3066 48.0762 56.4902C47.877 56.6699 47.6387 56.8203 47.3613 56.9414C47.0879 57.0586 46.7793 57.1172 46.4355 57.1172C46.0059 57.1172 45.6289 57.0332 45.3047 56.8652C44.9844 56.6973 44.7344 56.4727 44.5547 56.1914C44.3789 55.9062 44.291 55.5879 44.291 55.2363C44.291 54.8965 44.3574 54.5977 44.4902 54.3398C44.623 54.0781 44.8145 53.8613 45.0645 53.6895C45.3145 53.5137 45.6152 53.3809 45.9668 53.291C46.3184 53.2012 46.7109 53.1562 47.1445 53.1562H48.4043ZM59.2969 54.2871H60.4219C60.3633 54.8262 60.209 55.3086 59.959 55.7344C59.709 56.1602 59.3555 56.498 58.8984 56.748C58.4414 56.9941 57.8711 57.1172 57.1875 57.1172C56.6875 57.1172 56.2324 57.0234 55.8223 56.8359C55.416 56.6484 55.0664 56.3828 54.7734 56.0391C54.4805 55.6914 54.2539 55.2754 54.0938 54.791C53.9375 54.3027 53.8594 53.7598 53.8594 53.1621V52.3125C53.8594 51.7148 53.9375 51.1738 54.0938 50.6895C54.2539 50.2012 54.4824 49.7832 54.7793 49.4355C55.0801 49.0879 55.4414 48.8203 55.8633 48.6328C56.2852 48.4453 56.7598 48.3516 57.2871 48.3516C57.9316 48.3516 58.4766 48.4727 58.9219 48.7148C59.3672 48.957 59.7129 49.293 59.959 49.7227C60.209 50.1484 60.3633 50.6426 60.4219 51.2051H59.2969C59.2422 50.8066 59.1406 50.4648 58.9922 50.1797C58.8438 49.8906 58.6328 49.668 58.3594 49.5117C58.0859 49.3555 57.7285 49.2773 57.2871 49.2773C56.9082 49.2773 56.5742 49.3496 56.2852 49.4941C56 49.6387 55.7598 49.8438 55.5645 50.1094C55.373 50.375 55.2285 50.6934 55.1309 51.0645C55.0332 51.4355 54.9844 51.8477 54.9844 52.3008V53.1621C54.9844 53.5801 55.0273 53.9727 55.1133 54.3398C55.2031 54.707 55.3379 55.0293 55.5176 55.3066C55.6973 55.584 55.9258 55.8027 56.2031 55.9629C56.4805 56.1191 56.8086 56.1973 57.1875 56.1973C57.668 56.1973 58.0508 56.1211 58.3359 55.9688C58.6211 55.8164 58.8359 55.5977 58.9805 55.3125C59.1289 55.0273 59.2344 54.6855 59.2969 54.2871ZM65.6777 55.5352V50.6602H66.7676V57H65.7305L65.6777 55.5352ZM65.8828 54.1992L66.334 54.1875C66.334 54.6094 66.2891 55 66.1992 55.3594C66.1133 55.7148 65.9727 56.0234 65.7773 56.2852C65.582 56.5469 65.3262 56.752 65.0098 56.9004C64.6934 57.0449 64.3086 57.1172 63.8555 57.1172C63.5469 57.1172 63.2637 57.0723 63.0059 56.9824C62.752 56.8926 62.5332 56.7539 62.3496 56.5664C62.166 56.3789 62.0234 56.1348 61.9219 55.834C61.8242 55.5332 61.7754 55.1719 61.7754 54.75V50.6602H62.8594V54.7617C62.8594 55.0469 62.8906 55.2832 62.9531 55.4707C63.0195 55.6543 63.1074 55.8008 63.2168 55.9102C63.3301 56.0156 63.4551 56.0898 63.5918 56.1328C63.7324 56.1758 63.877 56.1973 64.0254 56.1973C64.4863 56.1973 64.8516 56.1094 65.1211 55.9336C65.3906 55.7539 65.584 55.5137 65.7012 55.2129C65.8223 54.9082 65.8828 54.5703 65.8828 54.1992ZM63.7793 48L64.9102 49.7227H63.9785L62.4668 48H63.7793ZM69.5039 52.0137V57H68.4199V50.6602H69.4453L69.5039 52.0137ZM69.2461 53.5898L68.7949 53.5723C68.7988 53.1387 68.8633 52.7383 68.9883 52.3711C69.1133 52 69.2891 51.6777 69.5156 51.4043C69.7422 51.1309 70.0117 50.9199 70.3242 50.7715C70.6406 50.6191 70.9902 50.543 71.373 50.543C71.6855 50.543 71.9668 50.5859 72.2168 50.6719C72.4668 50.7539 72.6797 50.8867 72.8555 51.0703C73.0352 51.2539 73.1719 51.4922 73.2656 51.7852C73.3594 52.0742 73.4062 52.4277 73.4062 52.8457V57H72.3164V52.834C72.3164 52.502 72.2676 52.2363 72.1699 52.0371C72.0723 51.834 71.9297 51.6875 71.7422 51.5977C71.5547 51.5039 71.3242 51.457 71.0508 51.457C70.7812 51.457 70.5352 51.5137 70.3125 51.627C70.0938 51.7402 69.9043 51.8965 69.7441 52.0957C69.5879 52.2949 69.4648 52.5234 69.375 52.7812C69.2891 53.0352 69.2461 53.3047 69.2461 53.5898ZM79.1602 50.6602H80.1445V56.8652C80.1445 57.4238 80.0312 57.9004 79.8047 58.2949C79.5781 58.6895 79.2617 58.9883 78.8555 59.1914C78.4531 59.3984 77.9883 59.502 77.4609 59.502C77.2422 59.502 76.9844 59.4668 76.6875 59.3965C76.3945 59.3301 76.1055 59.2148 75.8203 59.0508C75.5391 58.8906 75.3027 58.6738 75.1113 58.4004L75.6797 57.7559C75.9453 58.0762 76.2227 58.2988 76.5117 58.4238C76.8047 58.5488 77.0938 58.6113 77.3789 58.6113C77.7227 58.6113 78.0195 58.5469 78.2695 58.418C78.5195 58.2891 78.7129 58.0977 78.8496 57.8438C78.9902 57.5938 79.0605 57.2852 79.0605 56.918V52.0547L79.1602 50.6602ZM74.7949 53.9004V53.7773C74.7949 53.293 74.8516 52.8535 74.9648 52.459C75.082 52.0605 75.248 51.7188 75.4629 51.4336C75.6816 51.1484 75.9453 50.9297 76.2539 50.7773C76.5625 50.6211 76.9102 50.543 77.2969 50.543C77.6953 50.543 78.043 50.6133 78.3398 50.7539C78.6406 50.8906 78.8945 51.0918 79.1016 51.3574C79.3125 51.6191 79.4785 51.9355 79.5996 52.3066C79.7207 52.6777 79.8047 53.0977 79.8516 53.5664V54.1055C79.8086 54.5703 79.7246 54.9883 79.5996 55.3594C79.4785 55.7305 79.3125 56.0469 79.1016 56.3086C78.8945 56.5703 78.6406 56.7715 78.3398 56.9121C78.0391 57.0488 77.6875 57.1172 77.2852 57.1172C76.9062 57.1172 76.5625 57.0371 76.2539 56.877C75.9492 56.7168 75.6875 56.4922 75.4688 56.2031C75.25 55.9141 75.082 55.5742 74.9648 55.1836C74.8516 54.7891 74.7949 54.3613 74.7949 53.9004ZM75.8789 53.7773V53.9004C75.8789 54.2168 75.9102 54.5137 75.9727 54.791C76.0391 55.0684 76.1387 55.3125 76.2715 55.5234C76.4082 55.7344 76.582 55.9004 76.793 56.0215C77.0039 56.1387 77.2559 56.1973 77.5488 56.1973C77.9082 56.1973 78.2051 56.1211 78.4395 55.9688C78.6738 55.8164 78.8594 55.6152 78.9961 55.3652C79.1367 55.1152 79.2461 54.8438 79.3242 54.5508V53.1387C79.2812 52.9238 79.2148 52.7168 79.125 52.5176C79.0391 52.3145 78.9258 52.1348 78.7852 51.9785C78.6484 51.8184 78.4785 51.6914 78.2754 51.5977C78.0723 51.5039 77.834 51.457 77.5605 51.457C77.2637 51.457 77.0078 51.5195 76.793 51.6445C76.582 51.7656 76.4082 51.9336 76.2715 52.1484C76.1387 52.3594 76.0391 52.6055 75.9727 52.8867C75.9102 53.1641 75.8789 53.4609 75.8789 53.7773ZM87.8496 48.4688V57H86.7363V48.4688H87.8496ZM90.5918 48.4688V49.3945H84V48.4688H90.5918ZM92.8711 50.6602V57H91.7812V50.6602H92.8711ZM91.6992 48.9785C91.6992 48.8027 91.752 48.6543 91.8574 48.5332C91.9668 48.4121 92.127 48.3516 92.3379 48.3516C92.5449 48.3516 92.7031 48.4121 92.8125 48.5332C92.9258 48.6543 92.9824 48.8027 92.9824 48.9785C92.9824 49.1465 92.9258 49.291 92.8125 49.4121C92.7031 49.5293 92.5449 49.5879 92.3379 49.5879C92.127 49.5879 91.9668 49.5293 91.8574 49.4121C91.752 49.291 91.6992 49.1465 91.6992 48.9785ZM97.2422 57.1172C96.8008 57.1172 96.4004 57.043 96.041 56.8945C95.6855 56.7422 95.3789 56.5293 95.1211 56.2559C94.8672 55.9824 94.6719 55.6582 94.5352 55.2832C94.3984 54.9082 94.3301 54.498 94.3301 54.0527V53.8066C94.3301 53.291 94.4062 52.832 94.5586 52.4297C94.7109 52.0234 94.918 51.6797 95.1797 51.3984C95.4414 51.1172 95.7383 50.9043 96.0703 50.7598C96.4023 50.6152 96.7461 50.543 97.1016 50.543C97.5547 50.543 97.9453 50.6211 98.2734 50.7773C98.6055 50.9336 98.877 51.1523 99.0879 51.4336C99.2988 51.7109 99.4551 52.0391 99.5566 52.418C99.6582 52.793 99.709 53.2031 99.709 53.6484V54.1348H94.9746V53.25H98.625V53.168C98.6094 52.8867 98.5508 52.6133 98.4492 52.3477C98.3516 52.082 98.1953 51.8633 97.9805 51.6914C97.7656 51.5195 97.4727 51.4336 97.1016 51.4336C96.8555 51.4336 96.6289 51.4863 96.4219 51.5918C96.2148 51.6934 96.0371 51.8457 95.8887 52.0488C95.7402 52.252 95.625 52.5 95.543 52.793C95.4609 53.0859 95.4199 53.4238 95.4199 53.8066V54.0527C95.4199 54.3535 95.4609 54.6367 95.543 54.9023C95.6289 55.1641 95.752 55.3945 95.9121 55.5938C96.0762 55.793 96.2734 55.9492 96.5039 56.0625C96.7383 56.1758 97.0039 56.2324 97.3008 56.2324C97.6836 56.2324 98.0078 56.1543 98.2734 55.998C98.5391 55.8418 98.7715 55.6328 98.9707 55.3711L99.627 55.8926C99.4902 56.0996 99.3164 56.2969 99.1055 56.4844C98.8945 56.6719 98.6348 56.8242 98.3262 56.9414C98.0215 57.0586 97.6602 57.1172 97.2422 57.1172ZM94.9453 49.7227L96.6504 48.1875H97.541L99.2461 49.7227H98.0918L97.0957 48.7969L96.0996 49.7227H94.9453ZM98.8125 48.6855L99.6387 47.1738H100.811L99.6328 48.6855H98.8125ZM102.059 52.0137V57H100.975V50.6602H102L102.059 52.0137ZM101.801 53.5898L101.35 53.5723C101.354 53.1387 101.418 52.7383 101.543 52.3711C101.668 52 101.844 51.6777 102.07 51.4043C102.297 51.1309 102.566 50.9199 102.879 50.7715C103.195 50.6191 103.545 50.543 103.928 50.543C104.24 50.543 104.521 50.5859 104.771 50.6719C105.021 50.7539 105.234 50.8867 105.41 51.0703C105.59 51.2539 105.727 51.4922 105.82 51.7852C105.914 52.0742 105.961 52.4277 105.961 52.8457V57H104.871V52.834C104.871 52.502 104.822 52.2363 104.725 52.0371C104.627 51.834 104.484 51.6875 104.297 51.5977C104.109 51.5039 103.879 51.457 103.605 51.457C103.336 51.457 103.09 51.5137 102.867 51.627C102.648 51.7402 102.459 51.8965 102.299 52.0957C102.143 52.2949 102.02 52.5234 101.93 52.7812C101.844 53.0352 101.801 53.3047 101.801 53.5898Z" fill="#656C73"/>
<g clip-path="url(#clip1_945_1809)">
<path d="M23.2205 17.6325C22.927 17.6444 22.6335 17.6659 22.34 17.6667C21.0523 17.6705 19.7646 17.6633 18.4769 17.6702C17.6775 17.6746 16.8783 17.6971 16.0599 17.7115C16.0409 17.7115 16.0409 17.6899 16.0545 17.6755C16.1202 17.6186 16.1712 17.5745 16.2248 17.5342C16.6922 17.1816 17.1539 16.82 17.6292 16.4798C18.4908 15.8633 19.3532 15.2473 20.2292 14.6542C21.0658 14.0878 21.9198 13.5504 22.7667 13.0012C23.5295 12.5066 24.2903 12.0083 25.057 11.5207C25.8743 11.0009 26.6962 10.4893 27.5185 9.97848C28.2277 9.53798 28.9387 9.10075 29.6518 8.66753C30.262 8.29684 30.8782 7.93729 31.4885 7.56666C32.2017 7.1335 32.9025 6.6766 33.6247 6.26118C34.4754 5.77179 35.3429 5.31535 36.2035 4.84551C37.1639 4.32124 38.1193 3.78641 39.0867 3.27727C40.2302 2.67552 41.3822 2.09206 42.5342 1.50902C43.1923 1.17597 43.8585 0.861139 44.5197 0.534932C44.8445 0.374667 45.1662 0.207186 45.4893 0.0429692C45.5588 0.0429687 45.6284 0.0429687 45.7153 0.0429688C46.1764 0.200246 46.6173 0.367318 47.0646 0.51242C47.6785 0.71159 48.2944 0.905273 48.9145 1.08124C49.9407 1.37248 50.9678 1.66174 52.0009 1.92358C52.4936 2.04845 53.0013 2.10598 53.5014 2.19836C54.0595 2.30145 54.6164 2.41204 55.1746 2.51456C55.6359 2.5993 56.0985 2.6768 56.5605 2.75795C57.1069 2.85394 57.6526 2.95524 58.2 3.04491C58.5466 3.10169 58.8957 3.14169 59.2437 3.18876C59.6574 3.24473 60.0709 3.303 60.4851 3.35492C60.7689 3.39048 61.054 3.41331 61.3378 3.44822C61.772 3.50163 62.2053 3.5632 62.6396 3.61617C62.9235 3.6508 63.2082 3.67926 63.4929 3.70536C64.1364 3.76434 64.7801 3.821 65.4238 3.87675C65.6301 3.89462 65.8367 3.90953 66.0434 3.92084C66.5984 3.9512 67.1534 3.98116 67.7085 4.00704C68.3783 4.03826 69.0483 4.06702 69.7183 4.09335C70.5031 4.12419 71.288 4.15321 72.0729 4.17931C72.6105 4.19719 73.1484 4.20825 73.6861 4.22325C74.1765 4.23693 74.6671 4.24766 75.1573 4.26789C75.4111 4.27836 75.6643 4.30659 75.9273 4.32755C75.8965 4.34899 75.8671 4.38018 75.8318 4.3926C74.5941 4.8282 73.3556 5.2616 72.1175 5.69622C70.4004 6.29901 68.6826 6.8998 66.9668 7.50667C65.7674 7.93087 64.556 8.32309 63.3772 8.80465C62.2646 9.25915 61.1413 9.69238 60.0773 10.2794C59.2027 10.7619 58.3005 11.1883 57.4087 11.6354C56.6009 12.0404 55.7905 12.4399 54.9812 12.8418C54.1719 13.2437 53.3633 13.647 52.5532 14.0471C51.5885 14.5235 50.6221 14.9961 49.6574 15.4725C48.8771 15.8578 48.0979 16.2456 47.3189 16.6336C46.6289 16.9773 45.9366 17.3162 45.2515 17.6705C44.8969 17.8539 44.5564 18.0676 44.2075 18.2635C44.157 18.2919 44.0948 18.313 44.0388 18.311C43.8665 18.3048 43.6947 18.2765 43.5225 18.2732C42.586 18.2556 41.6493 18.25 40.713 18.226C40.1509 18.2115 39.5893 18.1716 39.0275 18.1422C38.4927 18.1142 37.9581 18.0819 37.4232 18.0572C37.0073 18.038 36.5911 18.0252 36.175 18.0137C35.5832 17.9972 34.9914 17.9842 34.3995 17.9701C33.7874 17.9555 33.1753 17.9414 32.5633 17.9269C31.9579 17.9126 31.3525 17.9021 30.7473 17.8829C29.9691 17.8581 29.1911 17.8269 28.413 17.7975C27.6687 17.7694 26.9243 17.7425 26.1801 17.7107C25.598 17.6859 25.0161 17.6546 24.3967 17.6263C23.9796 17.6284 23.6001 17.6304 23.2205 17.6325Z" fill="#225157"/>
<path d="M48.1433 39.0428C48.1117 38.9537 48.0865 38.8646 48.0864 38.7756C48.0843 35.8674 48.0847 32.9592 48.0847 30.0511C48.0847 28.7194 48.0847 27.3878 48.0847 26.0375C46.6411 26.0375 45.2459 26.0375 43.8477 26.0375C43.8477 24.5964 43.8477 23.174 43.8477 21.7354C46.6706 21.7354 49.4717 21.7354 52.288 21.7354C52.288 27.477 52.288 33.231 52.288 38.9912C52.2316 38.997 52.1726 39.0031 52.1069 39.026C52.0308 39.0428 51.9613 39.0428 51.8671 39.0255C50.7379 39.0054 49.6334 39.0024 48.5289 39.0017C48.5026 39.0017 48.4761 39.0285 48.4497 39.0428C48.3536 39.0428 48.2574 39.0428 48.1433 39.0428Z" fill="#FF0000"/>
<path d="M62.8266 39.0429C62.7419 39.0142 62.6752 38.9624 62.6071 38.9604C62.0634 38.9439 61.5726 38.7677 61.2047 38.34C60.8436 37.9202 60.5961 37.4379 60.6134 36.8286C60.6358 36.0394 60.622 35.2488 60.6182 34.4588C60.6063 31.9771 60.5918 29.4955 60.5783 27.0138C60.5779 26.9364 60.5783 26.859 60.5783 26.7715C62.0422 26.7715 63.4916 26.7715 64.9757 26.7715C64.9757 29.3785 64.9757 31.9791 64.9757 34.6211C68.0854 34.6211 71.1603 34.6211 74.2944 34.6211C74.0524 34.9896 73.8506 35.3032 73.6426 35.612C73.2519 36.1921 72.8553 36.7677 72.4654 37.3483C72.122 37.8598 71.786 38.377 71.4409 38.8873C71.4133 38.9281 71.3416 38.9494 71.2885 38.9537C71.1675 38.9633 71.0452 38.9529 70.9237 38.9574C70.4947 38.9732 70.0658 38.9918 69.6303 39.0261C69.5542 39.0429 69.4846 39.0429 69.3904 39.0256C68.5317 39.0055 67.6975 39.0024 66.8634 39.0018C66.8371 39.0018 66.8107 39.0286 66.7843 39.0429C65.9317 39.0429 65.079 39.0429 64.2001 39.0256C63.8596 39.0055 63.5455 39.0004 63.2314 39.0018C63.1717 39.0021 63.1122 39.0285 63.0526 39.0429C62.983 39.0429 62.9135 39.0429 62.8266 39.0429Z" fill="#FF0000"/>
<path d="M37.1105 39.0431C36.9686 39.0144 36.8447 38.9609 36.7207 38.9606C34.7332 38.9554 32.7457 38.9545 30.7582 38.9582C30.0257 38.9595 29.48 38.6001 29.0698 37.9853C28.8641 37.677 28.7677 37.333 28.7716 36.9408C28.7859 35.5188 28.7722 34.0966 28.7785 32.6746C28.7871 30.7315 28.8043 28.7884 28.8178 26.8453C28.818 26.8107 28.8178 26.7761 28.8178 26.7437C30.2367 26.7437 31.6433 26.7437 33.0678 26.7437C33.0678 29.3718 33.0678 31.9747 33.0678 34.5948C36.1573 34.5948 39.2291 34.5948 42.331 34.5948C42.1503 34.887 41.9906 35.1561 41.8208 35.4177C41.4104 36.0502 40.9938 36.6781 40.5825 37.31C40.239 37.8378 39.9043 38.3721 39.5526 38.8936C39.5058 38.963 39.3818 38.9737 39.2882 39.0273C39.2134 39.0431 39.1438 39.0431 39.0496 39.0258C38.5153 39.0058 38.0055 39.0023 37.4958 39.0021C37.4696 39.0021 37.4433 39.0288 37.417 39.0431C37.3209 39.0431 37.2247 39.0431 37.1105 39.0431Z" fill="#FF0000"/>
<path d="M91.0408 21.7894C90.9664 21.8774 90.8766 21.9376 90.8201 22.0228C90.3359 22.7524 89.8598 23.4881 89.3769 24.2187C88.9956 24.7956 88.6087 25.3683 88.2216 25.9408C88.1957 25.979 88.1472 26.0249 88.1091 26.025C87.1046 26.0297 86.1001 26.0287 85.0869 26.0287C85.0869 24.573 85.0869 23.1347 85.0869 21.6763C87.063 21.6763 89.0329 21.6763 91.0217 21.6763C91.0408 21.7086 91.0408 21.7409 91.0408 21.7894Z" fill="#FF0000"/>
<path d="M51.0721 15.5458C51.9519 15.0981 52.818 14.6586 53.6849 14.2209C54.3972 13.8612 55.1103 13.5036 55.8231 13.1451C56.5656 12.7717 57.3072 12.3961 58.0512 12.026C58.6103 11.7478 59.1727 11.4773 59.7333 11.2025C59.8847 11.1283 60.0018 11.1345 60.0955 11.312C60.372 11.8357 60.6588 12.3533 60.9418 12.8731C61.3264 13.5799 61.7118 14.2864 62.0958 14.9936C62.2239 15.2294 62.3791 15.4554 62.4655 15.7078C62.531 15.899 62.5179 16.1249 62.5152 16.335C62.5145 16.3854 62.4233 16.4518 62.3613 16.4812C61.7925 16.7511 61.222 17.0172 60.6498 17.279C60.0358 17.5601 59.4195 17.8354 58.8042 18.1131C58.0803 18.4397 57.3553 18.7635 56.6329 19.0937C56.0002 19.3828 55.3706 19.6793 54.7395 19.9722C54.331 20.1619 53.9224 20.3518 53.5131 20.5396C53.4838 20.5531 53.448 20.5542 53.4151 20.5552C52.9179 20.5703 52.4207 20.5965 51.9235 20.5969C48.1856 20.6004 44.4477 20.5932 40.7098 20.6004C36.7923 20.6078 32.8749 20.627 28.9575 20.6439C28.8071 20.6446 28.6568 20.675 28.4834 20.694C28.644 19.9593 28.798 19.2547 28.9472 18.5722C29.4109 18.5722 29.8729 18.5722 30.335 18.5723C30.362 18.5723 30.389 18.5729 30.4161 18.5734C31.231 18.5878 32.0459 18.6001 32.8608 18.6173C33.3378 18.6274 33.8146 18.6449 34.2916 18.6597C34.7415 18.6736 35.1914 18.6888 35.6413 18.7026C36.125 18.7175 36.6087 18.7311 37.0924 18.7459C37.5423 18.7598 37.9922 18.7748 38.4421 18.7888C38.9122 18.8035 39.3824 18.8174 39.8526 18.8321C40.3025 18.8461 40.7524 18.8609 41.2023 18.875C41.6657 18.8896 42.1293 18.8997 42.5925 18.9193C43.1067 18.941 43.6205 18.9853 44.1346 18.9884C44.273 18.9892 44.4148 18.882 44.5503 18.8137C45.4472 18.3615 46.3424 17.9055 47.2389 17.4524C47.945 17.0955 48.6511 16.7383 49.3593 16.3861C49.9242 16.1052 50.4923 15.8316 51.0721 15.5458Z" fill="#225157"/>
<path d="M82.0357 21.6763C82.785 21.6763 83.514 21.6763 84.2548 21.6763C84.2548 27.4355 84.2548 33.1837 84.2548 38.9327C82.8496 38.9327 81.443 38.9327 80.0076 38.9327C80.0076 38.8263 80.0076 38.7437 80.0076 38.6612C80.0076 35.0705 80.0093 31.4799 80.0058 27.8893C80.0052 27.3252 79.9772 26.7612 79.9694 26.1971C79.9676 26.061 79.9155 26.0259 79.7981 26.027C79.3452 26.0314 78.8923 26.0288 78.4394 26.0288C77.5104 26.0288 76.5813 26.0288 75.6396 26.0288C75.6396 24.5519 75.6396 23.1271 75.6396 21.6763C77.7628 21.6763 79.8891 21.6763 82.0357 21.6763Z" fill="#FF0000"/>
<path d="M23.2202 17.6524C23.5998 17.6306 23.9794 17.6286 24.3777 17.6296C24.3965 19.0728 24.3965 20.513 24.3965 21.9372C25.1509 22.1719 25.1504 22.5757 25.1221 23.1073C25.1048 23.4321 24.8268 23.6672 24.3966 23.7244C24.3966 24.1142 24.3923 24.5124 24.4007 24.9103C24.4021 24.9774 24.4413 25.0685 24.4912 25.1051C24.6626 25.2306 24.7217 25.4016 24.7213 25.6103C24.7204 26.0771 24.721 26.544 24.721 27.0108C24.721 27.0806 24.721 27.1504 24.721 27.2264C25.1516 27.2421 25.5121 27.3813 25.7739 27.7322C25.9578 27.9787 26.0964 28.2592 26.0969 28.5775C26.1022 31.91 26.1002 35.2426 26.1002 38.5751C26.1002 38.6235 26.1002 38.6719 26.1002 38.7308C24.5703 38.7308 23.0585 38.7308 21.5166 38.7308C21.5166 38.6578 21.5166 38.5823 21.5166 38.5069C21.5166 36.977 21.5113 35.4472 21.5181 33.9174C21.5246 32.4479 21.5417 30.9784 21.5586 29.509C21.5626 29.1598 21.5455 28.803 21.6068 28.4637C21.7022 27.9362 22.0388 27.5787 22.4939 27.3713C22.8884 27.1915 22.8957 27.2097 22.8957 26.748C22.8957 26.3601 22.8919 25.9722 22.8974 25.5845C22.9001 25.3969 22.9444 25.2301 23.1155 25.1185C23.1713 25.0821 23.2168 24.9746 23.2151 24.901C23.2065 24.5239 23.1809 24.1472 23.1612 23.7684C22.7653 23.6877 22.5506 23.347 22.5296 23.0194C22.4924 22.4391 22.623 22.1946 23.2202 21.9967C23.2202 20.5579 23.2202 19.115 23.2202 17.6524Z" fill="#FFC600"/>
<path d="M69.7045 25.9856C66.6574 25.9856 63.6306 25.9856 60.5885 25.9856C60.5847 25.9164 60.5784 25.8547 60.5784 25.793C60.5777 25.0894 60.5953 24.3852 60.5722 23.6825C60.555 23.162 60.7929 22.7687 61.0669 22.3916C61.4464 21.869 61.9594 21.6685 62.5827 21.6696C64.5866 21.673 66.5906 21.6418 68.5946 21.6359C69.4024 21.6335 70.2102 21.6675 71.0181 21.6731C71.2943 21.675 71.4605 21.8216 71.6117 22.0467C72.2727 23.0307 72.9445 24.0064 73.6103 24.9866C73.8254 25.3033 74.0342 25.6246 74.2736 25.9856C72.7381 25.9856 71.2314 25.9856 69.7045 25.9856Z" fill="#FF0000"/>
<path d="M28.7775 24.9878C28.7775 24.493 28.8035 24.017 28.7703 23.5456C28.7364 23.0643 28.9406 22.7038 29.207 22.3669C29.4444 22.0667 29.7351 21.8353 30.1076 21.7501C30.1844 21.7325 30.2642 21.7205 30.3426 21.7205C33.2965 21.719 36.2504 21.7218 39.2042 21.7134C39.3998 21.7128 39.5204 21.7755 39.6315 21.9358C40.4791 23.1585 41.3329 24.3764 42.1813 25.5986C42.2637 25.7172 42.3224 25.8542 42.41 26.0156C37.8551 26.0156 33.3506 26.0156 28.8375 26.0156C28.8178 25.6848 28.7976 25.3467 28.7775 24.9878Z" fill="#FF0000"/>
<path d="M55.0617 21.7192C56.424 21.7192 57.766 21.7192 59.1518 21.7192C58.8818 22.1233 58.6367 22.4911 58.3905 22.8582C57.6997 23.8883 57.0093 24.9187 56.3142 25.9455C56.2834 25.991 56.2072 26.0246 56.1518 26.0251C55.5637 26.0308 54.9755 26.0365 54.3875 26.026C53.972 26.0185 53.557 25.9862 53.1279 25.9642C53.1279 24.567 53.1279 23.1564 53.1279 21.7192C53.7628 21.7192 54.4021 21.7192 55.0617 21.7192Z" fill="#FF0000"/>
</g>
</g>
<defs>
<clipPath id="clip0_945_1809">
<rect width="107" height="60" fill="white"/>
</clipPath>
<clipPath id="clip1_945_1809">
<rect width="75" height="39" fill="white" transform="translate(16)"/>
</clipPath>
</defs>
</svg>
