<svg width="24" height="24" viewBox="0 0 24 24" fill="none" xmlns="http://www.w3.org/2000/svg">
<g clip-path="url(#clip0_1062_2348)">
<path d="M1.5687 23.5995H3.21448C4.20286 23.5995 4.77864 22.9197 4.77864 21.7761V4.89592C4.77864 3.74177 4.20286 3.0672 3.21448 3.0672H1.5687C0.571261 3.0672 0 3.74177 0 4.89592V21.7761C0 22.9197 0.571261 23.5995 1.5687 23.5995ZM7.45814 23.5995H10.6454C11.6383 23.5995 12.2096 22.9197 12.2096 21.7761V8.84849C12.2096 7.69962 11.6383 7.02504 10.6454 7.02504H7.45814C6.4607 7.02504 5.8849 7.69962 5.8849 8.84849V21.7761C5.8849 22.9197 6.4607 23.5995 7.45814 23.5995ZM8.16995 11.2464C7.78004 11.2464 7.47627 10.8986 7.47627 10.4559C7.47627 10.0079 7.7755 9.6601 8.16995 9.6601H9.96987C10.4052 9.6601 10.6499 10.0079 10.6499 10.4559C10.6499 10.8986 10.3552 11.2464 9.96987 11.2464H8.16995ZM8.16995 20.9697C7.7755 20.9697 7.47627 20.6218 7.47627 20.1739C7.47627 19.7312 7.78004 19.3782 8.16995 19.3782H9.96987C10.3552 19.3782 10.6499 19.7312 10.6499 20.1739C10.6499 20.6218 10.3552 20.9697 9.96987 20.9697H8.16995ZM14.8891 23.5995H16.766C17.7636 23.5995 18.3348 22.9197 18.3348 21.7761V1.82873C18.3348 0.674573 17.7636 0 16.766 0H14.8891C13.8916 0 13.3204 0.674573 13.3204 1.82873V21.7761C13.3204 22.9197 13.8916 23.5995 14.8891 23.5995ZM21.386 23.6627L22.6011 23.4888C23.5849 23.3676 24.0837 22.6192 23.9885 21.4704L22.4742 4.80106C22.3744 3.65218 21.7351 3.06192 20.7468 3.18314L19.5362 3.36232C18.5479 3.48354 18.0492 4.23189 18.1489 5.37024L19.6632 22.0448C19.7629 23.1885 20.4022 23.7839 21.386 23.6627Z" fill="current" fill-opacity="0.87"/>
</g>
<defs>
<clipPath id="clip0_1062_2348">
<rect width="24" height="24" fill="white"/>
</clipPath>
</defs>
</svg>
