<svg width="24" height="24" viewBox="0 0 24 24" fill="none" xmlns="http://www.w3.org/2000/svg">
<g clip-path="url(#clip0_2518_8417)">
<path d="M16.162 13.5177H7.61594C7.18346 13.5177 6.86014 13.8231 6.86014 14.212C6.86014 14.612 7.18346 14.9214 7.61594 14.9214H16.162C16.5807 14.9214 16.8944 14.612 16.8944 14.212C16.8944 13.8231 16.5807 13.5177 16.162 13.5177ZM16.162 17.2377H7.61594C7.18346 17.2377 6.86014 17.5561 6.86014 17.9561C6.86014 18.3451 7.18346 18.6415 7.61594 18.6415H16.162C16.5807 18.6415 16.8944 18.3451 16.8944 17.9561C16.8944 17.5561 16.5807 17.2377 16.162 17.2377ZM5.78781 24H18.2122C20.7126 24 22 22.7559 22 20.3698V10.31C22 8.76986 21.7915 8.06313 20.7765 7.08008L14.6502 1.16511C13.6755 0.218431 12.8652 0 11.4098 0H5.78781C3.29907 0 2 1.25315 2 3.63927V20.3698C2 22.765 3.2895 24 5.78781 24ZM5.97022 21.8276C4.84447 21.8276 4.28509 21.2677 4.28509 20.2348V3.77431C4.28509 2.75045 4.84447 2.17233 5.97979 2.17233H10.9517V8.25316C10.9517 9.83984 11.7663 10.6071 13.4278 10.6071H19.7149V20.2348C19.7149 21.2677 19.1556 21.8276 18.0223 21.8276H5.97022ZM13.6441 8.69136C13.1607 8.69136 12.9669 8.49599 12.9669 8.03851V2.47414L19.3974 8.69136H13.6441Z" fill="current"/>
</g>
<defs>
<clipPath id="clip0_2518_8417">
<rect width="24" height="24" fill="white"/>
</clipPath>
</defs>
</svg>
