<svg width="80" height="81" viewBox="0 0 80 81" fill="none" xmlns="http://www.w3.org/2000/svg">
<g clip-path="url(#clip0_82_113)">
<path d="M40.0509 0H40.0569V0.0384714C40.063 7.25474 40.063 14.471 40.0569 21.6873C40.0462 22.1781 40.0841 22.6703 40.0303 23.1598C39.3378 23.516 38.6745 23.9385 37.9874 24.3212L24.2378 32.2596C22.8449 33.0556 21.4599 33.8801 20.0557 34.6621L19.9821 34.6953C19.99 27.0425 19.99 19.3898 19.9821 11.7371C19.9582 11.5315 20.2076 11.4784 20.3383 11.3816C26.912 7.59103 33.4829 3.79717 40.0509 0Z" fill="#022A93"/>
<path d="M60.0065 34.7579C60.0523 34.744 60.0994 34.7314 60.1478 34.7188C65.9521 38.1325 71.7637 41.5359 77.5827 44.9289C78.3733 45.4039 79.1872 45.843 79.9632 46.3391C80.0183 46.5381 79.9798 46.7543 79.9898 46.9606C79.9969 54.4493 80.0002 61.9382 79.9997 69.4273L79.9778 69.4366C75.3197 66.721 70.6611 64.0068 66.0021 61.2939C64.0056 60.1218 61.9931 58.9756 60.0059 57.7877C60.035 54.379 60.0105 50.9689 60.0185 47.5596C60.0098 43.2932 60.0324 39.0262 60.0065 34.7579Z" fill="#022A93"/>
<path d="M26.4255 34.8555C28.4539 34.8555 30.4829 34.8555 32.5113 34.8555C33.2609 34.8681 34.0164 34.88 34.7559 35.012C35.2279 35.0978 35.678 35.2769 36.0798 35.5388C36.4817 35.8008 36.8272 36.1404 37.0961 36.5376C37.693 37.372 37.8343 38.4864 37.5345 39.4561C37.3898 39.912 37.1511 40.3325 36.834 40.6905C36.5169 41.0486 36.1282 41.3362 35.6932 41.5349C36.6994 41.8155 37.6274 42.4861 38.0618 43.4585C38.7875 45.0696 38.2389 47.1146 36.8865 48.2256C36.2364 48.7563 35.396 49.0063 34.5649 49.0673C33.8804 49.1124 33.1939 49.1231 32.5087 49.1337C30.4796 49.1582 28.4499 49.1456 26.4209 49.1443C26.428 44.3827 26.4295 39.6197 26.4255 34.8555ZM29.3222 37.2288C29.3076 38.3278 29.3222 39.4269 29.3162 40.526C30.5135 40.5207 31.7114 40.5413 32.9093 40.5028C33.3736 40.4902 33.8558 40.4146 34.2432 40.1433C35.0995 39.5749 35.0982 38.101 34.2319 37.5432C33.7391 37.2327 33.1335 37.2599 32.5737 37.2434C31.4892 37.2235 30.4047 37.2361 29.3222 37.2288ZM29.3162 42.9013C29.3215 44.1801 29.3043 45.4597 29.3248 46.7378C30.4684 46.7279 31.6119 46.7438 32.7554 46.7285C33.2058 46.7113 33.6641 46.7219 34.1052 46.6164C34.677 46.4838 35.1844 46.044 35.3363 45.467C35.469 44.9476 35.4471 44.3645 35.1818 43.8896C34.9165 43.4147 34.4223 43.1228 33.9036 43.0333C33.3113 42.9312 32.7097 42.9186 32.1127 42.9046C31.1794 42.8973 30.2462 42.9026 29.3149 42.9013H29.3162Z" fill="#022A93"/>
<path d="M41.6889 34.8555C42.65 34.8555 43.6125 34.8602 44.5716 34.8516C44.5895 36.9622 44.5716 39.0735 44.5796 41.1848C46.5217 39.0777 48.4614 36.9686 50.3987 34.8575C51.6882 34.8522 52.9769 34.8575 54.2664 34.8575C52.4848 36.7207 50.6846 38.5674 48.8937 40.4206C50.7757 43.3325 52.6625 46.2424 54.5543 49.1503C53.3112 49.1503 52.0682 49.1503 50.8252 49.1503C49.5357 46.9393 48.2434 44.7283 46.9482 42.5173C46.9177 42.4218 46.8262 42.5007 46.793 42.5478C46.0581 43.3133 45.3158 44.0661 44.5776 44.8283V49.1503C43.6131 49.1503 42.648 49.159 41.6836 49.1444C41.6942 44.3812 41.6862 39.6187 41.6889 34.8555Z" fill="#022A93"/>
<path d="M14.0613 61.1495C16.0585 60.0179 18.0411 58.8604 20.0483 57.7461C22.8122 59.3699 25.6001 60.9551 28.374 62.5643L36.7508 67.3991C37.8652 68.0286 38.9563 68.7005 40.0859 69.3021L40.0096 69.3565C38.5577 70.2188 37.0838 71.0499 35.6232 71.9003L21.4511 80.0814C21.0047 80.3567 20.5225 80.5802 20.1007 80.89L20.0874 80.9225H19.9952C19.9384 80.8588 19.873 80.8035 19.8008 80.758C13.1992 76.9064 6.59895 73.0524 0 69.196C0.697792 68.7483 1.43671 68.3669 2.15108 67.9463C6.12116 65.6805 10.0912 63.4149 14.0613 61.1495Z" fill="#022A93"/>
<path d="M40.059 0.0390625C46.7203 3.89549 53.385 7.74595 60.0529 11.5904C60.0529 19.2622 60.054 26.9343 60.0562 34.607C60.0303 34.6468 60.0051 34.6872 59.9813 34.7277C59.6874 34.5061 59.3538 34.3483 59.0407 34.1586L42.2194 24.4439C41.4944 24.0114 40.7429 23.6201 40.0352 23.1604C40.0889 22.6709 40.0511 22.1787 40.0617 21.6879C40.0599 14.4716 40.059 7.25533 40.059 0.0390625Z" fill="#1488DB"/>
<path d="M17.6909 36.0013C18.4563 35.5702 19.2039 35.1039 19.9819 34.6953L20.0556 34.6621C20.0483 42.3564 20.0628 50.0507 20.0483 57.745C18.0418 58.8593 16.0585 60.0168 14.0613 61.1484C10.0917 63.4151 6.1216 65.6807 2.15108 67.9452C1.43671 68.3657 0.697792 68.7471 0 69.1949C0.00795961 61.5364 0.00928621 53.8777 0.0039798 46.2188C5.89497 42.8054 11.7906 39.3996 17.6909 36.0013Z" fill="#1488DB"/>
<path d="M44.0744 52.4315C44.5215 51.991 45.1496 51.7682 45.7718 51.7602C46.3747 51.7357 47.0055 51.8975 47.4632 52.3055C47.7948 52.5847 47.9773 52.9893 48.1013 53.3939C47.7318 53.4835 47.361 53.5717 46.9916 53.6592C46.9113 53.3681 46.7588 53.0848 46.4988 52.9183C45.9383 52.5489 45.0906 52.7061 44.7211 53.2745C44.4346 53.7196 44.412 54.2695 44.4206 54.7869C44.4432 55.2512 44.4982 55.7659 44.8146 56.136C45.2166 56.6202 46.0145 56.7197 46.5094 56.3224C46.8032 56.0936 46.9359 55.7301 47.0281 55.3825L48.1146 55.7195C47.97 56.2242 47.7318 56.727 47.3106 57.0593C46.7727 57.4898 46.0398 57.59 45.3738 57.5004C44.9979 57.4467 44.6403 57.3039 44.3307 57.084C44.0212 56.8641 43.7686 56.5734 43.5942 56.2362C43.2678 55.6074 43.2181 54.8737 43.2864 54.1799C43.3507 53.5359 43.5942 52.8845 44.0744 52.4315Z" fill="#1488DB"/>
<path d="M26.4111 51.8574C27.8803 51.8574 29.3496 51.8574 30.8181 51.8574C30.8281 52.1725 30.8214 52.4882 30.8247 52.804C30.2782 52.8152 29.7316 52.8039 29.1851 52.8086C29.1851 54.3532 29.1851 55.8982 29.1851 57.4437H28.0614C28.0614 55.8991 28.0614 54.3541 28.0614 52.8086H26.4111V51.8574Z" fill="#1488DB"/>
<path d="M31.5391 57.4365C31.5503 55.5792 31.5338 53.716 31.5477 51.8555C32.4644 51.8707 33.3837 51.8303 34.2997 51.8873C34.5031 51.8909 34.7036 51.936 34.889 52.0198C35.0743 52.1037 35.2406 52.2245 35.3776 52.3748C35.7955 52.8219 35.8598 53.4905 35.7444 54.0676C35.6755 54.373 35.5171 54.6509 35.2894 54.8657C35.0617 55.0805 34.7751 55.2225 34.4662 55.2735C33.8692 55.361 33.2636 55.3318 32.6627 55.3398V57.4418C32.2879 57.4418 31.9132 57.4471 31.5391 57.4365ZM32.662 52.808C32.662 53.3333 32.666 53.8593 32.662 54.3853C33.0554 54.3913 33.4494 54.3986 33.842 54.3661C34.031 54.36 34.2137 54.2969 34.366 54.185C34.7156 53.9157 34.7342 53.3227 34.4025 53.0328C34.2451 52.8989 34.0454 52.8251 33.8387 52.8245C33.4461 52.7987 33.0534 52.8086 32.662 52.808Z" fill="#1488DB"/>
<path d="M37.8674 51.8568C38.2408 51.8568 38.6142 51.8568 38.9877 51.8568C38.9877 52.5878 38.9877 53.3189 38.9877 54.0503H41.1945C41.1945 53.3189 41.1945 52.5873 41.1945 51.8555C41.5677 51.8555 41.9411 51.8555 42.3148 51.8555C42.3148 53.7158 42.3148 55.5768 42.3148 57.4385H41.1945C41.1945 56.6246 41.1945 55.8114 41.1945 54.9982C40.4595 54.9982 39.7246 54.9982 38.989 54.9982C38.983 55.8114 38.989 56.6246 38.989 57.4378C38.6156 57.4378 38.2421 57.4378 37.8687 57.4378C37.8674 55.5788 37.8669 53.7185 37.8674 51.8568Z" fill="#1488DB"/>
<path d="M49.0449 57.4371C49.0549 55.5799 49.039 53.716 49.0529 51.8555C49.6134 51.8608 50.1739 51.8555 50.7343 51.8588C51.066 53.123 51.3976 54.386 51.7293 55.6509C52.0795 54.3906 52.3926 53.123 52.7242 51.8594C53.2874 51.8548 53.8519 51.8594 54.4137 51.8594V57.4418H53.3769C53.3769 55.9825 53.3723 54.5233 53.3769 53.064C52.9969 54.5233 52.6427 55.9825 52.2725 57.4418C51.911 57.4418 51.5502 57.4418 51.1894 57.4418C50.8272 55.9825 50.4451 54.5266 50.1082 53.064C50.0664 54.5233 50.0989 55.9825 50.0863 57.4418C49.7374 57.4418 49.3912 57.4451 49.0449 57.4371Z" fill="#1488DB"/>
<path d="M35.6979 56.3711H36.7645V57.4417H35.6973C35.6986 57.0841 35.6979 56.7279 35.6979 56.3711Z" fill="#1488DB"/>
<path d="M42.6169 67.8228C48.4137 64.4789 54.2096 61.1337 60.0047 57.7871C61.9946 58.9751 64.0044 60.1213 66.0009 61.2933C70.6599 64.0075 75.319 66.7218 79.978 69.436C77.8481 70.6366 75.7329 71.8604 73.6043 73.0695C69.0979 75.6458 64.5903 78.2212 60.0816 80.7957C53.3902 76.983 46.6987 73.1702 40.0068 69.3571L40.0831 69.3027C40.9122 68.7846 41.7745 68.3203 42.6169 67.8228Z" fill="#1488DB"/>
</g>
<defs>
<clipPath id="clip0_82_113">
<rect width="80" height="80.9227" fill="white"/>
</clipPath>
</defs>
</svg>
