<svg width="150" height="84" viewBox="0 0 150 84" fill="none" xmlns="http://www.w3.org/2000/svg">
<g clip-path="url(#clip0_1014_2177)">
<path d="M8.59687 75.602H10.1719C10.0898 76.3566 9.87383 77.032 9.52383 77.6281C9.17383 78.2242 8.67891 78.6973 8.03906 79.0473C7.39922 79.3918 6.60078 79.5641 5.64375 79.5641C4.94375 79.5641 4.30664 79.4328 3.73242 79.1703C3.16367 78.9078 2.67422 78.5359 2.26406 78.0547C1.85391 77.568 1.53672 76.9855 1.3125 76.3074C1.09375 75.6238 0.984375 74.8637 0.984375 74.027V72.8375C0.984375 72.0008 1.09375 71.2434 1.3125 70.5652C1.53672 69.8816 1.85664 69.2965 2.27227 68.8098C2.69336 68.323 3.19922 67.9484 3.78984 67.6859C4.38047 67.4234 5.04492 67.2922 5.7832 67.2922C6.68555 67.2922 7.44844 67.4617 8.07187 67.8008C8.69531 68.1398 9.1793 68.6102 9.52383 69.2117C9.87383 69.8078 10.0898 70.4996 10.1719 71.2871H8.59687C8.52031 70.7293 8.37812 70.2508 8.17031 69.8516C7.9625 69.4469 7.66719 69.1352 7.28437 68.9164C6.90156 68.6977 6.40117 68.5883 5.7832 68.5883C5.25273 68.5883 4.78516 68.6895 4.38047 68.8918C3.98125 69.0941 3.64492 69.3813 3.37148 69.7531C3.10352 70.125 2.90117 70.5707 2.76445 71.0902C2.62773 71.6098 2.55937 72.1867 2.55937 72.8211V74.027C2.55937 74.6121 2.61953 75.1617 2.73984 75.6758C2.86562 76.1898 3.0543 76.641 3.30586 77.0293C3.55742 77.4176 3.87734 77.7238 4.26562 77.948C4.65391 78.1668 5.11328 78.2762 5.64375 78.2762C6.31641 78.2762 6.85234 78.1695 7.25156 77.9563C7.65078 77.743 7.95156 77.4367 8.15391 77.0375C8.36172 76.6383 8.50937 76.1598 8.59687 75.602ZM13.6172 66.8V79.4H12.0996V66.8H13.6172ZM13.2562 74.6258L12.6246 74.6012C12.6301 73.9941 12.7203 73.4336 12.8953 72.9195C13.0703 72.4 13.3164 71.9488 13.6336 71.566C13.9508 71.1832 14.3281 70.8879 14.7656 70.6801C15.2086 70.4668 15.698 70.3602 16.234 70.3602C16.6715 70.3602 17.0652 70.4203 17.4152 70.5406C17.7652 70.6555 18.0633 70.8414 18.3094 71.0984C18.5609 71.3555 18.7523 71.6891 18.8836 72.0992C19.0148 72.5039 19.0805 72.9988 19.0805 73.584V79.4H17.5547V73.5676C17.5547 73.1027 17.4863 72.7309 17.3496 72.452C17.2129 72.1676 17.0133 71.9625 16.7508 71.8367C16.4883 71.7055 16.1656 71.6398 15.7828 71.6398C15.4055 71.6398 15.0609 71.7191 14.7492 71.8777C14.443 72.0363 14.1777 72.2551 13.9535 72.534C13.7348 72.8129 13.5625 73.1328 13.4367 73.4938C13.3164 73.8492 13.2562 74.2266 13.2562 74.6258ZM26.7832 77.3492V70.5242H28.309V79.4H26.857L26.7832 77.3492ZM27.0703 75.4789L27.702 75.4625C27.702 76.0531 27.6391 76.6 27.5133 77.1031C27.393 77.6008 27.1961 78.0328 26.9227 78.3992C26.6492 78.7656 26.291 79.0527 25.848 79.2605C25.4051 79.4629 24.8664 79.5641 24.232 79.5641C23.8 79.5641 23.4035 79.5012 23.0426 79.3754C22.6871 79.2496 22.3809 79.0555 22.1238 78.793C21.8668 78.5305 21.6672 78.1887 21.525 77.7676C21.3883 77.3465 21.3199 76.8406 21.3199 76.25V70.5242H22.8375V76.2664C22.8375 76.6656 22.8812 76.9965 22.9687 77.259C23.0617 77.516 23.1848 77.7211 23.3379 77.8742C23.4965 78.0219 23.6715 78.1258 23.8629 78.1859C24.0598 78.2461 24.2621 78.2762 24.4699 78.2762C25.1152 78.2762 25.6266 78.1531 26.0039 77.907C26.3812 77.6555 26.652 77.3191 26.816 76.898C26.9855 76.4715 27.0703 75.9984 27.0703 75.4789ZM24.0105 69.2117L25.602 66.8H27.4312L25.2328 69.2117H24.0105ZM32.1398 72.4191V79.4H30.6223V70.5242H32.0578L32.1398 72.4191ZM31.7789 74.6258L31.1473 74.6012C31.1527 73.9941 31.243 73.4336 31.418 72.9195C31.593 72.4 31.8391 71.9488 32.1562 71.566C32.4734 71.1832 32.8508 70.8879 33.2883 70.6801C33.7312 70.4668 34.2207 70.3602 34.7566 70.3602C35.1941 70.3602 35.5879 70.4203 35.9379 70.5406C36.2879 70.6555 36.5859 70.8414 36.832 71.0984C37.0836 71.3555 37.275 71.6891 37.4062 72.0992C37.5375 72.5039 37.6031 72.9988 37.6031 73.584V79.4H36.0773V73.5676C36.0773 73.1027 36.009 72.7309 35.8723 72.452C35.7355 72.1676 35.5359 71.9625 35.2734 71.8367C35.0109 71.7055 34.6883 71.6398 34.3055 71.6398C33.9281 71.6398 33.5836 71.7191 33.2719 71.8777C32.9656 72.0363 32.7004 72.2551 32.4762 72.534C32.2574 72.8129 32.0852 73.1328 31.9594 73.4938C31.8391 73.8492 31.7789 74.2266 31.7789 74.6258ZM45.6586 70.5242H47.0367V79.2113C47.0367 79.9934 46.8781 80.6605 46.5609 81.2129C46.2437 81.7652 45.8008 82.1836 45.232 82.468C44.6687 82.7578 44.018 82.9027 43.2797 82.9027C42.9734 82.9027 42.6125 82.8535 42.1969 82.7551C41.7867 82.6621 41.382 82.5008 40.9828 82.2711C40.5891 82.0469 40.2582 81.7434 39.9902 81.3605L40.7859 80.4582C41.1578 80.9066 41.5461 81.2184 41.9508 81.3934C42.3609 81.5684 42.7656 81.6559 43.1648 81.6559C43.6461 81.6559 44.0617 81.5656 44.4117 81.3852C44.7617 81.2047 45.0324 80.9367 45.2238 80.5813C45.4207 80.2313 45.5191 79.7992 45.5191 79.2852V72.4766L45.6586 70.5242ZM39.5473 75.0605V74.8883C39.5473 74.2102 39.6266 73.5949 39.7852 73.0426C39.9492 72.4848 40.1816 72.0063 40.4824 71.607C40.7887 71.2078 41.1578 70.9016 41.5898 70.6883C42.0219 70.4695 42.5086 70.3602 43.05 70.3602C43.6078 70.3602 44.0945 70.4586 44.5102 70.6555C44.9312 70.8469 45.2867 71.1285 45.5766 71.5004C45.8719 71.8668 46.1043 72.3098 46.2738 72.8293C46.4434 73.3488 46.5609 73.9367 46.6266 74.593V75.3477C46.5664 75.9984 46.4488 76.5836 46.2738 77.1031C46.1043 77.6227 45.8719 78.0656 45.5766 78.432C45.2867 78.7984 44.9312 79.0801 44.5102 79.277C44.0891 79.4684 43.5969 79.5641 43.0336 79.5641C42.5031 79.5641 42.0219 79.452 41.5898 79.2277C41.1633 79.0035 40.7969 78.6891 40.4906 78.2844C40.1844 77.8797 39.9492 77.4039 39.7852 76.857C39.6266 76.3047 39.5473 75.7059 39.5473 75.0605ZM41.0648 74.8883V75.0605C41.0648 75.5035 41.1086 75.9191 41.1961 76.3074C41.2891 76.6957 41.4285 77.0375 41.6145 77.3328C41.8059 77.6281 42.0492 77.8605 42.3445 78.0301C42.6398 78.1941 42.9926 78.2762 43.4027 78.2762C43.9059 78.2762 44.3215 78.1695 44.6496 77.9563C44.9777 77.743 45.2375 77.4613 45.4289 77.1113C45.6258 76.7613 45.7789 76.3813 45.8883 75.9711V73.9941C45.8281 73.6934 45.7352 73.4035 45.6094 73.1246C45.4891 72.8402 45.3305 72.5887 45.1336 72.3699C44.9422 72.1457 44.7043 71.968 44.4199 71.8367C44.1355 71.7055 43.802 71.6398 43.4191 71.6398C43.0035 71.6398 42.6453 71.7273 42.3445 71.9023C42.0492 72.0719 41.8059 72.307 41.6145 72.6078C41.4285 72.9031 41.2891 73.2477 41.1961 73.6414C41.1086 74.0297 41.0648 74.4453 41.0648 74.8883ZM57.8238 67.4563V79.4H56.2652V67.4563H57.8238ZM61.6629 67.4563V68.7523H52.4344V67.4563H61.6629ZM67.5035 77.8824V73.3133C67.5035 72.9633 67.4324 72.6598 67.2902 72.4027C67.1535 72.1402 66.9457 71.9379 66.6668 71.7957C66.3879 71.6535 66.0434 71.5824 65.6332 71.5824C65.2504 71.5824 64.9141 71.648 64.6242 71.7793C64.3398 71.9105 64.1156 72.0828 63.9516 72.2961C63.793 72.5094 63.7137 72.7391 63.7137 72.9852H62.1961C62.1961 72.668 62.2781 72.3535 62.4422 72.0418C62.6062 71.7301 62.8414 71.4484 63.1477 71.1969C63.4594 70.9398 63.8312 70.7375 64.2633 70.5898C64.7008 70.4367 65.1875 70.3602 65.7234 70.3602C66.3687 70.3602 66.9375 70.4695 67.4297 70.6883C67.9273 70.907 68.3156 71.2379 68.5945 71.6809C68.8789 72.1184 69.0211 72.668 69.0211 73.3297V77.4641C69.0211 77.7594 69.0457 78.0738 69.0949 78.4074C69.1496 78.741 69.2289 79.0281 69.3328 79.2688V79.4H67.7496C67.673 79.225 67.6129 78.9926 67.5691 78.7027C67.5254 78.4074 67.5035 78.134 67.5035 77.8824ZM67.766 74.0188L67.7824 75.0852H66.2484C65.8164 75.0852 65.4309 75.1207 65.0918 75.1918C64.7527 75.2574 64.4684 75.3586 64.2387 75.4953C64.009 75.632 63.834 75.8043 63.7137 76.0121C63.5934 76.2145 63.5332 76.4523 63.5332 76.7258C63.5332 77.0047 63.5961 77.259 63.7219 77.4887C63.8477 77.7184 64.0363 77.9016 64.2879 78.0383C64.5449 78.1695 64.8594 78.2352 65.2312 78.2352C65.6961 78.2352 66.1062 78.1367 66.4617 77.9398C66.8172 77.743 67.0988 77.5023 67.3066 77.218C67.5199 76.9336 67.6348 76.6574 67.6512 76.3895L68.2992 77.1195C68.2609 77.3492 68.157 77.6035 67.9875 77.8824C67.818 78.1613 67.591 78.4293 67.3066 78.6863C67.0277 78.9379 66.6941 79.1484 66.3059 79.318C65.923 79.482 65.491 79.5641 65.0098 79.5641C64.4082 79.5641 63.8805 79.4465 63.4266 79.2113C62.9781 78.9762 62.6281 78.6617 62.3766 78.268C62.1305 77.8688 62.0074 77.423 62.0074 76.9309C62.0074 76.4551 62.1004 76.0367 62.2863 75.6758C62.4723 75.3094 62.7402 75.0059 63.0902 74.7652C63.4402 74.5191 63.8613 74.3332 64.3535 74.2074C64.8457 74.0816 65.3953 74.0188 66.0023 74.0188H67.766ZM83.0156 75.602H84.5906C84.5086 76.3566 84.2926 77.032 83.9426 77.6281C83.5926 78.2242 83.0977 78.6973 82.4578 79.0473C81.818 79.3918 81.0195 79.5641 80.0625 79.5641C79.3625 79.5641 78.7254 79.4328 78.1512 79.1703C77.5824 78.9078 77.093 78.5359 76.6828 78.0547C76.2727 77.568 75.9555 76.9855 75.7312 76.3074C75.5125 75.6238 75.4031 74.8637 75.4031 74.027V72.8375C75.4031 72.0008 75.5125 71.2434 75.7312 70.5652C75.9555 69.8816 76.2754 69.2965 76.691 68.8098C77.1121 68.323 77.618 67.9484 78.2086 67.6859C78.7992 67.4234 79.4637 67.2922 80.2019 67.2922C81.1043 67.2922 81.8672 67.4617 82.4906 67.8008C83.1141 68.1398 83.598 68.6102 83.9426 69.2117C84.2926 69.8078 84.5086 70.4996 84.5906 71.2871H83.0156C82.9391 70.7293 82.7969 70.2508 82.5891 69.8516C82.3812 69.4469 82.0859 69.1352 81.7031 68.9164C81.3203 68.6977 80.8199 68.5883 80.2019 68.5883C79.6715 68.5883 79.2039 68.6895 78.7992 68.8918C78.4 69.0941 78.0637 69.3813 77.7902 69.7531C77.5223 70.125 77.3199 70.5707 77.1832 71.0902C77.0465 71.6098 76.9781 72.1867 76.9781 72.8211V74.027C76.9781 74.6121 77.0383 75.1617 77.1586 75.6758C77.2844 76.1898 77.473 76.641 77.7246 77.0293C77.9762 77.4176 78.2961 77.7238 78.6844 77.948C79.0727 78.1668 79.532 78.2762 80.0625 78.2762C80.7352 78.2762 81.2711 78.1695 81.6703 77.9563C82.0695 77.743 82.3703 77.4367 82.5727 77.0375C82.7805 76.6383 82.9281 76.1598 83.0156 75.602ZM91.9488 77.3492V70.5242H93.4746V79.4H92.0227L91.9488 77.3492ZM92.2359 75.4789L92.8676 75.4625C92.8676 76.0531 92.8047 76.6 92.6789 77.1031C92.5586 77.6008 92.3617 78.0328 92.0883 78.3992C91.8148 78.7656 91.4566 79.0527 91.0137 79.2605C90.5707 79.4629 90.032 79.5641 89.3977 79.5641C88.9656 79.5641 88.5691 79.5012 88.2082 79.3754C87.8527 79.2496 87.5465 79.0555 87.2895 78.793C87.0324 78.5305 86.8328 78.1887 86.6906 77.7676C86.5539 77.3465 86.4855 76.8406 86.4855 76.25V70.5242H88.0031V76.2664C88.0031 76.6656 88.0469 76.9965 88.1344 77.259C88.2273 77.516 88.3504 77.7211 88.5035 77.8742C88.6621 78.0219 88.8371 78.1258 89.0285 78.1859C89.2254 78.2461 89.4277 78.2762 89.6355 78.2762C90.2809 78.2762 90.7922 78.1531 91.1695 77.907C91.5469 77.6555 91.8176 77.3191 91.9816 76.898C92.1512 76.4715 92.2359 75.9984 92.2359 75.4789ZM89.291 66.8L90.8742 69.2117H89.5699L87.4535 66.8H89.291ZM97.3055 72.4191V79.4H95.7879V70.5242H97.2234L97.3055 72.4191ZM96.9445 74.6258L96.3129 74.6012C96.3184 73.9941 96.4086 73.4336 96.5836 72.9195C96.7586 72.4 97.0047 71.9488 97.3219 71.566C97.6391 71.1832 98.0164 70.8879 98.4539 70.6801C98.8969 70.4668 99.3863 70.3602 99.9223 70.3602C100.36 70.3602 100.754 70.4203 101.104 70.5406C101.454 70.6555 101.752 70.8414 101.998 71.0984C102.249 71.3555 102.441 71.6891 102.572 72.0992C102.703 72.5039 102.769 72.9988 102.769 73.584V79.4H101.243V73.5676C101.243 73.1027 101.175 72.7309 101.038 72.452C100.901 72.1676 100.702 71.9625 100.439 71.8367C100.177 71.7055 99.8539 71.6398 99.4711 71.6398C99.0937 71.6398 98.7492 71.7191 98.4375 71.8777C98.1312 72.0363 97.866 72.2551 97.6418 72.534C97.423 72.8129 97.2508 73.1328 97.125 73.4938C97.0047 73.8492 96.9445 74.2266 96.9445 74.6258ZM110.824 70.5242H112.202V79.2113C112.202 79.9934 112.044 80.6605 111.727 81.2129C111.409 81.7652 110.966 82.1836 110.398 82.468C109.834 82.7578 109.184 82.9027 108.445 82.9027C108.139 82.9027 107.778 82.8535 107.362 82.7551C106.952 82.6621 106.548 82.5008 106.148 82.2711C105.755 82.0469 105.424 81.7434 105.156 81.3605L105.952 80.4582C106.323 80.9066 106.712 81.2184 107.116 81.3934C107.527 81.5684 107.931 81.6559 108.33 81.6559C108.812 81.6559 109.227 81.5656 109.577 81.3852C109.927 81.2047 110.198 80.9367 110.389 80.5813C110.586 80.2313 110.685 79.7992 110.685 79.2852V72.4766L110.824 70.5242ZM104.713 75.0605V74.8883C104.713 74.2102 104.792 73.5949 104.951 73.0426C105.115 72.4848 105.347 72.0063 105.648 71.607C105.954 71.2078 106.323 70.9016 106.755 70.6883C107.187 70.4695 107.674 70.3602 108.216 70.3602C108.773 70.3602 109.26 70.4586 109.676 70.6555C110.097 70.8469 110.452 71.1285 110.742 71.5004C111.037 71.8668 111.27 72.3098 111.439 72.8293C111.609 73.3488 111.727 73.9367 111.792 74.593V75.3477C111.732 75.9984 111.614 76.5836 111.439 77.1031C111.27 77.6227 111.037 78.0656 110.742 78.432C110.452 78.7984 110.097 79.0801 109.676 79.277C109.255 79.4684 108.762 79.5641 108.199 79.5641C107.669 79.5641 107.187 79.452 106.755 79.2277C106.329 79.0035 105.962 78.6891 105.656 78.2844C105.35 77.8797 105.115 77.4039 104.951 76.857C104.792 76.3047 104.713 75.7059 104.713 75.0605ZM106.23 74.8883V75.0605C106.23 75.5035 106.274 75.9191 106.362 76.3074C106.455 76.6957 106.594 77.0375 106.78 77.3328C106.971 77.6281 107.215 77.8605 107.51 78.0301C107.805 78.1941 108.158 78.2762 108.568 78.2762C109.071 78.2762 109.487 78.1695 109.815 77.9563C110.143 77.743 110.403 77.4613 110.595 77.1113C110.791 76.7613 110.945 76.3813 111.054 75.9711V73.9941C110.994 73.6934 110.901 73.4035 110.775 73.1246C110.655 72.8402 110.496 72.5887 110.299 72.3699C110.108 72.1457 109.87 71.968 109.586 71.8367C109.301 71.7055 108.968 71.6398 108.585 71.6398C108.169 71.6398 107.811 71.7273 107.51 71.9023C107.215 72.0719 106.971 72.307 106.78 72.6078C106.594 72.9031 106.455 73.2477 106.362 73.6414C106.274 74.0297 106.23 74.4453 106.23 74.8883ZM122.989 67.4563V79.4H121.431V67.4563H122.989ZM126.829 67.4563V68.7523H117.6V67.4563H126.829ZM130.02 70.5242V79.4H128.494V70.5242H130.02ZM128.379 68.1699C128.379 67.9238 128.453 67.716 128.6 67.5465C128.754 67.377 128.978 67.2922 129.273 67.2922C129.563 67.2922 129.784 67.377 129.937 67.5465C130.096 67.716 130.175 67.9238 130.175 68.1699C130.175 68.4051 130.096 68.6074 129.937 68.777C129.784 68.941 129.563 69.023 129.273 69.023C128.978 69.023 128.754 68.941 128.6 68.777C128.453 68.6074 128.379 68.4051 128.379 68.1699ZM136.139 79.5641C135.521 79.5641 134.961 79.4602 134.457 79.2523C133.96 79.0391 133.53 78.741 133.17 78.3582C132.814 77.9754 132.541 77.5215 132.349 76.9965C132.158 76.4715 132.062 75.8973 132.062 75.2738V74.9293C132.062 74.2074 132.169 73.5648 132.382 73.0016C132.595 72.4328 132.885 71.9516 133.252 71.5578C133.618 71.1641 134.034 70.866 134.498 70.6637C134.963 70.4613 135.445 70.3602 135.942 70.3602C136.577 70.3602 137.123 70.4695 137.583 70.6883C138.048 70.907 138.428 71.2133 138.723 71.607C139.018 71.9953 139.237 72.4547 139.379 72.9852C139.521 73.5102 139.593 74.0844 139.593 74.7078V75.3887H132.964V74.15H138.075V74.0352C138.053 73.6414 137.971 73.2586 137.829 72.8867C137.692 72.5148 137.473 72.2086 137.173 71.968C136.872 71.7273 136.462 71.607 135.942 71.607C135.598 71.607 135.28 71.6809 134.991 71.8285C134.701 71.9707 134.452 72.184 134.244 72.4684C134.036 72.7527 133.875 73.1 133.76 73.5102C133.645 73.9203 133.588 74.3934 133.588 74.9293V75.2738C133.588 75.6949 133.645 76.0914 133.76 76.4633C133.88 76.8297 134.053 77.1523 134.277 77.4313C134.507 77.7102 134.783 77.9289 135.105 78.0875C135.434 78.2461 135.805 78.3254 136.221 78.3254C136.757 78.3254 137.211 78.216 137.583 77.9973C137.955 77.7785 138.28 77.4859 138.559 77.1195L139.478 77.8496C139.286 78.1395 139.043 78.4156 138.748 78.6781C138.452 78.9406 138.089 79.1539 137.657 79.318C137.23 79.482 136.724 79.5641 136.139 79.5641ZM132.923 69.2117L135.311 67.0625H136.557L138.945 69.2117H137.329L135.934 67.9156L134.539 69.2117H132.923ZM138.337 67.7598L139.494 65.6434H141.135L139.486 67.7598H138.337ZM142.882 72.4191V79.4H141.364V70.5242H142.8L142.882 72.4191ZM142.521 74.6258L141.889 74.6012C141.895 73.9941 141.985 73.4336 142.16 72.9195C142.335 72.4 142.581 71.9488 142.898 71.566C143.216 71.1832 143.593 70.8879 144.03 70.6801C144.473 70.4668 144.963 70.3602 145.499 70.3602C145.936 70.3602 146.33 70.4203 146.68 70.5406C147.03 70.6555 147.328 70.8414 147.574 71.0984C147.826 71.3555 148.017 71.6891 148.148 72.0992C148.28 72.5039 148.345 72.9988 148.345 73.584V79.4H146.82V73.5676C146.82 73.1027 146.751 72.7309 146.614 72.452C146.478 72.1676 146.278 71.9625 146.016 71.8367C145.753 71.7055 145.43 71.6398 145.048 71.6398C144.67 71.6398 144.326 71.7191 144.014 71.8777C143.708 72.0363 143.443 72.2551 143.218 72.534C143 72.8129 142.827 73.1328 142.702 73.4938C142.581 73.8492 142.521 74.2266 142.521 74.6258Z" fill="#656C73"/>
<g clip-path="url(#clip1_1014_2177)">
<path d="M32.5088 24.6855C32.0979 24.7022 31.687 24.7322 31.2761 24.7334C29.4733 24.7388 27.6705 24.7286 25.8677 24.7383C24.7486 24.7444 23.6297 24.776 22.484 24.7961C22.4574 24.7961 22.4574 24.7659 22.4764 24.7456C22.5684 24.6661 22.6398 24.6043 22.7148 24.5478C23.3692 24.0543 24.0156 23.548 24.681 23.0718C25.8873 22.2086 27.0946 21.3462 28.3209 20.5159C29.4922 19.7229 30.6878 18.9706 31.8735 18.2017C32.9414 17.5092 34.0065 16.8117 35.0799 16.1289C36.2241 15.4012 37.3747 14.685 38.526 13.9699C39.5188 13.3532 40.5143 12.741 41.5127 12.1345C42.367 11.6156 43.2296 11.1122 44.0839 10.5933C45.0824 9.9869 46.0637 9.34724 47.0746 8.76565C48.2656 8.08051 49.4801 7.44148 50.685 6.78371C52.0295 6.04974 53.3671 5.30097 54.7215 4.58818C56.3223 3.74572 57.9351 2.92889 59.548 2.11263C60.4693 1.64636 61.402 1.20559 62.3276 0.748905C62.7824 0.524534 63.2328 0.29006 63.6851 0.060157C63.7825 0.0601563 63.8798 0.0601563 64.0015 0.0601564C64.6471 0.280345 65.2644 0.514245 65.8905 0.717389C66.75 0.996226 67.6122 1.26738 68.4803 1.51374C69.9171 1.92148 71.355 2.32644 72.8014 2.69301C73.4911 2.86783 74.2019 2.94837 74.9021 3.07771C75.6834 3.22202 76.463 3.37685 77.2445 3.52038C77.8904 3.63901 78.538 3.74751 79.1847 3.86112C79.9498 3.99551 80.7138 4.13734 81.4801 4.26288C81.9653 4.34237 82.454 4.39837 82.9412 4.46427C83.5205 4.54261 84.0994 4.62421 84.6793 4.69689C85.0765 4.74667 85.4757 4.77863 85.873 4.82751C86.4809 4.90228 87.0875 4.98849 87.6955 5.06264C88.093 5.11113 88.4915 5.15096 88.8902 5.1875C89.7911 5.27008 90.6922 5.3494 91.5935 5.42746C91.8823 5.45247 92.1715 5.47334 92.4609 5.48917C93.2378 5.53168 94.0148 5.57363 94.792 5.60985C95.7298 5.65356 96.6677 5.69382 97.6057 5.73069C98.7044 5.77386 99.8032 5.8145 100.902 5.85104C101.655 5.87607 102.408 5.89155 103.161 5.91255C103.847 5.9317 104.534 5.94673 105.22 5.97504C105.576 5.9897 105.93 6.02922 106.298 6.05857C106.255 6.08859 106.214 6.13226 106.165 6.14964C104.432 6.75948 102.698 7.36624 100.965 7.97471C98.5607 8.81862 96.1558 9.65973 93.7536 10.5093C92.0745 11.1032 90.3786 11.6523 88.7282 12.3265C87.1705 12.9628 85.598 13.5693 84.1084 14.3912C82.8839 15.0667 81.6208 15.6636 80.3723 16.2895C79.2413 16.8566 78.1068 17.4158 76.9738 17.9785C75.8408 18.5411 74.7087 19.1058 73.5746 19.6659C72.224 20.333 70.8711 20.9945 69.5204 21.6614C68.4281 22.2009 67.3372 22.7438 66.2465 23.2871C65.2805 23.7683 64.3114 24.2427 63.3521 24.7387C62.8558 24.9954 62.379 25.2946 61.8906 25.5689C61.8199 25.6086 61.7328 25.6382 61.6544 25.6353C61.4132 25.6267 61.1727 25.5871 60.9316 25.5825C59.6205 25.5579 58.3091 25.55 56.9983 25.5163C56.2113 25.4962 55.4251 25.4403 54.6386 25.3991C53.8899 25.3599 53.1415 25.3147 52.3926 25.2801C51.8103 25.2531 51.2277 25.2353 50.645 25.2191C49.8166 25.1961 48.988 25.1779 48.1594 25.1581C47.3025 25.1377 46.4456 25.1179 45.5887 25.0977C44.7412 25.0777 43.8936 25.0629 43.0463 25.036C41.9568 25.0014 40.8676 24.9576 39.7783 24.9165C38.7362 24.8772 37.6941 24.8394 36.6523 24.795C35.8373 24.7603 35.0226 24.7164 34.1554 24.6768C33.5716 24.6798 33.0402 24.6826 32.5088 24.6855Z" fill="#225157"/>
<path d="M67.4007 54.6599C67.3565 54.5352 67.3211 54.4105 67.321 54.2858C67.3181 50.2144 67.3187 46.1429 67.3187 42.0715C67.3187 40.2072 67.3187 38.3429 67.3187 36.4526C65.2977 36.4526 63.3444 36.4526 61.3868 36.4526C61.3868 34.4349 61.3868 32.4436 61.3868 30.4295C65.339 30.4295 69.2605 30.4295 73.2033 30.4295C73.2033 38.4677 73.2033 46.5234 73.2033 54.5877C73.1244 54.5958 73.0417 54.6044 72.9498 54.6364C72.8433 54.6599 72.7459 54.6599 72.614 54.6357C71.0332 54.6076 69.4869 54.6033 67.9406 54.6024C67.9037 54.6023 67.8667 54.6399 67.8297 54.6599C67.6951 54.6599 67.5605 54.6599 67.4007 54.6599Z" fill="#FF0000"/>
<path d="M87.9573 54.6601C87.8387 54.6198 87.7453 54.5474 87.65 54.5445C86.8888 54.5214 86.2018 54.2748 85.6867 53.676C85.1811 53.0883 84.8346 52.4131 84.8588 51.5601C84.8902 50.4551 84.8709 49.3483 84.8656 48.2423C84.8489 44.768 84.8286 41.2937 84.8097 37.8193C84.8091 37.711 84.8097 37.6026 84.8097 37.4801C86.8592 37.4801 88.8883 37.4801 90.9661 37.4801C90.9661 41.1299 90.9661 44.7707 90.9661 48.4695C95.3196 48.4695 99.6245 48.4695 104.012 48.4695C103.673 48.9854 103.391 49.4244 103.1 49.8568C102.553 50.6689 101.997 51.4747 101.452 52.2877C100.971 53.0038 100.5 53.7278 100.017 54.4422C99.9788 54.4993 99.8783 54.5292 99.804 54.5351C99.6346 54.5486 99.4634 54.5341 99.2933 54.5404C98.6927 54.5624 98.0923 54.5885 97.4825 54.6365C97.3759 54.6601 97.2785 54.6601 97.1467 54.6358C95.9444 54.6078 94.7766 54.6033 93.6088 54.6025C93.572 54.6025 93.535 54.64 93.4981 54.6601C92.3044 54.6601 91.1107 54.6601 89.8802 54.6358C89.4036 54.6077 88.9638 54.6005 88.524 54.6026C88.4405 54.6029 88.3571 54.6399 88.2737 54.6601C88.1763 54.6601 88.079 54.6601 87.9573 54.6601Z" fill="#FF0000"/>
<path d="M51.9549 54.6604C51.7561 54.6201 51.5827 54.5453 51.4091 54.5449C48.6266 54.5375 45.844 54.5364 43.0615 54.5414C42.0361 54.5433 41.2721 54.0402 40.6978 53.1794C40.4099 52.7478 40.2748 52.2662 40.2803 51.7171C40.3003 49.7264 40.2811 47.7353 40.2899 45.7444C40.302 43.0241 40.3261 40.3038 40.345 37.5834C40.3453 37.535 40.345 37.4865 40.345 37.4411C42.3315 37.4411 44.3008 37.4411 46.2951 37.4411C46.2951 41.1205 46.2951 44.7646 46.2951 48.4328C50.6204 48.4328 54.9208 48.4328 59.2635 48.4328C59.0106 48.8418 58.787 49.2185 58.5493 49.5848C57.9747 50.4703 57.3914 51.3494 56.8156 52.234C56.3347 52.9729 55.8661 53.721 55.3737 54.451C55.3082 54.5482 55.1346 54.5631 55.0037 54.6383C54.8988 54.6604 54.8015 54.6604 54.6696 54.6361C53.9215 54.6081 53.2079 54.6033 52.4943 54.6029C52.4575 54.6029 52.4207 54.6403 52.3839 54.6604C52.2493 54.6604 52.1147 54.6604 51.9549 54.6604Z" fill="#FF0000"/>
<path d="M127.457 30.5052C127.353 30.6283 127.227 30.7127 127.148 30.8319C126.47 31.8533 125.804 32.8834 125.128 33.9062C124.594 34.7138 124.052 35.5156 123.51 36.3172C123.474 36.3706 123.406 36.4348 123.353 36.4351C121.947 36.4415 120.54 36.4402 119.122 36.4402C119.122 34.4022 119.122 32.3886 119.122 30.3468C121.888 30.3468 124.646 30.3468 127.431 30.3468C127.457 30.392 127.457 30.4373 127.457 30.5052Z" fill="#FF0000"/>
<path d="M71.5011 21.7641C72.7327 21.1373 73.9453 20.5221 75.1589 19.9092C76.1561 19.4057 77.1545 18.905 78.1525 18.4032C79.192 17.8804 80.2302 17.3545 81.2717 16.8363C82.0545 16.447 82.8419 16.0683 83.6267 15.6835C83.8387 15.5796 84.0026 15.5883 84.1338 15.8368C84.5209 16.57 84.9224 17.2946 85.3186 18.0224C85.8571 19.0119 86.3966 20.0009 86.9342 20.991C87.1135 21.3212 87.3308 21.6376 87.4518 21.9909C87.5435 22.2586 87.5252 22.5749 87.5213 22.8691C87.5204 22.9396 87.3927 23.0325 87.3059 23.0736C86.5095 23.4515 85.7108 23.824 84.9098 24.1907C84.0502 24.5841 83.1874 24.9695 82.3259 25.3583C81.3126 25.8156 80.2975 26.2689 79.2861 26.7312C78.4004 27.136 77.5189 27.551 76.6354 27.9611C76.0634 28.2267 75.4915 28.4925 74.9185 28.7555C74.8774 28.7743 74.8273 28.7758 74.7813 28.7772C74.0852 28.7984 73.3891 28.835 72.693 28.8357C67.4599 28.8406 62.2268 28.8305 56.9938 28.8405C51.5094 28.851 46.025 28.8778 40.5406 28.9015C40.3301 28.9024 40.1197 28.9449 39.8769 28.9716C40.1017 27.9431 40.3173 26.9565 40.5261 26.0011C41.1754 26.0011 41.8222 26.0011 42.4691 26.0012C42.5069 26.0012 42.5447 26.0021 42.5826 26.0028C43.7234 26.0229 44.8644 26.0401 46.0052 26.0642C46.673 26.0783 47.3406 26.1029 48.0083 26.1236C48.6382 26.1431 49.268 26.1643 49.8979 26.1836C50.575 26.2044 51.2523 26.2235 51.9294 26.2443C52.5593 26.2637 53.1891 26.2847 53.819 26.3043C54.4772 26.3249 55.1355 26.3443 55.7937 26.3649C56.4236 26.3846 57.0534 26.4052 57.6833 26.425C58.3321 26.4454 58.9811 26.4596 59.6296 26.487C60.3495 26.5174 61.0688 26.5795 61.7885 26.5837C61.9823 26.5849 62.1808 26.4348 62.3705 26.3392C63.6261 25.7061 64.8794 25.0678 66.1345 24.4334C67.1232 23.9337 68.1116 23.4336 69.1032 22.9405C69.894 22.5473 70.6893 22.1642 71.5011 21.7641Z" fill="#225157"/>
<path d="M114.85 30.3468C115.899 30.3468 116.92 30.3468 117.957 30.3468C117.957 38.4097 117.957 46.4571 117.957 54.5057C115.99 54.5057 114.02 54.5057 112.011 54.5057C112.011 54.3568 112.011 54.2412 112.011 54.1257C112.011 49.0988 112.013 44.0719 112.008 39.045C112.007 38.2553 111.968 37.4657 111.957 36.6759C111.955 36.4853 111.882 36.4362 111.717 36.4378C111.083 36.4439 110.449 36.4403 109.815 36.4403C108.515 36.4403 107.214 36.4403 105.896 36.4403C105.896 34.3727 105.896 32.3779 105.896 30.3468C108.868 30.3468 111.845 30.3468 114.85 30.3468Z" fill="#FF0000"/>
<path d="M32.5084 24.7133C33.0398 24.6829 33.5712 24.68 34.1289 24.6814C34.1553 26.7019 34.1553 28.7182 34.1553 30.712C35.2113 31.0407 35.2107 31.6059 35.171 32.3502C35.1468 32.8049 34.7576 33.1341 34.1553 33.2141C34.1553 33.7599 34.1494 34.3174 34.161 34.8745C34.163 34.9684 34.2179 35.0959 34.2878 35.1471C34.5277 35.3229 34.6105 35.5623 34.6099 35.8544C34.6087 36.508 34.6095 37.1616 34.6095 37.8151C34.6095 37.9129 34.6095 38.0106 34.6095 38.117C35.2123 38.1389 35.717 38.3338 36.0836 38.8251C36.341 39.1702 36.535 39.5629 36.5358 40.0085C36.5431 44.674 36.5403 49.3396 36.5403 54.0052C36.5403 54.0729 36.5403 54.1407 36.5403 54.2231C34.3985 54.2231 32.282 54.2231 30.1233 54.2231C30.1233 54.1209 30.1233 54.0152 30.1233 53.9096C30.1233 51.7679 30.116 49.6261 30.1255 47.4844C30.1346 45.4271 30.1585 43.3698 30.1821 41.3126C30.1877 40.8238 30.1638 40.3242 30.2496 39.8491C30.3831 39.1106 30.8544 38.6102 31.4916 38.3198C32.0438 38.0681 32.0541 38.0936 32.0541 37.4471C32.0541 36.9042 32.0487 36.3611 32.0564 35.8183C32.0602 35.5557 32.1222 35.3221 32.3618 35.1658C32.4399 35.1149 32.5036 34.9645 32.5013 34.8615C32.4892 34.3335 32.4534 33.8061 32.4257 33.2758C31.8715 33.1628 31.5709 32.6858 31.5415 32.2272C31.4895 31.4147 31.6723 31.0725 32.5084 30.7954C32.5084 28.7811 32.5084 26.761 32.5084 24.7133Z" fill="#FFC600"/>
<path d="M97.5864 36.3798C93.3205 36.3798 89.0829 36.3798 84.824 36.3798C84.8187 36.2829 84.8099 36.1966 84.8098 36.1102C84.8088 35.1252 84.8335 34.1393 84.8011 33.1555C84.7771 32.4267 85.1102 31.8762 85.4937 31.3482C86.0251 30.6166 86.7433 30.3359 87.6158 30.3374C90.4213 30.3422 93.2269 30.2985 96.0325 30.2902C97.1634 30.2868 98.2944 30.3345 99.4255 30.3423C99.812 30.345 100.045 30.5503 100.257 30.8654C101.182 32.2429 102.122 33.6089 103.055 34.9813C103.356 35.4246 103.648 35.8745 103.983 36.3798C101.833 36.3798 99.7241 36.3798 97.5864 36.3798Z" fill="#FF0000"/>
<path d="M40.2886 34.9829C40.2886 34.2902 40.325 33.6237 40.2785 32.9639C40.231 32.2901 40.517 31.7853 40.8899 31.3137C41.2222 30.8934 41.6292 30.5694 42.1507 30.4501C42.2583 30.4255 42.3699 30.4087 42.4797 30.4087C46.6152 30.4066 50.7506 30.4106 54.886 30.3987C55.1599 30.3979 55.3287 30.4857 55.4842 30.7101C56.6709 32.422 57.8662 34.127 59.054 35.838C59.1692 36.004 59.2515 36.1959 59.3741 36.4218C52.9973 36.4218 46.6909 36.4218 40.3726 36.4218C40.345 35.9587 40.3168 35.4854 40.2886 34.9829Z" fill="#FF0000"/>
<path d="M77.0864 30.4069C78.9936 30.4069 80.8725 30.4069 82.8127 30.4069C82.4346 30.9726 82.0914 31.4876 81.7468 32.0015C80.7796 33.4436 79.8131 34.8862 78.8399 36.3237C78.7968 36.3874 78.6901 36.4344 78.6126 36.4352C77.7893 36.4431 76.9657 36.4511 76.1426 36.4363C75.5609 36.4259 74.9799 36.3806 74.3792 36.3499C74.3792 34.3938 74.3792 32.419 74.3792 30.4069C75.268 30.4069 76.163 30.4069 77.0864 30.4069Z" fill="#FF0000"/>
</g>
</g>
<defs>
<clipPath id="clip0_1014_2177">
<rect width="149.8" height="84" fill="white"/>
</clipPath>
<clipPath id="clip1_1014_2177">
<rect width="105" height="54.6" fill="white" transform="translate(22.4)"/>
</clipPath>
</defs>
</svg>
