<svg width="233" height="80" viewBox="0 0 233 80" fill="none" xmlns="http://www.w3.org/2000/svg">
<g clip-path="url(#clip0_1014_2197)">
<path d="M10.2129 52.0527V56.425C10.0652 56.6437 9.83007 56.8898 9.50742 57.1632C9.18476 57.4312 8.73906 57.6664 8.17031 57.8687C7.60703 58.0656 6.87968 58.164 5.98828 58.164C5.26094 58.164 4.59101 58.0382 3.97851 57.7867C3.37148 57.5296 2.84375 57.1578 2.39531 56.6711C1.95234 56.1789 1.60781 55.5828 1.36172 54.8828C1.12109 54.1773 1.00078 53.3789 1.00078 52.4875V51.5605C1.00078 50.6691 1.10469 49.8734 1.3125 49.1734C1.52578 48.4734 1.8375 47.88 2.24766 47.3933C2.65781 46.9011 3.16094 46.5293 3.75703 46.2777C4.35312 46.0207 5.03672 45.8922 5.80781 45.8922C6.72109 45.8922 7.48398 46.0507 8.09648 46.3679C8.71445 46.6797 9.1957 47.1117 9.54023 47.664C9.89023 48.2164 10.1144 48.8453 10.2129 49.5507H8.62968C8.55859 49.1187 8.4164 48.725 8.20312 48.3695C7.99531 48.014 7.69726 47.7297 7.30898 47.5164C6.9207 47.2976 6.42031 47.1882 5.80781 47.1882C5.25547 47.1882 4.77695 47.2894 4.37226 47.4918C3.96758 47.6941 3.63398 47.984 3.37148 48.3613C3.10898 48.7386 2.91211 49.1953 2.78086 49.7312C2.65508 50.2672 2.59219 50.8714 2.59219 51.5441V52.4875C2.59219 53.1765 2.67148 53.7918 2.83008 54.3332C2.99414 54.8746 3.22656 55.3367 3.52734 55.7195C3.82812 56.0968 4.18633 56.3839 4.60195 56.5808C5.02304 56.7777 5.48789 56.8761 5.99648 56.8761C6.55976 56.8761 7.0164 56.8296 7.3664 56.7367C7.7164 56.6382 7.98984 56.5234 8.18672 56.3921C8.38359 56.2554 8.53398 56.1269 8.63789 56.0066V53.3324H5.87344V52.0527H10.2129ZM12.2062 53.6605V53.4718C12.2062 52.832 12.2992 52.2386 12.4852 51.6918C12.6711 51.1394 12.9391 50.6609 13.2891 50.2562C13.6391 49.8461 14.0629 49.5289 14.5605 49.3047C15.0582 49.075 15.616 48.9601 16.234 48.9601C16.8574 48.9601 17.418 49.075 17.9156 49.3047C18.4187 49.5289 18.8453 49.8461 19.1953 50.2562C19.5508 50.6609 19.8215 51.1394 20.0074 51.6918C20.1934 52.2386 20.2863 52.832 20.2863 53.4718V53.6605C20.2863 54.3004 20.1934 54.8937 20.0074 55.4406C19.8215 55.9875 19.5508 56.466 19.1953 56.8761C18.8453 57.2808 18.4215 57.598 17.9238 57.8277C17.4316 58.0519 16.8738 58.164 16.2504 58.164C15.6269 58.164 15.0664 58.0519 14.5687 57.8277C14.0711 57.598 13.6445 57.2808 13.2891 56.8761C12.9391 56.466 12.6711 55.9875 12.4852 55.4406C12.2992 54.8937 12.2062 54.3004 12.2062 53.6605ZM13.7238 53.4718V53.6605C13.7238 54.1035 13.7758 54.5218 13.8797 54.9156C13.9836 55.3039 14.1394 55.6484 14.3473 55.9492C14.5605 56.25 14.8258 56.4879 15.143 56.6629C15.4602 56.8324 15.8293 56.9171 16.2504 56.9171C16.666 56.9171 17.0297 56.8324 17.3414 56.6629C17.6586 56.4879 17.9211 56.25 18.1289 55.9492C18.3367 55.6484 18.4926 55.3039 18.5965 54.9156C18.7059 54.5218 18.7605 54.1035 18.7605 53.6605V53.4718C18.7605 53.0343 18.7059 52.6214 18.5965 52.2332C18.4926 51.8394 18.334 51.4922 18.1207 51.1914C17.9129 50.8851 17.6504 50.6445 17.3332 50.4695C17.0215 50.2945 16.6551 50.207 16.234 50.207C15.8184 50.207 15.4519 50.2945 15.1348 50.4695C14.823 50.6445 14.5605 50.8851 14.3473 51.1914C14.1394 51.4922 13.9836 51.8394 13.8797 52.2332C13.7758 52.6214 13.7238 53.0343 13.7238 53.4718ZM21.7875 53.6605V53.4718C21.7875 52.832 21.8805 52.2386 22.0664 51.6918C22.2523 51.1394 22.5203 50.6609 22.8703 50.2562C23.2203 49.8461 23.6441 49.5289 24.1418 49.3047C24.6394 49.075 25.1973 48.9601 25.8152 48.9601C26.4387 48.9601 26.9992 49.075 27.4969 49.3047C28 49.5289 28.4266 49.8461 28.7766 50.2562C29.132 50.6609 29.4027 51.1394 29.5887 51.6918C29.7746 52.2386 29.8676 52.832 29.8676 53.4718V53.6605C29.8676 54.3004 29.7746 54.8937 29.5887 55.4406C29.4027 55.9875 29.132 56.466 28.7766 56.8761C28.4266 57.2808 28.0027 57.598 27.5051 57.8277C27.0129 58.0519 26.4551 58.164 25.8316 58.164C25.2082 58.164 24.6476 58.0519 24.15 57.8277C23.6523 57.598 23.2258 57.2808 22.8703 56.8761C22.5203 56.466 22.2523 55.9875 22.0664 55.4406C21.8805 54.8937 21.7875 54.3004 21.7875 53.6605ZM23.3051 53.4718V53.6605C23.3051 54.1035 23.357 54.5218 23.4609 54.9156C23.5648 55.3039 23.7207 55.6484 23.9285 55.9492C24.1418 56.25 24.407 56.4879 24.7242 56.6629C25.0414 56.8324 25.4105 56.9171 25.8316 56.9171C26.2473 56.9171 26.6109 56.8324 26.9226 56.6629C27.2398 56.4879 27.5023 56.25 27.7101 55.9492C27.918 55.6484 28.0738 55.3039 28.1777 54.9156C28.2871 54.5218 28.3418 54.1035 28.3418 53.6605V53.4718C28.3418 53.0343 28.2871 52.6214 28.1777 52.2332C28.0738 51.8394 27.9152 51.4922 27.7019 51.1914C27.4941 50.8851 27.2316 50.6445 26.9144 50.4695C26.6027 50.2945 26.2363 50.207 25.8152 50.207C25.3996 50.207 25.0332 50.2945 24.716 50.4695C24.4043 50.6445 24.1418 50.8851 23.9285 51.1914C23.7207 51.4922 23.5648 51.8394 23.4609 52.2332C23.357 52.6214 23.3051 53.0343 23.3051 53.4718ZM37.5211 49.1242H38.8992V57.8113C38.8992 58.5933 38.7406 59.2605 38.4234 59.8129C38.1062 60.3652 37.6633 60.7836 37.0945 61.0679C36.5312 61.3578 35.8805 61.5027 35.1422 61.5027C34.8359 61.5027 34.475 61.4535 34.0594 61.355C33.6492 61.2621 33.2445 61.1007 32.8453 60.8711C32.4516 60.6468 32.1207 60.3433 31.8527 59.9605L32.6484 59.0582C33.0203 59.5066 33.4086 59.8183 33.8133 59.9933C34.2234 60.1683 34.6281 60.2558 35.0273 60.2558C35.5086 60.2558 35.9242 60.1656 36.2742 59.9851C36.6242 59.8046 36.8949 59.5367 37.0863 59.1812C37.2832 58.8312 37.3816 58.3992 37.3816 57.8851V51.0765L37.5211 49.1242ZM31.4098 53.6605V53.4882C31.4098 52.8101 31.4891 52.1949 31.6476 51.6425C31.8117 51.0847 32.0441 50.6062 32.3449 50.207C32.6512 49.8078 33.0203 49.5015 33.4523 49.2882C33.8844 49.0695 34.3711 48.9601 34.9125 48.9601C35.4703 48.9601 35.957 49.0586 36.3726 49.2554C36.7937 49.4468 37.1492 49.7285 37.439 50.1004C37.7344 50.4668 37.9668 50.9097 38.1363 51.4293C38.3058 51.9488 38.4234 52.5367 38.489 53.1929V53.9476C38.4289 54.5984 38.3113 55.1836 38.1363 55.7031C37.9668 56.2226 37.7344 56.6656 37.439 57.032C37.1492 57.3984 36.7937 57.68 36.3726 57.8769C35.9515 58.0683 35.4594 58.164 34.8961 58.164C34.3656 58.164 33.8844 58.0519 33.4523 57.8277C33.0258 57.6035 32.6594 57.289 32.3531 56.8843C32.0469 56.4796 31.8117 56.0039 31.6476 55.457C31.4891 54.9047 31.4098 54.3058 31.4098 53.6605ZM32.9273 53.4882V53.6605C32.9273 54.1035 32.9711 54.5191 33.0586 54.9074C33.1516 55.2957 33.291 55.6375 33.4769 55.9328C33.6683 56.2281 33.9117 56.4605 34.207 56.63C34.5023 56.7941 34.8551 56.8761 35.2652 56.8761C35.7683 56.8761 36.184 56.7695 36.5121 56.5562C36.8402 56.3429 37.1 56.0613 37.2914 55.7113C37.4883 55.3613 37.6414 54.9812 37.7508 54.5711V52.5941C37.6906 52.2933 37.5976 52.0035 37.4719 51.7246C37.3515 51.4402 37.193 51.1886 36.9961 50.9699C36.8047 50.7457 36.5668 50.5679 36.2824 50.4367C35.998 50.3054 35.6644 50.2398 35.2816 50.2398C34.866 50.2398 34.5078 50.3273 34.207 50.5023C33.9117 50.6718 33.6683 50.907 33.4769 51.2078C33.291 51.5031 33.1516 51.8476 33.0586 52.2414C32.9711 52.6297 32.9273 53.0453 32.9273 53.4882ZM42.8531 45.4V58H41.3273V45.4H42.8531ZM48.9726 58.164C48.3547 58.164 47.7941 58.0601 47.291 57.8523C46.7933 57.639 46.364 57.341 46.0031 56.9582C45.6476 56.5754 45.3742 56.1214 45.1828 55.5964C44.9914 55.0714 44.8957 54.4972 44.8957 53.8738V53.5293C44.8957 52.8074 45.0023 52.1648 45.2156 51.6015C45.4289 51.0328 45.7187 50.5515 46.0851 50.1578C46.4515 49.764 46.8672 49.466 47.332 49.2636C47.7969 49.0613 48.2781 48.9601 48.7758 48.9601C49.4101 48.9601 49.957 49.0695 50.4164 49.2882C50.8812 49.507 51.2613 49.8132 51.5566 50.207C51.8519 50.5953 52.0707 51.0547 52.2129 51.5851C52.3551 52.1101 52.4262 52.6843 52.4262 53.3078V53.9886H45.798V52.75H50.9086V52.6351C50.8867 52.2414 50.8047 51.8586 50.6625 51.4867C50.5258 51.1148 50.307 50.8086 50.0062 50.5679C49.7055 50.3273 49.2953 50.207 48.7758 50.207C48.4312 50.207 48.114 50.2808 47.8242 50.4285C47.5344 50.5707 47.2855 50.7839 47.0777 51.0683C46.8699 51.3527 46.7086 51.7 46.5937 52.1101C46.4789 52.5203 46.4215 52.9933 46.4215 53.5293V53.8738C46.4215 54.2949 46.4789 54.6914 46.5937 55.0632C46.714 55.4297 46.8863 55.7523 47.1105 56.0312C47.3402 56.3101 47.6164 56.5289 47.939 56.6875C48.2672 56.8461 48.639 56.9254 49.0547 56.9254C49.5906 56.9254 50.0445 56.816 50.4164 56.5972C50.7883 56.3785 51.1137 56.0859 51.3926 55.7195L52.3113 56.4496C52.1199 56.7394 51.8765 57.0156 51.5812 57.2781C51.2859 57.5406 50.9222 57.7539 50.4902 57.9179C50.0637 58.082 49.5578 58.164 48.9726 58.164ZM61.8269 58H59.3332L59.3496 56.7121H61.8269C62.6801 56.7121 63.391 56.5343 63.9597 56.1789C64.5285 55.8179 64.9551 55.3148 65.2394 54.6695C65.5293 54.0187 65.6742 53.2586 65.6742 52.389V51.6589C65.6742 50.9754 65.5922 50.3683 65.4281 49.8379C65.264 49.3019 65.0234 48.8507 64.7062 48.4843C64.389 48.1125 64.0008 47.8308 63.5414 47.6394C63.0875 47.448 62.5652 47.3523 61.9746 47.3523H59.284V46.0562H61.9746C62.7566 46.0562 63.4703 46.1875 64.1156 46.45C64.7609 46.707 65.316 47.0816 65.7808 47.5738C66.2511 48.0605 66.6121 48.6511 66.8636 49.3457C67.1152 50.0347 67.241 50.8113 67.241 51.6754V52.389C67.241 53.2531 67.1152 54.0324 66.8636 54.7269C66.6121 55.416 66.2484 56.0039 65.7726 56.4906C65.3023 56.9773 64.7336 57.3519 64.0664 57.6144C63.4047 57.8714 62.6582 58 61.8269 58ZM60.1781 46.0562V58H58.5949V46.0562H60.1781ZM73.0734 58.164C72.4554 58.164 71.8949 58.0601 71.3918 57.8523C70.8941 57.639 70.4648 57.341 70.1039 56.9582C69.7484 56.5754 69.475 56.1214 69.2836 55.5964C69.0922 55.0714 68.9965 54.4972 68.9965 53.8738V53.5293C68.9965 52.8074 69.1031 52.1648 69.3164 51.6015C69.5297 51.0328 69.8195 50.5515 70.1859 50.1578C70.5523 49.764 70.9679 49.466 71.4328 49.2636C71.8976 49.0613 72.3789 48.9601 72.8765 48.9601C73.5109 48.9601 74.0578 49.0695 74.5172 49.2882C74.982 49.507 75.3621 49.8132 75.6574 50.207C75.9527 50.5953 76.1715 51.0547 76.3136 51.5851C76.4558 52.1101 76.5269 52.6843 76.5269 53.3078V53.9886H69.8988V52.75H75.0093V52.6351C74.9875 52.2414 74.9054 51.8586 74.7633 51.4867C74.6265 51.1148 74.4078 50.8086 74.107 50.5679C73.8062 50.3273 73.3961 50.207 72.8765 50.207C72.532 50.207 72.2148 50.2808 71.925 50.4285C71.6351 50.5707 71.3863 50.7839 71.1785 51.0683C70.9707 51.3527 70.8093 51.7 70.6945 52.1101C70.5797 52.5203 70.5222 52.9933 70.5222 53.5293V53.8738C70.5222 54.2949 70.5797 54.6914 70.6945 55.0632C70.8148 55.4297 70.9871 55.7523 71.2113 56.0312C71.441 56.3101 71.7172 56.5289 72.0398 56.6875C72.3679 56.8461 72.7398 56.9254 73.1554 56.9254C73.6914 56.9254 74.1453 56.816 74.5172 56.5972C74.889 56.3785 75.2144 56.0859 75.4933 55.7195L76.4121 56.4496C76.2207 56.7394 75.9773 57.0156 75.682 57.2781C75.3867 57.5406 75.023 57.7539 74.591 57.9179C74.1644 58.082 73.6586 58.164 73.0734 58.164ZM80.8828 56.63L83.3109 49.1242H84.8613L81.6703 58H80.6531L80.8828 56.63ZM78.8566 49.1242L81.3586 56.6711L81.5308 58H80.5136L77.298 49.1242H78.8566ZM89.8898 58.164C89.2718 58.164 88.7113 58.0601 88.2082 57.8523C87.7105 57.639 87.2812 57.341 86.9203 56.9582C86.5648 56.5754 86.2914 56.1214 86.1 55.5964C85.9086 55.0714 85.8129 54.4972 85.8129 53.8738V53.5293C85.8129 52.8074 85.9195 52.1648 86.1328 51.6015C86.3461 51.0328 86.6359 50.5515 87.0023 50.1578C87.3687 49.764 87.7843 49.466 88.2492 49.2636C88.714 49.0613 89.1953 48.9601 89.6929 48.9601C90.3273 48.9601 90.8742 49.0695 91.3336 49.2882C91.7984 49.507 92.1785 49.8132 92.4738 50.207C92.7691 50.5953 92.9879 51.0547 93.13 51.5851C93.2722 52.1101 93.3433 52.6843 93.3433 53.3078V53.9886H86.7152V52.75H91.8257V52.6351C91.8039 52.2414 91.7218 51.8586 91.5796 51.4867C91.4429 51.1148 91.2242 50.8086 90.9234 50.5679C90.6226 50.3273 90.2125 50.207 89.6929 50.207C89.3484 50.207 89.0312 50.2808 88.7414 50.4285C88.4515 50.5707 88.2027 50.7839 87.9949 51.0683C87.7871 51.3527 87.6257 51.7 87.5109 52.1101C87.3961 52.5203 87.3386 52.9933 87.3386 53.5293V53.8738C87.3386 54.2949 87.3961 54.6914 87.5109 55.0632C87.6312 55.4297 87.8035 55.7523 88.0277 56.0312C88.2574 56.3101 88.5336 56.5289 88.8562 56.6875C89.1843 56.8461 89.5562 56.9254 89.9718 56.9254C90.5078 56.9254 90.9617 56.816 91.3336 56.5972C91.7054 56.3785 92.0308 56.0859 92.3097 55.7195L93.2285 56.4496C93.0371 56.7394 92.7937 57.0156 92.4984 57.2781C92.2031 57.5406 91.8394 57.7539 91.4074 57.9179C90.9808 58.082 90.475 58.164 89.8898 58.164ZM96.764 45.4V58H95.2382V45.4H96.764ZM98.7984 53.6605V53.4718C98.7984 52.832 98.8914 52.2386 99.0773 51.6918C99.2632 51.1394 99.5312 50.6609 99.8812 50.2562C100.231 49.8461 100.655 49.5289 101.153 49.3047C101.65 49.075 102.208 48.9601 102.826 48.9601C103.45 48.9601 104.01 49.075 104.508 49.3047C105.011 49.5289 105.437 49.8461 105.787 50.2562C106.143 50.6609 106.414 51.1394 106.6 51.6918C106.786 52.2386 106.878 52.832 106.878 53.4718V53.6605C106.878 54.3004 106.786 54.8937 106.6 55.4406C106.414 55.9875 106.143 56.466 105.787 56.8761C105.437 57.2808 105.014 57.598 104.516 57.8277C104.024 58.0519 103.466 58.164 102.843 58.164C102.219 58.164 101.659 58.0519 101.161 57.8277C100.663 57.598 100.237 57.2808 99.8812 56.8761C99.5312 56.466 99.2632 55.9875 99.0773 55.4406C98.8914 54.8937 98.7984 54.3004 98.7984 53.6605ZM100.316 53.4718V53.6605C100.316 54.1035 100.368 54.5218 100.472 54.9156C100.576 55.3039 100.732 55.6484 100.939 55.9492C101.153 56.25 101.418 56.4879 101.735 56.6629C102.052 56.8324 102.421 56.9171 102.843 56.9171C103.258 56.9171 103.622 56.8324 103.934 56.6629C104.251 56.4879 104.513 56.25 104.721 55.9492C104.929 55.6484 105.085 55.3039 105.189 54.9156C105.298 54.5218 105.353 54.1035 105.353 53.6605V53.4718C105.353 53.0343 105.298 52.6214 105.189 52.2332C105.085 51.8394 104.926 51.4922 104.713 51.1914C104.505 50.8851 104.243 50.6445 103.925 50.4695C103.614 50.2945 103.247 50.207 102.826 50.207C102.411 50.207 102.044 50.2945 101.727 50.4695C101.415 50.6445 101.153 50.8851 100.939 51.1914C100.732 51.4922 100.576 51.8394 100.472 52.2332C100.368 52.6214 100.316 53.0343 100.316 53.4718ZM110.299 50.8304V61.4125H108.773V49.1242H110.168L110.299 50.8304ZM116.279 53.4882V53.6605C116.279 54.3058 116.203 54.9047 116.05 55.457C115.896 56.0039 115.672 56.4796 115.377 56.8843C115.087 57.289 114.729 57.6035 114.302 57.8277C113.876 58.0519 113.386 58.164 112.834 58.164C112.271 58.164 111.773 58.0711 111.341 57.8851C110.909 57.6992 110.543 57.4285 110.242 57.073C109.941 56.7175 109.7 56.291 109.52 55.7933C109.345 55.2957 109.225 54.7351 109.159 54.1117V53.1929C109.225 52.5367 109.348 51.9488 109.528 51.4293C109.709 50.9097 109.946 50.4668 110.242 50.1004C110.543 49.7285 110.906 49.4468 111.333 49.2554C111.759 49.0586 112.252 48.9601 112.809 48.9601C113.367 48.9601 113.862 49.0695 114.294 49.2882C114.726 49.5015 115.09 49.8078 115.385 50.207C115.68 50.6062 115.902 51.0847 116.05 51.6425C116.203 52.1949 116.279 52.8101 116.279 53.4882ZM114.753 53.6605V53.4882C114.753 53.0453 114.707 52.6297 114.614 52.2414C114.521 51.8476 114.376 51.5031 114.179 51.2078C113.988 50.907 113.742 50.6718 113.441 50.5023C113.14 50.3273 112.782 50.2398 112.366 50.2398C111.984 50.2398 111.65 50.3054 111.366 50.4367C111.087 50.5679 110.849 50.7457 110.652 50.9699C110.455 51.1886 110.294 51.4402 110.168 51.7246C110.048 52.0035 109.957 52.2933 109.897 52.5941V54.7187C110.007 55.1015 110.16 55.4625 110.357 55.8015C110.553 56.1351 110.816 56.4058 111.144 56.6136C111.472 56.816 111.885 56.9171 112.383 56.9171C112.793 56.9171 113.146 56.8324 113.441 56.6629C113.742 56.4879 113.988 56.25 114.179 55.9492C114.376 55.6484 114.521 55.3039 114.614 54.9156C114.707 54.5218 114.753 54.1035 114.753 53.6605ZM121.898 58.164C121.28 58.164 120.72 58.0601 120.217 57.8523C119.719 57.639 119.29 57.341 118.929 56.9582C118.573 56.5754 118.3 56.1214 118.109 55.5964C117.917 55.0714 117.821 54.4972 117.821 53.8738V53.5293C117.821 52.8074 117.928 52.1648 118.141 51.6015C118.355 51.0328 118.644 50.5515 119.011 50.1578C119.377 49.764 119.793 49.466 120.258 49.2636C120.723 49.0613 121.204 48.9601 121.702 48.9601C122.336 48.9601 122.883 49.0695 123.342 49.2882C123.807 49.507 124.187 49.8132 124.482 50.207C124.778 50.5953 124.996 51.0547 125.139 51.5851C125.281 52.1101 125.352 52.6843 125.352 53.3078V53.9886H118.724V52.75H123.834V52.6351C123.812 52.2414 123.73 51.8586 123.588 51.4867C123.452 51.1148 123.233 50.8086 122.932 50.5679C122.631 50.3273 122.221 50.207 121.702 50.207C121.357 50.207 121.04 50.2808 120.75 50.4285C120.46 50.5707 120.211 50.7839 120.003 51.0683C119.796 51.3527 119.634 51.7 119.519 52.1101C119.405 52.5203 119.347 52.9933 119.347 53.5293V53.8738C119.347 54.2949 119.405 54.6914 119.519 55.0632C119.64 55.4297 119.812 55.7523 120.036 56.0312C120.266 56.3101 120.542 56.5289 120.865 56.6875C121.193 56.8461 121.565 56.9254 121.98 56.9254C122.516 56.9254 122.97 56.816 123.342 56.5972C123.714 56.3785 124.039 56.0859 124.318 55.7195L125.237 56.4496C125.046 56.7394 124.802 57.0156 124.507 57.2781C124.212 57.5406 123.848 57.7539 123.416 57.9179C122.989 58.082 122.484 58.164 121.898 58.164ZM128.641 50.5187V58H127.124V49.1242H128.6L128.641 50.5187ZM131.414 49.075L131.406 50.4859C131.28 50.4586 131.16 50.4422 131.045 50.4367C130.935 50.4257 130.81 50.4203 130.668 50.4203C130.318 50.4203 130.009 50.475 129.741 50.5843C129.473 50.6937 129.246 50.8468 129.06 51.0437C128.874 51.2406 128.726 51.4757 128.617 51.7492C128.513 52.0172 128.444 52.3125 128.412 52.6351L127.985 52.8812C127.985 52.3453 128.037 51.8422 128.141 51.3718C128.25 50.9015 128.417 50.4859 128.641 50.125C128.866 49.7586 129.15 49.4742 129.494 49.2718C129.844 49.064 130.26 48.9601 130.741 48.9601C130.851 48.9601 130.977 48.9738 131.119 49.0011C131.261 49.023 131.359 49.0476 131.414 49.075ZM143.579 54.9812C143.579 54.7023 143.535 54.4562 143.448 54.2429C143.366 54.0242 143.218 53.8273 143.005 53.6523C142.797 53.4773 142.507 53.3105 142.135 53.1519C141.769 52.9933 141.304 52.832 140.741 52.6679C140.15 52.4929 139.617 52.2988 139.141 52.0855C138.666 51.8668 138.258 51.6179 137.919 51.339C137.58 51.0601 137.32 50.7402 137.14 50.3793C136.959 50.0183 136.869 49.6054 136.869 49.1406C136.869 48.6757 136.965 48.2464 137.156 47.8527C137.348 47.459 137.621 47.1172 137.977 46.8273C138.337 46.532 138.767 46.3023 139.264 46.1382C139.762 45.9742 140.317 45.8922 140.93 45.8922C141.827 45.8922 142.587 46.0644 143.21 46.409C143.839 46.748 144.318 47.1937 144.646 47.7461C144.974 48.2929 145.138 48.8781 145.138 49.5015H143.563C143.563 49.0531 143.467 48.6566 143.276 48.3121C143.084 47.9621 142.794 47.6886 142.406 47.4918C142.018 47.2894 141.526 47.1882 140.93 47.1882C140.366 47.1882 139.902 47.273 139.535 47.4425C139.169 47.6121 138.895 47.8418 138.715 48.1316C138.54 48.4214 138.452 48.7523 138.452 49.1242C138.452 49.3757 138.504 49.6054 138.608 49.8132C138.718 50.0156 138.884 50.2043 139.109 50.3793C139.338 50.5543 139.628 50.7156 139.978 50.8632C140.334 51.0109 140.757 51.1531 141.25 51.2898C141.928 51.4812 142.513 51.6945 143.005 51.9297C143.497 52.1648 143.902 52.43 144.219 52.7254C144.542 53.0152 144.78 53.3461 144.933 53.7179C145.091 54.0843 145.171 54.5 145.171 54.9648C145.171 55.4515 145.072 55.8918 144.875 56.2855C144.678 56.6793 144.397 57.0156 144.03 57.2945C143.664 57.5734 143.224 57.7894 142.71 57.9425C142.201 58.0902 141.632 58.164 141.003 58.164C140.451 58.164 139.907 58.0875 139.371 57.9343C138.841 57.7812 138.357 57.5515 137.919 57.2453C137.487 56.939 137.14 56.5617 136.877 56.1132C136.62 55.6593 136.492 55.1343 136.492 54.5382H138.067C138.067 54.9484 138.146 55.3011 138.305 55.5964C138.463 55.8863 138.679 56.1269 138.953 56.3183C139.232 56.5097 139.546 56.6519 139.896 56.7449C140.252 56.8324 140.621 56.8761 141.003 56.8761C141.556 56.8761 142.023 56.7996 142.406 56.6464C142.789 56.4933 143.079 56.2746 143.276 55.9902C143.478 55.7058 143.579 55.3695 143.579 54.9812ZM150.675 49.1242V50.289H145.876V49.1242H150.675ZM147.5 46.9668H149.018V55.8015C149.018 56.1023 149.064 56.3293 149.157 56.4824C149.25 56.6355 149.371 56.7367 149.518 56.7859C149.666 56.8351 149.825 56.8597 149.994 56.8597C150.12 56.8597 150.251 56.8488 150.388 56.8269C150.53 56.7996 150.637 56.7777 150.708 56.7613L150.716 58C150.596 58.0382 150.437 58.0738 150.24 58.1066C150.049 58.1449 149.816 58.164 149.543 58.164C149.171 58.164 148.829 58.0902 148.518 57.9425C148.206 57.7949 147.957 57.5488 147.771 57.2043C147.591 56.8543 147.5 56.3839 147.5 55.7933V46.9668ZM157.885 55.9492V49.1242H159.411V58H157.959L157.885 55.9492ZM158.173 54.0789L158.804 54.0625C158.804 54.6531 158.741 55.2 158.616 55.7031C158.495 56.2007 158.298 56.6328 158.025 56.9992C157.752 57.3656 157.393 57.6527 156.95 57.8605C156.507 58.0629 155.969 58.164 155.334 58.164C154.902 58.164 154.506 58.1011 154.145 57.9754C153.789 57.8496 153.483 57.6554 153.226 57.3929C152.969 57.1304 152.769 56.7886 152.627 56.3675C152.491 55.9464 152.422 55.4406 152.422 54.85V49.1242H153.94V54.8664C153.94 55.2656 153.984 55.5964 154.071 55.8589C154.164 56.116 154.287 56.3211 154.44 56.4742C154.599 56.6218 154.774 56.7257 154.965 56.7859C155.162 56.8461 155.364 56.8761 155.572 56.8761C156.218 56.8761 156.729 56.7531 157.106 56.507C157.484 56.2554 157.754 55.9191 157.918 55.498C158.088 55.0714 158.173 54.5984 158.173 54.0789ZM167.319 56.2773V45.4H168.845V58H167.45L167.319 56.2773ZM161.347 53.6605V53.4882C161.347 52.8101 161.429 52.1949 161.593 51.6425C161.763 51.0847 162.001 50.6062 162.307 50.207C162.619 49.8078 162.988 49.5015 163.414 49.2882C163.846 49.0695 164.328 48.9601 164.858 48.9601C165.416 48.9601 165.903 49.0586 166.318 49.2554C166.739 49.4468 167.095 49.7285 167.385 50.1004C167.68 50.4668 167.912 50.9097 168.082 51.4293C168.251 51.9488 168.369 52.5367 168.435 53.1929V53.9476C168.375 54.5984 168.257 55.1836 168.082 55.7031C167.912 56.2226 167.68 56.6656 167.385 57.032C167.095 57.3984 166.739 57.68 166.318 57.8769C165.897 58.0683 165.405 58.164 164.842 58.164C164.322 58.164 163.846 58.0519 163.414 57.8277C162.988 57.6035 162.619 57.289 162.307 56.8843C162.001 56.4796 161.763 56.0039 161.593 55.457C161.429 54.9047 161.347 54.3058 161.347 53.6605ZM162.873 53.4882V53.6605C162.873 54.1035 162.917 54.5191 163.004 54.9074C163.097 55.2957 163.239 55.6375 163.431 55.9328C163.622 56.2281 163.866 56.4605 164.161 56.63C164.456 56.7941 164.809 56.8761 165.219 56.8761C165.722 56.8761 166.135 56.7695 166.458 56.5562C166.786 56.3429 167.048 56.0613 167.245 55.7113C167.442 55.3613 167.595 54.9812 167.705 54.5711V52.5941C167.639 52.2933 167.543 52.0035 167.418 51.7246C167.297 51.4402 167.139 51.1886 166.942 50.9699C166.75 50.7457 166.512 50.5679 166.228 50.4367C165.949 50.3054 165.618 50.2398 165.235 50.2398C164.82 50.2398 164.462 50.3273 164.161 50.5023C163.866 50.6718 163.622 50.907 163.431 51.2078C163.239 51.5031 163.097 51.8476 163.004 52.2414C162.917 52.6297 162.873 53.0453 162.873 53.4882ZM174.891 58.164C174.273 58.164 173.712 58.0601 173.209 57.8523C172.711 57.639 172.282 57.341 171.921 56.9582C171.566 56.5754 171.292 56.1214 171.101 55.5964C170.909 55.0714 170.814 54.4972 170.814 53.8738V53.5293C170.814 52.8074 170.92 52.1648 171.134 51.6015C171.347 51.0328 171.637 50.5515 172.003 50.1578C172.369 49.764 172.785 49.466 173.25 49.2636C173.715 49.0613 174.196 48.9601 174.694 48.9601C175.328 48.9601 175.875 49.0695 176.334 49.2882C176.799 49.507 177.179 49.8132 177.475 50.207C177.77 50.5953 177.989 51.0547 178.131 51.5851C178.273 52.1101 178.344 52.6843 178.344 53.3078V53.9886H171.716V52.75H176.826V52.6351C176.805 52.2414 176.723 51.8586 176.58 51.4867C176.444 51.1148 176.225 50.8086 175.924 50.5679C175.623 50.3273 175.213 50.207 174.694 50.207C174.349 50.207 174.032 50.2808 173.742 50.4285C173.452 50.5707 173.203 50.7839 172.996 51.0683C172.788 51.3527 172.627 51.7 172.512 52.1101C172.397 52.5203 172.339 52.9933 172.339 53.5293V53.8738C172.339 54.2949 172.397 54.6914 172.512 55.0632C172.632 55.4297 172.804 55.7523 173.028 56.0312C173.258 56.3101 173.534 56.5289 173.857 56.6875C174.185 56.8461 174.557 56.9254 174.973 56.9254C175.509 56.9254 175.962 56.816 176.334 56.5972C176.706 56.3785 177.032 56.0859 177.31 55.7195L178.229 56.4496C178.038 56.7394 177.794 57.0156 177.499 57.2781C177.204 57.5406 176.84 57.7539 176.408 57.9179C175.982 58.082 175.476 58.164 174.891 58.164ZM181.634 51.0191V58H180.116V49.1242H181.551L181.634 51.0191ZM181.273 53.2257L180.641 53.2011C180.646 52.5941 180.737 52.0336 180.912 51.5195C181.087 51 181.333 50.5488 181.65 50.166C181.967 49.7832 182.344 49.4879 182.782 49.28C183.225 49.0668 183.714 48.9601 184.25 48.9601C184.688 48.9601 185.082 49.0203 185.432 49.1406C185.782 49.2554 186.08 49.4414 186.326 49.6984C186.577 49.9554 186.769 50.289 186.9 50.6992C187.031 51.1039 187.097 51.5988 187.097 52.1839V58H185.571V52.1675C185.571 51.7027 185.503 51.3308 185.366 51.0519C185.229 50.7675 185.03 50.5625 184.767 50.4367C184.505 50.3054 184.182 50.2398 183.799 50.2398C183.422 50.2398 183.077 50.3191 182.766 50.4777C182.459 50.6363 182.194 50.855 181.97 51.1339C181.751 51.4129 181.579 51.7328 181.453 52.0937C181.333 52.4492 181.273 52.8265 181.273 53.2257ZM193.118 49.1242V50.289H188.319V49.1242H193.118ZM189.943 46.9668H191.461V55.8015C191.461 56.1023 191.507 56.3293 191.6 56.4824C191.693 56.6355 191.814 56.7367 191.961 56.7859C192.109 56.8351 192.268 56.8597 192.437 56.8597C192.563 56.8597 192.694 56.8488 192.831 56.8269C192.973 56.7996 193.08 56.7777 193.151 56.7613L193.159 58C193.039 58.0382 192.88 58.0738 192.683 58.1066C192.492 58.1449 192.259 58.164 191.986 58.164C191.614 58.164 191.272 58.0902 190.96 57.9425C190.649 57.7949 190.4 57.5488 190.214 57.2043C190.034 56.8543 189.943 56.3839 189.943 55.7933V46.9668ZM206.505 54.2019H208.08C207.998 54.9566 207.782 55.632 207.432 56.2281C207.082 56.8242 206.587 57.2972 205.948 57.6472C205.308 57.9918 204.509 58.164 203.552 58.164C202.852 58.164 202.215 58.0328 201.641 57.7703C201.072 57.5078 200.583 57.1359 200.173 56.6546C199.762 56.1679 199.445 55.5855 199.221 54.9074C199.002 54.2238 198.893 53.4636 198.893 52.6269V51.4375C198.893 50.6007 199.002 49.8433 199.221 49.1652C199.445 48.4816 199.765 47.8965 200.181 47.4097C200.602 46.923 201.108 46.5484 201.698 46.2859C202.289 46.0234 202.953 45.8922 203.692 45.8922C204.594 45.8922 205.357 46.0617 205.98 46.4007C206.604 46.7398 207.088 47.2101 207.432 47.8117C207.782 48.4078 207.998 49.0996 208.08 49.8871H206.505C206.429 49.3293 206.287 48.8507 206.079 48.4515C205.871 48.0468 205.576 47.7351 205.193 47.5164C204.81 47.2976 204.31 47.1882 203.692 47.1882C203.161 47.1882 202.694 47.2894 202.289 47.4918C201.89 47.6941 201.553 47.9812 201.28 48.3531C201.012 48.725 200.81 49.1707 200.673 49.6902C200.536 50.2097 200.468 50.7867 200.468 51.4211V52.6269C200.468 53.2121 200.528 53.7617 200.648 54.2757C200.774 54.7898 200.963 55.241 201.214 55.6293C201.466 56.0175 201.786 56.3238 202.174 56.548C202.562 56.7668 203.022 56.8761 203.552 56.8761C204.225 56.8761 204.761 56.7695 205.16 56.5562C205.559 56.3429 205.86 56.0367 206.062 55.6375C206.27 55.2382 206.418 54.7597 206.505 54.2019ZM211.657 45.4V58H210.131V45.4H211.657ZM219.524 55.9492V49.1242H221.05V58H219.598L219.524 55.9492ZM219.811 54.0789L220.442 54.0625C220.442 54.6531 220.38 55.2 220.254 55.7031C220.134 56.2007 219.937 56.6328 219.663 56.9992C219.39 57.3656 219.032 57.6527 218.589 57.8605C218.146 58.0629 217.607 58.164 216.973 58.164C216.541 58.164 216.144 58.1011 215.783 57.9754C215.428 57.8496 215.121 57.6554 214.864 57.3929C214.607 57.1304 214.408 56.7886 214.266 56.3675C214.129 55.9464 214.06 55.4406 214.06 54.85V49.1242H215.578V54.8664C215.578 55.2656 215.622 55.5964 215.709 55.8589C215.802 56.116 215.925 56.3211 216.078 56.4742C216.237 56.6218 216.412 56.7257 216.603 56.7859C216.8 56.8461 217.003 56.8761 217.21 56.8761C217.856 56.8761 218.367 56.7531 218.744 56.507C219.122 56.2554 219.392 55.9191 219.557 55.498C219.726 55.0714 219.811 54.5984 219.811 54.0789ZM223.355 45.4H224.88V56.2773L224.749 58H223.355V45.4ZM230.877 53.4882V53.6605C230.877 54.3058 230.8 54.9047 230.647 55.457C230.494 56.0039 230.27 56.4796 229.975 56.8843C229.679 57.289 229.318 57.6035 228.892 57.8277C228.465 58.0519 227.976 58.164 227.423 58.164C226.86 58.164 226.365 58.0683 225.939 57.8769C225.517 57.68 225.162 57.3984 224.872 57.032C224.582 56.6656 224.35 56.2226 224.175 55.7031C224.005 55.1836 223.888 54.5984 223.822 53.9476V53.1929C223.888 52.5367 224.005 51.9488 224.175 51.4293C224.35 50.9097 224.582 50.4668 224.872 50.1004C225.162 49.7285 225.517 49.4468 225.939 49.2554C226.36 49.0586 226.849 48.9601 227.407 48.9601C227.965 48.9601 228.46 49.0695 228.892 49.2882C229.324 49.5015 229.685 49.8078 229.975 50.207C230.27 50.6062 230.494 51.0847 230.647 51.6425C230.8 52.1949 230.877 52.8101 230.877 53.4882ZM229.351 53.6605V53.4882C229.351 53.0453 229.31 52.6297 229.228 52.2414C229.146 51.8476 229.015 51.5031 228.834 51.2078C228.654 50.907 228.416 50.6718 228.121 50.5023C227.825 50.3273 227.462 50.2398 227.03 50.2398C226.647 50.2398 226.313 50.3054 226.029 50.4367C225.75 50.5679 225.512 50.7457 225.315 50.9699C225.118 51.1886 224.957 51.4402 224.831 51.7246C224.711 52.0035 224.621 52.2933 224.56 52.5941V54.5711C224.648 54.9539 224.79 55.323 224.987 55.6785C225.189 56.0285 225.457 56.3156 225.791 56.5398C226.13 56.764 226.548 56.8761 227.046 56.8761C227.456 56.8761 227.806 56.7941 228.096 56.63C228.391 56.4605 228.629 56.2281 228.81 55.9328C228.996 55.6375 229.132 55.2957 229.22 54.9074C229.307 54.5191 229.351 54.1035 229.351 53.6605Z" fill="#656C73"/>
<path d="M99.2552 15.5879L109.663 9.60627C110.839 8.93067 111.697 7.81788 112.049 6.51269C112.4 5.2075 112.216 3.81684 111.537 2.64662C110.858 1.4764 109.74 0.622497 108.428 0.272747C107.116 -0.0770021 105.719 0.106057 104.543 0.781653L86.5607 11.1162L99.2552 15.5879Z" fill="#EA4335"/>
<path d="M107.097 30.9511C108.223 30.9509 109.318 30.581 110.212 29.8989C111.106 29.2168 111.748 28.2605 112.041 27.1781C112.333 26.0957 112.258 24.9476 111.828 23.9117C111.398 22.8758 110.637 22.0099 109.662 21.4481L91.6805 11.1162C90.5044 10.4406 89.1068 10.2576 87.7951 10.6073C86.4833 10.9571 85.3649 11.811 84.686 12.9812C84.007 14.1514 83.823 15.5421 84.1745 16.8473C84.526 18.1524 85.3842 19.2652 86.5603 19.9408L104.542 30.2674C105.318 30.7156 106.2 30.9515 107.097 30.9511V30.9511Z" fill="#4285F4"/>
<path d="M124.983 30.951C125.881 30.9514 126.762 30.7155 127.538 30.2673L145.507 19.9407L132.985 15.374L122.426 21.4454C121.451 22.0072 120.69 22.8731 120.26 23.909C119.83 24.9449 119.755 26.093 120.048 27.1754C120.34 28.2578 120.982 29.2141 121.876 29.8962C122.77 30.5783 123.865 30.9481 124.991 30.9484L124.983 30.951Z" fill="#FBBC04"/>
<path d="M142.952 20.6221C144.078 20.6218 145.173 20.2519 146.067 19.5698C146.96 18.8877 147.603 17.9314 147.895 16.849C148.188 15.7666 148.113 14.6186 147.683 13.5827C147.253 12.5468 146.492 11.6808 145.517 11.119L127.538 0.787135C126.955 0.420688 126.303 0.175241 125.622 0.0655228C124.942 -0.0441956 124.246 -0.0159236 123.576 0.148642C122.906 0.313208 122.277 0.610675 121.726 1.02319C121.175 1.43571 120.713 1.95477 120.368 2.54923C120.024 3.14369 119.804 3.8013 119.721 4.48258C119.638 5.16386 119.694 5.85478 119.886 6.51387C120.078 7.17295 120.402 7.78663 120.839 8.31806C121.275 8.84949 121.815 9.28773 122.426 9.60647L140.405 19.9357C141.179 20.3824 142.057 20.6191 142.952 20.6221Z" fill="#0F9D58"/>
<path d="M43.925 72.6609V73.5195H39.6156V72.6609H43.925ZM39.7797 69.2374V77.1999H38.7242V69.2374H39.7797ZM44.8437 69.2374V77.1999H43.7937V69.2374H44.8437ZM51.5265 74.6679H52.5765C52.5219 75.171 52.3778 75.6213 52.1445 76.0187C51.9112 76.4161 51.5812 76.7315 51.1547 76.9648C50.7281 77.1945 50.1958 77.3093 49.5578 77.3093C49.0911 77.3093 48.6664 77.2218 48.2836 77.0468C47.9044 76.8718 47.5781 76.6239 47.3047 76.3031C47.0312 75.9786 46.8198 75.5903 46.6703 75.1382C46.5245 74.6825 46.4515 74.1757 46.4515 73.6179V72.8249C46.4515 72.2671 46.5245 71.7622 46.6703 71.3101C46.8198 70.8544 47.0331 70.4643 47.3101 70.1398C47.5909 69.8153 47.9281 69.5656 48.3219 69.3906C48.7156 69.2156 49.1586 69.1281 49.6508 69.1281C50.2523 69.1281 50.7609 69.2411 51.1765 69.4671C51.5922 69.6932 51.9148 70.0067 52.1445 70.4078C52.3778 70.8052 52.5219 71.2664 52.5765 71.7914H51.5265C51.4755 71.4195 51.3807 71.1005 51.2422 70.8343C51.1036 70.5645 50.9068 70.3567 50.6515 70.2109C50.3963 70.0651 50.0627 69.9921 49.6508 69.9921C49.2971 69.9921 48.9854 70.0596 48.7156 70.1945C48.4495 70.3294 48.2252 70.5208 48.043 70.7687C47.8643 71.0166 47.7294 71.3137 47.6383 71.6601C47.5471 72.0065 47.5015 72.3911 47.5015 72.814V73.6179C47.5015 74.008 47.5417 74.3744 47.6219 74.7171C47.7057 75.0598 47.8315 75.3606 47.9992 75.6195C48.1669 75.8783 48.3802 76.0825 48.639 76.232C48.8979 76.3778 49.2042 76.4507 49.5578 76.4507C50.0062 76.4507 50.3635 76.3796 50.6297 76.2374C50.8958 76.0953 51.0963 75.8911 51.2312 75.6249C51.3698 75.3588 51.4682 75.0398 51.5265 74.6679ZM54.3484 69.2374H55.3711L57.9797 75.7289L60.5828 69.2374H61.6109L58.3734 77.1999H57.575L54.3484 69.2374ZM54.0148 69.2374H54.9172L55.0648 74.0937V77.1999H54.0148V69.2374ZM61.0367 69.2374H61.939V77.1999H60.889V74.0937L61.0367 69.2374ZM68.6 74.6679H69.65C69.5953 75.171 69.4513 75.6213 69.2179 76.0187C68.9846 76.4161 68.6547 76.7315 68.2281 76.9648C67.8015 77.1945 67.2692 77.3093 66.6312 77.3093C66.1646 77.3093 65.7398 77.2218 65.357 77.0468C64.9778 76.8718 64.6515 76.6239 64.3781 76.3031C64.1047 75.9786 63.8932 75.5903 63.7437 75.1382C63.5979 74.6825 63.525 74.1757 63.525 73.6179V72.8249C63.525 72.2671 63.5979 71.7622 63.7437 71.3101C63.8932 70.8544 64.1065 70.4643 64.3836 70.1398C64.6643 69.8153 65.0015 69.5656 65.3953 69.3906C65.789 69.2156 66.232 69.1281 66.7242 69.1281C67.3258 69.1281 67.8344 69.2411 68.25 69.4671C68.6656 69.6932 68.9883 70.0067 69.2179 70.4078C69.4513 70.8052 69.5953 71.2664 69.65 71.7914H68.6C68.5489 71.4195 68.4541 71.1005 68.3156 70.8343C68.1771 70.5645 67.9802 70.3567 67.725 70.2109C67.4698 70.0651 67.1362 69.9921 66.7242 69.9921C66.3706 69.9921 66.0588 70.0596 65.789 70.1945C65.5229 70.3294 65.2987 70.5208 65.1164 70.7687C64.9377 71.0166 64.8028 71.3137 64.7117 71.6601C64.6206 72.0065 64.575 72.3911 64.575 72.814V73.6179C64.575 74.008 64.6151 74.3744 64.6953 74.7171C64.7791 75.0598 64.9049 75.3606 65.0726 75.6195C65.2403 75.8783 65.4536 76.0825 65.7125 76.232C65.9713 76.3778 66.2776 76.4507 66.6312 76.4507C67.0797 76.4507 67.437 76.3796 67.7031 76.2374C67.9692 76.0953 68.1698 75.8911 68.3047 75.6249C68.4432 75.3588 68.5416 75.0398 68.6 74.6679ZM78.4219 69.2374H79.4719V74.6242C79.4719 75.2221 79.3388 75.7197 79.0726 76.1171C78.8065 76.5145 78.4528 76.8135 78.0117 77.014C77.5742 77.2109 77.0984 77.3093 76.5844 77.3093C76.0448 77.3093 75.5562 77.2109 75.1187 77.014C74.6849 76.8135 74.3403 76.5145 74.0851 76.1171C73.8336 75.7197 73.7078 75.2221 73.7078 74.6242V69.2374H74.7523V74.6242C74.7523 75.0398 74.8289 75.3825 74.982 75.6523C75.1351 75.9221 75.3484 76.1226 75.6219 76.2539C75.8989 76.3851 76.2198 76.4507 76.5844 76.4507C76.9526 76.4507 77.2734 76.3851 77.5469 76.2539C77.8239 76.1226 78.039 75.9221 78.1922 75.6523C78.3453 75.3825 78.4219 75.0398 78.4219 74.6242V69.2374ZM81.9875 72.546V77.1999H80.9758V71.2828H81.9328L81.9875 72.546ZM81.7468 74.0171L81.3258 74.0007C81.3294 73.596 81.3896 73.2223 81.5062 72.8796C81.6229 72.5333 81.787 72.2325 81.9984 71.9773C82.2099 71.7221 82.4614 71.5252 82.7531 71.3867C83.0484 71.2445 83.3747 71.1734 83.732 71.1734C84.0237 71.1734 84.2862 71.2135 84.5195 71.2937C84.7528 71.3703 84.9515 71.4942 85.1156 71.6656C85.2833 71.8369 85.4109 72.0593 85.4984 72.3328C85.5859 72.6025 85.6297 72.9325 85.6297 73.3226V77.1999H84.6125V73.3117C84.6125 73.0018 84.5669 72.7539 84.4758 72.5679C84.3846 72.3783 84.2515 72.2416 84.0765 72.1578C83.9015 72.0703 83.6864 72.0265 83.4312 72.0265C83.1797 72.0265 82.95 72.0794 82.7422 72.1851C82.538 72.2908 82.3612 72.4367 82.2117 72.6226C82.0659 72.8085 81.951 73.0218 81.8672 73.2624C81.787 73.4994 81.7468 73.751 81.7468 74.0171ZM88.2656 71.2828V77.1999H87.2484V71.2828H88.2656ZM87.1718 69.7132C87.1718 69.5492 87.2211 69.4106 87.3195 69.2976C87.4216 69.1846 87.5711 69.1281 87.7679 69.1281C87.9612 69.1281 88.1088 69.1846 88.2109 69.2976C88.3166 69.4106 88.3695 69.5492 88.3695 69.7132C88.3695 69.87 88.3166 70.0049 88.2109 70.1179C88.1088 70.2273 87.9612 70.282 87.7679 70.282C87.5711 70.282 87.4216 70.2273 87.3195 70.1179C87.2211 70.0049 87.1718 69.87 87.1718 69.7132ZM91.689 76.2867L93.3078 71.2828H94.3414L92.214 77.1999H91.5359L91.689 76.2867ZM90.3383 71.2828L92.0062 76.314L92.1211 77.1999H91.4429L89.2992 71.2828H90.3383ZM97.6937 77.3093C97.2817 77.3093 96.908 77.24 96.5726 77.1015C96.2409 76.9593 95.9547 76.7606 95.714 76.5054C95.4771 76.2502 95.2948 75.9476 95.1672 75.5976C95.0396 75.2476 94.9757 74.8648 94.9757 74.4492V74.2195C94.9757 73.7382 95.0468 73.3098 95.189 72.9343C95.3312 72.5552 95.5244 72.2343 95.7687 71.9718C96.013 71.7093 96.2901 71.5106 96.6 71.3757C96.9099 71.2408 97.2307 71.1734 97.5625 71.1734C97.9854 71.1734 98.35 71.2463 98.6562 71.3921C98.9661 71.538 99.2195 71.7421 99.4164 72.0046C99.6132 72.2635 99.7591 72.5697 99.8539 72.9234C99.9487 73.2734 99.9961 73.6562 99.9961 74.0718V74.5257H95.5773V73.6999H98.9843V73.6234C98.9698 73.3609 98.9151 73.1057 98.8203 72.8578C98.7291 72.6098 98.5833 72.4057 98.3828 72.2453C98.1823 72.0848 97.9088 72.0046 97.5625 72.0046C97.3328 72.0046 97.1213 72.0539 96.9281 72.1523C96.7349 72.2471 96.569 72.3893 96.4304 72.5789C96.2919 72.7684 96.1843 72.9999 96.1078 73.2734C96.0312 73.5468 95.9929 73.8622 95.9929 74.2195V74.4492C95.9929 74.7299 96.0312 74.9942 96.1078 75.2421C96.188 75.4864 96.3028 75.7015 96.4523 75.8874C96.6054 76.0734 96.7896 76.2192 97.0047 76.3249C97.2234 76.4307 97.4713 76.4835 97.7484 76.4835C98.1057 76.4835 98.4083 76.4106 98.6562 76.2648C98.9041 76.119 99.1211 75.9239 99.307 75.6796L99.9195 76.1664C99.7919 76.3596 99.6297 76.5437 99.4328 76.7187C99.2359 76.8937 98.9935 77.0359 98.7054 77.1453C98.4211 77.2546 98.0838 77.3093 97.6937 77.3093ZM102.189 72.2124V77.1999H101.177V71.2828H102.162L102.189 72.2124ZM104.037 71.2499L104.032 72.1906C103.948 72.1723 103.868 72.1614 103.791 72.1578C103.718 72.1505 103.635 72.1468 103.54 72.1468C103.306 72.1468 103.1 72.1833 102.922 72.2562C102.743 72.3291 102.592 72.4312 102.468 72.5624C102.344 72.6937 102.246 72.8505 102.173 73.0328C102.103 73.2114 102.058 73.4083 102.036 73.6234L101.752 73.7874C101.752 73.4302 101.786 73.0947 101.855 72.7812C101.928 72.4677 102.04 72.1906 102.189 71.9499C102.339 71.7057 102.528 71.5161 102.758 71.3812C102.991 71.2427 103.268 71.1734 103.589 71.1734C103.662 71.1734 103.746 71.1825 103.841 71.2007C103.935 71.2153 104.001 71.2317 104.037 71.2499ZM108.418 75.6304C108.418 75.4846 108.385 75.3497 108.319 75.2257C108.258 75.0981 108.128 74.9833 107.931 74.8812C107.738 74.7755 107.446 74.6843 107.056 74.6078C106.728 74.5385 106.431 74.4565 106.165 74.3617C105.902 74.2669 105.678 74.152 105.492 74.0171C105.31 73.8822 105.169 73.7236 105.071 73.5414C104.973 73.3591 104.923 73.1458 104.923 72.9015C104.923 72.6682 104.974 72.4476 105.077 72.2398C105.182 72.032 105.33 71.8479 105.519 71.6874C105.713 71.527 105.944 71.4012 106.214 71.3101C106.484 71.219 106.785 71.1734 107.116 71.1734C107.59 71.1734 107.995 71.2572 108.33 71.4249C108.666 71.5927 108.923 71.8169 109.102 72.0976C109.28 72.3747 109.369 72.6828 109.369 73.0218H108.358C108.358 72.8578 108.309 72.6992 108.21 72.546C108.115 72.3893 107.975 72.2598 107.789 72.1578C107.607 72.0557 107.383 72.0046 107.116 72.0046C106.836 72.0046 106.608 72.0484 106.433 72.1359C106.261 72.2197 106.136 72.3273 106.055 72.4585C105.979 72.5898 105.941 72.7283 105.941 72.8742C105.941 72.9835 105.959 73.082 105.995 73.1695C106.035 73.2533 106.105 73.3317 106.203 73.4046C106.302 73.4739 106.44 73.5395 106.619 73.6015C106.797 73.6635 107.025 73.7255 107.302 73.7874C107.787 73.8968 108.186 74.0281 108.5 74.1812C108.814 74.3343 109.047 74.5221 109.2 74.7445C109.353 74.9669 109.43 75.2367 109.43 75.5539C109.43 75.8127 109.375 76.0497 109.266 76.2648C109.16 76.4799 109.005 76.6658 108.801 76.8226C108.6 76.9757 108.36 77.096 108.079 77.1835C107.802 77.2674 107.49 77.3093 107.144 77.3093C106.622 77.3093 106.181 77.2163 105.82 77.0304C105.459 76.8445 105.186 76.6039 105 76.3085C104.814 76.0132 104.721 75.7015 104.721 75.3734H105.738C105.753 75.6505 105.833 75.871 105.979 76.0351C106.125 76.1955 106.303 76.3104 106.515 76.3796C106.726 76.4453 106.936 76.4781 107.144 76.4781C107.421 76.4781 107.652 76.4416 107.838 76.3687C108.028 76.2958 108.172 76.1955 108.27 76.0679C108.369 75.9403 108.418 75.7945 108.418 75.6304ZM111.858 71.2828V77.1999H110.841V71.2828H111.858ZM110.764 69.7132C110.764 69.5492 110.813 69.4106 110.912 69.2976C111.014 69.1846 111.163 69.1281 111.36 69.1281C111.553 69.1281 111.701 69.1846 111.803 69.2976C111.909 69.4106 111.962 69.5492 111.962 69.7132C111.962 69.87 111.909 70.0049 111.803 70.1179C111.701 70.2273 111.553 70.282 111.36 70.282C111.163 70.282 111.014 70.2273 110.912 70.1179C110.813 70.0049 110.764 69.87 110.764 69.7132ZM115.959 71.2828V72.0593H112.76V71.2828H115.959ZM113.843 69.8445H114.855V75.7343C114.855 75.9348 114.886 76.0861 114.948 76.1882C115.01 76.2903 115.09 76.3578 115.188 76.3906C115.287 76.4234 115.392 76.4398 115.505 76.4398C115.589 76.4398 115.677 76.4325 115.768 76.4179C115.863 76.3997 115.934 76.3851 115.981 76.3742L115.987 77.1999C115.906 77.2255 115.801 77.2492 115.669 77.271C115.542 77.2966 115.387 77.3093 115.205 77.3093C114.957 77.3093 114.729 77.2601 114.521 77.1617C114.313 77.0632 114.147 76.8992 114.023 76.6695C113.903 76.4361 113.843 76.1226 113.843 75.7289V69.8445ZM118.809 76.5874L120.455 71.2828H121.537L119.164 78.1132C119.109 78.2591 119.036 78.4158 118.945 78.5835C118.858 78.7549 118.745 78.9171 118.606 79.0703C118.468 79.2234 118.3 79.3473 118.103 79.4421C117.91 79.5406 117.678 79.5898 117.409 79.5898C117.328 79.5898 117.226 79.5788 117.102 79.557C116.978 79.5351 116.891 79.5169 116.84 79.5023L116.834 78.682C116.864 78.6856 116.909 78.6893 116.971 78.6929C117.037 78.7002 117.082 78.7038 117.108 78.7038C117.337 78.7038 117.533 78.6729 117.693 78.6109C117.853 78.5525 117.988 78.4523 118.098 78.3101C118.211 78.1716 118.307 77.9802 118.387 77.7359L118.809 76.5874ZM117.6 71.2828L119.137 75.8765L119.399 76.9429L118.672 77.3148L116.495 71.2828H117.6ZM124.961 74.307V74.1812C124.961 73.7546 125.023 73.3591 125.147 72.9945C125.271 72.6262 125.449 72.3072 125.683 72.0374C125.916 71.764 126.199 71.5525 126.53 71.4031C126.862 71.2499 127.234 71.1734 127.646 71.1734C128.062 71.1734 128.435 71.2499 128.767 71.4031C129.103 71.5525 129.387 71.764 129.62 72.0374C129.857 72.3072 130.038 72.6262 130.162 72.9945C130.286 73.3591 130.348 73.7546 130.348 74.1812V74.307C130.348 74.7335 130.286 75.1291 130.162 75.4937C130.038 75.8583 129.857 76.1773 129.62 76.4507C129.387 76.7205 129.104 76.932 128.773 77.0851C128.444 77.2346 128.073 77.3093 127.657 77.3093C127.241 77.3093 126.868 77.2346 126.536 77.0851C126.204 76.932 125.92 76.7205 125.683 76.4507C125.449 76.1773 125.271 75.8583 125.147 75.4937C125.023 75.1291 124.961 74.7335 124.961 74.307ZM125.973 74.1812V74.307C125.973 74.6023 126.007 74.8812 126.077 75.1437C126.146 75.4025 126.25 75.6322 126.388 75.8328C126.53 76.0333 126.707 76.1919 126.919 76.3085C127.13 76.4216 127.376 76.4781 127.657 76.4781C127.934 76.4781 128.177 76.4216 128.384 76.3085C128.596 76.1919 128.771 76.0333 128.909 75.8328C129.048 75.6322 129.152 75.4025 129.221 75.1437C129.294 74.8812 129.33 74.6023 129.33 74.307V74.1812C129.33 73.8895 129.294 73.6143 129.221 73.3554C129.152 73.0929 129.046 72.8614 128.904 72.6609C128.765 72.4567 128.59 72.2963 128.379 72.1796C128.171 72.063 127.927 72.0046 127.646 72.0046C127.369 72.0046 127.125 72.063 126.913 72.1796C126.705 72.2963 126.53 72.4567 126.388 72.6609C126.25 72.8614 126.146 73.0929 126.077 73.3554C126.007 73.6143 125.973 73.8895 125.973 74.1812ZM133.126 77.1999H132.114V70.6593C132.114 70.2328 132.191 69.8736 132.344 69.582C132.5 69.2867 132.725 69.0643 133.016 68.9148C133.308 68.7617 133.654 68.6851 134.055 68.6851C134.172 68.6851 134.289 68.6924 134.405 68.707C134.526 68.7216 134.642 68.7434 134.755 68.7726L134.701 69.5984C134.624 69.5802 134.537 69.5674 134.438 69.5601C134.343 69.5528 134.249 69.5492 134.154 69.5492C133.939 69.5492 133.753 69.5929 133.596 69.6804C133.443 69.7643 133.326 69.8882 133.246 70.0523C133.166 70.2164 133.126 70.4187 133.126 70.6593V77.1999ZM134.384 71.2828V72.0593H131.179V71.2828H134.384ZM141.165 69.2374V77.1999H140.126V69.2374H141.165ZM143.724 69.2374V70.1015H137.572V69.2374H143.724ZM146.661 77.3093C146.249 77.3093 145.875 77.24 145.54 77.1015C145.208 76.9593 144.922 76.7606 144.681 76.5054C144.444 76.2502 144.262 75.9476 144.134 75.5976C144.007 75.2476 143.943 74.8648 143.943 74.4492V74.2195C143.943 73.7382 144.014 73.3098 144.156 72.9343C144.298 72.5552 144.492 72.2343 144.736 71.9718C144.98 71.7093 145.257 71.5106 145.567 71.3757C145.877 71.2408 146.198 71.1734 146.53 71.1734C146.953 71.1734 147.317 71.2463 147.623 71.3921C147.933 71.538 148.187 71.7421 148.384 72.0046C148.58 72.2635 148.726 72.5697 148.821 72.9234C148.916 73.2734 148.963 73.6562 148.963 74.0718V74.5257H144.544V73.6999H147.952V73.6234C147.937 73.3609 147.882 73.1057 147.787 72.8578C147.696 72.6098 147.55 72.4057 147.35 72.2453C147.149 72.0848 146.876 72.0046 146.53 72.0046C146.3 72.0046 146.088 72.0539 145.895 72.1523C145.702 72.2471 145.536 72.3893 145.398 72.5789C145.259 72.7684 145.152 72.9999 145.075 73.2734C144.998 73.5468 144.96 73.8622 144.96 74.2195V74.4492C144.96 74.7299 144.998 74.9942 145.075 75.2421C145.155 75.4864 145.27 75.7015 145.419 75.8874C145.573 76.0734 145.757 76.2192 145.972 76.3249C146.191 76.4307 146.438 76.4835 146.716 76.4835C147.073 76.4835 147.375 76.4106 147.623 76.2648C147.871 76.119 148.088 75.9239 148.274 75.6796L148.887 76.1664C148.759 76.3596 148.597 76.5437 148.4 76.7187C148.203 76.8937 147.961 77.0359 147.673 77.1453C147.388 77.2546 147.051 77.3093 146.661 77.3093ZM152.512 76.4781C152.753 76.4781 152.975 76.4289 153.18 76.3304C153.384 76.232 153.552 76.0971 153.683 75.9257C153.814 75.7507 153.889 75.552 153.907 75.3296H154.869C154.851 75.6796 154.733 76.0059 154.514 76.3085C154.299 76.6075 154.016 76.8499 153.666 77.0359C153.316 77.2182 152.932 77.3093 152.512 77.3093C152.068 77.3093 151.679 77.2309 151.348 77.0742C151.019 76.9174 150.746 76.7023 150.527 76.4289C150.312 76.1554 150.15 75.8419 150.041 75.4882C149.935 75.1309 149.882 74.7536 149.882 74.3562V74.1265C149.882 73.7291 149.935 73.3536 150.041 72.9999C150.15 72.6427 150.312 72.3273 150.527 72.0539C150.746 71.7804 151.019 71.5653 151.348 71.4085C151.679 71.2518 152.068 71.1734 152.512 71.1734C152.975 71.1734 153.38 71.2682 153.727 71.4578C154.073 71.6437 154.344 71.8989 154.541 72.2234C154.742 72.5442 154.851 72.9088 154.869 73.3171H153.907C153.889 73.0729 153.819 72.8523 153.699 72.6554C153.582 72.4585 153.422 72.3018 153.218 72.1851C153.017 72.0648 152.782 72.0046 152.512 72.0046C152.203 72.0046 151.942 72.0666 151.73 72.1906C151.523 72.3109 151.357 72.4749 151.233 72.6828C151.112 72.8869 151.025 73.1148 150.97 73.3664C150.919 73.6143 150.894 73.8677 150.894 74.1265V74.3562C150.894 74.615 150.919 74.8703 150.97 75.1218C151.021 75.3734 151.107 75.6012 151.227 75.8054C151.351 76.0096 151.517 76.1736 151.725 76.2976C151.936 76.4179 152.199 76.4781 152.512 76.4781ZM157.019 68.7999V77.1999H156.007V68.7999H157.019ZM156.778 74.0171L156.357 74.0007C156.361 73.596 156.421 73.2223 156.537 72.8796C156.654 72.5333 156.818 72.2325 157.03 71.9773C157.241 71.7221 157.493 71.5252 157.784 71.3867C158.08 71.2445 158.406 71.1734 158.763 71.1734C159.055 71.1734 159.317 71.2135 159.551 71.2937C159.784 71.3703 159.983 71.4942 160.147 71.6656C160.315 71.8369 160.442 72.0593 160.53 72.3328C160.617 72.6025 160.661 72.9325 160.661 73.3226V77.1999H159.644V73.3117C159.644 73.0018 159.598 72.7539 159.507 72.5679C159.416 72.3783 159.283 72.2416 159.108 72.1578C158.933 72.0703 158.718 72.0265 158.462 72.0265C158.211 72.0265 157.981 72.0794 157.773 72.1851C157.569 72.2908 157.392 72.4367 157.243 72.6226C157.097 72.8085 156.982 73.0218 156.898 73.2624C156.818 73.4994 156.778 73.751 156.778 74.0171ZM163.187 72.546V77.1999H162.176V71.2828H163.133L163.187 72.546ZM162.947 74.0171L162.526 74.0007C162.529 73.596 162.59 73.2223 162.706 72.8796C162.823 72.5333 162.987 72.2325 163.198 71.9773C163.41 71.7221 163.661 71.5252 163.953 71.3867C164.248 71.2445 164.575 71.1734 164.932 71.1734C165.224 71.1734 165.486 71.2135 165.719 71.2937C165.953 71.3703 166.152 71.4942 166.316 71.6656C166.483 71.8369 166.611 72.0593 166.698 72.3328C166.786 72.6025 166.83 72.9325 166.83 73.3226V77.1999H165.812V73.3117C165.812 73.0018 165.767 72.7539 165.676 72.5679C165.585 72.3783 165.452 72.2416 165.277 72.1578C165.102 72.0703 164.886 72.0265 164.631 72.0265C164.38 72.0265 164.15 72.0794 163.942 72.1851C163.738 72.2908 163.561 72.4367 163.412 72.6226C163.266 72.8085 163.151 73.0218 163.067 73.2624C162.987 73.4994 162.947 73.751 162.947 74.0171ZM168.098 74.307V74.1812C168.098 73.7546 168.16 73.3591 168.284 72.9945C168.408 72.6262 168.587 72.3072 168.82 72.0374C169.054 71.764 169.336 71.5525 169.668 71.4031C170 71.2499 170.372 71.1734 170.784 71.1734C171.199 71.1734 171.573 71.2499 171.905 71.4031C172.24 71.5525 172.524 71.764 172.758 72.0374C172.995 72.3072 173.175 72.6262 173.299 72.9945C173.423 73.3591 173.485 73.7546 173.485 74.1812V74.307C173.485 74.7335 173.423 75.1291 173.299 75.4937C173.175 75.8583 172.995 76.1773 172.758 76.4507C172.524 76.7205 172.242 76.932 171.91 77.0851C171.582 77.2346 171.21 77.3093 170.794 77.3093C170.379 77.3093 170.005 77.2346 169.673 77.0851C169.342 76.932 169.057 76.7205 168.82 76.4507C168.587 76.1773 168.408 75.8583 168.284 75.4937C168.16 75.1291 168.098 74.7335 168.098 74.307ZM169.11 74.1812V74.307C169.11 74.6023 169.145 74.8812 169.214 75.1437C169.283 75.4025 169.387 75.6322 169.526 75.8328C169.668 76.0333 169.845 76.1919 170.056 76.3085C170.268 76.4216 170.514 76.4781 170.794 76.4781C171.072 76.4781 171.314 76.4216 171.522 76.3085C171.733 76.1919 171.908 76.0333 172.047 75.8328C172.185 75.6322 172.289 75.4025 172.359 75.1437C172.431 74.8812 172.468 74.6023 172.468 74.307V74.1812C172.468 73.8895 172.431 73.6143 172.359 73.3554C172.289 73.0929 172.184 72.8614 172.041 72.6609C171.903 72.4567 171.728 72.2963 171.516 72.1796C171.309 72.063 171.064 72.0046 170.784 72.0046C170.506 72.0046 170.262 72.063 170.051 72.1796C169.843 72.2963 169.668 72.4567 169.526 72.6609C169.387 72.8614 169.283 73.0929 169.214 73.3554C169.145 73.6143 169.11 73.8895 169.11 74.1812ZM175.853 68.7999V77.1999H174.836V68.7999H175.853ZM177.209 74.307V74.1812C177.209 73.7546 177.271 73.3591 177.395 72.9945C177.519 72.6262 177.698 72.3072 177.931 72.0374C178.165 71.764 178.447 71.5525 178.779 71.4031C179.111 71.2499 179.482 71.1734 179.894 71.1734C180.31 71.1734 180.684 71.2499 181.016 71.4031C181.351 71.5525 181.635 71.764 181.869 72.0374C182.106 72.3072 182.286 72.6262 182.41 72.9945C182.534 73.3591 182.596 73.7546 182.596 74.1812V74.307C182.596 74.7335 182.534 75.1291 182.41 75.4937C182.286 75.8583 182.106 76.1773 181.869 76.4507C181.635 76.7205 181.353 76.932 181.021 77.0851C180.693 77.2346 180.321 77.3093 179.905 77.3093C179.49 77.3093 179.116 77.2346 178.784 77.0851C178.453 76.932 178.168 76.7205 177.931 76.4507C177.698 76.1773 177.519 75.8583 177.395 75.4937C177.271 75.1291 177.209 74.7335 177.209 74.307ZM178.221 74.1812V74.307C178.221 74.6023 178.256 74.8812 178.325 75.1437C178.394 75.4025 178.498 75.6322 178.637 75.8328C178.779 76.0333 178.956 76.1919 179.167 76.3085C179.379 76.4216 179.625 76.4781 179.905 76.4781C180.182 76.4781 180.425 76.4216 180.633 76.3085C180.844 76.1919 181.019 76.0333 181.158 75.8328C181.296 75.6322 181.4 75.4025 181.469 75.1437C181.542 74.8812 181.579 74.6023 181.579 74.307V74.1812C181.579 73.8895 181.542 73.6143 181.469 73.3554C181.4 73.0929 181.294 72.8614 181.152 72.6609C181.014 72.4567 180.839 72.2963 180.627 72.1796C180.419 72.063 180.175 72.0046 179.894 72.0046C179.617 72.0046 179.373 72.063 179.162 72.1796C178.954 72.2963 178.779 72.4567 178.637 72.6609C178.498 72.8614 178.394 73.0929 178.325 73.3554C178.256 73.6143 178.221 73.8895 178.221 74.1812ZM187.698 71.2828H188.617V77.0742C188.617 77.5955 188.511 78.0403 188.3 78.4085C188.088 78.7768 187.793 79.0557 187.414 79.2453C187.038 79.4385 186.605 79.5351 186.112 79.5351C185.908 79.5351 185.668 79.5023 185.391 79.4367C185.117 79.3747 184.847 79.2671 184.581 79.114C184.319 78.9645 184.098 78.7622 183.919 78.507L184.45 77.9054C184.698 78.2044 184.957 78.4122 185.227 78.5288C185.5 78.6455 185.77 78.7038 186.036 78.7038C186.357 78.7038 186.634 78.6437 186.867 78.5234C187.1 78.4031 187.281 78.2244 187.409 77.9874C187.54 77.7541 187.605 77.4661 187.605 77.1234V72.5843L187.698 71.2828ZM183.624 74.307V74.1921C183.624 73.74 183.677 73.3299 183.783 72.9617C183.892 72.5898 184.047 72.2708 184.248 72.0046C184.452 71.7385 184.698 71.5343 184.986 71.3921C185.274 71.2463 185.598 71.1734 185.959 71.1734C186.331 71.1734 186.656 71.239 186.933 71.3703C187.213 71.4979 187.45 71.6856 187.644 71.9335C187.841 72.1778 187.996 72.4731 188.109 72.8195C188.222 73.1658 188.3 73.5578 188.344 73.9953V74.4984C188.304 74.9322 188.225 75.3223 188.109 75.6687C187.996 76.015 187.841 76.3104 187.644 76.5546C187.45 76.7989 187.213 76.9867 186.933 77.1179C186.652 77.2455 186.324 77.3093 185.948 77.3093C185.595 77.3093 185.274 77.2346 184.986 77.0851C184.702 76.9356 184.457 76.726 184.253 76.4562C184.049 76.1864 183.892 75.8692 183.783 75.5046C183.677 75.1364 183.624 74.7372 183.624 74.307ZM184.636 74.1921V74.307C184.636 74.6023 184.665 74.8794 184.723 75.1382C184.785 75.3971 184.878 75.6249 185.002 75.8218C185.13 76.0187 185.292 76.1736 185.489 76.2867C185.686 76.396 185.921 76.4507 186.194 76.4507C186.53 76.4507 186.807 76.3796 187.026 76.2374C187.244 76.0953 187.418 75.9075 187.545 75.6742C187.676 75.4408 187.779 75.1874 187.851 74.914V73.596C187.811 73.3955 187.749 73.2023 187.666 73.0164C187.585 72.8268 187.48 72.6591 187.348 72.5132C187.221 72.3637 187.062 72.2453 186.873 72.1578C186.683 72.0703 186.461 72.0265 186.205 72.0265C185.928 72.0265 185.69 72.0848 185.489 72.2015C185.292 72.3145 185.13 72.4713 185.002 72.6718C184.878 72.8687 184.785 73.0984 184.723 73.3609C184.665 73.6197 184.636 73.8968 184.636 74.1921ZM191.816 76.5874L193.462 71.2828H194.545L192.172 78.1132C192.117 78.2591 192.044 78.4158 191.953 78.5835C191.866 78.7549 191.753 78.9171 191.614 79.0703C191.475 79.2234 191.308 79.3473 191.111 79.4421C190.918 79.5406 190.686 79.5898 190.416 79.5898C190.336 79.5898 190.234 79.5788 190.11 79.557C189.986 79.5351 189.899 79.5169 189.848 79.5023L189.842 78.682C189.871 78.6856 189.917 78.6893 189.979 78.6929C190.044 78.7002 190.09 78.7038 190.116 78.7038C190.345 78.7038 190.54 78.6729 190.701 78.6109C190.861 78.5525 190.996 78.4523 191.105 78.3101C191.218 78.1716 191.315 77.9802 191.395 77.7359L191.816 76.5874ZM190.608 71.2828L192.144 75.8765L192.407 76.9429L191.68 77.3148L189.503 71.2828H190.608Z" fill="#656C73"/>
</g>
<defs>
<clipPath id="clip0_1014_2197">
<rect width="232.4" height="79.8" fill="white"/>
</clipPath>
</defs>
</svg>
