<svg width="24" height="24" viewBox="0 0 24 24" fill="none" xmlns="http://www.w3.org/2000/svg">
<g clip-path="url(#clip0_1110_2734)">
<path d="M11.9971 24C18.5865 24 24 18.5853 24 12C24 5.40909 18.5808 0 11.9914 0C5.41349 0 0 5.40909 0 12C0 18.5853 5.41916 24 11.9971 24ZM12.0029 18.0966C8.66272 18.0966 5.90768 15.3352 5.90768 12C5.90768 10.4034 6.56662 8.82954 7.68568 7.75C8.68544 6.70455 10.1624 8.06818 9.15691 9.14773C8.39574 9.91477 7.97538 10.9148 7.97538 12C7.97538 14.2443 9.76472 16.0398 12.0029 16.0398C14.2466 16.0398 16.0417 14.2443 16.0417 12C16.036 10.9148 15.61 9.91477 14.8545 9.15341C13.849 8.07955 15.3259 6.71023 16.3314 7.75C17.4447 8.84091 18.1036 10.4091 18.1036 12C18.1036 15.3352 15.3487 18.0966 12.0029 18.0966ZM12.0029 12.4432C11.378 12.4432 10.9349 11.9886 10.9349 11.3352V6.67613C10.9349 6.01705 11.378 5.55682 12.0029 5.55682C12.6334 5.55682 13.0821 6.01705 13.0821 6.67613V11.3352C13.0821 11.9886 12.6334 12.4432 12.0029 12.4432Z" fill="current" fill-opacity="0.87"/>
</g>
<defs>
<clipPath id="clip0_1110_2734">
<rect width="24" height="24" fill="white"/>
</clipPath>
</defs>
</svg>
