<?xml version="1.0" encoding="iso-8859-1"?><!-- Generator: Adobe Illustrator 21.1.0, SVG Export Plug-In . SVG Version: 6.00 Build 0)  --><svg fill="#FFFFFF" xmlns="http://www.w3.org/2000/svg" xmlns:xlink="http://www.w3.org/1999/xlink" viewBox="0 0 50 50" width="50px" height="50px"><path d="M14,16v29c0,0.55-0.45,1-1,1H3c-0.55,0-1-0.45-1-1V16c0-0.55,0.45-1,1-1h10C13.55,15,14,15.45,14,16z"/><path d="M13.99,7.89c0,2.98-2.52,5.1-5.99,5.1c-3.41,0-5.99-2.17-5.99-5.04c0-2.86,2.52-4.94,5.99-4.94C11.36,3.01,13.83,5.02,13.99,7.89z"/><path d="M48,28v17c0,0.55-0.45,1-1,1h-9c-0.552,0-1-0.448-1-1V29.5c0-2.37-1.82-4.3-4.14-4.48C32.74,25,32.62,25,32.5,25s-0.24,0-0.36,0.02C29.82,25.2,28,27.13,28,29.5c0,0,0,0.13,0,0.25S28,30,28,30v15c0,0.552-0.448,1-1,1h-9c-0.55,0-1-0.45-1-1V16c0-0.55,0.45-1,1-1h10c0.55,0,1,0.45,1,1v1.49c1.61-1.13,4.27-2.49,7.79-2.49C44.53,15,48,21.53,48,28z"/></svg>