<svg width="36" height="36" viewBox="0 0 36 36" fill="none" xmlns="http://www.w3.org/2000/svg">
<circle cx="18" cy="18" r="18" fill="black"/>
<rect x="9" y="11" width="17.9296" height="14" rx="5" fill="white"/>
<path d="M11.5498 24.9912H24.6234C26.0851 24.9912 26.9296 24.1467 26.9296 22.474V13.5092C26.9296 11.8445 26.0769 11 24.3798 11H11.3062C9.8445 11 9 11.8364 9 13.5092V22.474C9 24.1548 9.85263 24.9912 11.5498 24.9912ZM11.501 23.7489C10.689 23.7489 10.2424 23.3185 10.2424 22.474V13.5092C10.2424 12.6728 10.689 12.2424 11.501 12.2424H24.4285C25.2243 12.2424 25.6872 12.6728 25.6872 13.5173V22.482C25.6872 23.3185 25.2243 23.7489 24.4285 23.7489H11.501ZM17.981 20.1597C18.5495 20.1597 19.1016 19.9242 19.67 19.3639L26.2637 12.8839L25.4192 12.0313L18.9636 18.4057C18.6144 18.7549 18.2977 18.9091 17.981 18.9091C17.6562 18.9091 17.3395 18.7467 16.9985 18.4057L10.5104 11.9988L9.65774 12.8514L16.292 19.3639C16.8604 19.9242 17.4045 20.1597 17.981 20.1597ZM25.338 23.9275L26.1825 23.0748L20.9287 17.886L20.0842 18.7305L25.338 23.9275ZM9.77143 23.083L10.6159 23.9356L15.8779 18.7305L15.0252 17.886L9.77143 23.083Z" fill="black"/>
</svg>
