<svg width="75" height="39" viewBox="0 0 75 39" fill="none" xmlns="http://www.w3.org/2000/svg">
<g clip-path="url(#clip0_970_2284)">
<path d="M7.22049 17.6325C6.92698 17.6444 6.6335 17.6659 6.33997 17.6667C5.05228 17.6705 3.76456 17.6633 2.47689 17.6702C1.67754 17.6746 0.878268 17.6971 0.05995 17.7115C0.0409401 17.7115 0.0409401 17.6899 0.0544777 17.6755C0.120203 17.6186 0.171235 17.5745 0.22476 17.5342C0.692212 17.1816 1.1539 16.82 1.62923 16.4798C2.49083 15.8633 3.3532 15.2473 4.22916 14.6542C5.06577 14.0878 5.91979 13.5504 6.76672 13.0012C7.52951 12.5066 8.29028 12.0083 9.05701 11.5207C9.87427 11.0009 10.6962 10.4893 11.5185 9.97848C12.2277 9.53798 12.9387 9.10075 13.6518 8.66753C14.262 8.29684 14.8782 7.93729 15.4885 7.56666C16.2017 7.1335 16.9025 6.6766 17.6247 6.26118C18.4754 5.77179 19.3429 5.31535 20.2035 4.84551C21.1639 4.32124 22.1193 3.78641 23.0867 3.27727C24.2302 2.67552 25.3822 2.09206 26.5342 1.50902C27.1923 1.17597 27.8585 0.861139 28.5197 0.534932C28.8445 0.374667 29.1662 0.207186 29.4893 0.0429692C29.5588 0.0429687 29.6284 0.0429687 29.7153 0.0429688C30.1764 0.200246 30.6173 0.367318 31.0646 0.51242C31.6785 0.71159 32.2944 0.905273 32.9145 1.08124C33.9407 1.37248 34.9678 1.66174 36.0009 1.92358C36.4936 2.04845 37.0013 2.10598 37.5014 2.19836C38.0595 2.30145 38.6164 2.41204 39.1746 2.51456C39.6359 2.5993 40.0985 2.6768 40.5605 2.75795C41.1069 2.85394 41.6526 2.95524 42.2 3.04491C42.5466 3.10169 42.8957 3.14169 43.2437 3.18876C43.6574 3.24472 44.0709 3.303 44.4851 3.35492C44.7689 3.39048 45.054 3.41331 45.3378 3.44822C45.772 3.50163 46.2053 3.56321 46.6396 3.61617C46.9235 3.6508 47.2082 3.67926 47.4929 3.70536C48.1364 3.76434 48.7801 3.821 49.4238 3.87675C49.6301 3.89462 49.8367 3.90953 50.0434 3.92084C50.5984 3.9512 51.1534 3.98116 51.7085 4.00704C52.3783 4.03826 53.0483 4.06702 53.7183 4.09335C54.5031 4.12419 55.2879 4.15321 56.0729 4.17931C56.6105 4.19719 57.1484 4.20825 57.6861 4.22325C58.1765 4.23693 58.6671 4.24766 59.1573 4.26789C59.4111 4.27836 59.6643 4.30659 59.9273 4.32755C59.8965 4.34899 59.8671 4.38018 59.8318 4.3926C58.5941 4.8282 57.3556 5.2616 56.1175 5.69622C54.4004 6.29901 52.6826 6.8998 50.9668 7.50667C49.7674 7.93087 48.556 8.32309 47.3772 8.80465C46.2646 9.25915 45.1413 9.69238 44.0773 10.2794C43.2027 10.7619 42.3005 11.1883 41.4087 11.6354C40.6009 12.0404 39.7905 12.4399 38.9812 12.8418C38.1719 13.2437 37.3633 13.647 36.5532 14.0471C35.5885 14.5235 34.6221 14.9961 33.6574 15.4725C32.8771 15.8578 32.0979 16.2456 31.3189 16.6336C30.6289 16.9773 29.9366 17.3162 29.2515 17.6705C28.8969 17.8539 28.5564 18.0676 28.2075 18.2635C28.157 18.2919 28.0948 18.313 28.0388 18.311C27.8665 18.3048 27.6947 18.2765 27.5225 18.2732C26.586 18.2556 25.6493 18.25 24.713 18.226C24.1509 18.2115 23.5893 18.1716 23.0275 18.1422C22.4927 18.1142 21.9581 18.0819 21.4232 18.0572C21.0073 18.038 20.5911 18.0252 20.175 18.0137C19.5832 17.9972 18.9914 17.9842 18.3995 17.9701C17.7874 17.9555 17.1753 17.9414 16.5633 17.9269C15.9579 17.9126 15.3525 17.9021 14.7473 17.8829C13.9691 17.8581 13.1911 17.8269 12.413 17.7975C11.6687 17.7694 10.9243 17.7425 10.1801 17.7107C9.59798 17.6859 9.01609 17.6546 8.39665 17.6263C7.97964 17.6284 7.60006 17.6304 7.22049 17.6325Z" fill="#225157"/>
<path d="M32.1433 39.0428C32.1117 38.9537 32.0865 38.8646 32.0864 38.7756C32.0843 35.8674 32.0847 32.9592 32.0847 30.0511C32.0847 28.7194 32.0847 27.3878 32.0847 26.0375C30.6411 26.0375 29.2459 26.0375 27.8477 26.0375C27.8477 24.5964 27.8477 23.174 27.8477 21.7354C30.6706 21.7354 33.4717 21.7354 36.288 21.7354C36.288 27.477 36.288 33.231 36.288 38.9912C36.2316 38.997 36.1726 39.0031 36.1069 39.026C36.0308 39.0428 35.9613 39.0428 35.8671 39.0255C34.7379 39.0054 33.6334 39.0024 32.5289 39.0017C32.5026 39.0017 32.4761 39.0285 32.4497 39.0428C32.3536 39.0428 32.2574 39.0428 32.1433 39.0428Z" fill="#FF0000"/>
<path d="M46.8266 39.0429C46.7419 39.0142 46.6752 38.9624 46.6071 38.9604C46.0634 38.9439 45.5726 38.7677 45.2047 38.34C44.8436 37.9202 44.5961 37.4379 44.6134 36.8286C44.6358 36.0394 44.622 35.2488 44.6182 34.4588C44.6063 31.9771 44.5918 29.4955 44.5783 27.0138C44.5779 26.9364 44.5783 26.859 44.5783 26.7715C46.0422 26.7715 47.4916 26.7715 48.9757 26.7715C48.9757 29.3785 48.9757 31.9791 48.9757 34.6211C52.0854 34.6211 55.1603 34.6211 58.2944 34.6211C58.0524 34.9896 57.8506 35.3032 57.6426 35.612C57.2519 36.1921 56.8553 36.7677 56.4654 37.3483C56.122 37.8598 55.786 38.377 55.4409 38.8873C55.4133 38.9281 55.3416 38.9494 55.2885 38.9537C55.1675 38.9633 55.0452 38.9529 54.9237 38.9574C54.4947 38.9732 54.0658 38.9918 53.6303 39.0261C53.5542 39.0429 53.4846 39.0429 53.3904 39.0256C52.5317 39.0055 51.6975 39.0024 50.8634 39.0018C50.8371 39.0018 50.8107 39.0286 50.7843 39.0429C49.9317 39.0429 49.079 39.0429 48.2001 39.0256C47.8596 39.0055 47.5455 39.0003 47.2314 39.0018C47.1717 39.0021 47.1122 39.0285 47.0526 39.0429C46.983 39.0429 46.9135 39.0429 46.8266 39.0429Z" fill="#FF0000"/>
<path d="M21.1105 39.0431C20.9686 39.0144 20.8447 38.9609 20.7207 38.9606C18.7332 38.9554 16.7457 38.9545 14.7582 38.9582C14.0257 38.9595 13.48 38.6001 13.0698 37.9853C12.8641 37.677 12.7677 37.333 12.7716 36.9408C12.7859 35.5188 12.7722 34.0966 12.7785 32.6746C12.7871 30.7315 12.8043 28.7884 12.8178 26.8453C12.818 26.8107 12.8178 26.7761 12.8178 26.7437C14.2367 26.7437 15.6433 26.7437 17.0678 26.7437C17.0678 29.3718 17.0678 31.9747 17.0678 34.5948C20.1573 34.5948 23.2291 34.5948 26.331 34.5948C26.1503 34.887 25.9906 35.1561 25.8208 35.4177C25.4104 36.0502 24.9938 36.6781 24.5825 37.31C24.239 37.8378 23.9043 38.3721 23.5526 38.8936C23.5058 38.963 23.3818 38.9737 23.2882 39.0273C23.2134 39.0431 23.1438 39.0431 23.0496 39.0258C22.5153 39.0058 22.0055 39.0023 21.4958 39.0021C21.4696 39.0021 21.4433 39.0288 21.417 39.0431C21.3209 39.0431 21.2247 39.0431 21.1105 39.0431Z" fill="#FF0000"/>
<path d="M75.0408 21.7894C74.9664 21.8774 74.8766 21.9376 74.8201 22.0228C74.3359 22.7524 73.8598 23.4881 73.3769 24.2187C72.9956 24.7956 72.6087 25.3683 72.2216 25.9408C72.1957 25.979 72.1472 26.0249 72.1091 26.025C71.1046 26.0297 70.1001 26.0287 69.0869 26.0287C69.0869 24.573 69.0869 23.1347 69.0869 21.6763C71.063 21.6763 73.0329 21.6763 75.0217 21.6763C75.0408 21.7086 75.0408 21.7409 75.0408 21.7894Z" fill="#FF0000"/>
<path d="M35.0721 15.5458C35.9519 15.0981 36.818 14.6586 37.6849 14.2209C38.3972 13.8612 39.1103 13.5036 39.8231 13.1451C40.5656 12.7717 41.3072 12.3961 42.0512 12.026C42.6103 11.7478 43.1727 11.4773 43.7333 11.2025C43.8847 11.1283 44.0018 11.1345 44.0955 11.312C44.372 11.8357 44.6588 12.3533 44.9417 12.8731C45.3264 13.5799 45.7118 14.2864 46.0958 14.9936C46.2239 15.2294 46.3791 15.4554 46.4655 15.7078C46.531 15.899 46.5179 16.1249 46.5152 16.335C46.5145 16.3854 46.4233 16.4518 46.3613 16.4812C45.7925 16.7511 45.222 17.0172 44.6498 17.279C44.0358 17.5601 43.4195 17.8354 42.8042 18.1131C42.0803 18.4397 41.3553 18.7635 40.6329 19.0937C40.0002 19.3828 39.3706 19.6793 38.7395 19.9722C38.331 20.1619 37.9224 20.3518 37.5131 20.5396C37.4838 20.5531 37.448 20.5542 37.4151 20.5552C36.9179 20.5703 36.4207 20.5965 35.9235 20.5969C32.1856 20.6004 28.4477 20.5932 24.7098 20.6004C20.7923 20.6078 16.8749 20.627 12.9575 20.6439C12.8071 20.6446 12.6568 20.675 12.4834 20.694C12.644 19.9593 12.798 19.2547 12.9472 18.5722C13.4109 18.5722 13.8729 18.5722 14.335 18.5723C14.362 18.5723 14.389 18.5729 14.4161 18.5734C15.231 18.5878 16.0459 18.6001 16.8608 18.6173C17.3378 18.6274 17.8146 18.6449 18.2916 18.6597C18.7415 18.6736 19.1914 18.6888 19.6413 18.7026C20.125 18.7175 20.6087 18.7311 21.0924 18.7459C21.5423 18.7598 21.9922 18.7748 22.4421 18.7888C22.9122 18.8035 23.3824 18.8174 23.8526 18.8321C24.3025 18.8461 24.7524 18.8609 25.2023 18.875C25.6657 18.8896 26.1293 18.8997 26.5925 18.9193C27.1067 18.941 27.6205 18.9853 28.1346 18.9884C28.273 18.9892 28.4148 18.882 28.5503 18.8137C29.4472 18.3615 30.3424 17.9055 31.2389 17.4524C31.945 17.0955 32.6511 16.7383 33.3593 16.3861C33.9242 16.1052 34.4923 15.8316 35.0721 15.5458Z" fill="#225157"/>
<path d="M66.0357 21.6763C66.785 21.6763 67.514 21.6763 68.2548 21.6763C68.2548 27.4355 68.2548 33.1837 68.2548 38.9327C66.8496 38.9327 65.443 38.9327 64.0076 38.9327C64.0076 38.8263 64.0076 38.7437 64.0076 38.6612C64.0076 35.0705 64.0093 31.4799 64.0058 27.8893C64.0052 27.3252 63.9772 26.7612 63.9694 26.1971C63.9676 26.061 63.9155 26.0259 63.7981 26.027C63.3452 26.0314 62.8923 26.0288 62.4394 26.0288C61.5104 26.0288 60.5813 26.0288 59.6396 26.0288C59.6396 24.5519 59.6396 23.1271 59.6396 21.6763C61.7628 21.6763 63.8891 21.6763 66.0357 21.6763Z" fill="#FF0000"/>
<path d="M7.22022 17.6524C7.59979 17.6306 7.97936 17.6286 8.37774 17.6296C8.39655 19.0728 8.39655 20.513 8.39655 21.9372C9.15089 22.1719 9.15042 22.5757 9.1221 23.1073C9.1048 23.4321 8.8268 23.6672 8.39656 23.7244C8.39656 24.1142 8.39234 24.5124 8.40067 24.9103C8.40208 24.9774 8.44127 25.0685 8.4912 25.1051C8.66257 25.2306 8.72169 25.4016 8.7213 25.6103C8.72045 26.0771 8.72104 26.544 8.72104 27.0108C8.72104 27.0806 8.72104 27.1504 8.72104 27.2264C9.15159 27.2421 9.5121 27.3813 9.7739 27.7322C9.9578 27.9787 10.0964 28.2592 10.0969 28.5775C10.1022 31.91 10.1002 35.2426 10.1002 38.5751C10.1002 38.6235 10.1002 38.6719 10.1002 38.7308C8.57027 38.7308 7.05849 38.7308 5.5166 38.7308C5.5166 38.6578 5.5166 38.5823 5.5166 38.5069C5.5166 36.977 5.51133 35.4472 5.51811 33.9174C5.52463 32.4479 5.54171 30.9784 5.55858 29.509C5.56259 29.1598 5.54547 28.803 5.60681 28.4637C5.70217 27.9362 6.03878 27.5787 6.4939 27.3713C6.88836 27.1915 6.89572 27.2097 6.89572 26.748C6.89572 26.3601 6.89188 25.9722 6.89739 25.5845C6.90005 25.3969 6.94438 25.2301 7.11552 25.1185C7.1713 25.0821 7.21681 24.9746 7.21513 24.901C7.20649 24.5239 7.18092 24.1472 7.16117 23.7684C6.76527 23.6877 6.55056 23.347 6.52959 23.0194C6.49245 22.4391 6.62303 22.1946 7.22022 21.9967C7.22022 20.5579 7.22022 19.115 7.22022 17.6524Z" fill="#FFC600"/>
<path d="M53.7045 25.9856C50.6574 25.9856 47.6306 25.9856 44.5885 25.9856C44.5847 25.9164 44.5784 25.8547 44.5784 25.793C44.5777 25.0894 44.5953 24.3852 44.5722 23.6825C44.555 23.162 44.7929 22.7687 45.0669 22.3916C45.4464 21.869 45.9594 21.6685 46.5827 21.6696C48.5866 21.673 50.5906 21.6418 52.5946 21.6359C53.4024 21.6335 54.2102 21.6675 55.0181 21.6731C55.2943 21.675 55.4605 21.8216 55.6117 22.0467C56.2727 23.0307 56.9445 24.0064 57.6103 24.9866C57.8254 25.3033 58.0342 25.6246 58.2736 25.9856C56.7381 25.9856 55.2314 25.9856 53.7045 25.9856Z" fill="#FF0000"/>
<path d="M12.7775 24.9878C12.7775 24.493 12.8035 24.017 12.7703 23.5456C12.7364 23.0643 12.9406 22.7038 13.207 22.3669C13.4444 22.0667 13.7351 21.8353 14.1076 21.7501C14.1844 21.7325 14.2642 21.7205 14.3426 21.7205C17.2965 21.719 20.2504 21.7218 23.2042 21.7134C23.3998 21.7128 23.5204 21.7755 23.6315 21.9358C24.4791 23.1585 25.3329 24.3764 26.1813 25.5986C26.2637 25.7172 26.3224 25.8542 26.41 26.0156C21.8551 26.0156 17.3506 26.0156 12.8375 26.0156C12.8178 25.6848 12.7976 25.3467 12.7775 24.9878Z" fill="#FF0000"/>
<path d="M39.0617 21.7192C40.424 21.7192 41.766 21.7192 43.1518 21.7192C42.8818 22.1233 42.6367 22.4911 42.3905 22.8582C41.6997 23.8883 41.0093 24.9187 40.3142 25.9455C40.2834 25.991 40.2072 26.0246 40.1518 26.0251C39.5637 26.0308 38.9755 26.0365 38.3875 26.026C37.972 26.0185 37.557 25.9862 37.1279 25.9642C37.1279 24.567 37.1279 23.1564 37.1279 21.7192C37.7628 21.7192 38.4021 21.7192 39.0617 21.7192Z" fill="#FF0000"/>
</g>
<defs>
<clipPath id="clip0_970_2284">
<rect width="75" height="39" fill="white"/>
</clipPath>
</defs>
</svg>
