<svg width="66" height="32" viewBox="0 0 66 32" fill="none" xmlns="http://www.w3.org/2000/svg">
<g clip-path="url(#clip0_833_1539)">
<path d="M15.7121 16.0632L26.432 9.8582C27.6 9.1362 28.4412 7.98639 28.7769 6.65293C29.1126 5.31948 28.9164 3.9074 28.2299 2.71658C27.5435 1.52576 26.4208 0.649977 25.1004 0.275218C23.78 -0.0995416 22.3658 0.0562382 21.1581 0.709477L2.63672 11.4245L15.7121 16.0632Z" fill="#EA4335"/>
<path d="M23.7895 32.0001C24.9497 31.9998 26.0774 31.6161 26.998 30.9086C27.9186 30.201 28.5806 29.2089 28.8816 28.0861C29.1826 26.9633 29.1057 25.7724 28.6628 24.6978C28.2199 23.6232 27.4358 22.7249 26.4319 22.1421L7.92418 11.4243C7.32437 11.0764 6.66204 10.8503 5.97503 10.7589C5.28801 10.6675 4.58975 10.7126 3.92012 10.8916C2.56775 11.2531 1.41407 12.1382 0.712902 13.3521C0.0117304 14.566 -0.179505 16.0094 0.181266 17.3646C0.542036 18.7198 1.42526 19.8759 2.63664 20.5785L21.1581 31.2908C21.9573 31.7561 22.8653 32.0008 23.7895 32.0001Z" fill="#4285F4"/>
<path d="M42.213 32.0001C43.1373 32.0005 44.0451 31.7558 44.8445 31.2909L63.3632 20.5786L50.4545 15.8413L39.5706 22.1394C38.5667 22.7222 37.7826 23.6205 37.3398 24.6951C36.8969 25.7697 36.82 26.9606 37.121 28.0834C37.4219 29.2063 38.084 30.1983 39.0046 30.9059C39.9251 31.6135 41.0528 31.9971 42.213 31.9974V32.0001Z" fill="#FBBC04"/>
<path d="M60.7207 21.285C61.8809 21.2847 63.0086 20.9011 63.9292 20.1935C64.8497 19.4859 65.5118 18.4939 65.8127 17.3711C66.1137 16.2482 66.0368 15.0573 65.594 13.9827C65.1511 12.9081 64.367 12.0099 63.3631 11.4271L44.8444 0.709279C44.2441 0.338171 43.5755 0.0915246 42.8783 -0.0160632C42.1812 -0.123651 41.4695 -0.0899936 40.7856 0.0829172C40.1016 0.255828 39.4592 0.564478 38.8964 0.9906C38.3336 1.41672 37.8618 1.95165 37.509 2.56374C37.1561 3.17582 36.9294 3.85262 36.8422 4.55407C36.755 5.25553 36.8091 5.96738 37.0014 6.6475C37.1936 7.32762 37.52 7.96219 37.9613 8.51364C38.4026 9.0651 38.9498 9.52224 39.5705 9.858L58.0892 20.573C58.8888 21.0378 59.7964 21.2834 60.7207 21.285Z" fill="#0F9D58"/>
</g>
<defs>
<clipPath id="clip0_833_1539">
<rect width="66" height="32" fill="white"/>
</clipPath>
</defs>
</svg>
