<svg width="46" height="28" viewBox="0 0 46 28" fill="none" xmlns="http://www.w3.org/2000/svg">
<g clip-path="url(#clip0_890_2096)">
<path d="M20.8969 18.1171C20.8969 12.6181 17.1062 8.55821 12.0295 8.55821C9.49591 8.55821 7.36852 9.43498 5.831 11.179H4.98971C5.92769 7.89109 9.26383 4.75561 14.0021 3.62151C14.65 3.44997 15.1238 3.24983 15.4429 2.91627C15.7717 2.62082 15.9458 2.19197 15.9458 1.67733C15.9458 0.705242 15.1335 0 14.0021 0C13.0061 0 12.3099 0.162015 11.1108 0.543226C8.59661 1.39142 6.20813 2.84956 4.29347 4.83187C1.48918 7.71002 0 11.5317 0 15.7917C0 23.4921 4.86399 27.9715 10.9561 27.9715C16.671 27.9715 20.8969 23.8544 20.8969 18.1171ZM46 18.1171C46 12.6181 42.1901 8.55821 37.1327 8.55821C34.5895 8.55821 32.4427 9.43498 30.9342 11.179H30.0735C31.0309 7.89109 34.3574 4.75561 39.0957 3.62151C39.734 3.44997 40.2271 3.24983 40.5366 2.91627C40.8654 2.62082 41.0395 2.19197 41.0395 1.67733C41.0395 0.705242 40.2271 0 39.1054 0C38.09 0 37.4131 0.162015 36.2043 0.543226C33.6999 1.39142 31.3018 2.84956 29.3774 4.83187C26.5924 7.71002 25.1033 11.5317 25.1033 15.7917C25.1033 23.4921 29.9672 27.9715 36.0496 27.9715C41.7744 27.9715 46 23.8544 46 18.1171Z" fill="#15294B"/>
</g>
<defs>
<clipPath id="clip0_890_2096">
<rect width="46" height="28" fill="white"/>
</clipPath>
</defs>
</svg>
