<svg width="22" height="22" viewBox="0 0 22 22" fill="none" xmlns="http://www.w3.org/2000/svg">
<path d="M19.2494 4.58333C18.2318 4.2625 17.1135 4.125 16.041 4.125C14.2535 4.125 12.3285 4.49167 10.9993 5.5C9.67018 4.49167 7.74518 4.125 5.95768 4.125C4.17018 4.125 2.24518 4.49167 0.916016 5.5V18.9292C0.916016 19.1583 1.14518 19.3875 1.37435 19.3875C1.46602 19.3875 1.51185 19.3417 1.60352 19.3417C2.84102 18.7458 4.62852 18.3333 5.95768 18.3333C7.74518 18.3333 9.67018 18.7 10.9993 19.7083C12.2368 18.9292 14.4827 18.3333 16.041 18.3333C17.5535 18.3333 19.1119 18.6083 20.3952 19.2958C20.4869 19.3417 20.5327 19.3417 20.6244 19.3417C20.8535 19.3417 21.0827 19.1125 21.0827 18.8833V5.5C20.5327 5.0875 19.9369 4.8125 19.2494 4.58333ZM19.2494 16.9583C18.241 16.6375 17.141 16.5 16.041 16.5C14.4827 16.5 12.2368 17.0958 10.9993 17.875V7.33333C12.2368 6.55417 14.4827 5.95833 16.041 5.95833C17.141 5.95833 18.241 6.09583 19.2494 6.41667V16.9583Z" fill="black" fill-opacity="0.87"/>
</svg>
