<svg width="24" height="16" viewBox="0 0 24 16" fill="none" xmlns="http://www.w3.org/2000/svg">
<g clip-path="url(#clip0_1098_2708)">
<mask id="path-1-outside-1_1098_2708" maskUnits="userSpaceOnUse" x="-0.101562" y="-0.750488" width="24" height="17" fill="black">
<rect fill="white" x="-0.101562" y="-0.750488" width="24" height="17"/>
<path d="M22.1631 9.28768L20.8478 9.76769L19.7054 2.97269L22.6408 1.69769C22.7254 1.66124 22.8025 1.60712 22.8677 1.5384C22.933 1.46968 22.9851 1.38771 23.0211 1.29717C23.0571 1.20663 23.0763 1.1093 23.0775 1.01073C23.0788 0.912161 23.0622 0.814283 23.0285 0.722686C22.9949 0.631089 22.9449 0.547567 22.8815 0.476888C22.8181 0.406209 22.7424 0.349758 22.6588 0.310757C22.5752 0.271756 22.4854 0.250971 22.3944 0.249586C22.3034 0.248201 22.2131 0.266245 22.1285 0.302686L18.667 1.80269C18.5161 1.86466 18.39 1.98175 18.3104 2.13375C18.2307 2.28575 18.2026 2.46311 18.2308 2.63519V2.77019L16.5762 3.66269C16.4613 3.72586 16.3323 3.75302 16.2039 3.74109C16.0755 3.72917 15.9526 3.67863 15.8493 3.59519L14.167 2.20019C13.8075 1.90809 13.3702 1.75019 12.9208 1.75019H11.0447C10.7897 1.75032 10.5397 1.82673 10.3223 1.97097C10.1048 2.11522 9.92838 2.32171 9.81237 2.56769L8.57314 2.50019C8.4531 2.49468 8.3338 2.52311 8.22698 2.58269L7.07083 3.20519L5.07698 2.66519V2.56769C5.09171 2.41552 5.06312 2.26212 4.99506 2.12806C4.927 1.994 4.82272 1.8857 4.69621 1.81769L1.92698 0.317686C1.76561 0.244888 1.58479 0.240917 1.42083 0.30657C1.25686 0.372224 1.1219 0.502642 1.04302 0.67164C0.964145 0.840637 0.947202 1.0357 0.995593 1.21767C1.04398 1.39965 1.15413 1.55505 1.30391 1.65269L3.65083 2.92769L3.08314 9.72268L1.83698 9.27269C1.74743 9.24117 1.65303 9.22907 1.55916 9.23707C1.46529 9.24508 1.3738 9.27304 1.2899 9.31935C1.20601 9.36567 1.13136 9.42943 1.07021 9.507C1.00906 9.58456 0.962614 9.67442 0.933521 9.77143C0.904428 9.86845 0.893259 9.97072 0.90065 10.0724C0.908042 10.1741 0.93385 10.2732 0.9766 10.3641C1.01935 10.455 1.07821 10.5359 1.14981 10.6021C1.22141 10.6684 1.30435 10.7187 1.39391 10.7502L3.47083 11.5002C3.54434 11.511 3.61886 11.511 3.69237 11.5002C3.82685 11.4973 3.95822 11.4559 4.07314 11.3802C4.16101 11.3181 4.23471 11.2352 4.28868 11.1378C4.34265 11.0403 4.37548 10.9309 4.38468 10.8177L4.44006 10.1202L5.33314 10.6002C5.41598 11.1568 5.68449 11.6612 6.08775 12.0177L10.0824 15.1227C10.2244 15.2496 10.3883 15.3446 10.5646 15.4021C10.7409 15.4595 10.926 15.4784 11.1091 15.4574C11.2921 15.4365 11.4695 15.3762 11.6308 15.2801C11.7921 15.1839 11.9341 15.054 12.0485 14.8977C12.312 15.0062 12.5936 15.0535 12.875 15.0367C13.1564 15.0199 13.4315 14.9394 13.6824 14.8002L17.4278 12.7752C17.6538 12.6515 17.8495 12.4714 17.9988 12.2497C18.148 12.0281 18.2465 11.7712 18.2862 11.5002C18.2931 11.4204 18.2931 11.34 18.2862 11.2602L19.6016 10.7877V10.8777C19.6191 10.9829 19.6573 11.0829 19.7134 11.1708C19.7695 11.2588 19.8423 11.3327 19.927 11.3877C20.0411 11.4644 20.1734 11.5035 20.3078 11.5002C20.3828 11.4987 20.4574 11.4861 20.5293 11.4627L22.6062 10.7127C22.6926 10.6812 22.7724 10.6315 22.841 10.5666C22.9097 10.5017 22.9659 10.4227 23.0064 10.3343C23.0469 10.2458 23.0709 10.1496 23.0771 10.0511C23.0833 9.95261 23.0715 9.85375 23.0424 9.76018C23.0133 9.66662 22.9675 9.58017 22.9075 9.50579C22.8476 9.43141 22.7747 9.37054 22.6931 9.32667C22.6114 9.28279 22.5226 9.25676 22.4317 9.25008C22.3408 9.24339 22.2495 9.25617 22.1631 9.28768ZM6.93237 10.8327C6.82289 10.7339 6.7442 10.601 6.70703 10.452C6.66986 10.303 6.67602 10.1452 6.72468 10.0002C6.73162 9.97415 6.74494 9.95065 6.76322 9.93216C6.78151 9.91367 6.80407 9.90089 6.82852 9.89518C6.87006 9.89518 6.92544 9.89519 7.00852 9.95519L11.197 13.2327L10.9685 13.9827L6.93237 10.8327ZM16.8047 11.4327L13.0593 13.4577C12.8963 13.5474 12.7071 13.5635 12.5331 13.5027C12.5778 13.2363 12.555 12.9617 12.4672 12.7082C12.3795 12.4547 12.23 12.2316 12.0347 12.0627L7.88083 8.78518C7.68389 8.61543 7.45148 8.50066 7.20402 8.45097C6.95656 8.40127 6.70162 8.41817 6.4616 8.50018C6.13121 8.60373 5.84314 8.82588 5.64468 9.13018L4.70314 8.62018C4.66362 8.60083 4.62159 8.58818 4.57852 8.58268L4.94544 4.21019L7.02237 4.76519L7.15391 4.75019C7.26228 4.74948 7.36899 4.72122 7.46544 4.66769L8.68391 4.00019H9.13391L8.61468 5.13269C8.53256 5.30981 8.51851 5.51495 8.57558 5.70327C8.63266 5.89159 8.75623 6.04777 8.91929 6.13769L9.06468 6.22019C9.51537 6.46518 10.0329 6.52418 10.5208 6.38617C11.0087 6.24817 11.4336 5.92259 11.7162 5.47019H12.4085L16.8254 10.9377C16.8436 10.9768 16.8645 11.0144 16.8878 11.0502C16.9115 11.0733 16.9292 11.1029 16.9389 11.1358C16.9486 11.1688 16.9501 11.2039 16.9431 11.2377C16.9462 11.2769 16.9387 11.3162 16.9215 11.3508C16.9043 11.3854 16.8781 11.4139 16.8462 11.4327H16.8047ZM17.7462 9.88018L13.2047 4.25519C13.1406 4.17613 13.0618 4.11256 12.9736 4.06863C12.8853 4.0247 12.7895 4.00138 12.6924 4.00019H11.3078C11.1799 4.00061 11.0547 4.03937 10.9459 4.11218C10.8372 4.18499 10.7491 4.289 10.6916 4.41269L10.6154 4.57019C10.5421 4.72824 10.4194 4.85309 10.2693 4.92269L11.0447 3.25019H12.9208C13.0706 3.25019 13.2164 3.30282 13.3362 3.40019L15.0531 4.79519C15.3618 5.04527 15.7286 5.19736 16.1125 5.23445C16.4965 5.27154 16.8823 5.19215 17.227 5.00519L18.5216 4.30769L19.3593 9.30268L17.7462 9.88018Z"/>
</mask>
<path d="M22.1631 9.28768L20.8478 9.76769L19.7054 2.97269L22.6408 1.69769C22.7254 1.66124 22.8025 1.60712 22.8677 1.5384C22.933 1.46968 22.9851 1.38771 23.0211 1.29717C23.0571 1.20663 23.0763 1.1093 23.0775 1.01073C23.0788 0.912161 23.0622 0.814283 23.0285 0.722686C22.9949 0.631089 22.9449 0.547567 22.8815 0.476888C22.8181 0.406209 22.7424 0.349758 22.6588 0.310757C22.5752 0.271756 22.4854 0.250971 22.3944 0.249586C22.3034 0.248201 22.2131 0.266245 22.1285 0.302686L18.667 1.80269C18.5161 1.86466 18.39 1.98175 18.3104 2.13375C18.2307 2.28575 18.2026 2.46311 18.2308 2.63519V2.77019L16.5762 3.66269C16.4613 3.72586 16.3323 3.75302 16.2039 3.74109C16.0755 3.72917 15.9526 3.67863 15.8493 3.59519L14.167 2.20019C13.8075 1.90809 13.3702 1.75019 12.9208 1.75019H11.0447C10.7897 1.75032 10.5397 1.82673 10.3223 1.97097C10.1048 2.11522 9.92838 2.32171 9.81237 2.56769L8.57314 2.50019C8.4531 2.49468 8.3338 2.52311 8.22698 2.58269L7.07083 3.20519L5.07698 2.66519V2.56769C5.09171 2.41552 5.06312 2.26212 4.99506 2.12806C4.927 1.994 4.82272 1.8857 4.69621 1.81769L1.92698 0.317686C1.76561 0.244888 1.58479 0.240917 1.42083 0.30657C1.25686 0.372224 1.1219 0.502642 1.04302 0.67164C0.964145 0.840637 0.947202 1.0357 0.995593 1.21767C1.04398 1.39965 1.15413 1.55505 1.30391 1.65269L3.65083 2.92769L3.08314 9.72268L1.83698 9.27269C1.74743 9.24117 1.65303 9.22907 1.55916 9.23707C1.46529 9.24508 1.3738 9.27304 1.2899 9.31935C1.20601 9.36567 1.13136 9.42943 1.07021 9.507C1.00906 9.58456 0.962614 9.67442 0.933521 9.77143C0.904428 9.86845 0.893259 9.97072 0.90065 10.0724C0.908042 10.1741 0.93385 10.2732 0.9766 10.3641C1.01935 10.455 1.07821 10.5359 1.14981 10.6021C1.22141 10.6684 1.30435 10.7187 1.39391 10.7502L3.47083 11.5002C3.54434 11.511 3.61886 11.511 3.69237 11.5002C3.82685 11.4973 3.95822 11.4559 4.07314 11.3802C4.16101 11.3181 4.23471 11.2352 4.28868 11.1378C4.34265 11.0403 4.37548 10.9309 4.38468 10.8177L4.44006 10.1202L5.33314 10.6002C5.41598 11.1568 5.68449 11.6612 6.08775 12.0177L10.0824 15.1227C10.2244 15.2496 10.3883 15.3446 10.5646 15.4021C10.7409 15.4595 10.926 15.4784 11.1091 15.4574C11.2921 15.4365 11.4695 15.3762 11.6308 15.2801C11.7921 15.1839 11.9341 15.054 12.0485 14.8977C12.312 15.0062 12.5936 15.0535 12.875 15.0367C13.1564 15.0199 13.4315 14.9394 13.6824 14.8002L17.4278 12.7752C17.6538 12.6515 17.8495 12.4714 17.9988 12.2497C18.148 12.0281 18.2465 11.7712 18.2862 11.5002C18.2931 11.4204 18.2931 11.34 18.2862 11.2602L19.6016 10.7877V10.8777C19.6191 10.9829 19.6573 11.0829 19.7134 11.1708C19.7695 11.2588 19.8423 11.3327 19.927 11.3877C20.0411 11.4644 20.1734 11.5035 20.3078 11.5002C20.3828 11.4987 20.4574 11.4861 20.5293 11.4627L22.6062 10.7127C22.6926 10.6812 22.7724 10.6315 22.841 10.5666C22.9097 10.5017 22.9659 10.4227 23.0064 10.3343C23.0469 10.2458 23.0709 10.1496 23.0771 10.0511C23.0833 9.95261 23.0715 9.85375 23.0424 9.76018C23.0133 9.66662 22.9675 9.58017 22.9075 9.50579C22.8476 9.43141 22.7747 9.37054 22.6931 9.32667C22.6114 9.28279 22.5226 9.25676 22.4317 9.25008C22.3408 9.24339 22.2495 9.25617 22.1631 9.28768ZM6.93237 10.8327C6.82289 10.7339 6.7442 10.601 6.70703 10.452C6.66986 10.303 6.67602 10.1452 6.72468 10.0002C6.73162 9.97415 6.74494 9.95065 6.76322 9.93216C6.78151 9.91367 6.80407 9.90089 6.82852 9.89518C6.87006 9.89518 6.92544 9.89519 7.00852 9.95519L11.197 13.2327L10.9685 13.9827L6.93237 10.8327ZM16.8047 11.4327L13.0593 13.4577C12.8963 13.5474 12.7071 13.5635 12.5331 13.5027C12.5778 13.2363 12.555 12.9617 12.4672 12.7082C12.3795 12.4547 12.23 12.2316 12.0347 12.0627L7.88083 8.78518C7.68389 8.61543 7.45148 8.50066 7.20402 8.45097C6.95656 8.40127 6.70162 8.41817 6.4616 8.50018C6.13121 8.60373 5.84314 8.82588 5.64468 9.13018L4.70314 8.62018C4.66362 8.60083 4.62159 8.58818 4.57852 8.58268L4.94544 4.21019L7.02237 4.76519L7.15391 4.75019C7.26228 4.74948 7.36899 4.72122 7.46544 4.66769L8.68391 4.00019H9.13391L8.61468 5.13269C8.53256 5.30981 8.51851 5.51495 8.57558 5.70327C8.63266 5.89159 8.75623 6.04777 8.91929 6.13769L9.06468 6.22019C9.51537 6.46518 10.0329 6.52418 10.5208 6.38617C11.0087 6.24817 11.4336 5.92259 11.7162 5.47019H12.4085L16.8254 10.9377C16.8436 10.9768 16.8645 11.0144 16.8878 11.0502C16.9115 11.0733 16.9292 11.1029 16.9389 11.1358C16.9486 11.1688 16.9501 11.2039 16.9431 11.2377C16.9462 11.2769 16.9387 11.3162 16.9215 11.3508C16.9043 11.3854 16.8781 11.4139 16.8462 11.4327H16.8047ZM17.7462 9.88018L13.2047 4.25519C13.1406 4.17613 13.0618 4.11256 12.9736 4.06863C12.8853 4.0247 12.7895 4.00138 12.6924 4.00019H11.3078C11.1799 4.00061 11.0547 4.03937 10.9459 4.11218C10.8372 4.18499 10.7491 4.289 10.6916 4.41269L10.6154 4.57019C10.5421 4.72824 10.4194 4.85309 10.2693 4.92269L11.0447 3.25019H12.9208C13.0706 3.25019 13.2164 3.30282 13.3362 3.40019L15.0531 4.79519C15.3618 5.04527 15.7286 5.19736 16.1125 5.23445C16.4965 5.27154 16.8823 5.19215 17.227 5.00519L18.5216 4.30769L19.3593 9.30268L17.7462 9.88018Z" fill="current" />
<path d="M22.1631 9.28768L20.8478 9.76769L19.7054 2.97269L22.6408 1.69769C22.7254 1.66124 22.8025 1.60712 22.8677 1.5384C22.933 1.46968 22.9851 1.38771 23.0211 1.29717C23.0571 1.20663 23.0763 1.1093 23.0775 1.01073C23.0788 0.912161 23.0622 0.814283 23.0285 0.722686C22.9949 0.631089 22.9449 0.547567 22.8815 0.476888C22.8181 0.406209 22.7424 0.349758 22.6588 0.310757C22.5752 0.271756 22.4854 0.250971 22.3944 0.249586C22.3034 0.248201 22.2131 0.266245 22.1285 0.302686L18.667 1.80269C18.5161 1.86466 18.39 1.98175 18.3104 2.13375C18.2307 2.28575 18.2026 2.46311 18.2308 2.63519V2.77019L16.5762 3.66269C16.4613 3.72586 16.3323 3.75302 16.2039 3.74109C16.0755 3.72917 15.9526 3.67863 15.8493 3.59519L14.167 2.20019C13.8075 1.90809 13.3702 1.75019 12.9208 1.75019H11.0447C10.7897 1.75032 10.5397 1.82673 10.3223 1.97097C10.1048 2.11522 9.92838 2.32171 9.81237 2.56769L8.57314 2.50019C8.4531 2.49468 8.3338 2.52311 8.22698 2.58269L7.07083 3.20519L5.07698 2.66519V2.56769C5.09171 2.41552 5.06312 2.26212 4.99506 2.12806C4.927 1.994 4.82272 1.8857 4.69621 1.81769L1.92698 0.317686C1.76561 0.244888 1.58479 0.240917 1.42083 0.30657C1.25686 0.372224 1.1219 0.502642 1.04302 0.67164C0.964145 0.840637 0.947202 1.0357 0.995593 1.21767C1.04398 1.39965 1.15413 1.55505 1.30391 1.65269L3.65083 2.92769L3.08314 9.72268L1.83698 9.27269C1.74743 9.24117 1.65303 9.22907 1.55916 9.23707C1.46529 9.24508 1.3738 9.27304 1.2899 9.31935C1.20601 9.36567 1.13136 9.42943 1.07021 9.507C1.00906 9.58456 0.962614 9.67442 0.933521 9.77143C0.904428 9.86845 0.893259 9.97072 0.90065 10.0724C0.908042 10.1741 0.93385 10.2732 0.9766 10.3641C1.01935 10.455 1.07821 10.5359 1.14981 10.6021C1.22141 10.6684 1.30435 10.7187 1.39391 10.7502L3.47083 11.5002C3.54434 11.511 3.61886 11.511 3.69237 11.5002C3.82685 11.4973 3.95822 11.4559 4.07314 11.3802C4.16101 11.3181 4.23471 11.2352 4.28868 11.1378C4.34265 11.0403 4.37548 10.9309 4.38468 10.8177L4.44006 10.1202L5.33314 10.6002C5.41598 11.1568 5.68449 11.6612 6.08775 12.0177L10.0824 15.1227C10.2244 15.2496 10.3883 15.3446 10.5646 15.4021C10.7409 15.4595 10.926 15.4784 11.1091 15.4574C11.2921 15.4365 11.4695 15.3762 11.6308 15.2801C11.7921 15.1839 11.9341 15.054 12.0485 14.8977C12.312 15.0062 12.5936 15.0535 12.875 15.0367C13.1564 15.0199 13.4315 14.9394 13.6824 14.8002L17.4278 12.7752C17.6538 12.6515 17.8495 12.4714 17.9988 12.2497C18.148 12.0281 18.2465 11.7712 18.2862 11.5002C18.2931 11.4204 18.2931 11.34 18.2862 11.2602L19.6016 10.7877V10.8777C19.6191 10.9829 19.6573 11.0829 19.7134 11.1708C19.7695 11.2588 19.8423 11.3327 19.927 11.3877C20.0411 11.4644 20.1734 11.5035 20.3078 11.5002C20.3828 11.4987 20.4574 11.4861 20.5293 11.4627L22.6062 10.7127C22.6926 10.6812 22.7724 10.6315 22.841 10.5666C22.9097 10.5017 22.9659 10.4227 23.0064 10.3343C23.0469 10.2458 23.0709 10.1496 23.0771 10.0511C23.0833 9.95261 23.0715 9.85375 23.0424 9.76018C23.0133 9.66662 22.9675 9.58017 22.9075 9.50579C22.8476 9.43141 22.7747 9.37054 22.6931 9.32667C22.6114 9.28279 22.5226 9.25676 22.4317 9.25008C22.3408 9.24339 22.2495 9.25617 22.1631 9.28768ZM6.93237 10.8327C6.82289 10.7339 6.7442 10.601 6.70703 10.452C6.66986 10.303 6.67602 10.1452 6.72468 10.0002C6.73162 9.97415 6.74494 9.95065 6.76322 9.93216C6.78151 9.91367 6.80407 9.90089 6.82852 9.89518C6.87006 9.89518 6.92544 9.89519 7.00852 9.95519L11.197 13.2327L10.9685 13.9827L6.93237 10.8327ZM16.8047 11.4327L13.0593 13.4577C12.8963 13.5474 12.7071 13.5635 12.5331 13.5027C12.5778 13.2363 12.555 12.9617 12.4672 12.7082C12.3795 12.4547 12.23 12.2316 12.0347 12.0627L7.88083 8.78518C7.68389 8.61543 7.45148 8.50066 7.20402 8.45097C6.95656 8.40127 6.70162 8.41817 6.4616 8.50018C6.13121 8.60373 5.84314 8.82588 5.64468 9.13018L4.70314 8.62018C4.66362 8.60083 4.62159 8.58818 4.57852 8.58268L4.94544 4.21019L7.02237 4.76519L7.15391 4.75019C7.26228 4.74948 7.36899 4.72122 7.46544 4.66769L8.68391 4.00019H9.13391L8.61468 5.13269C8.53256 5.30981 8.51851 5.51495 8.57558 5.70327C8.63266 5.89159 8.75623 6.04777 8.91929 6.13769L9.06468 6.22019C9.51537 6.46518 10.0329 6.52418 10.5208 6.38617C11.0087 6.24817 11.4336 5.92259 11.7162 5.47019H12.4085L16.8254 10.9377C16.8436 10.9768 16.8645 11.0144 16.8878 11.0502C16.9115 11.0733 16.9292 11.1029 16.9389 11.1358C16.9486 11.1688 16.9501 11.2039 16.9431 11.2377C16.9462 11.2769 16.9387 11.3162 16.9215 11.3508C16.9043 11.3854 16.8781 11.4139 16.8462 11.4327H16.8047ZM17.7462 9.88018L13.2047 4.25519C13.1406 4.17613 13.0618 4.11256 12.9736 4.06863C12.8853 4.0247 12.7895 4.00138 12.6924 4.00019H11.3078C11.1799 4.00061 11.0547 4.03937 10.9459 4.11218C10.8372 4.18499 10.7491 4.289 10.6916 4.41269L10.6154 4.57019C10.5421 4.72824 10.4194 4.85309 10.2693 4.92269L11.0447 3.25019H12.9208C13.0706 3.25019 13.2164 3.30282 13.3362 3.40019L15.0531 4.79519C15.3618 5.04527 15.7286 5.19736 16.1125 5.23445C16.4965 5.27154 16.8823 5.19215 17.227 5.00519L18.5216 4.30769L19.3593 9.30268L17.7462 9.88018Z" stroke="current" stroke-opacity="0.87" stroke-width="0.4" mask="url(#path-1-outside-1_1098_2708)"/>
</g>
<defs>
<clipPath id="clip0_1098_2708">
<rect width="24" height="16" fill="white"/>
</clipPath>
</defs>
</svg>
