<svg width="233" height="129" viewBox="0 0 233 129" fill="none" xmlns="http://www.w3.org/2000/svg">
<g clip-path="url(#clip0_1014_2196)">
<path d="M10.2129 101.053V105.425C10.0652 105.644 9.83007 105.89 9.50742 106.163C9.18476 106.431 8.73906 106.666 8.17031 106.869C7.60703 107.066 6.87968 107.164 5.98828 107.164C5.26094 107.164 4.59101 107.038 3.97851 106.787C3.37148 106.53 2.84375 106.158 2.39531 105.671C1.95234 105.179 1.60781 104.583 1.36172 103.883C1.12109 103.177 1.00078 102.379 1.00078 101.487V100.561C1.00078 99.6691 1.10469 98.8734 1.3125 98.1734C1.52578 97.4734 1.8375 96.88 2.24766 96.3933C2.65781 95.9011 3.16094 95.5293 3.75703 95.2777C4.35312 95.0207 5.03672 94.8922 5.80781 94.8922C6.72109 94.8922 7.48398 95.0507 8.09648 95.3679C8.71445 95.6797 9.1957 96.1117 9.54023 96.664C9.89023 97.2164 10.1144 97.8453 10.2129 98.5507H8.62968C8.55859 98.1187 8.4164 97.725 8.20312 97.3695C7.99531 97.014 7.69726 96.7297 7.30898 96.5164C6.9207 96.2976 6.42031 96.1882 5.80781 96.1882C5.25547 96.1882 4.77695 96.2894 4.37226 96.4918C3.96758 96.6941 3.63398 96.984 3.37148 97.3613C3.10898 97.7386 2.91211 98.1953 2.78086 98.7312C2.65508 99.2672 2.59219 99.8714 2.59219 100.544V101.487C2.59219 102.177 2.67148 102.792 2.83008 103.333C2.99414 103.875 3.22656 104.337 3.52734 104.719C3.82812 105.097 4.18633 105.384 4.60195 105.581C5.02304 105.778 5.48789 105.876 5.99648 105.876C6.55976 105.876 7.0164 105.83 7.3664 105.737C7.7164 105.638 7.98984 105.523 8.18672 105.392C8.38359 105.255 8.53398 105.127 8.63789 105.007V102.332H5.87344V101.053H10.2129ZM12.2062 102.661V102.472C12.2062 101.832 12.2992 101.239 12.4852 100.692C12.6711 100.139 12.9391 99.6609 13.2891 99.2562C13.6391 98.8461 14.0629 98.5289 14.5605 98.3047C15.0582 98.075 15.616 97.9601 16.234 97.9601C16.8574 97.9601 17.418 98.075 17.9156 98.3047C18.4187 98.5289 18.8453 98.8461 19.1953 99.2562C19.5508 99.6609 19.8215 100.139 20.0074 100.692C20.1934 101.239 20.2863 101.832 20.2863 102.472V102.661C20.2863 103.3 20.1934 103.894 20.0074 104.441C19.8215 104.987 19.5508 105.466 19.1953 105.876C18.8453 106.281 18.4215 106.598 17.9238 106.828C17.4316 107.052 16.8738 107.164 16.2504 107.164C15.6269 107.164 15.0664 107.052 14.5687 106.828C14.0711 106.598 13.6445 106.281 13.2891 105.876C12.9391 105.466 12.6711 104.987 12.4852 104.441C12.2992 103.894 12.2062 103.3 12.2062 102.661ZM13.7238 102.472V102.661C13.7238 103.103 13.7758 103.522 13.8797 103.916C13.9836 104.304 14.1394 104.648 14.3473 104.949C14.5605 105.25 14.8258 105.488 15.143 105.663C15.4602 105.832 15.8293 105.917 16.2504 105.917C16.666 105.917 17.0297 105.832 17.3414 105.663C17.6586 105.488 17.9211 105.25 18.1289 104.949C18.3367 104.648 18.4926 104.304 18.5965 103.916C18.7059 103.522 18.7605 103.103 18.7605 102.661V102.472C18.7605 102.034 18.7059 101.621 18.5965 101.233C18.4926 100.839 18.334 100.492 18.1207 100.191C17.9129 99.8851 17.6504 99.6445 17.3332 99.4695C17.0215 99.2945 16.6551 99.207 16.234 99.207C15.8184 99.207 15.4519 99.2945 15.1348 99.4695C14.823 99.6445 14.5605 99.8851 14.3473 100.191C14.1394 100.492 13.9836 100.839 13.8797 101.233C13.7758 101.621 13.7238 102.034 13.7238 102.472ZM21.7875 102.661V102.472C21.7875 101.832 21.8805 101.239 22.0664 100.692C22.2523 100.139 22.5203 99.6609 22.8703 99.2562C23.2203 98.8461 23.6441 98.5289 24.1418 98.3047C24.6394 98.075 25.1973 97.9601 25.8152 97.9601C26.4387 97.9601 26.9992 98.075 27.4969 98.3047C28 98.5289 28.4266 98.8461 28.7766 99.2562C29.132 99.6609 29.4027 100.139 29.5887 100.692C29.7746 101.239 29.8676 101.832 29.8676 102.472V102.661C29.8676 103.3 29.7746 103.894 29.5887 104.441C29.4027 104.987 29.132 105.466 28.7766 105.876C28.4266 106.281 28.0027 106.598 27.5051 106.828C27.0129 107.052 26.4551 107.164 25.8316 107.164C25.2082 107.164 24.6476 107.052 24.15 106.828C23.6523 106.598 23.2258 106.281 22.8703 105.876C22.5203 105.466 22.2523 104.987 22.0664 104.441C21.8805 103.894 21.7875 103.3 21.7875 102.661ZM23.3051 102.472V102.661C23.3051 103.103 23.357 103.522 23.4609 103.916C23.5648 104.304 23.7207 104.648 23.9285 104.949C24.1418 105.25 24.407 105.488 24.7242 105.663C25.0414 105.832 25.4105 105.917 25.8316 105.917C26.2473 105.917 26.6109 105.832 26.9226 105.663C27.2398 105.488 27.5023 105.25 27.7101 104.949C27.918 104.648 28.0738 104.304 28.1777 103.916C28.2871 103.522 28.3418 103.103 28.3418 102.661V102.472C28.3418 102.034 28.2871 101.621 28.1777 101.233C28.0738 100.839 27.9152 100.492 27.7019 100.191C27.4941 99.8851 27.2316 99.6445 26.9144 99.4695C26.6027 99.2945 26.2363 99.207 25.8152 99.207C25.3996 99.207 25.0332 99.2945 24.716 99.4695C24.4043 99.6445 24.1418 99.8851 23.9285 100.191C23.7207 100.492 23.5648 100.839 23.4609 101.233C23.357 101.621 23.3051 102.034 23.3051 102.472ZM37.5211 98.1242H38.8992V106.811C38.8992 107.593 38.7406 108.261 38.4234 108.813C38.1062 109.365 37.6633 109.784 37.0945 110.068C36.5312 110.358 35.8805 110.503 35.1422 110.503C34.8359 110.503 34.475 110.453 34.0594 110.355C33.6492 110.262 33.2445 110.101 32.8453 109.871C32.4516 109.647 32.1207 109.343 31.8527 108.961L32.6484 108.058C33.0203 108.507 33.4086 108.818 33.8133 108.993C34.2234 109.168 34.6281 109.256 35.0273 109.256C35.5086 109.256 35.9242 109.166 36.2742 108.985C36.6242 108.805 36.8949 108.537 37.0863 108.181C37.2832 107.831 37.3816 107.399 37.3816 106.885V100.077L37.5211 98.1242ZM31.4098 102.661V102.488C31.4098 101.81 31.4891 101.195 31.6476 100.643C31.8117 100.085 32.0441 99.6062 32.3449 99.207C32.6512 98.8078 33.0203 98.5015 33.4523 98.2882C33.8844 98.0695 34.3711 97.9601 34.9125 97.9601C35.4703 97.9601 35.957 98.0586 36.3726 98.2554C36.7937 98.4468 37.1492 98.7285 37.439 99.1004C37.7344 99.4668 37.9668 99.9097 38.1363 100.429C38.3058 100.949 38.4234 101.537 38.489 102.193V102.948C38.4289 103.598 38.3113 104.184 38.1363 104.703C37.9668 105.223 37.7344 105.666 37.439 106.032C37.1492 106.398 36.7937 106.68 36.3726 106.877C35.9515 107.068 35.4594 107.164 34.8961 107.164C34.3656 107.164 33.8844 107.052 33.4523 106.828C33.0258 106.603 32.6594 106.289 32.3531 105.884C32.0469 105.48 31.8117 105.004 31.6476 104.457C31.4891 103.905 31.4098 103.306 31.4098 102.661ZM32.9273 102.488V102.661C32.9273 103.103 32.9711 103.519 33.0586 103.907C33.1516 104.296 33.291 104.637 33.4769 104.933C33.6683 105.228 33.9117 105.461 34.207 105.63C34.5023 105.794 34.8551 105.876 35.2652 105.876C35.7683 105.876 36.184 105.769 36.5121 105.556C36.8402 105.343 37.1 105.061 37.2914 104.711C37.4883 104.361 37.6414 103.981 37.7508 103.571V101.594C37.6906 101.293 37.5976 101.003 37.4719 100.725C37.3515 100.44 37.193 100.189 36.9961 99.9699C36.8047 99.7457 36.5668 99.5679 36.2824 99.4367C35.998 99.3054 35.6644 99.2398 35.2816 99.2398C34.866 99.2398 34.5078 99.3273 34.207 99.5023C33.9117 99.6718 33.6683 99.907 33.4769 100.208C33.291 100.503 33.1516 100.848 33.0586 101.241C32.9711 101.63 32.9273 102.045 32.9273 102.488ZM42.8531 94.4V107H41.3273V94.4H42.8531ZM48.9726 107.164C48.3547 107.164 47.7941 107.06 47.291 106.852C46.7933 106.639 46.364 106.341 46.0031 105.958C45.6476 105.575 45.3742 105.121 45.1828 104.596C44.9914 104.071 44.8957 103.497 44.8957 102.874V102.529C44.8957 101.807 45.0023 101.165 45.2156 100.602C45.4289 100.033 45.7187 99.5515 46.0851 99.1578C46.4515 98.764 46.8672 98.466 47.332 98.2636C47.7969 98.0613 48.2781 97.9601 48.7758 97.9601C49.4101 97.9601 49.957 98.0695 50.4164 98.2882C50.8812 98.507 51.2613 98.8132 51.5566 99.207C51.8519 99.5953 52.0707 100.055 52.2129 100.585C52.3551 101.11 52.4262 101.684 52.4262 102.308V102.989H45.798V101.75H50.9086V101.635C50.8867 101.241 50.8047 100.859 50.6625 100.487C50.5258 100.115 50.307 99.8086 50.0062 99.5679C49.7055 99.3273 49.2953 99.207 48.7758 99.207C48.4312 99.207 48.114 99.2808 47.8242 99.4285C47.5344 99.5707 47.2855 99.7839 47.0777 100.068C46.8699 100.353 46.7086 100.7 46.5937 101.11C46.4789 101.52 46.4215 101.993 46.4215 102.529V102.874C46.4215 103.295 46.4789 103.691 46.5937 104.063C46.714 104.43 46.8863 104.752 47.1105 105.031C47.3402 105.31 47.6164 105.529 47.939 105.687C48.2672 105.846 48.639 105.925 49.0547 105.925C49.5906 105.925 50.0445 105.816 50.4164 105.597C50.7883 105.378 51.1137 105.086 51.3926 104.719L52.3113 105.45C52.1199 105.739 51.8765 106.016 51.5812 106.278C51.2859 106.541 50.9222 106.754 50.4902 106.918C50.0637 107.082 49.5578 107.164 48.9726 107.164ZM61.8269 107H59.3332L59.3496 105.712H61.8269C62.6801 105.712 63.391 105.534 63.9597 105.179C64.5285 104.818 64.9551 104.315 65.2394 103.669C65.5293 103.019 65.6742 102.259 65.6742 101.389V100.659C65.6742 99.9754 65.5922 99.3683 65.4281 98.8379C65.264 98.3019 65.0234 97.8507 64.7062 97.4843C64.389 97.1125 64.0008 96.8308 63.5414 96.6394C63.0875 96.448 62.5652 96.3523 61.9746 96.3523H59.284V95.0562H61.9746C62.7566 95.0562 63.4703 95.1875 64.1156 95.45C64.7609 95.707 65.316 96.0816 65.7808 96.5738C66.2511 97.0605 66.6121 97.6511 66.8636 98.3457C67.1152 99.0347 67.241 99.8113 67.241 100.675V101.389C67.241 102.253 67.1152 103.032 66.8636 103.727C66.6121 104.416 66.2484 105.004 65.7726 105.491C65.3023 105.977 64.7336 106.352 64.0664 106.614C63.4047 106.871 62.6582 107 61.8269 107ZM60.1781 95.0562V107H58.5949V95.0562H60.1781ZM73.0734 107.164C72.4554 107.164 71.8949 107.06 71.3918 106.852C70.8941 106.639 70.4648 106.341 70.1039 105.958C69.7484 105.575 69.475 105.121 69.2836 104.596C69.0922 104.071 68.9965 103.497 68.9965 102.874V102.529C68.9965 101.807 69.1031 101.165 69.3164 100.602C69.5297 100.033 69.8195 99.5515 70.1859 99.1578C70.5523 98.764 70.9679 98.466 71.4328 98.2636C71.8976 98.0613 72.3789 97.9601 72.8765 97.9601C73.5109 97.9601 74.0578 98.0695 74.5172 98.2882C74.982 98.507 75.3621 98.8132 75.6574 99.207C75.9527 99.5953 76.1715 100.055 76.3136 100.585C76.4558 101.11 76.5269 101.684 76.5269 102.308V102.989H69.8988V101.75H75.0093V101.635C74.9875 101.241 74.9054 100.859 74.7633 100.487C74.6265 100.115 74.4078 99.8086 74.107 99.5679C73.8062 99.3273 73.3961 99.207 72.8765 99.207C72.532 99.207 72.2148 99.2808 71.925 99.4285C71.6351 99.5707 71.3863 99.7839 71.1785 100.068C70.9707 100.353 70.8093 100.7 70.6945 101.11C70.5797 101.52 70.5222 101.993 70.5222 102.529V102.874C70.5222 103.295 70.5797 103.691 70.6945 104.063C70.8148 104.43 70.9871 104.752 71.2113 105.031C71.441 105.31 71.7172 105.529 72.0398 105.687C72.3679 105.846 72.7398 105.925 73.1554 105.925C73.6914 105.925 74.1453 105.816 74.5172 105.597C74.889 105.378 75.2144 105.086 75.4933 104.719L76.4121 105.45C76.2207 105.739 75.9773 106.016 75.682 106.278C75.3867 106.541 75.023 106.754 74.591 106.918C74.1644 107.082 73.6586 107.164 73.0734 107.164ZM80.8828 105.63L83.3109 98.1242H84.8613L81.6703 107H80.6531L80.8828 105.63ZM78.8566 98.1242L81.3586 105.671L81.5308 107H80.5136L77.298 98.1242H78.8566ZM89.8898 107.164C89.2718 107.164 88.7113 107.06 88.2082 106.852C87.7105 106.639 87.2812 106.341 86.9203 105.958C86.5648 105.575 86.2914 105.121 86.1 104.596C85.9086 104.071 85.8129 103.497 85.8129 102.874V102.529C85.8129 101.807 85.9195 101.165 86.1328 100.602C86.3461 100.033 86.6359 99.5515 87.0023 99.1578C87.3687 98.764 87.7843 98.466 88.2492 98.2636C88.714 98.0613 89.1953 97.9601 89.6929 97.9601C90.3273 97.9601 90.8742 98.0695 91.3336 98.2882C91.7984 98.507 92.1785 98.8132 92.4738 99.207C92.7691 99.5953 92.9879 100.055 93.13 100.585C93.2722 101.11 93.3433 101.684 93.3433 102.308V102.989H86.7152V101.75H91.8257V101.635C91.8039 101.241 91.7218 100.859 91.5796 100.487C91.4429 100.115 91.2242 99.8086 90.9234 99.5679C90.6226 99.3273 90.2125 99.207 89.6929 99.207C89.3484 99.207 89.0312 99.2808 88.7414 99.4285C88.4515 99.5707 88.2027 99.7839 87.9949 100.068C87.7871 100.353 87.6257 100.7 87.5109 101.11C87.3961 101.52 87.3386 101.993 87.3386 102.529V102.874C87.3386 103.295 87.3961 103.691 87.5109 104.063C87.6312 104.43 87.8035 104.752 88.0277 105.031C88.2574 105.31 88.5336 105.529 88.8562 105.687C89.1843 105.846 89.5562 105.925 89.9718 105.925C90.5078 105.925 90.9617 105.816 91.3336 105.597C91.7054 105.378 92.0308 105.086 92.3097 104.719L93.2285 105.45C93.0371 105.739 92.7937 106.016 92.4984 106.278C92.2031 106.541 91.8394 106.754 91.4074 106.918C90.9808 107.082 90.475 107.164 89.8898 107.164ZM96.764 94.4V107H95.2382V94.4H96.764ZM98.7984 102.661V102.472C98.7984 101.832 98.8914 101.239 99.0773 100.692C99.2632 100.139 99.5312 99.6609 99.8812 99.2562C100.231 98.8461 100.655 98.5289 101.153 98.3047C101.65 98.075 102.208 97.9601 102.826 97.9601C103.45 97.9601 104.01 98.075 104.508 98.3047C105.011 98.5289 105.437 98.8461 105.787 99.2562C106.143 99.6609 106.414 100.139 106.6 100.692C106.786 101.239 106.878 101.832 106.878 102.472V102.661C106.878 103.3 106.786 103.894 106.6 104.441C106.414 104.987 106.143 105.466 105.787 105.876C105.437 106.281 105.014 106.598 104.516 106.828C104.024 107.052 103.466 107.164 102.843 107.164C102.219 107.164 101.659 107.052 101.161 106.828C100.663 106.598 100.237 106.281 99.8812 105.876C99.5312 105.466 99.2632 104.987 99.0773 104.441C98.8914 103.894 98.7984 103.3 98.7984 102.661ZM100.316 102.472V102.661C100.316 103.103 100.368 103.522 100.472 103.916C100.576 104.304 100.732 104.648 100.939 104.949C101.153 105.25 101.418 105.488 101.735 105.663C102.052 105.832 102.421 105.917 102.843 105.917C103.258 105.917 103.622 105.832 103.934 105.663C104.251 105.488 104.513 105.25 104.721 104.949C104.929 104.648 105.085 104.304 105.189 103.916C105.298 103.522 105.353 103.103 105.353 102.661V102.472C105.353 102.034 105.298 101.621 105.189 101.233C105.085 100.839 104.926 100.492 104.713 100.191C104.505 99.8851 104.243 99.6445 103.925 99.4695C103.614 99.2945 103.247 99.207 102.826 99.207C102.411 99.207 102.044 99.2945 101.727 99.4695C101.415 99.6445 101.153 99.8851 100.939 100.191C100.732 100.492 100.576 100.839 100.472 101.233C100.368 101.621 100.316 102.034 100.316 102.472ZM110.299 99.8304V110.412H108.773V98.1242H110.168L110.299 99.8304ZM116.279 102.488V102.661C116.279 103.306 116.203 103.905 116.05 104.457C115.896 105.004 115.672 105.48 115.377 105.884C115.087 106.289 114.729 106.603 114.302 106.828C113.876 107.052 113.386 107.164 112.834 107.164C112.271 107.164 111.773 107.071 111.341 106.885C110.909 106.699 110.543 106.428 110.242 106.073C109.941 105.718 109.7 105.291 109.52 104.793C109.345 104.296 109.225 103.735 109.159 103.112V102.193C109.225 101.537 109.348 100.949 109.528 100.429C109.709 99.9097 109.946 99.4668 110.242 99.1004C110.543 98.7285 110.906 98.4468 111.333 98.2554C111.759 98.0586 112.252 97.9601 112.809 97.9601C113.367 97.9601 113.862 98.0695 114.294 98.2882C114.726 98.5015 115.09 98.8078 115.385 99.207C115.68 99.6062 115.902 100.085 116.05 100.643C116.203 101.195 116.279 101.81 116.279 102.488ZM114.753 102.661V102.488C114.753 102.045 114.707 101.63 114.614 101.241C114.521 100.848 114.376 100.503 114.179 100.208C113.988 99.907 113.742 99.6718 113.441 99.5023C113.14 99.3273 112.782 99.2398 112.366 99.2398C111.984 99.2398 111.65 99.3054 111.366 99.4367C111.087 99.5679 110.849 99.7457 110.652 99.9699C110.455 100.189 110.294 100.44 110.168 100.725C110.048 101.003 109.957 101.293 109.897 101.594V103.719C110.007 104.102 110.16 104.462 110.357 104.802C110.553 105.135 110.816 105.406 111.144 105.614C111.472 105.816 111.885 105.917 112.383 105.917C112.793 105.917 113.146 105.832 113.441 105.663C113.742 105.488 113.988 105.25 114.179 104.949C114.376 104.648 114.521 104.304 114.614 103.916C114.707 103.522 114.753 103.103 114.753 102.661ZM121.898 107.164C121.28 107.164 120.72 107.06 120.217 106.852C119.719 106.639 119.29 106.341 118.929 105.958C118.573 105.575 118.3 105.121 118.109 104.596C117.917 104.071 117.821 103.497 117.821 102.874V102.529C117.821 101.807 117.928 101.165 118.141 100.602C118.355 100.033 118.644 99.5515 119.011 99.1578C119.377 98.764 119.793 98.466 120.258 98.2636C120.723 98.0613 121.204 97.9601 121.702 97.9601C122.336 97.9601 122.883 98.0695 123.342 98.2882C123.807 98.507 124.187 98.8132 124.482 99.207C124.778 99.5953 124.996 100.055 125.139 100.585C125.281 101.11 125.352 101.684 125.352 102.308V102.989H118.724V101.75H123.834V101.635C123.812 101.241 123.73 100.859 123.588 100.487C123.452 100.115 123.233 99.8086 122.932 99.5679C122.631 99.3273 122.221 99.207 121.702 99.207C121.357 99.207 121.04 99.2808 120.75 99.4285C120.46 99.5707 120.211 99.7839 120.003 100.068C119.796 100.353 119.634 100.7 119.519 101.11C119.405 101.52 119.347 101.993 119.347 102.529V102.874C119.347 103.295 119.405 103.691 119.519 104.063C119.64 104.43 119.812 104.752 120.036 105.031C120.266 105.31 120.542 105.529 120.865 105.687C121.193 105.846 121.565 105.925 121.98 105.925C122.516 105.925 122.97 105.816 123.342 105.597C123.714 105.378 124.039 105.086 124.318 104.719L125.237 105.45C125.046 105.739 124.802 106.016 124.507 106.278C124.212 106.541 123.848 106.754 123.416 106.918C122.989 107.082 122.484 107.164 121.898 107.164ZM128.641 99.5187V107H127.124V98.1242H128.6L128.641 99.5187ZM131.414 98.075L131.406 99.4859C131.28 99.4586 131.16 99.4422 131.045 99.4367C130.935 99.4257 130.81 99.4203 130.668 99.4203C130.318 99.4203 130.009 99.475 129.741 99.5843C129.473 99.6937 129.246 99.8468 129.06 100.044C128.874 100.241 128.726 100.476 128.617 100.749C128.513 101.017 128.444 101.312 128.412 101.635L127.985 101.881C127.985 101.345 128.037 100.842 128.141 100.372C128.25 99.9015 128.417 99.4859 128.641 99.125C128.866 98.7586 129.15 98.4742 129.494 98.2718C129.844 98.064 130.26 97.9601 130.741 97.9601C130.851 97.9601 130.977 97.9738 131.119 98.0011C131.261 98.023 131.359 98.0476 131.414 98.075ZM143.579 103.981C143.579 103.702 143.535 103.456 143.448 103.243C143.366 103.024 143.218 102.827 143.005 102.652C142.797 102.477 142.507 102.311 142.135 102.152C141.769 101.993 141.304 101.832 140.741 101.668C140.15 101.493 139.617 101.299 139.141 101.086C138.666 100.867 138.258 100.618 137.919 100.339C137.58 100.06 137.32 99.7402 137.14 99.3793C136.959 99.0183 136.869 98.6054 136.869 98.1406C136.869 97.6757 136.965 97.2464 137.156 96.8527C137.348 96.459 137.621 96.1172 137.977 95.8273C138.337 95.532 138.767 95.3023 139.264 95.1382C139.762 94.9742 140.317 94.8922 140.93 94.8922C141.827 94.8922 142.587 95.0644 143.21 95.409C143.839 95.748 144.318 96.1937 144.646 96.7461C144.974 97.2929 145.138 97.8781 145.138 98.5015H143.563C143.563 98.0531 143.467 97.6566 143.276 97.3121C143.084 96.9621 142.794 96.6886 142.406 96.4918C142.018 96.2894 141.526 96.1882 140.93 96.1882C140.366 96.1882 139.902 96.273 139.535 96.4425C139.169 96.6121 138.895 96.8418 138.715 97.1316C138.54 97.4214 138.452 97.7523 138.452 98.1242C138.452 98.3757 138.504 98.6054 138.608 98.8132C138.718 99.0156 138.884 99.2043 139.109 99.3793C139.338 99.5543 139.628 99.7156 139.978 99.8632C140.334 100.011 140.757 100.153 141.25 100.29C141.928 100.481 142.513 100.694 143.005 100.93C143.497 101.165 143.902 101.43 144.219 101.725C144.542 102.015 144.78 102.346 144.933 102.718C145.091 103.084 145.171 103.5 145.171 103.965C145.171 104.452 145.072 104.892 144.875 105.286C144.678 105.679 144.397 106.016 144.03 106.294C143.664 106.573 143.224 106.789 142.71 106.943C142.201 107.09 141.632 107.164 141.003 107.164C140.451 107.164 139.907 107.087 139.371 106.934C138.841 106.781 138.357 106.552 137.919 106.245C137.487 105.939 137.14 105.562 136.877 105.113C136.62 104.659 136.492 104.134 136.492 103.538H138.067C138.067 103.948 138.146 104.301 138.305 104.596C138.463 104.886 138.679 105.127 138.953 105.318C139.232 105.51 139.546 105.652 139.896 105.745C140.252 105.832 140.621 105.876 141.003 105.876C141.556 105.876 142.023 105.8 142.406 105.646C142.789 105.493 143.079 105.275 143.276 104.99C143.478 104.706 143.579 104.369 143.579 103.981ZM150.675 98.1242V99.289H145.876V98.1242H150.675ZM147.5 95.9668H149.018V104.802C149.018 105.102 149.064 105.329 149.157 105.482C149.25 105.636 149.371 105.737 149.518 105.786C149.666 105.835 149.825 105.86 149.994 105.86C150.12 105.86 150.251 105.849 150.388 105.827C150.53 105.8 150.637 105.778 150.708 105.761L150.716 107C150.596 107.038 150.437 107.074 150.24 107.107C150.049 107.145 149.816 107.164 149.543 107.164C149.171 107.164 148.829 107.09 148.518 106.943C148.206 106.795 147.957 106.549 147.771 106.204C147.591 105.854 147.5 105.384 147.5 104.793V95.9668ZM157.885 104.949V98.1242H159.411V107H157.959L157.885 104.949ZM158.173 103.079L158.804 103.062C158.804 103.653 158.741 104.2 158.616 104.703C158.495 105.201 158.298 105.633 158.025 105.999C157.752 106.366 157.393 106.653 156.95 106.861C156.507 107.063 155.969 107.164 155.334 107.164C154.902 107.164 154.506 107.101 154.145 106.975C153.789 106.85 153.483 106.655 153.226 106.393C152.969 106.13 152.769 105.789 152.627 105.368C152.491 104.946 152.422 104.441 152.422 103.85V98.1242H153.94V103.866C153.94 104.266 153.984 104.596 154.071 104.859C154.164 105.116 154.287 105.321 154.44 105.474C154.599 105.622 154.774 105.726 154.965 105.786C155.162 105.846 155.364 105.876 155.572 105.876C156.218 105.876 156.729 105.753 157.106 105.507C157.484 105.255 157.754 104.919 157.918 104.498C158.088 104.071 158.173 103.598 158.173 103.079ZM167.319 105.277V94.4H168.845V107H167.45L167.319 105.277ZM161.347 102.661V102.488C161.347 101.81 161.429 101.195 161.593 100.643C161.763 100.085 162.001 99.6062 162.307 99.207C162.619 98.8078 162.988 98.5015 163.414 98.2882C163.846 98.0695 164.328 97.9601 164.858 97.9601C165.416 97.9601 165.903 98.0586 166.318 98.2554C166.739 98.4468 167.095 98.7285 167.385 99.1004C167.68 99.4668 167.912 99.9097 168.082 100.429C168.251 100.949 168.369 101.537 168.435 102.193V102.948C168.375 103.598 168.257 104.184 168.082 104.703C167.912 105.223 167.68 105.666 167.385 106.032C167.095 106.398 166.739 106.68 166.318 106.877C165.897 107.068 165.405 107.164 164.842 107.164C164.322 107.164 163.846 107.052 163.414 106.828C162.988 106.603 162.619 106.289 162.307 105.884C162.001 105.48 161.763 105.004 161.593 104.457C161.429 103.905 161.347 103.306 161.347 102.661ZM162.873 102.488V102.661C162.873 103.103 162.917 103.519 163.004 103.907C163.097 104.296 163.239 104.637 163.431 104.933C163.622 105.228 163.866 105.461 164.161 105.63C164.456 105.794 164.809 105.876 165.219 105.876C165.722 105.876 166.135 105.769 166.458 105.556C166.786 105.343 167.048 105.061 167.245 104.711C167.442 104.361 167.595 103.981 167.705 103.571V101.594C167.639 101.293 167.543 101.003 167.418 100.725C167.297 100.44 167.139 100.189 166.942 99.9699C166.75 99.7457 166.512 99.5679 166.228 99.4367C165.949 99.3054 165.618 99.2398 165.235 99.2398C164.82 99.2398 164.462 99.3273 164.161 99.5023C163.866 99.6718 163.622 99.907 163.431 100.208C163.239 100.503 163.097 100.848 163.004 101.241C162.917 101.63 162.873 102.045 162.873 102.488ZM174.891 107.164C174.273 107.164 173.712 107.06 173.209 106.852C172.711 106.639 172.282 106.341 171.921 105.958C171.566 105.575 171.292 105.121 171.101 104.596C170.909 104.071 170.814 103.497 170.814 102.874V102.529C170.814 101.807 170.92 101.165 171.134 100.602C171.347 100.033 171.637 99.5515 172.003 99.1578C172.369 98.764 172.785 98.466 173.25 98.2636C173.715 98.0613 174.196 97.9601 174.694 97.9601C175.328 97.9601 175.875 98.0695 176.334 98.2882C176.799 98.507 177.179 98.8132 177.475 99.207C177.77 99.5953 177.989 100.055 178.131 100.585C178.273 101.11 178.344 101.684 178.344 102.308V102.989H171.716V101.75H176.826V101.635C176.805 101.241 176.723 100.859 176.58 100.487C176.444 100.115 176.225 99.8086 175.924 99.5679C175.623 99.3273 175.213 99.207 174.694 99.207C174.349 99.207 174.032 99.2808 173.742 99.4285C173.452 99.5707 173.203 99.7839 172.996 100.068C172.788 100.353 172.627 100.7 172.512 101.11C172.397 101.52 172.339 101.993 172.339 102.529V102.874C172.339 103.295 172.397 103.691 172.512 104.063C172.632 104.43 172.804 104.752 173.028 105.031C173.258 105.31 173.534 105.529 173.857 105.687C174.185 105.846 174.557 105.925 174.973 105.925C175.509 105.925 175.962 105.816 176.334 105.597C176.706 105.378 177.032 105.086 177.31 104.719L178.229 105.45C178.038 105.739 177.794 106.016 177.499 106.278C177.204 106.541 176.84 106.754 176.408 106.918C175.982 107.082 175.476 107.164 174.891 107.164ZM181.634 100.019V107H180.116V98.1242H181.551L181.634 100.019ZM181.273 102.226L180.641 102.201C180.646 101.594 180.737 101.034 180.912 100.519C181.087 100 181.333 99.5488 181.65 99.166C181.967 98.7832 182.344 98.4879 182.782 98.28C183.225 98.0668 183.714 97.9601 184.25 97.9601C184.688 97.9601 185.082 98.0203 185.432 98.1406C185.782 98.2554 186.08 98.4414 186.326 98.6984C186.577 98.9554 186.769 99.289 186.9 99.6992C187.031 100.104 187.097 100.599 187.097 101.184V107H185.571V101.168C185.571 100.703 185.503 100.331 185.366 100.052C185.229 99.7675 185.03 99.5625 184.767 99.4367C184.505 99.3054 184.182 99.2398 183.799 99.2398C183.422 99.2398 183.077 99.3191 182.766 99.4777C182.459 99.6363 182.194 99.855 181.97 100.134C181.751 100.413 181.579 100.733 181.453 101.094C181.333 101.449 181.273 101.827 181.273 102.226ZM193.118 98.1242V99.289H188.319V98.1242H193.118ZM189.943 95.9668H191.461V104.802C191.461 105.102 191.507 105.329 191.6 105.482C191.693 105.636 191.814 105.737 191.961 105.786C192.109 105.835 192.268 105.86 192.437 105.86C192.563 105.86 192.694 105.849 192.831 105.827C192.973 105.8 193.08 105.778 193.151 105.761L193.159 107C193.039 107.038 192.88 107.074 192.683 107.107C192.492 107.145 192.259 107.164 191.986 107.164C191.614 107.164 191.272 107.09 190.96 106.943C190.649 106.795 190.4 106.549 190.214 106.204C190.034 105.854 189.943 105.384 189.943 104.793V95.9668ZM206.505 103.202H208.08C207.998 103.957 207.782 104.632 207.432 105.228C207.082 105.824 206.587 106.297 205.948 106.647C205.308 106.992 204.509 107.164 203.552 107.164C202.852 107.164 202.215 107.033 201.641 106.77C201.072 106.508 200.583 106.136 200.173 105.655C199.762 105.168 199.445 104.586 199.221 103.907C199.002 103.224 198.893 102.464 198.893 101.627V100.437C198.893 99.6007 199.002 98.8433 199.221 98.1652C199.445 97.4816 199.765 96.8965 200.181 96.4097C200.602 95.923 201.108 95.5484 201.698 95.2859C202.289 95.0234 202.953 94.8922 203.692 94.8922C204.594 94.8922 205.357 95.0617 205.98 95.4007C206.604 95.7398 207.088 96.2101 207.432 96.8117C207.782 97.4078 207.998 98.0996 208.08 98.8871H206.505C206.429 98.3293 206.287 97.8507 206.079 97.4515C205.871 97.0468 205.576 96.7351 205.193 96.5164C204.81 96.2976 204.31 96.1882 203.692 96.1882C203.161 96.1882 202.694 96.2894 202.289 96.4918C201.89 96.6941 201.553 96.9812 201.28 97.3531C201.012 97.725 200.81 98.1707 200.673 98.6902C200.536 99.2097 200.468 99.7867 200.468 100.421V101.627C200.468 102.212 200.528 102.762 200.648 103.276C200.774 103.79 200.963 104.241 201.214 104.629C201.466 105.018 201.786 105.324 202.174 105.548C202.562 105.767 203.022 105.876 203.552 105.876C204.225 105.876 204.761 105.769 205.16 105.556C205.559 105.343 205.86 105.037 206.062 104.637C206.27 104.238 206.418 103.76 206.505 103.202ZM211.657 94.4V107H210.131V94.4H211.657ZM219.524 104.949V98.1242H221.05V107H219.598L219.524 104.949ZM219.811 103.079L220.442 103.062C220.442 103.653 220.38 104.2 220.254 104.703C220.134 105.201 219.937 105.633 219.663 105.999C219.39 106.366 219.032 106.653 218.589 106.861C218.146 107.063 217.607 107.164 216.973 107.164C216.541 107.164 216.144 107.101 215.783 106.975C215.428 106.85 215.121 106.655 214.864 106.393C214.607 106.13 214.408 105.789 214.266 105.368C214.129 104.946 214.06 104.441 214.06 103.85V98.1242H215.578V103.866C215.578 104.266 215.622 104.596 215.709 104.859C215.802 105.116 215.925 105.321 216.078 105.474C216.237 105.622 216.412 105.726 216.603 105.786C216.8 105.846 217.003 105.876 217.21 105.876C217.856 105.876 218.367 105.753 218.744 105.507C219.122 105.255 219.392 104.919 219.557 104.498C219.726 104.071 219.811 103.598 219.811 103.079ZM223.355 94.4H224.88V105.277L224.749 107H223.355V94.4ZM230.877 102.488V102.661C230.877 103.306 230.8 103.905 230.647 104.457C230.494 105.004 230.27 105.48 229.975 105.884C229.679 106.289 229.318 106.603 228.892 106.828C228.465 107.052 227.976 107.164 227.423 107.164C226.86 107.164 226.365 107.068 225.939 106.877C225.517 106.68 225.162 106.398 224.872 106.032C224.582 105.666 224.35 105.223 224.175 104.703C224.005 104.184 223.888 103.598 223.822 102.948V102.193C223.888 101.537 224.005 100.949 224.175 100.429C224.35 99.9097 224.582 99.4668 224.872 99.1004C225.162 98.7285 225.517 98.4468 225.939 98.2554C226.36 98.0586 226.849 97.9601 227.407 97.9601C227.965 97.9601 228.46 98.0695 228.892 98.2882C229.324 98.5015 229.685 98.8078 229.975 99.207C230.27 99.6062 230.494 100.085 230.647 100.643C230.8 101.195 230.877 101.81 230.877 102.488ZM229.351 102.661V102.488C229.351 102.045 229.31 101.63 229.228 101.241C229.146 100.848 229.015 100.503 228.834 100.208C228.654 99.907 228.416 99.6718 228.121 99.5023C227.825 99.3273 227.462 99.2398 227.03 99.2398C226.647 99.2398 226.313 99.3054 226.029 99.4367C225.75 99.5679 225.512 99.7457 225.315 99.9699C225.118 100.189 224.957 100.44 224.831 100.725C224.711 101.003 224.621 101.293 224.56 101.594V103.571C224.648 103.954 224.79 104.323 224.987 104.678C225.189 105.028 225.457 105.316 225.791 105.54C226.13 105.764 226.548 105.876 227.046 105.876C227.456 105.876 227.806 105.794 228.096 105.63C228.391 105.461 228.629 105.228 228.81 104.933C228.996 104.637 229.132 104.296 229.22 103.907C229.307 103.519 229.351 103.103 229.351 102.661Z" fill="#656C73"/>
<path d="M99.2552 64.5879L109.663 58.6063C110.839 57.9307 111.697 56.8179 112.049 55.5127C112.4 54.2075 112.216 52.8168 111.537 51.6466C110.858 50.4764 109.74 49.6225 108.428 49.2727C107.116 48.923 105.719 49.1061 104.543 49.7817L86.5607 60.1162L99.2552 64.5879Z" fill="#EA4335"/>
<path d="M107.097 79.9511C108.223 79.9509 109.318 79.581 110.212 78.8989C111.106 78.2168 111.748 77.2605 112.041 76.1781C112.333 75.0957 112.258 73.9476 111.828 72.9117C111.398 71.8758 110.637 71.0099 109.662 70.4481L91.6805 60.1162C90.5044 59.4406 89.1068 59.2576 87.7951 59.6073C86.4833 59.9571 85.3649 60.811 84.686 61.9812C84.007 63.1514 83.823 64.5421 84.1745 65.8473C84.526 67.1524 85.3842 68.2652 86.5603 68.9408L104.542 79.2674C105.318 79.7156 106.2 79.9515 107.097 79.9511Z" fill="#4285F4"/>
<path d="M124.983 79.951C125.881 79.9514 126.762 79.7155 127.538 79.2674L145.507 68.9407L132.985 64.374L122.426 70.4454C121.451 71.0072 120.69 71.8731 120.26 72.909C119.83 73.9449 119.755 75.093 120.048 76.1754C120.34 77.2578 120.982 78.2141 121.876 78.8962C122.77 79.5783 123.865 79.9481 124.991 79.9484L124.983 79.951Z" fill="#FBBC04"/>
<path d="M142.952 69.6221C144.078 69.6218 145.173 69.2519 146.067 68.5698C146.96 67.8877 147.603 66.9314 147.895 65.849C148.188 64.7666 148.113 63.6186 147.683 62.5827C147.253 61.5468 146.492 60.6808 145.517 60.119L127.538 49.7871C126.955 49.4207 126.303 49.1752 125.622 49.0655C124.942 48.9558 124.246 48.9841 123.576 49.1486C122.906 49.3132 122.277 49.6107 121.726 50.0232C121.175 50.4357 120.713 50.9548 120.368 51.5492C120.024 52.1437 119.804 52.8013 119.721 53.4826C119.638 54.1639 119.694 54.8548 119.886 55.5139C120.078 56.173 120.402 56.7866 120.839 57.3181C121.275 57.8495 121.815 58.2877 122.426 58.6065L140.405 68.9357C141.179 69.3824 142.057 69.6191 142.952 69.6221Z" fill="#0F9D58"/>
<path d="M43.925 121.661V122.519H39.6156V121.661H43.925ZM39.7797 118.237V126.2H38.7242V118.237H39.7797ZM44.8437 118.237V126.2H43.7937V118.237H44.8437ZM51.5265 123.668H52.5765C52.5219 124.171 52.3778 124.621 52.1445 125.019C51.9112 125.416 51.5812 125.731 51.1547 125.965C50.7281 126.194 50.1958 126.309 49.5578 126.309C49.0911 126.309 48.6664 126.222 48.2836 126.047C47.9044 125.872 47.5781 125.624 47.3047 125.303C47.0312 124.979 46.8198 124.59 46.6703 124.138C46.5245 123.682 46.4515 123.176 46.4515 122.618V121.825C46.4515 121.267 46.5245 120.762 46.6703 120.31C46.8198 119.854 47.0331 119.464 47.3101 119.14C47.5909 118.815 47.9281 118.566 48.3219 118.391C48.7156 118.216 49.1586 118.128 49.6508 118.128C50.2523 118.128 50.7609 118.241 51.1765 118.467C51.5922 118.693 51.9148 119.007 52.1445 119.408C52.3778 119.805 52.5219 120.266 52.5765 120.791H51.5265C51.4755 120.419 51.3807 120.1 51.2422 119.834C51.1036 119.565 50.9068 119.357 50.6515 119.211C50.3963 119.065 50.0627 118.992 49.6508 118.992C49.2971 118.992 48.9854 119.06 48.7156 119.194C48.4495 119.329 48.2252 119.521 48.043 119.769C47.8643 120.017 47.7294 120.314 47.6383 120.66C47.5471 121.006 47.5015 121.391 47.5015 121.814V122.618C47.5015 123.008 47.5417 123.374 47.6219 123.717C47.7057 124.06 47.8315 124.361 47.9992 124.619C48.1669 124.878 48.3802 125.082 48.639 125.232C48.8979 125.378 49.2042 125.451 49.5578 125.451C50.0062 125.451 50.3635 125.38 50.6297 125.237C50.8958 125.095 51.0963 124.891 51.2312 124.625C51.3698 124.359 51.4682 124.04 51.5265 123.668ZM54.3484 118.237H55.3711L57.9797 124.729L60.5828 118.237H61.6109L58.3734 126.2H57.575L54.3484 118.237ZM54.0148 118.237H54.9172L55.0648 123.094V126.2H54.0148V118.237ZM61.0367 118.237H61.939V126.2H60.889V123.094L61.0367 118.237ZM68.6 123.668H69.65C69.5953 124.171 69.4513 124.621 69.2179 125.019C68.9846 125.416 68.6547 125.731 68.2281 125.965C67.8015 126.194 67.2692 126.309 66.6312 126.309C66.1646 126.309 65.7398 126.222 65.357 126.047C64.9778 125.872 64.6515 125.624 64.3781 125.303C64.1047 124.979 63.8932 124.59 63.7437 124.138C63.5979 123.682 63.525 123.176 63.525 122.618V121.825C63.525 121.267 63.5979 120.762 63.7437 120.31C63.8932 119.854 64.1065 119.464 64.3836 119.14C64.6643 118.815 65.0015 118.566 65.3953 118.391C65.789 118.216 66.232 118.128 66.7242 118.128C67.3258 118.128 67.8344 118.241 68.25 118.467C68.6656 118.693 68.9883 119.007 69.2179 119.408C69.4513 119.805 69.5953 120.266 69.65 120.791H68.6C68.5489 120.419 68.4541 120.1 68.3156 119.834C68.1771 119.565 67.9802 119.357 67.725 119.211C67.4698 119.065 67.1362 118.992 66.7242 118.992C66.3706 118.992 66.0588 119.06 65.789 119.194C65.5229 119.329 65.2987 119.521 65.1164 119.769C64.9377 120.017 64.8028 120.314 64.7117 120.66C64.6206 121.006 64.575 121.391 64.575 121.814V122.618C64.575 123.008 64.6151 123.374 64.6953 123.717C64.7791 124.06 64.9049 124.361 65.0726 124.619C65.2403 124.878 65.4536 125.082 65.7125 125.232C65.9713 125.378 66.2776 125.451 66.6312 125.451C67.0797 125.451 67.437 125.38 67.7031 125.237C67.9692 125.095 68.1698 124.891 68.3047 124.625C68.4432 124.359 68.5416 124.04 68.6 123.668ZM78.4219 118.237H79.4719V123.624C79.4719 124.222 79.3388 124.72 79.0726 125.117C78.8065 125.515 78.4528 125.813 78.0117 126.014C77.5742 126.211 77.0984 126.309 76.5844 126.309C76.0448 126.309 75.5562 126.211 75.1187 126.014C74.6849 125.813 74.3403 125.515 74.0851 125.117C73.8336 124.72 73.7078 124.222 73.7078 123.624V118.237H74.7523V123.624C74.7523 124.04 74.8289 124.382 74.982 124.652C75.1351 124.922 75.3484 125.123 75.6219 125.254C75.8989 125.385 76.2198 125.451 76.5844 125.451C76.9526 125.451 77.2734 125.385 77.5469 125.254C77.8239 125.123 78.039 124.922 78.1922 124.652C78.3453 124.382 78.4219 124.04 78.4219 123.624V118.237ZM81.9875 121.546V126.2H80.9758V120.283H81.9328L81.9875 121.546ZM81.7468 123.017L81.3258 123.001C81.3294 122.596 81.3896 122.222 81.5062 121.88C81.6229 121.533 81.787 121.232 81.9984 120.977C82.2099 120.722 82.4614 120.525 82.7531 120.387C83.0484 120.244 83.3747 120.173 83.732 120.173C84.0237 120.173 84.2862 120.213 84.5195 120.294C84.7528 120.37 84.9515 120.494 85.1156 120.666C85.2833 120.837 85.4109 121.059 85.4984 121.333C85.5859 121.603 85.6297 121.932 85.6297 122.323V126.2H84.6125V122.312C84.6125 122.002 84.5669 121.754 84.4758 121.568C84.3846 121.378 84.2515 121.242 84.0765 121.158C83.9015 121.07 83.6864 121.027 83.4312 121.027C83.1797 121.027 82.95 121.079 82.7422 121.185C82.538 121.291 82.3612 121.437 82.2117 121.623C82.0659 121.809 81.951 122.022 81.8672 122.262C81.787 122.499 81.7468 122.751 81.7468 123.017ZM88.2656 120.283V126.2H87.2484V120.283H88.2656ZM87.1718 118.713C87.1718 118.549 87.2211 118.411 87.3195 118.298C87.4216 118.185 87.5711 118.128 87.7679 118.128C87.9612 118.128 88.1088 118.185 88.2109 118.298C88.3166 118.411 88.3695 118.549 88.3695 118.713C88.3695 118.87 88.3166 119.005 88.2109 119.118C88.1088 119.227 87.9612 119.282 87.7679 119.282C87.5711 119.282 87.4216 119.227 87.3195 119.118C87.2211 119.005 87.1718 118.87 87.1718 118.713ZM91.689 125.287L93.3078 120.283H94.3414L92.214 126.2H91.5359L91.689 125.287ZM90.3383 120.283L92.0062 125.314L92.1211 126.2H91.4429L89.2992 120.283H90.3383ZM97.6937 126.309C97.2817 126.309 96.908 126.24 96.5726 126.102C96.2409 125.959 95.9547 125.761 95.714 125.505C95.4771 125.25 95.2948 124.948 95.1672 124.598C95.0396 124.248 94.9757 123.865 94.9757 123.449V123.219C94.9757 122.738 95.0468 122.31 95.189 121.934C95.3312 121.555 95.5244 121.234 95.7687 120.972C96.013 120.709 96.2901 120.511 96.6 120.376C96.9099 120.241 97.2307 120.173 97.5625 120.173C97.9854 120.173 98.35 120.246 98.6562 120.392C98.9661 120.538 99.2195 120.742 99.4164 121.005C99.6132 121.263 99.7591 121.57 99.8539 121.923C99.9487 122.273 99.9961 122.656 99.9961 123.072V123.526H95.5773V122.7H98.9843V122.623C98.9698 122.361 98.9151 122.106 98.8203 121.858C98.7291 121.61 98.5833 121.406 98.3828 121.245C98.1823 121.085 97.9088 121.005 97.5625 121.005C97.3328 121.005 97.1213 121.054 96.9281 121.152C96.7349 121.247 96.569 121.389 96.4304 121.579C96.2919 121.768 96.1843 122 96.1078 122.273C96.0312 122.547 95.9929 122.862 95.9929 123.219V123.449C95.9929 123.73 96.0312 123.994 96.1078 124.242C96.188 124.486 96.3028 124.702 96.4523 124.887C96.6054 125.073 96.7896 125.219 97.0047 125.325C97.2234 125.431 97.4713 125.484 97.7484 125.484C98.1057 125.484 98.4083 125.411 98.6562 125.265C98.9041 125.119 99.1211 124.924 99.307 124.68L99.9195 125.166C99.7919 125.36 99.6297 125.544 99.4328 125.719C99.2359 125.894 98.9935 126.036 98.7054 126.145C98.4211 126.255 98.0838 126.309 97.6937 126.309ZM102.189 121.212V126.2H101.177V120.283H102.162L102.189 121.212ZM104.037 120.25L104.032 121.191C103.948 121.172 103.868 121.161 103.791 121.158C103.718 121.15 103.635 121.147 103.54 121.147C103.306 121.147 103.1 121.183 102.922 121.256C102.743 121.329 102.592 121.431 102.468 121.562C102.344 121.694 102.246 121.85 102.173 122.033C102.103 122.211 102.058 122.408 102.036 122.623L101.752 122.787C101.752 122.43 101.786 122.095 101.855 121.781C101.928 121.468 102.04 121.191 102.189 120.95C102.339 120.706 102.528 120.516 102.758 120.381C102.991 120.243 103.268 120.173 103.589 120.173C103.662 120.173 103.746 120.182 103.841 120.201C103.935 120.215 104.001 120.232 104.037 120.25ZM108.418 124.63C108.418 124.485 108.385 124.35 108.319 124.226C108.258 124.098 108.128 123.983 107.931 123.881C107.738 123.775 107.446 123.684 107.056 123.608C106.728 123.538 106.431 123.456 106.165 123.362C105.902 123.267 105.678 123.152 105.492 123.017C105.31 122.882 105.169 122.724 105.071 122.541C104.973 122.359 104.923 122.146 104.923 121.902C104.923 121.668 104.974 121.448 105.077 121.24C105.182 121.032 105.33 120.848 105.519 120.687C105.713 120.527 105.944 120.401 106.214 120.31C106.484 120.219 106.785 120.173 107.116 120.173C107.59 120.173 107.995 120.257 108.33 120.425C108.666 120.593 108.923 120.817 109.102 121.098C109.28 121.375 109.369 121.683 109.369 122.022H108.358C108.358 121.858 108.309 121.699 108.21 121.546C108.115 121.389 107.975 121.26 107.789 121.158C107.607 121.056 107.383 121.005 107.116 121.005C106.836 121.005 106.608 121.048 106.433 121.136C106.261 121.22 106.136 121.327 106.055 121.459C105.979 121.59 105.941 121.728 105.941 121.874C105.941 121.984 105.959 122.082 105.995 122.169C106.035 122.253 106.105 122.332 106.203 122.405C106.302 122.474 106.44 122.54 106.619 122.602C106.797 122.663 107.025 122.725 107.302 122.787C107.787 122.897 108.186 123.028 108.5 123.181C108.814 123.334 109.047 123.522 109.2 123.744C109.353 123.967 109.43 124.237 109.43 124.554C109.43 124.813 109.375 125.05 109.266 125.265C109.16 125.48 109.005 125.666 108.801 125.823C108.6 125.976 108.36 126.096 108.079 126.184C107.802 126.267 107.49 126.309 107.144 126.309C106.622 126.309 106.181 126.216 105.82 126.03C105.459 125.844 105.186 125.604 105 125.309C104.814 125.013 104.721 124.702 104.721 124.373H105.738C105.753 124.65 105.833 124.871 105.979 125.035C106.125 125.196 106.303 125.31 106.515 125.38C106.726 125.445 106.936 125.478 107.144 125.478C107.421 125.478 107.652 125.442 107.838 125.369C108.028 125.296 108.172 125.196 108.27 125.068C108.369 124.94 108.418 124.794 108.418 124.63ZM111.858 120.283V126.2H110.841V120.283H111.858ZM110.764 118.713C110.764 118.549 110.813 118.411 110.912 118.298C111.014 118.185 111.163 118.128 111.36 118.128C111.553 118.128 111.701 118.185 111.803 118.298C111.909 118.411 111.962 118.549 111.962 118.713C111.962 118.87 111.909 119.005 111.803 119.118C111.701 119.227 111.553 119.282 111.36 119.282C111.163 119.282 111.014 119.227 110.912 119.118C110.813 119.005 110.764 118.87 110.764 118.713ZM115.959 120.283V121.059H112.76V120.283H115.959ZM113.843 118.844H114.855V124.734C114.855 124.935 114.886 125.086 114.948 125.188C115.01 125.29 115.09 125.358 115.188 125.391C115.287 125.423 115.392 125.44 115.505 125.44C115.589 125.44 115.677 125.432 115.768 125.418C115.863 125.4 115.934 125.385 115.981 125.374L115.987 126.2C115.906 126.225 115.801 126.249 115.669 126.271C115.542 126.297 115.387 126.309 115.205 126.309C114.957 126.309 114.729 126.26 114.521 126.162C114.313 126.063 114.147 125.899 114.023 125.669C113.903 125.436 113.843 125.123 113.843 124.729V118.844ZM118.809 125.587L120.455 120.283H121.537L119.164 127.113C119.109 127.259 119.036 127.416 118.945 127.584C118.858 127.755 118.745 127.917 118.606 128.07C118.468 128.223 118.3 128.347 118.103 128.442C117.91 128.541 117.678 128.59 117.409 128.59C117.328 128.59 117.226 128.579 117.102 128.557C116.978 128.535 116.891 128.517 116.84 128.502L116.834 127.682C116.864 127.686 116.909 127.689 116.971 127.693C117.037 127.7 117.082 127.704 117.108 127.704C117.337 127.704 117.533 127.673 117.693 127.611C117.853 127.553 117.988 127.452 118.098 127.31C118.211 127.172 118.307 126.98 118.387 126.736L118.809 125.587ZM117.6 120.283L119.137 124.877L119.399 125.943L118.672 126.315L116.495 120.283H117.6ZM124.961 123.307V123.181C124.961 122.755 125.023 122.359 125.147 121.994C125.271 121.626 125.449 121.307 125.683 121.037C125.916 120.764 126.199 120.553 126.53 120.403C126.862 120.25 127.234 120.173 127.646 120.173C128.062 120.173 128.435 120.25 128.767 120.403C129.103 120.553 129.387 120.764 129.62 121.037C129.857 121.307 130.038 121.626 130.162 121.994C130.286 122.359 130.348 122.755 130.348 123.181V123.307C130.348 123.734 130.286 124.129 130.162 124.494C130.038 124.858 129.857 125.177 129.62 125.451C129.387 125.721 129.104 125.932 128.773 126.085C128.444 126.235 128.073 126.309 127.657 126.309C127.241 126.309 126.868 126.235 126.536 126.085C126.204 125.932 125.92 125.721 125.683 125.451C125.449 125.177 125.271 124.858 125.147 124.494C125.023 124.129 124.961 123.734 124.961 123.307ZM125.973 123.181V123.307C125.973 123.602 126.007 123.881 126.077 124.144C126.146 124.403 126.25 124.632 126.388 124.833C126.53 125.033 126.707 125.192 126.919 125.309C127.13 125.422 127.376 125.478 127.657 125.478C127.934 125.478 128.177 125.422 128.384 125.309C128.596 125.192 128.771 125.033 128.909 124.833C129.048 124.632 129.152 124.403 129.221 124.144C129.294 123.881 129.33 123.602 129.33 123.307V123.181C129.33 122.89 129.294 122.614 129.221 122.355C129.152 122.093 129.046 121.861 128.904 121.661C128.765 121.457 128.59 121.296 128.379 121.18C128.171 121.063 127.927 121.005 127.646 121.005C127.369 121.005 127.125 121.063 126.913 121.18C126.705 121.296 126.53 121.457 126.388 121.661C126.25 121.861 126.146 122.093 126.077 122.355C126.007 122.614 125.973 122.89 125.973 123.181ZM133.126 126.2H132.114V119.659C132.114 119.233 132.191 118.874 132.344 118.582C132.5 118.287 132.725 118.064 133.016 117.915C133.308 117.762 133.654 117.685 134.055 117.685C134.172 117.685 134.289 117.692 134.405 117.707C134.526 117.722 134.642 117.743 134.755 117.773L134.701 118.598C134.624 118.58 134.537 118.567 134.438 118.56C134.343 118.553 134.249 118.549 134.154 118.549C133.939 118.549 133.753 118.593 133.596 118.68C133.443 118.764 133.326 118.888 133.246 119.052C133.166 119.216 133.126 119.419 133.126 119.659V126.2ZM134.384 120.283V121.059H131.179V120.283H134.384ZM141.165 118.237V126.2H140.126V118.237H141.165ZM143.724 118.237V119.102H137.572V118.237H143.724ZM146.661 126.309C146.249 126.309 145.875 126.24 145.54 126.102C145.208 125.959 144.922 125.761 144.681 125.505C144.444 125.25 144.262 124.948 144.134 124.598C144.007 124.248 143.943 123.865 143.943 123.449V123.219C143.943 122.738 144.014 122.31 144.156 121.934C144.298 121.555 144.492 121.234 144.736 120.972C144.98 120.709 145.257 120.511 145.567 120.376C145.877 120.241 146.198 120.173 146.53 120.173C146.953 120.173 147.317 120.246 147.623 120.392C147.933 120.538 148.187 120.742 148.384 121.005C148.58 121.263 148.726 121.57 148.821 121.923C148.916 122.273 148.963 122.656 148.963 123.072V123.526H144.544V122.7H147.952V122.623C147.937 122.361 147.882 122.106 147.787 121.858C147.696 121.61 147.55 121.406 147.35 121.245C147.149 121.085 146.876 121.005 146.53 121.005C146.3 121.005 146.088 121.054 145.895 121.152C145.702 121.247 145.536 121.389 145.398 121.579C145.259 121.768 145.152 122 145.075 122.273C144.998 122.547 144.96 122.862 144.96 123.219V123.449C144.96 123.73 144.998 123.994 145.075 124.242C145.155 124.486 145.27 124.702 145.419 124.887C145.573 125.073 145.757 125.219 145.972 125.325C146.191 125.431 146.438 125.484 146.716 125.484C147.073 125.484 147.375 125.411 147.623 125.265C147.871 125.119 148.088 124.924 148.274 124.68L148.887 125.166C148.759 125.36 148.597 125.544 148.4 125.719C148.203 125.894 147.961 126.036 147.673 126.145C147.388 126.255 147.051 126.309 146.661 126.309ZM152.512 125.478C152.753 125.478 152.975 125.429 153.18 125.33C153.384 125.232 153.552 125.097 153.683 124.926C153.814 124.751 153.889 124.552 153.907 124.33H154.869C154.851 124.68 154.733 125.006 154.514 125.309C154.299 125.607 154.016 125.85 153.666 126.036C153.316 126.218 152.932 126.309 152.512 126.309C152.068 126.309 151.679 126.231 151.348 126.074C151.019 125.917 150.746 125.702 150.527 125.429C150.312 125.155 150.15 124.842 150.041 124.488C149.935 124.131 149.882 123.754 149.882 123.356V123.127C149.882 122.729 149.935 122.354 150.041 122C150.15 121.643 150.312 121.327 150.527 121.054C150.746 120.78 151.019 120.565 151.348 120.409C151.679 120.252 152.068 120.173 152.512 120.173C152.975 120.173 153.38 120.268 153.727 120.458C154.073 120.644 154.344 120.899 154.541 121.223C154.742 121.544 154.851 121.909 154.869 122.317H153.907C153.889 122.073 153.819 121.852 153.699 121.655C153.582 121.459 153.422 121.302 153.218 121.185C153.017 121.065 152.782 121.005 152.512 121.005C152.203 121.005 151.942 121.067 151.73 121.191C151.523 121.311 151.357 121.475 151.233 121.683C151.112 121.887 151.025 122.115 150.97 122.366C150.919 122.614 150.894 122.868 150.894 123.127V123.356C150.894 123.615 150.919 123.87 150.97 124.122C151.021 124.373 151.107 124.601 151.227 124.805C151.351 125.01 151.517 125.174 151.725 125.298C151.936 125.418 152.199 125.478 152.512 125.478ZM157.019 117.8V126.2H156.007V117.8H157.019ZM156.778 123.017L156.357 123.001C156.361 122.596 156.421 122.222 156.537 121.88C156.654 121.533 156.818 121.232 157.03 120.977C157.241 120.722 157.493 120.525 157.784 120.387C158.08 120.244 158.406 120.173 158.763 120.173C159.055 120.173 159.317 120.213 159.551 120.294C159.784 120.37 159.983 120.494 160.147 120.666C160.315 120.837 160.442 121.059 160.53 121.333C160.617 121.603 160.661 121.932 160.661 122.323V126.2H159.644V122.312C159.644 122.002 159.598 121.754 159.507 121.568C159.416 121.378 159.283 121.242 159.108 121.158C158.933 121.07 158.718 121.027 158.462 121.027C158.211 121.027 157.981 121.079 157.773 121.185C157.569 121.291 157.392 121.437 157.243 121.623C157.097 121.809 156.982 122.022 156.898 122.262C156.818 122.499 156.778 122.751 156.778 123.017ZM163.187 121.546V126.2H162.176V120.283H163.133L163.187 121.546ZM162.947 123.017L162.526 123.001C162.529 122.596 162.59 122.222 162.706 121.88C162.823 121.533 162.987 121.232 163.198 120.977C163.41 120.722 163.661 120.525 163.953 120.387C164.248 120.244 164.575 120.173 164.932 120.173C165.224 120.173 165.486 120.213 165.719 120.294C165.953 120.37 166.152 120.494 166.316 120.666C166.483 120.837 166.611 121.059 166.698 121.333C166.786 121.603 166.83 121.932 166.83 122.323V126.2H165.812V122.312C165.812 122.002 165.767 121.754 165.676 121.568C165.585 121.378 165.452 121.242 165.277 121.158C165.102 121.07 164.886 121.027 164.631 121.027C164.38 121.027 164.15 121.079 163.942 121.185C163.738 121.291 163.561 121.437 163.412 121.623C163.266 121.809 163.151 122.022 163.067 122.262C162.987 122.499 162.947 122.751 162.947 123.017ZM168.098 123.307V123.181C168.098 122.755 168.16 122.359 168.284 121.994C168.408 121.626 168.587 121.307 168.82 121.037C169.054 120.764 169.336 120.553 169.668 120.403C170 120.25 170.372 120.173 170.784 120.173C171.199 120.173 171.573 120.25 171.905 120.403C172.24 120.553 172.524 120.764 172.758 121.037C172.995 121.307 173.175 121.626 173.299 121.994C173.423 122.359 173.485 122.755 173.485 123.181V123.307C173.485 123.734 173.423 124.129 173.299 124.494C173.175 124.858 172.995 125.177 172.758 125.451C172.524 125.721 172.242 125.932 171.91 126.085C171.582 126.235 171.21 126.309 170.794 126.309C170.379 126.309 170.005 126.235 169.673 126.085C169.342 125.932 169.057 125.721 168.82 125.451C168.587 125.177 168.408 124.858 168.284 124.494C168.16 124.129 168.098 123.734 168.098 123.307ZM169.11 123.181V123.307C169.11 123.602 169.145 123.881 169.214 124.144C169.283 124.403 169.387 124.632 169.526 124.833C169.668 125.033 169.845 125.192 170.056 125.309C170.268 125.422 170.514 125.478 170.794 125.478C171.072 125.478 171.314 125.422 171.522 125.309C171.733 125.192 171.908 125.033 172.047 124.833C172.185 124.632 172.289 124.403 172.359 124.144C172.431 123.881 172.468 123.602 172.468 123.307V123.181C172.468 122.89 172.431 122.614 172.359 122.355C172.289 122.093 172.184 121.861 172.041 121.661C171.903 121.457 171.728 121.296 171.516 121.18C171.309 121.063 171.064 121.005 170.784 121.005C170.506 121.005 170.262 121.063 170.051 121.18C169.843 121.296 169.668 121.457 169.526 121.661C169.387 121.861 169.283 122.093 169.214 122.355C169.145 122.614 169.11 122.89 169.11 123.181ZM175.853 117.8V126.2H174.836V117.8H175.853ZM177.209 123.307V123.181C177.209 122.755 177.271 122.359 177.395 121.994C177.519 121.626 177.698 121.307 177.931 121.037C178.165 120.764 178.447 120.553 178.779 120.403C179.111 120.25 179.482 120.173 179.894 120.173C180.31 120.173 180.684 120.25 181.016 120.403C181.351 120.553 181.635 120.764 181.869 121.037C182.106 121.307 182.286 121.626 182.41 121.994C182.534 122.359 182.596 122.755 182.596 123.181V123.307C182.596 123.734 182.534 124.129 182.41 124.494C182.286 124.858 182.106 125.177 181.869 125.451C181.635 125.721 181.353 125.932 181.021 126.085C180.693 126.235 180.321 126.309 179.905 126.309C179.49 126.309 179.116 126.235 178.784 126.085C178.453 125.932 178.168 125.721 177.931 125.451C177.698 125.177 177.519 124.858 177.395 124.494C177.271 124.129 177.209 123.734 177.209 123.307ZM178.221 123.181V123.307C178.221 123.602 178.256 123.881 178.325 124.144C178.394 124.403 178.498 124.632 178.637 124.833C178.779 125.033 178.956 125.192 179.167 125.309C179.379 125.422 179.625 125.478 179.905 125.478C180.182 125.478 180.425 125.422 180.633 125.309C180.844 125.192 181.019 125.033 181.158 124.833C181.296 124.632 181.4 124.403 181.469 124.144C181.542 123.881 181.579 123.602 181.579 123.307V123.181C181.579 122.89 181.542 122.614 181.469 122.355C181.4 122.093 181.294 121.861 181.152 121.661C181.014 121.457 180.839 121.296 180.627 121.18C180.419 121.063 180.175 121.005 179.894 121.005C179.617 121.005 179.373 121.063 179.162 121.18C178.954 121.296 178.779 121.457 178.637 121.661C178.498 121.861 178.394 122.093 178.325 122.355C178.256 122.614 178.221 122.89 178.221 123.181ZM187.698 120.283H188.617V126.074C188.617 126.596 188.511 127.04 188.3 127.409C188.088 127.777 187.793 128.056 187.414 128.245C187.038 128.438 186.605 128.535 186.112 128.535C185.908 128.535 185.668 128.502 185.391 128.437C185.117 128.375 184.847 128.267 184.581 128.114C184.319 127.965 184.098 127.762 183.919 127.507L184.45 126.905C184.698 127.204 184.957 127.412 185.227 127.529C185.5 127.646 185.77 127.704 186.036 127.704C186.357 127.704 186.634 127.644 186.867 127.523C187.1 127.403 187.281 127.224 187.409 126.987C187.54 126.754 187.605 126.466 187.605 126.123V121.584L187.698 120.283ZM183.624 123.307V123.192C183.624 122.74 183.677 122.33 183.783 121.962C183.892 121.59 184.047 121.271 184.248 121.005C184.452 120.738 184.698 120.534 184.986 120.392C185.274 120.246 185.598 120.173 185.959 120.173C186.331 120.173 186.656 120.239 186.933 120.37C187.213 120.498 187.45 120.686 187.644 120.934C187.841 121.178 187.996 121.473 188.109 121.819C188.222 122.166 188.3 122.558 188.344 122.995V123.498C188.304 123.932 188.225 124.322 188.109 124.669C187.996 125.015 187.841 125.31 187.644 125.555C187.45 125.799 187.213 125.987 186.933 126.118C186.652 126.246 186.324 126.309 185.948 126.309C185.595 126.309 185.274 126.235 184.986 126.085C184.702 125.936 184.457 125.726 184.253 125.456C184.049 125.186 183.892 124.869 183.783 124.505C183.677 124.136 183.624 123.737 183.624 123.307ZM184.636 123.192V123.307C184.636 123.602 184.665 123.879 184.723 124.138C184.785 124.397 184.878 124.625 185.002 124.822C185.13 125.019 185.292 125.174 185.489 125.287C185.686 125.396 185.921 125.451 186.194 125.451C186.53 125.451 186.807 125.38 187.026 125.237C187.244 125.095 187.418 124.907 187.545 124.674C187.676 124.441 187.779 124.187 187.851 123.914V122.596C187.811 122.396 187.749 122.202 187.666 122.016C187.585 121.827 187.48 121.659 187.348 121.513C187.221 121.364 187.062 121.245 186.873 121.158C186.683 121.07 186.461 121.027 186.205 121.027C185.928 121.027 185.69 121.085 185.489 121.202C185.292 121.315 185.13 121.471 185.002 121.672C184.878 121.869 184.785 122.098 184.723 122.361C184.665 122.62 184.636 122.897 184.636 123.192ZM191.816 125.587L193.462 120.283H194.545L192.172 127.113C192.117 127.259 192.044 127.416 191.953 127.584C191.866 127.755 191.753 127.917 191.614 128.07C191.475 128.223 191.308 128.347 191.111 128.442C190.918 128.541 190.686 128.59 190.416 128.59C190.336 128.59 190.234 128.579 190.11 128.557C189.986 128.535 189.899 128.517 189.848 128.502L189.842 127.682C189.871 127.686 189.917 127.689 189.979 127.693C190.044 127.7 190.09 127.704 190.116 127.704C190.345 127.704 190.54 127.673 190.701 127.611C190.861 127.553 190.996 127.452 191.105 127.31C191.218 127.172 191.315 126.98 191.395 126.736L191.816 125.587ZM190.608 120.283L192.144 124.877L192.407 125.943L191.68 126.315L189.503 120.283H190.608Z" fill="#656C73"/>
</g>
<path d="M39.5234 8.86719C41.2891 8.86719 42.8164 9.1875 44.1055 9.82812C45.4023 10.4609 46.4023 11.4023 47.1055 12.6523C47.8086 13.8945 48.1602 15.4336 48.1602 17.2695C48.1602 19.1992 47.8008 20.8125 47.082 22.1094C46.3633 23.3984 45.3203 24.3711 43.9531 25.0273C42.5859 25.6758 40.9336 26 38.9961 26H34.332V18.6992H32.6211V16.3438H34.332V8.86719H39.5234ZM39.4531 11.1992H37.1328V16.3438H40.707V18.6992H37.1328V23.6445H39.043C41.1055 23.6445 42.6523 23.1172 43.6836 22.0625C44.7148 21.0078 45.2305 19.4375 45.2305 17.3516C45.2305 15.9453 45.0039 14.7891 44.5508 13.8828C44.1055 12.9766 43.4531 12.3047 42.5938 11.8672C41.7344 11.4219 40.6875 11.1992 39.4531 11.1992ZM63.0547 19.4844C63.0547 20.9141 62.8047 22.1328 62.3047 23.1406C61.8125 24.1484 61.1055 24.918 60.1836 25.4492C59.2617 25.9727 58.1641 26.2344 56.8906 26.2344C55.7109 26.2344 54.6602 25.9727 53.7383 25.4492C52.8242 24.918 52.1055 24.1484 51.582 23.1406C51.0664 22.1328 50.8086 20.9141 50.8086 19.4844C50.8086 17.3438 51.3594 15.6914 52.4609 14.5273C53.5625 13.3633 55.0664 12.7812 56.9727 12.7812C57.832 12.7812 58.6328 12.9219 59.375 13.2031C60.125 13.4844 60.7656 13.8906 61.2969 14.4219C61.7344 14.2812 62.0742 14.0547 62.3164 13.7422C62.5664 13.4297 62.7383 13.043 62.832 12.582C62.9336 12.1211 62.9844 11.6133 62.9844 11.0586H65.7734L65.9492 11.3047C65.8086 12.0625 65.6055 12.75 65.3398 13.3672C65.0742 13.9766 64.7031 14.5039 64.2266 14.9492C63.75 15.3867 63.1211 15.7266 62.3398 15.9688C62.5664 16.4531 62.7422 16.9922 62.8672 17.5859C62.9922 18.1719 63.0547 18.8047 63.0547 19.4844ZM53.6445 19.4844C53.6445 20.4609 53.7578 21.2852 53.9844 21.957C54.2109 22.6289 54.5664 23.1367 55.0508 23.4805C55.543 23.8164 56.1719 23.9844 56.9375 23.9844C57.7109 23.9844 58.3359 23.8125 58.8125 23.4688C59.2969 23.125 59.6523 22.6211 59.8789 21.957C60.1055 21.2852 60.2188 20.4609 60.2188 19.4844C60.2188 18.5156 60.1055 17.7031 59.8789 17.0469C59.6523 16.3828 59.2969 15.8828 58.8125 15.5469C58.3281 15.2109 57.6992 15.043 56.9258 15.043C55.7773 15.043 54.9414 15.418 54.418 16.168C53.9023 16.918 53.6445 18.0234 53.6445 19.4844ZM73.8242 12.7812C75.2852 12.7812 76.4219 13.1602 77.2344 13.918C78.0547 14.668 78.4648 15.875 78.4648 17.5391V26H75.7109V18.0547C75.7109 17.0469 75.5039 16.293 75.0898 15.793C74.6758 15.2852 74.0352 15.0312 73.168 15.0312C71.9102 15.0312 71.0352 15.418 70.543 16.1914C70.0586 16.9648 69.8164 18.0859 69.8164 19.5547V26H67.0625V13.0273H69.207L69.5938 14.7852H69.7461C70.0273 14.332 70.375 13.9609 70.7891 13.6719C71.2109 13.375 71.6797 13.1523 72.1953 13.0039C72.7188 12.8555 73.2617 12.7812 73.8242 12.7812ZM91.5195 26L86.5859 13.0273H89.5039L92.1758 20.6445C92.3477 21.1289 92.5039 21.6523 92.6445 22.2148C92.7852 22.7773 92.8828 23.25 92.9375 23.6328H93.0312C93.0859 23.2344 93.1914 22.7578 93.3477 22.2031C93.5039 21.6406 93.6641 21.1211 93.8281 20.6445L96.5 13.0273H99.4062L94.4727 26H91.5195ZM104.129 13.0273V26H101.375V13.0273H104.129ZM102.77 8.05859C103.191 8.05859 103.555 8.17188 103.859 8.39844C104.172 8.625 104.328 9.01562 104.328 9.57031C104.328 10.1172 104.172 10.5078 103.859 10.7422C103.555 10.9688 103.191 11.082 102.77 11.082C102.332 11.082 101.961 10.9688 101.656 10.7422C101.359 10.5078 101.211 10.1172 101.211 9.57031C101.211 9.01562 101.359 8.625 101.656 8.39844C101.961 8.17188 102.332 8.05859 102.77 8.05859ZM102.781 30.5703C102.344 30.5703 101.973 30.4531 101.668 30.2188C101.371 29.9922 101.223 29.6055 101.223 29.0586C101.223 28.5039 101.371 28.1133 101.668 27.8867C101.973 27.6602 102.344 27.5469 102.781 27.5469C103.211 27.5469 103.578 27.6602 103.883 27.8867C104.188 28.1133 104.34 28.5039 104.34 29.0586C104.34 29.6055 104.188 29.9922 103.883 30.2188C103.578 30.4531 103.211 30.5703 102.781 30.5703ZM117.066 7.76562V12.3477C117.066 12.8242 117.051 13.2891 117.02 13.7422C116.996 14.1953 116.969 14.5469 116.938 14.7969H117.09C117.363 14.3438 117.699 13.9727 118.098 13.6836C118.496 13.3867 118.941 13.1641 119.434 13.0156C119.934 12.8672 120.465 12.793 121.027 12.793C122.02 12.793 122.863 12.9609 123.559 13.2969C124.254 13.625 124.785 14.1367 125.152 14.832C125.527 15.5273 125.715 16.4297 125.715 17.5391V26H122.961V18.0547C122.961 17.0469 122.754 16.293 122.34 15.793C121.926 15.2852 121.285 15.0312 120.418 15.0312C119.582 15.0312 118.918 15.207 118.426 15.5586C117.941 15.9023 117.594 16.4141 117.383 17.0938C117.172 17.7656 117.066 18.5859 117.066 19.5547V26H114.312V7.76562H117.066ZM141.055 19.4844C141.055 20.9141 140.805 22.1328 140.305 23.1406C139.812 24.1484 139.105 24.918 138.184 25.4492C137.262 25.9727 136.164 26.2344 134.891 26.2344C133.711 26.2344 132.66 25.9727 131.738 25.4492C130.824 24.918 130.105 24.1484 129.582 23.1406C129.066 22.1328 128.809 20.9141 128.809 19.4844C128.809 17.3438 129.359 15.6914 130.461 14.5273C131.562 13.3633 133.066 12.7812 134.973 12.7812C135.832 12.7812 136.633 12.9219 137.375 13.2031C138.125 13.4844 138.766 13.8906 139.297 14.4219C139.734 14.2812 140.074 14.0547 140.316 13.7422C140.566 13.4297 140.738 13.043 140.832 12.582C140.934 12.1211 140.984 11.6133 140.984 11.0586H143.773L143.949 11.3047C143.809 12.0625 143.605 12.75 143.34 13.3672C143.074 13.9766 142.703 14.5039 142.227 14.9492C141.75 15.3867 141.121 15.7266 140.34 15.9688C140.566 16.4531 140.742 16.9922 140.867 17.5859C140.992 18.1719 141.055 18.8047 141.055 19.4844ZM131.645 19.4844C131.645 20.4609 131.758 21.2852 131.984 21.957C132.211 22.6289 132.566 23.1367 133.051 23.4805C133.543 23.8164 134.172 23.9844 134.938 23.9844C135.711 23.9844 136.336 23.8125 136.812 23.4688C137.297 23.125 137.652 22.6211 137.879 21.957C138.105 21.2852 138.219 20.4609 138.219 19.4844C138.219 18.5156 138.105 17.7031 137.879 17.0469C137.652 16.3828 137.297 15.8828 136.812 15.5469C136.328 15.2109 135.699 15.043 134.926 15.043C133.777 15.043 132.941 15.418 132.418 16.168C131.902 16.918 131.645 18.0234 131.645 19.4844ZM134.938 30.5703C134.5 30.5703 134.129 30.4531 133.824 30.2188C133.527 29.9922 133.379 29.6055 133.379 29.0586C133.379 28.5039 133.527 28.1133 133.824 27.8867C134.129 27.6602 134.5 27.5469 134.938 27.5469C135.367 27.5469 135.734 27.6602 136.039 27.8867C136.344 28.1133 136.496 28.5039 136.496 29.0586C136.496 29.6055 136.344 29.9922 136.039 30.2188C135.734 30.4531 135.367 30.5703 134.938 30.5703ZM151.719 12.7812C153.258 12.7812 154.492 13.3438 155.422 14.4688C156.359 15.5938 156.828 17.2656 156.828 19.4844C156.828 20.9531 156.609 22.1914 156.172 23.1992C155.742 24.1992 155.137 24.957 154.355 25.4727C153.582 25.9805 152.68 26.2344 151.648 26.2344C150.992 26.2344 150.422 26.1484 149.938 25.9766C149.453 25.8047 149.039 25.582 148.695 25.3086C148.352 25.0273 148.062 24.7227 147.828 24.3945H147.664C147.703 24.707 147.738 25.0547 147.77 25.4375C147.809 25.8125 147.828 26.1562 147.828 26.4688V31.7539H145.062V13.0273H147.312L147.699 14.8203H147.828C148.07 14.4531 148.363 14.1133 148.707 13.8008C149.059 13.4883 149.48 13.2422 149.973 13.0625C150.473 12.875 151.055 12.7812 151.719 12.7812ZM150.98 15.0312C150.223 15.0312 149.613 15.1836 149.152 15.4883C148.699 15.7852 148.367 16.2344 148.156 16.8359C147.953 17.4375 147.844 18.1914 147.828 19.0977V19.4844C147.828 20.4453 147.926 21.2617 148.121 21.9336C148.324 22.5977 148.656 23.1055 149.117 23.457C149.586 23.8008 150.219 23.9727 151.016 23.9727C151.688 23.9727 152.242 23.7891 152.68 23.4219C153.125 23.0547 153.457 22.5312 153.676 21.8516C153.895 21.1719 154.004 20.3711 154.004 19.4492C154.004 18.0508 153.754 16.9648 153.254 16.1914C152.762 15.418 152.004 15.0312 150.98 15.0312ZM171.078 24.0078C171.438 24.0078 171.793 23.9766 172.145 23.9141C172.496 23.8438 172.816 23.7617 173.105 23.668V25.7539C172.801 25.8867 172.406 26 171.922 26.0938C171.438 26.1875 170.934 26.2344 170.41 26.2344C169.676 26.2344 169.016 26.1133 168.43 25.8711C167.844 25.6211 167.379 25.1953 167.035 24.5938C166.691 23.9922 166.52 23.1602 166.52 22.0977V15.125H164.75V13.8945L166.648 12.9219L167.551 10.1445H169.285V13.0273H173V15.125H169.285V22.0625C169.285 22.7188 169.449 23.207 169.777 23.5273C170.105 23.8477 170.539 24.0078 171.078 24.0078ZM180.828 12.7812C182.469 12.7812 183.707 13.1445 184.543 13.8711C185.387 14.5977 185.809 15.7305 185.809 17.2695V26H183.852L183.324 24.1602H183.23C182.863 24.6289 182.484 25.0156 182.094 25.3203C181.703 25.625 181.25 25.8516 180.734 26C180.227 26.1562 179.605 26.2344 178.871 26.2344C178.098 26.2344 177.406 26.0938 176.797 25.8125C176.188 25.5234 175.707 25.0859 175.355 24.5C175.004 23.9141 174.828 23.1719 174.828 22.2734C174.828 20.9375 175.324 19.9336 176.316 19.2617C177.316 18.5898 178.824 18.2188 180.84 18.1484L183.09 18.0664V17.3867C183.09 16.4883 182.879 15.8477 182.457 15.4648C182.043 15.082 181.457 14.8906 180.699 14.8906C180.051 14.8906 179.422 14.9844 178.812 15.1719C178.203 15.3594 177.609 15.5898 177.031 15.8633L176.141 13.918C176.773 13.582 177.492 13.3086 178.297 13.0977C179.109 12.8867 179.953 12.7812 180.828 12.7812ZM183.078 19.8008L181.402 19.8594C180.027 19.9062 179.062 20.1406 178.508 20.5625C177.953 20.9844 177.676 21.5625 177.676 22.2969C177.676 22.9375 177.867 23.4062 178.25 23.7031C178.633 23.9922 179.137 24.1367 179.762 24.1367C180.715 24.1367 181.504 23.8672 182.129 23.3281C182.762 22.7812 183.078 21.9805 183.078 20.9258V19.8008ZM184.73 7.61328V7.84766C184.543 8.07422 184.289 8.34766 183.969 8.66797C183.648 8.98047 183.301 9.3125 182.926 9.66406C182.551 10.0078 182.18 10.3398 181.812 10.6602C181.445 10.9727 181.113 11.2383 180.816 11.457H178.977V11.1523C179.234 10.8555 179.52 10.5 179.832 10.0859C180.152 9.67188 180.465 9.24609 180.77 8.80859C181.082 8.37109 181.344 7.97266 181.555 7.61328H184.73ZM194.891 26.2344C193.664 26.2344 192.602 25.9961 191.703 25.5195C190.805 25.043 190.113 24.3125 189.629 23.3281C189.145 22.3438 188.902 21.0938 188.902 19.5781C188.902 18 189.168 16.7109 189.699 15.7109C190.23 14.7109 190.965 13.9727 191.902 13.4961C192.848 13.0195 193.93 12.7812 195.148 12.7812C195.922 12.7812 196.621 12.8594 197.246 13.0156C197.879 13.1641 198.414 13.3477 198.852 13.5664L198.031 15.7695C197.555 15.5742 197.066 15.4102 196.566 15.2773C196.066 15.1445 195.586 15.0781 195.125 15.0781C194.367 15.0781 193.734 15.2461 193.227 15.582C192.727 15.918 192.352 16.418 192.102 17.082C191.859 17.7461 191.738 18.5703 191.738 19.5547C191.738 20.5078 191.863 21.3125 192.113 21.9688C192.363 22.6172 192.734 23.1094 193.227 23.4453C193.719 23.7734 194.324 23.9375 195.043 23.9375C195.754 23.9375 196.391 23.8516 196.953 23.6797C197.516 23.5078 198.047 23.2852 198.547 23.0117V25.4023C198.055 25.6836 197.527 25.8906 196.965 26.0234C196.402 26.1641 195.711 26.2344 194.891 26.2344Z" fill="black"/>
<defs>
<clipPath id="clip0_1014_2196">
<rect width="232.4" height="79.8" fill="white" transform="translate(0 49)"/>
</clipPath>
</defs>
</svg>
