<svg width="36" height="36" viewBox="0 0 36 36" fill="none" xmlns="http://www.w3.org/2000/svg">
<circle cx="18" cy="18" r="18" fill="black"/>
<path d="M14.554 21.5886C17.1448 24.0787 20.2913 26 22.8642 26C24.0206 26 25.0336 25.6122 25.8494 24.7507C26.3245 24.2423 26.6204 23.6478 26.6204 23.0619C26.6204 22.6311 26.45 22.2176 26.0286 21.9246L23.2765 20.0463C22.8552 19.7706 22.5055 19.6327 22.1829 19.6327C21.7794 19.6327 21.4119 19.8568 20.9995 20.2445L20.3631 20.8476C20.2644 20.9424 20.1389 20.9855 20.0224 20.9855C19.8879 20.9855 19.7535 20.9338 19.6638 20.8907C19.108 20.6063 18.1578 19.8223 17.2703 18.9779C16.3917 18.1335 15.576 17.2202 15.2891 16.686C15.2443 16.5913 15.1905 16.4706 15.1905 16.3414C15.1905 16.2294 15.2263 16.1174 15.325 16.0226L15.9614 15.3936C16.3559 14.9973 16.5979 14.6527 16.5979 14.2563C16.5979 13.9461 16.4455 13.6101 16.1497 13.2052L14.2223 10.5945C13.9086 10.1809 13.4693 10 12.9852 10C12.3935 10 11.784 10.2585 11.255 10.7496C10.3855 11.5509 10 12.5417 10 13.636C10 16.1088 11.9632 19.1072 14.554 21.5886Z" fill="white"/>
</svg>
