<svg width="24" height="24" viewBox="0 0 24 24" fill="none" xmlns="http://www.w3.org/2000/svg">
<g clip-path="url(#clip0_2625_8677)">
<path d="M19.0941 20.1529L20.2823 19.047L13.5764 12.4235L21.6235 7.79999L20.8352 6.43529L12.9177 10.9765V1.54118H11.3412V12.1647C11.3412 12.4235 11.4 12.6353 11.6235 12.8471L19.0941 20.1529ZM12 24C18.5647 24 24 18.5529 24 12C24 5.43529 18.5529 0 11.9882 0C5.43529 0 0 5.43529 0 12C0 18.5529 5.44705 24 12 24ZM12 22C6.44705 22 2.01176 17.5529 2.01176 12C2.01176 6.44705 6.43529 2 11.9882 2C17.5411 2 22 6.44705 22 12C22 17.5529 17.5529 22 12 22Z" fill="current"/>
</g>
<defs>
<clipPath id="clip0_2625_8677">
<rect width="24" height="24" fill="white"/>
</clipPath>
</defs>
</svg>
