<svg width="24" height="24" viewBox="0 0 24 24" fill="none" xmlns="http://www.w3.org/2000/svg">
<g clip-path="url(#clip0_1091_2448)">
<path d="M11.9971 24C18.5865 24 24 18.5853 24 12C24 5.40909 18.5808 0 11.9914 0C5.41349 0 0 5.40909 0 12C0 18.5853 5.41916 24 11.9971 24ZM11.9914 21.7102C9.56591 21.7102 6.74272 20.6989 5.07833 18.858C6.49277 16.8522 8.9581 15.7443 11.9914 15.7443C15.0021 15.7443 17.4845 16.8296 18.916 18.858C17.2402 20.6989 14.4228 21.7102 11.9914 21.7102ZM11.9914 13.7273C9.70793 13.7159 7.94697 11.7841 7.94697 9.30682C7.93562 6.96023 9.73632 4.96023 11.9914 4.96023C14.258 4.96023 16.0417 6.96023 16.0417 9.30682C16.0417 11.7841 14.2864 13.7386 11.9914 13.7273Z" fill="current" />
</g>
<defs>
<clipPath id="clip0_1091_2448">
<rect width="24" height="24" fill="white"/>
</clipPath>
</defs>
</svg>
