<svg width="24" height="24" viewBox="0 0 24 24" fill="none" xmlns="http://www.w3.org/2000/svg">
<path d="M14.4358 4.21945H22.7639C23.4464 4.21945 24 3.66411 24 2.95991C24 2.26144 23.4464 1.7061 22.7639 1.7061H14.4358C13.7479 1.7061 13.2053 2.26144 13.2053 2.95991C13.2053 3.66411 13.7479 4.21945 14.4358 4.21945ZM14.4358 10.2194H22.7639C23.4464 10.2194 24 9.6641 24 8.95418C24 8.25571 23.4464 7.70036 22.7639 7.70036H14.4358C13.7479 7.70036 13.2053 8.25571 13.2053 8.95418C13.2053 9.6641 13.7479 10.2194 14.4358 10.2194ZM1.2249 16.2137H22.7639C23.4464 16.2137 24 15.6526 24 14.9542C24 14.2557 23.4464 13.6946 22.7639 13.6946H1.2249C0.542532 13.6946 0 14.2557 0 14.9542C0 15.6526 0.542532 16.2137 1.2249 16.2137ZM1.2249 22.2022H22.7639C23.4464 22.2022 24 21.6469 24 20.9484C24 20.2499 23.4464 19.6889 22.7639 19.6889H1.2249C0.542532 19.6889 0 20.2499 0 20.9484C0 21.6469 0.542532 22.2022 1.2249 22.2022ZM5.90074 12.063C9.10559 12.063 11.7903 9.31487 11.7903 6.02289C11.7903 2.73091 9.12237 0 5.90074 0C2.66791 0 0.0111862 2.73091 0.0111862 6.02289C0.0111862 9.32631 2.66791 12.063 5.90074 12.063ZM5.29668 9.32059C5.0338 9.32059 4.72619 9.23471 4.53043 9.01715L2.6847 6.96754C2.50572 6.77289 2.38267 6.51525 2.38267 6.25761C2.38267 5.62784 2.86367 5.26717 3.36146 5.26717C3.6579 5.26717 3.8984 5.37022 4.06619 5.5706L5.22397 6.90456L7.70732 3.3893C7.89748 3.12022 8.18832 2.95991 8.51831 2.95991C9.04407 2.95991 9.48033 3.3893 9.48033 3.94465C9.48033 4.11068 9.4244 4.3225 9.30135 4.49427L6.07972 8.9599C5.92311 9.18318 5.61548 9.32059 5.29668 9.32059Z" fill="current" fill-opacity="0.87"/>
</svg>
