<svg width="24" height="24" viewBox="0 0 24 24" fill="none" xmlns="http://www.w3.org/2000/svg">
<g clip-path="url(#clip0_1008_2368)">
<path d="M14.5455 23.9998H21.7469C23.1681 23.9998 24 22.9725 24 21.2403V8.35501C24 6.62277 23.1681 5.60091 21.7469 5.60091H15.2109V8.35501H21.1955C21.4569 8.35501 21.5995 8.52441 21.5995 8.82495V20.7758C21.5995 21.0708 21.4569 21.2403 21.1955 21.2403H14.5455V23.9998ZM18.3339 12.2566H19.7884C19.9644 12.2566 20.088 12.1146 20.088 11.9069V10.2785C20.088 10.0709 19.9644 9.92878 19.7884 9.92878H18.3339C18.1534 9.92878 18.0393 10.0709 18.0393 10.2785V11.9069C18.0393 12.1146 18.1534 12.2566 18.3339 12.2566ZM18.3339 16.0545H19.7884C19.9644 16.0545 20.088 15.9124 20.088 15.7047V14.0708C20.088 13.8632 19.9644 13.7211 19.7884 13.7211H18.3339C18.1534 13.7211 18.0393 13.8632 18.0393 14.0708V15.7047C18.0393 15.9124 18.1534 16.0545 18.3339 16.0545ZM18.3339 19.8468H19.7884C19.9644 19.8468 20.088 19.7047 20.088 19.4971V17.8687C20.088 17.661 19.9644 17.519 19.7884 17.519H18.3339C18.1534 17.519 18.0393 17.661 18.0393 17.8687V19.4971C18.0393 19.7047 18.1534 19.8468 18.3339 19.8468ZM0 21.2403C0 22.9725 0.831848 23.9998 2.25788 23.9998H14.265C15.6911 23.9998 16.5229 22.9725 16.5229 21.2403V2.77031C16.5229 1.03806 15.6911 0.0107422 14.265 0.0107422H2.25788C0.831848 0.0107422 0 1.03806 0 2.77031V21.2403ZM2.40523 20.7758V3.24025C2.40523 2.93424 2.54784 2.77031 2.80927 2.77031H13.7136C13.9751 2.77031 14.1177 2.93424 14.1177 3.24025V20.7758C14.1177 21.0708 13.9751 21.2403 13.7136 21.2403H2.80927C2.54784 21.2403 2.40523 21.0708 2.40523 20.7758ZM4.72014 22.5846H6.51218V18.9998C6.51218 18.7977 6.61201 18.6828 6.78789 18.6828H9.73978C9.91559 18.6828 10.0155 18.7977 10.0155 18.9998V22.5846H11.8075V18.1638C11.8075 17.2566 11.3939 16.7484 10.6429 16.7484H5.88473C5.1337 16.7484 4.72014 17.2566 4.72014 18.1638V22.5846ZM5.22401 7.39873H6.97327C7.18717 7.39873 7.33928 7.23479 7.33928 6.97796V5.01621C7.33928 4.75938 7.18717 4.58998 6.97327 4.58998H5.22401C5.0101 4.58998 4.87225 4.75938 4.87225 5.01621V6.97796C4.87225 7.23479 5.0101 7.39873 5.22401 7.39873ZM9.55437 7.39873H11.2988C11.5128 7.39873 11.6601 7.23479 11.6601 6.97796V5.01621C11.6601 4.75938 11.5128 4.58998 11.2988 4.58998H9.55437C9.33571 4.58998 9.19312 4.75938 9.19312 5.01621V6.97796C9.19312 7.23479 9.33571 7.39873 9.55437 7.39873ZM5.22401 11.3495H6.97327C7.18717 11.3495 7.33928 11.1856 7.33928 10.9288V8.96156C7.33928 8.7102 7.18717 8.54081 6.97327 8.54081H5.22401C5.0101 8.54081 4.87225 8.7102 4.87225 8.96156V10.9288C4.87225 11.1856 5.0101 11.3495 5.22401 11.3495ZM9.55437 11.3495H11.2988C11.5128 11.3495 11.6601 11.1856 11.6601 10.9288V8.96156C11.6601 8.7102 11.5128 8.54081 11.2988 8.54081H9.55437C9.33571 8.54081 9.19312 8.7102 9.19312 8.96156V10.9288C9.19312 11.1856 9.33571 11.3495 9.55437 11.3495ZM5.22401 15.3004H6.97327C7.18717 15.3004 7.33928 15.1255 7.33928 14.8741V12.9124C7.33928 12.6556 7.18717 12.4861 6.97327 12.4861H5.22401C5.0101 12.4861 4.87225 12.6556 4.87225 12.9124V14.8741C4.87225 15.1255 5.0101 15.3004 5.22401 15.3004ZM9.55437 15.3004H11.2988C11.5128 15.3004 11.6601 15.1255 11.6601 14.8741V12.9124C11.6601 12.6556 11.5128 12.4861 11.2988 12.4861H9.55437C9.33571 12.4861 9.19312 12.6556 9.19312 12.9124V14.8741C9.19312 15.1255 9.33571 15.3004 9.55437 15.3004Z" fill="current" fill-opacity="0.87"/>
</g>
<defs>
<clipPath id="clip0_1008_2368">
<rect width="24" height="24" fill="white"/>
</clipPath>
</defs>
</svg>
