<svg width="24" height="24" viewBox="0 0 24 24" fill="none" xmlns="http://www.w3.org/2000/svg">
<g clip-path="url(#clip0_987_12262)">
<path d="M0 9.70704C0 15.0592 4.39714 19.414 9.80145 19.414C11.9386 19.414 13.8915 18.7329 15.5005 17.5894L21.5435 23.5863C21.826 23.8662 22.1945 24 22.5876 24C23.4227 24 24 23.3796 24 22.5646C24 22.1753 23.8526 21.8225 23.5948 21.5672L17.5886 15.5824C18.8536 13.9524 19.6029 11.9209 19.6029 9.70704C19.6029 4.35478 15.2057 0 9.80145 0C4.39714 0 0 4.35478 0 9.70704ZM2.10031 9.70704C2.10031 5.49822 5.55169 2.08008 9.80145 2.08008C14.0512 2.08008 17.5026 5.49822 17.5026 9.70704C17.5026 13.9159 14.0512 17.334 9.80145 17.334C5.55169 17.334 2.10031 13.9159 2.10031 9.70704Z" fill="black"/>
</g>
<defs>
<clipPath id="clip0_987_12262">
<rect width="24" height="24" fill="white"/>
</clipPath>
</defs>
</svg>
