<svg width="24" height="24" viewBox="0 0 24 24" fill="none" xmlns="http://www.w3.org/2000/svg">
<g clip-path="url(#clip0_2518_8409)">
<path d="M12.9804 22C13.5771 22 14.0561 21.7674 14.6338 21.243L23.403 13.2454C23.834 12.8506 24 12.3916 24 12C24 11.5918 23.8451 11.1514 23.4051 10.7477L14.6338 2.81186C13.9968 2.23356 13.5873 2 12.9985 2C12.1273 2 11.4895 2.66304 11.4895 3.48221V7.3398H11.2142C3.53154 7.3398 0 12.1325 0 19.9474C0 21.2613 0.586742 21.9554 1.35252 21.9554C1.91953 21.9554 2.46706 21.7859 2.8967 21.0088C4.64895 17.8312 7.14396 16.6864 11.2142 16.6864H11.4895V20.5638C11.4895 21.3829 12.1273 22 12.9804 22ZM13.6737 19.2661C13.5811 19.2661 13.5086 19.1958 13.5086 19.0932V15.1002C13.5086 14.8547 13.3998 14.7491 13.147 14.7491H11.7243C6.62324 14.7491 3.37997 16.3356 2.04872 19.0153C2.01747 19.0886 1.99332 19.119 1.94192 19.119C1.8976 19.119 1.86436 19.0868 1.86436 19.0065C2.05204 13.8962 4.51977 9.25965 11.7243 9.25965H13.147C13.3998 9.25965 13.5086 9.15405 13.5086 8.90867V4.82742C13.5086 4.73364 13.5811 4.66719 13.6827 4.66719C13.7473 4.66719 13.8117 4.7044 13.8671 4.74741L21.4642 11.7995C21.5418 11.8748 21.573 11.9355 21.573 12C21.573 12.0626 21.5509 12.1163 21.4642 12.2004L13.858 19.1712C13.8026 19.2339 13.7382 19.2661 13.6737 19.2661Z" fill="current"/>
</g>
<defs>
<clipPath id="clip0_2518_8409">
<rect width="24" height="24" fill="white"/>
</clipPath>
</defs>
</svg>
