<svg viewBox="0 0 643 448" fill="none" xmlns="http://www.w3.org/2000/svg">
<path d="M507.482 33H120.231C110.715 33 103 40.7147 103 50.2313V50.2313C103 59.7479 110.715 67.4626 120.231 67.4626H507.482C516.999 67.4626 524.714 59.7479 524.714 50.2313C524.714 40.7147 516.999 33 507.482 33Z" fill="#030391"/>
<path d="M507.482 142.574H120.231C110.715 142.574 103 150.289 103 159.805V159.805C103 169.322 110.715 177.037 120.231 177.037H507.482C516.999 177.037 524.714 169.322 524.714 159.805C524.714 150.289 516.999 142.574 507.482 142.574Z" fill="#E6E6E6"/>
<path d="M507.482 252.148H120.231C110.715 252.148 103 259.863 103 269.379V269.379C103 278.896 110.715 286.611 120.231 286.611H507.482C516.999 286.611 524.714 278.896 524.714 269.379C524.714 259.863 516.999 252.148 507.482 252.148Z" fill="#E6E6E6"/>
<path d="M588.495 83.9021H38.9069C38.6664 83.9021 38.4357 83.8066 38.2656 83.6365C38.0955 83.4664 38 83.2357 38 82.9952C38 82.7547 38.0955 82.524 38.2656 82.3539C38.4357 82.1838 38.6664 82.0883 38.9069 82.0883H588.495C588.736 82.0883 588.966 82.1838 589.136 82.3539C589.306 82.524 589.402 82.7547 589.402 82.9952C589.402 83.2357 589.306 83.4664 589.136 83.6365C588.966 83.8066 588.736 83.9021 588.495 83.9021Z" fill="#3F3D56"/>
<path d="M588.495 193.521H38.9069C38.6664 193.521 38.4357 193.426 38.2656 193.256C38.0955 193.086 38 192.855 38 192.614C38 192.374 38.0955 192.143 38.2656 191.973C38.4357 191.803 38.6664 191.708 38.9069 191.708H588.495C588.736 191.708 588.966 191.803 589.136 191.973C589.306 192.143 589.402 192.374 589.402 192.614C589.402 192.855 589.306 193.086 589.136 193.256C588.966 193.426 588.736 193.521 588.495 193.521Z" fill="#3F3D56"/>
<path d="M588.495 303.14H38.9069C38.6664 303.14 38.4357 303.045 38.2656 302.875C38.0955 302.704 38 302.474 38 302.233C38 301.993 38.0955 301.762 38.2656 301.592C38.4357 301.422 38.6664 301.326 38.9069 301.326H588.495C588.736 301.326 588.966 301.422 589.136 301.592C589.306 301.762 589.402 301.993 589.402 302.233C589.402 302.474 589.306 302.704 589.136 302.875C588.966 303.045 588.736 303.14 588.495 303.14Z" fill="#3F3D56"/>
</svg>
