<svg width="24" height="24" viewBox="0 0 24 24" fill="none" xmlns="http://www.w3.org/2000/svg">
<g clip-path="url(#clip0_2099_3622)">
<path d="M11.9053 20.4533C11.5248 20.4533 11.2109 20.1399 11.2109 19.758V16.2905L11.2679 14.743L10.4689 15.5853L9.64129 16.4571C9.50812 16.5942 9.31787 16.6726 9.14665 16.6726C8.76614 16.6726 8.4998 16.3984 8.4998 16.0261C8.4998 15.8106 8.58541 15.6441 8.7281 15.5168L11.3916 12.9897C11.5818 12.8134 11.734 12.7449 11.9053 12.7449C12.0765 12.7449 12.2287 12.8134 12.4189 12.9897L15.0824 15.5168C15.2251 15.6441 15.3107 15.8106 15.3107 16.0261C15.3107 16.3984 15.0349 16.6726 14.6639 16.6726C14.4832 16.6726 14.3024 16.5942 14.1692 16.4571L13.3416 15.5853L12.5426 14.743L12.6092 16.2905V19.758C12.6092 20.1399 12.2858 20.4533 11.9053 20.4533ZM6.85414 23H16.9564C18.9254 23 19.9053 21.9715 19.9053 19.9343V11.0406H13.0182C11.8006 11.0406 11.2204 10.4431 11.2204 9.18937V2H6.85414C4.89457 2 3.90527 3.03825 3.90527 5.07556V19.9343C3.90527 21.9814 4.88506 23 6.85414 23ZM13.0468 9.69869H19.7911C19.734 9.29711 19.4582 8.90532 19.0015 8.42537L13.7602 2.9305C13.3131 2.46035 12.9231 2.17631 12.5236 2.10774V9.16978C12.5236 9.52239 12.6948 9.69869 13.0468 9.69869Z" fill="current"/>
</g>
<defs>
<clipPath id="clip0_2099_3622">
<rect width="24" height="24" fill="white"/>
</clipPath>
</defs>
</svg>
