<svg width="24" height="24" viewBox="0 0 24 24" fill="none" xmlns="http://www.w3.org/2000/svg">
<path d="M4.46262 19.7314C7.64863 22.8316 11.6576 23.7861 13.5622 23.9846C14.3048 24.0831 14.7686 23.6983 14.808 23.1586C14.8454 22.6486 14.5311 22.2232 13.8647 22.0956C12.1293 21.8176 8.56481 21.0131 5.86914 18.3699C1.50159 14.1129 0.625298 7.54677 4.24399 4.02558C7.13571 1.22087 11.9317 1.50902 15.4671 3.36478L16.9357 1.96709C12.4167 -0.710952 6.39506 -0.815878 2.83541 2.65496C-1.412 6.79902 -0.901812 14.5115 4.46262 19.7314ZM8.77362 16.3652C12.427 20.04 18.6542 21.4188 22.0627 18.1112C24.8434 15.3984 24.5886 10.5815 21.569 6.41017L20.1314 7.80696C22.3767 11.0287 22.7957 14.6548 20.6521 16.7406C18.0257 19.2982 13.7384 18.1339 10.9197 15.5134L8.77362 16.3652ZM10.5909 14.5071L20.8757 4.5065L18.9374 2.62945L8.66193 12.621L7.67803 14.927C7.54878 15.2338 7.86816 15.5297 8.17225 15.4189L10.5909 14.5071ZM21.7221 3.69397L22.6894 2.73681C23.1758 2.25147 23.2212 1.54053 22.7233 1.07737L22.388 0.765274C21.9574 0.360451 21.2373 0.394389 20.7633 0.85156L19.7931 1.80782L21.7221 3.69397Z" fill="current"/>
</svg>
