<svg width="40" height="40" viewBox="0 0 40 40" fill="current" xmlns="http://www.w3.org/2000/svg">
<path d="M22.4998 1.11719C22.4998 1.11719 23.7332 5.53385 23.7332 9.11719C23.7332 12.5505 21.4832 15.3339 18.0498 15.3339C14.5998 15.3339 11.9998 12.5505 11.9998 9.11719L12.0498 8.51719C8.68317 12.5172 6.6665 17.7005 6.6665 23.3339C6.6665 30.7005 12.6332 36.6672 19.9998 36.6672C27.3665 36.6672 33.3332 30.7005 33.3332 23.3339C33.3332 14.3505 29.0165 6.33385 22.4998 1.11719ZM19.5165 31.6672C16.5498 31.6672 14.1498 29.3339 14.1498 26.4339C14.1498 23.7339 15.8998 21.8339 18.8332 21.2339C21.7832 20.6339 24.8332 19.2172 26.5332 16.9339C27.1832 19.0839 27.5165 21.3505 27.5165 23.6672C27.5165 28.0839 23.9332 31.6672 19.5165 31.6672Z" fill="current" fill-opacity="0.87"/>
</svg>
