<svg width="24" height="24" viewBox="0 0 24 24" fill="none" xmlns="http://www.w3.org/2000/svg">
<g clip-path="url(#clip0_2608_8441)">
<path d="M0.477132 23.5214C1.12477 24.1543 2.21707 24.1463 2.83372 23.5295L12.0008 14.3608L21.1625 23.5268C21.79 24.1543 22.8811 24.1638 23.5165 23.5188C24.1519 22.8711 24.1547 21.8041 23.5272 21.1741L14.3655 11.9958L23.5272 2.83248C24.1547 2.205 24.1641 1.12593 23.5165 0.490403C22.8689 -0.157342 21.79 -0.160025 21.1625 0.479672L12.0008 9.64298L2.83372 0.476989C2.21707 -0.149294 1.11255 -0.172247 0.477132 0.48772C-0.155601 1.13547 -0.147555 2.21306 0.469086 2.82979L9.63621 11.9958L0.469086 21.1794C-0.147555 21.7934 -0.167821 22.8859 0.477132 23.5214Z" fill="white"/>
</g>
<defs>
<clipPath id="clip0_2608_8441">
<rect width="24" height="24" fill="white"/>
</clipPath>
</defs>
</svg>
