<svg width="50" height="50" viewBox="0 0 50 50" fill="none" xmlns="http://www.w3.org/2000/svg">
<path d="M0 25C0 38.8071 11.1929 50 25 50C38.8071 50 50 38.8071 50 25C50 11.1929 38.8071 0 25 0C11.1929 0 0 11.1929 0 25Z" fill="#FF0000"/>
<path d="M36.875 18.9061C36.5625 17.8123 35.7813 17.0311 34.6875 16.7186C32.8125 16.2498 24.8437 16.2498 24.8437 16.2498C24.8437 16.2498 17.0313 16.2498 15 16.7186C13.9063 17.0311 13.125 17.8123 12.8125 18.9061C12.5 20.9373 12.5 24.9998 12.5 24.9998C12.5 24.9998 12.5 29.0623 12.9688 31.0936C13.2813 32.1873 14.0625 32.9686 15.1562 33.2811C17.0312 33.7498 25 33.7498 25 33.7498C25 33.7498 32.8125 33.7498 34.8437 33.2811C35.9375 32.9686 36.7188 32.1873 37.0313 31.0936C37.5 29.0623 37.5 24.9998 37.5 24.9998C37.5 24.9998 37.5 20.9373 36.875 18.9061ZM22.5 28.7498V21.2498L29.0625 24.9998L22.5 28.7498Z" fill="white"/>
</svg>
