<?xml version="1.0" standalone="no"?>
<!DOCTYPE svg PUBLIC "-//W3C//DTD SVG 20010904//EN"
 "http://www.w3.org/TR/2001/REC-SVG-20010904/DTD/svg10.dtd">
<svg version="1.0" xmlns="http://www.w3.org/2000/svg"
 width="1200.000000pt" height="1200.000000pt" viewBox="0 0 1200.000000 1200.000000"
 preserveAspectRatio="xMidYMid meet">
<metadata>
Created by potrace 1.14, written by Peter Selinger 2001-2017
</metadata>
<g transform="translate(0.000000,1200.000000) scale(0.100000,-0.100000)"
fill="#000000" stroke="none">
<path d="M4758 9186 c-186 -94 -364 -185 -395 -202 -32 -16 -92 -48 -133 -69
-41 -22 -77 -42 -80 -45 -3 -3 -39 -23 -80 -44 -41 -22 -87 -47 -101 -57 -14
-10 -28 -16 -31 -13 -3 2 -11 -2 -18 -11 -7 -8 -17 -15 -22 -15 -10 0 -269
-149 -278 -160 -3 -4 -12 -10 -20 -14 -8 -4 -24 -12 -35 -19 -11 -7 -49 -29
-85 -51 -36 -21 -81 -49 -100 -61 -46 -29 -495 -307 -518 -320 -9 -6 -37 -23
-62 -39 -118 -76 -225 -145 -328 -212 -61 -41 -114 -74 -117 -74 -3 0 -11 -5
-18 -10 -7 -6 -61 -45 -122 -87 -276 -191 -405 -286 -405 -298 0 -5 19 -9 42
-8 39 2 683 5 734 4 17 -1 21 -6 17 -28 -5 -38 -4 -123 1 -150 3 -13 0 -23 -5
-23 -6 0 -8 -4 -5 -8 3 -5 6 -24 6 -43 1 -48 1 -151 1 -169 -1 -8 -1 -26 -1
-40 0 -18 -8 -29 -31 -39 -58 -26 -62 -115 -7 -165 29 -26 32 -36 35 -92 3
-51 0 -67 -14 -81 -15 -15 -18 -35 -18 -108 1 -114 -1 -121 -35 -135 -48 -20
-91 -66 -104 -111 -9 -33 -13 -188 -15 -605 l-3 -561 244 -1 c134 0 250 2 258
4 13 3 15 75 14 571 -1 313 -5 582 -9 598 -14 53 -52 94 -101 107 l-44 12 0
99 c0 80 -4 104 -19 125 -13 20 -18 45 -18 95 0 68 0 68 33 82 37 15 45 27 46
71 1 65 -2 74 -40 98 l-39 24 -1 240 -2 239 48 -3 c169 -10 557 -23 1162 -39
118 -3 251 -8 295 -10 216 -12 316 -16 504 -20 l204 -5 66 37 c71 39 298 153
1111 556 283 140 519 255 524 255 5 0 12 5 15 10 10 16 265 136 416 195 77 31
232 88 345 127 113 40 233 83 268 96 34 13 63 23 65 23 1 0 9 2 17 5 80 29
278 98 290 101 8 2 47 16 85 30 39 14 110 39 160 56 49 17 101 36 115 42 14 5
34 12 44 14 23 4 32 11 24 18 -4 5 -64 7 -478 20 -107 3 -231 8 -275 10 -204
9 -353 17 -387 20 -21 2 -71 7 -113 10 -41 3 -92 7 -113 9 -20 3 -66 8 -102
11 -36 4 -73 9 -82 10 -9 2 -48 7 -85 10 -37 4 -70 9 -73 10 -6 3 -144 18
-177 19 -13 1 -23 3 -23 6 0 3 -8 6 -17 6 -25 1 -125 14 -143 19 -8 2 -31 7
-50 10 -19 3 -57 10 -85 15 -68 13 -103 19 -145 26 -19 3 -42 7 -50 10 -8 3
-31 8 -50 10 -19 2 -46 6 -60 9 -14 3 -38 8 -55 10 -85 15 -141 28 -152 37 -7
6 -13 8 -13 5 0 -3 -30 3 -67 13 -150 40 -191 52 -253 71 -36 11 -72 22 -80
24 -8 2 -63 19 -121 39 -58 20 -115 38 -125 40 -10 1 -171 -74 -356 -168z"/>
<path d="M6390 7956 c-168 -84 -559 -280 -870 -436 l-565 -284 -65 1 c-36 0
-141 3 -235 7 -93 3 -237 9 -320 11 -82 3 -224 7 -315 10 -296 10 -656 17
-747 16 -34 -1 -33 0 -58 -129 -2 -13 -6 -31 -9 -40 -3 -9 -7 -28 -10 -42 l-4
-26 147 3 c80 2 711 5 1401 7 l1255 3 73 37 c40 20 75 36 78 36 2 0 52 22 109
50 58 27 106 49 108 48 1 0 22 10 47 23 25 13 47 24 50 24 3 1 21 8 40 17 19
9 80 36 135 61 55 25 138 63 185 85 47 21 106 49 132 61 75 34 71 60 -43 266
-43 79 -79 148 -79 153 0 6 -3 12 -7 14 -5 2 -26 37 -47 78 -45 87 -54 100
-70 100 -6 0 -148 -69 -316 -154z"/>
<path d="M6965 6932 c-2 -2 -9 -4 -17 -6 -28 -4 -86 -45 -111 -77 -43 -59 -54
-111 -52 -254 2 -71 3 -133 4 -137 0 -5 343 -8 762 -8 605 0 760 3 756 13 -2
6 -55 86 -117 177 -61 91 -128 191 -148 222 -27 41 -45 59 -67 65 -28 7 -1003
12 -1010 5z"/>
<path d="M8513 6932 l-41 -3 1 -242 2 -242 232 0 c127 0 235 -4 240 -8 4 -5 9
-39 9 -77 1 -37 4 -72 8 -78 3 -6 2 -13 -3 -16 -5 -3 -6 -21 -1 -39 4 -18 3
-43 -1 -55 -5 -12 -4 -24 0 -27 5 -3 6 -20 2 -37 -4 -18 -4 -47 -1 -65 4 -17
4 -37 -1 -44 -4 -7 -4 -20 1 -30 5 -9 7 -19 4 -22 -3 -3 -5 -26 -4 -51 0 -25
1 -53 1 -61 0 -8 0 -35 0 -60 0 -25 0 -52 -1 -60 0 -8 0 -23 0 -32 0 -10 0
-43 0 -73 -1 -72 -1 -69 2 -118 2 -23 -1 -42 -5 -42 -5 0 -5 -4 -2 -10 6 -9 9
-94 5 -115 -1 -5 -2 -14 0 -20 5 -28 4 -95 -2 -95 -4 0 -3 -13 2 -29 4 -16 6
-32 3 -34 -2 -3 -4 -27 -3 -54 0 -26 1 -56 1 -65 0 -10 5 -20 10 -24 6 -3 112
-6 237 -6 l227 0 0 765 c0 421 3 769 7 772 3 4 3 19 -1 33 -4 15 -6 102 -6
195 l1 167 -30 1 c-129 2 -860 3 -893 1z"/>
<path d="M9548 6932 c-21 -4 -25 -88 -18 -322 l5 -165 164 0 c95 0 169 4 177
10 7 5 77 107 155 225 78 118 146 217 151 218 18 8 7 32 -14 33 -90 2 -608 3
-620 1z"/>
<path d="M3342 6912 c-40 -20 -79 -61 -101 -104 -16 -34 -18 -58 -16 -193 1
-86 5 -159 9 -162 8 -8 1464 -11 1496 -3 19 5 8 24 -111 195 -72 105 -147 211
-167 236 l-34 47 -525 -1 c-424 -1 -530 -3 -551 -15z"/>
<path d="M4915 6922 c-3 -3 -5 -112 -5 -242 l0 -236 231 0 c144 1 233 -3 237
-9 4 -5 7 -327 8 -715 1 -388 2 -710 3 -716 1 -12 460 -18 462 -6 4 16 5 1908
2 1917 -3 11 -928 17 -938 7z"/>
<path d="M5950 6689 l0 -239 23 -1 c126 -4 305 -4 319 0 17 6 68 74 68 91 0 4
3 10 8 12 8 4 17 16 150 215 56 83 102 153 102 156 0 2 -151 5 -335 5 l-335 0
0 -239z"/>
<path d="M3238 6360 c-10 -4 -13 -131 -13 -605 0 -576 1 -601 19 -630 33 -51
69 -86 111 -107 38 -20 58 -21 540 -24 275 -1 508 0 517 2 9 3 31 28 50 57 18
29 36 57 40 62 22 27 58 87 58 95 0 4 3 10 8 12 4 2 32 41 62 88 30 47 58 87
63 88 4 2 7 8 7 14 0 5 9 23 21 39 11 16 19 30 17 30 -2 1 -232 3 -513 4 -280
2 -512 3 -515 4 -3 1 -6 195 -5 432 0 237 -2 434 -5 438 -6 8 -443 9 -462 1z"/>
<path d="M6796 6358 c-9 -5 -11 -138 -8 -594 l3 -588 25 -49 c29 -58 74 -101
124 -119 26 -10 159 -13 545 -13 l509 0 128 190 c70 105 131 195 136 201 5 5
15 21 22 34 7 14 19 31 27 38 7 8 11 17 9 20 -2 4 -236 7 -520 6 -365 -1 -516
2 -517 10 0 6 -1 203 -1 439 -1 299 -5 427 -12 428 -62 5 -460 2 -470 -3z"/>
<path d="M11153 4093 c-4 -10 -10 -20 -13 -23 -6 -4 -53 -90 -68 -122 -2 -5
17 -8 41 -8 41 0 48 4 79 43 18 23 36 44 40 45 5 2 8 10 8 18 0 8 4 14 9 14 5
0 16 11 25 25 l16 25 -65 0 c-53 0 -67 -3 -72 -17z"/>
<path d="M969 4000 c0 -8 -1 -234 -2 -503 -2 -383 1 -487 11 -488 15 -2 44 -2
82 0 l29 1 3 263 3 264 39 36 c82 78 212 72 252 -12 16 -31 18 -70 18 -293 1
-251 1 -258 21 -259 11 0 30 -2 41 -3 12 -1 30 1 41 5 19 7 20 17 19 271 -1
144 -5 269 -9 276 -5 6 -6 12 -2 12 10 0 -26 75 -48 99 -36 39 -104 62 -172
60 -70 -2 -116 -18 -167 -60 l-38 -30 0 189 0 189 -60 -1 c-47 0 -60 -4 -61
-16z"/>
<path d="M2022 3975 c-15 -22 -30 -44 -35 -50 -23 -31 -57 -87 -57 -96 0 -5
20 -8 45 -6 41 3 51 9 108 69 66 71 89 98 100 114 4 6 -19 10 -64 10 l-69 0
-28 -41z"/>
<path d="M7008 4003 c4 -6 23 -28 42 -49 19 -21 52 -59 72 -83 34 -41 42 -46
88 -48 30 -2 50 1 50 7 0 6 -27 50 -59 99 l-59 87 -70 0 c-50 -1 -68 -4 -64
-13z"/>
<path d="M10738 3918 c-48 -43 -90 -83 -93 -88 -3 -5 20 -8 58 -6 61 2 67 5
111 47 26 24 52 46 57 47 6 2 34 -19 64 -47 53 -50 54 -51 116 -49 l62 2 -74
69 c-98 91 -115 101 -168 102 -43 1 -50 -3 -133 -77z"/>
<path d="M375 3969 c-11 -4 -41 -14 -66 -23 -49 -17 -121 -78 -157 -132 -27
-40 -59 -127 -67 -184 -5 -38 -9 -203 -5 -220 0 -3 3 -27 5 -55 11 -136 93
-268 199 -320 67 -33 94 -38 186 -38 93 1 171 29 232 82 56 50 106 148 104
206 -1 29 -1 29 -56 26 -62 -3 -67 -6 -73 -41 -19 -97 -75 -153 -170 -167
-206 -30 -307 104 -300 400 2 117 6 156 15 172 3 6 11 27 18 48 16 51 89 123
137 136 48 14 128 14 173 1 63 -19 107 -75 130 -165 l9 -40 61 0 61 0 -5 35
c-7 53 -10 61 -35 113 -39 80 -117 143 -201 162 -47 11 -171 13 -195 4z"/>
<path d="M6334 3969 c-144 -26 -247 -135 -291 -310 -8 -32 -7 -304 1 -353 11
-62 62 -161 109 -208 123 -125 347 -138 490 -30 26 20 47 39 47 43 0 4 6 14
13 21 19 20 51 100 62 157 4 21 -2 23 -75 23 -43 0 -49 -3 -55 -34 -4 -18 -12
-39 -17 -45 -6 -7 -8 -13 -4 -13 10 0 -26 -53 -52 -76 -35 -31 -85 -43 -166
-41 -59 2 -78 7 -114 31 -89 60 -128 177 -123 371 4 163 24 233 87 299 85 89
271 90 339 0 11 -14 29 -53 41 -87 l21 -60 49 -1 c58 0 74 8 69 32 -7 35 -38
117 -53 141 -38 61 -123 123 -188 136 -47 10 -146 12 -190 4z"/>
<path d="M10294 3955 c-29 -29 -31 -68 -4 -95 21 -21 31 -24 65 -20 56 5 80
96 33 121 -39 21 -69 19 -94 -6z"/>
<path d="M4199 3965 c-1 0 -2 -24 -3 -52 l-1 -53 152 0 153 0 2 -427 3 -427
50 1 c28 1 55 2 60 2 8 1 11 136 11 424 l-1 422 155 5 154 5 -1 30 c-2 78 41
70 -368 70 -201 0 -366 0 -366 0z"/>
<path d="M9414 3955 c-2 -5 -5 -29 -7 -52 l-3 -43 155 0 156 0 0 -425 -1 -425
26 -1 c34 -1 94 2 98 6 2 1 3 11 2 21 -2 72 1 178 6 185 3 5 0 9 -6 9 -6 0 -9
4 -6 8 5 9 6 42 5 150 0 34 3 67 6 72 3 6 1 10 -5 10 -6 0 -9 4 -5 9 3 5 5 34
5 63 0 29 0 71 1 93 1 22 1 45 0 50 -2 24 -3 83 -2 127 l1 47 146 0 c81 1 150
3 154 6 12 7 8 95 -4 96 -6 1 -170 2 -365 3 -228 0 -355 -3 -357 -9z"/>
<path d="M2690 3717 c-19 -6 -39 -15 -45 -19 -5 -4 -25 -19 -42 -34 -18 -14
-33 -22 -34 -17 -1 4 -1 22 -1 39 -1 30 -1 31 -59 32 l-59 1 0 -354 0 -353 43
-3 c83 -7 77 -27 77 251 0 267 1 274 54 323 60 56 177 59 226 8 32 -34 36 -76
36 -328 -1 -285 -8 -262 81 -255 l42 4 -1 266 c0 240 -2 272 -20 322 -15 42
-31 63 -66 90 -42 32 -51 35 -121 36 -42 1 -92 -3 -111 -9z"/>
<path d="M3370 3721 c-169 -52 -243 -256 -186 -512 9 -41 51 -111 89 -147 82
-79 225 -88 325 -20 l43 30 -2 -61 c-3 -80 -30 -129 -89 -158 -82 -42 -181
-27 -255 38 -20 18 -37 30 -38 28 -1 -2 -15 -18 -30 -35 l-28 -31 24 -29 c54
-64 194 -108 295 -92 123 19 210 97 239 213 3 11 6 189 6 396 l2 375 -57 1
-58 1 0 -34 c0 -19 -3 -34 -6 -34 -3 0 -22 13 -42 29 -20 16 -52 34 -71 40
-38 12 -123 13 -161 2z m162 -101 c20 -6 53 -27 72 -46 40 -40 38 -26 37 -242
0 -127 -1 -135 -25 -166 -37 -48 -87 -69 -155 -64 -72 5 -114 33 -142 95 -33
72 -41 162 -25 263 20 123 122 192 238 160z"/>
<path d="M5153 3717 c-23 -7 -48 -18 -55 -24 -6 -7 -16 -13 -22 -13 -21 0 -84
-80 -94 -119 -10 -41 -6 -48 23 -41 6 1 28 2 50 3 35 1 41 5 57 37 21 42 44
57 108 68 70 13 146 -16 164 -63 5 -11 10 -44 13 -72 4 -47 3 -53 -14 -53
-219 -3 -286 -18 -353 -78 -98 -88 -87 -255 23 -324 94 -60 199 -57 305 7 17
10 32 23 32 27 0 4 4 8 8 8 4 0 9 -14 10 -32 2 -18 4 -33 5 -34 5 -4 34 -6 84
-5 l53 1 -12 28 c-6 16 -12 119 -14 262 -3 268 -11 310 -71 365 -65 59 -193
81 -300 52z m235 -366 c8 -1 12 -23 12 -75 0 -65 -3 -78 -25 -104 -33 -40 -89
-65 -150 -68 -83 -4 -133 35 -138 107 -6 75 45 124 141 136 26 3 48 6 49 7 1
1 80 -1 111 -3z"/>
<path d="M7904 3717 c-37 -14 -104 -59 -104 -69 0 -5 -4 -8 -10 -8 -5 0 -10
17 -10 38 l0 39 -57 -1 -58 -1 -1 -352 -1 -353 26 -1 c56 -3 84 0 90 10 4 6 6
119 6 252 -1 268 0 271 68 323 45 35 129 43 177 18 65 -33 69 -55 69 -340 0
-140 2 -257 5 -260 7 -7 105 -6 113 1 3 3 5 120 5 261 0 205 -3 266 -16 310
-20 67 -65 117 -123 134 -50 15 -138 14 -179 -1z"/>
<path d="M8567 3716 c-118 -44 -188 -172 -188 -344 0 -107 9 -152 45 -224 68
-137 213 -188 356 -126 19 8 41 22 49 31 7 10 17 17 21 17 8 0 5 -71 -4 -115
-3 -11 -5 -23 -5 -27 -2 -18 -58 -71 -90 -84 -37 -15 -121 -21 -140 -9 -6 3
-21 8 -33 10 -20 4 -59 33 -86 65 -11 13 -17 10 -46 -21 l-34 -36 26 -30 c36
-39 68 -58 132 -77 161 -48 317 10 376 139 l28 60 1 385 0 385 -55 0 c-37 0
-55 -4 -56 -12 -1 -7 -2 -24 -3 -38 -1 -25 -1 -25 -20 -6 -26 26 -70 54 -90
59 -55 12 -150 11 -184 -2z m191 -101 c22 -9 53 -31 68 -48 l28 -32 1 -167 c0
-93 -2 -168 -5 -168 -3 0 -11 -12 -17 -28 -18 -38 -64 -63 -133 -69 -82 -8
-130 20 -169 98 -25 50 -28 68 -29 149 0 105 14 165 53 216 45 59 128 79 203
49z"/>
<path d="M10790 3720 c-8 -4 -32 -16 -53 -26 -62 -31 -132 -118 -152 -189 -4
-17 -10 -37 -12 -45 -3 -8 -5 -58 -5 -110 0 -126 24 -195 97 -266 118 -114
323 -119 440 -10 40 37 59 76 37 76 -5 0 -19 9 -32 20 l-22 20 -44 -39 c-132
-116 -326 -42 -350 132 l-7 47 242 0 242 0 -5 78 c-11 169 -73 268 -192 309
-35 12 -162 14 -184 3z m170 -112 c38 -26 69 -72 76 -115 3 -15 7 -36 10 -45
6 -22 -18 -24 -208 -20 l-146 3 4 27 c9 51 47 114 84 141 52 38 131 42 180 9z"/>
<path d="M11526 3705 c-26 -13 -58 -33 -71 -45 -26 -24 -33 -18 -30 26 l2 31
-59 1 -58 1 0 -353 c0 -194 2 -355 4 -357 2 -2 29 -2 60 -1 l56 4 0 253 c0
245 1 253 22 281 35 46 58 63 99 74 78 21 157 -7 181 -64 9 -22 13 -103 13
-288 l0 -257 25 -3 c14 -2 42 -1 62 0 l37 4 -2 276 c-3 261 -4 280 -24 322
-30 62 -41 74 -93 98 -63 28 -161 27 -224 -3z"/>
<path d="M1706 3457 c1 -275 6 -317 47 -378 61 -92 263 -112 355 -34 36 30 42
31 37 7 -7 -37 13 -46 90 -43 l30 1 0 353 0 352 -61 1 -61 0 0 -259 0 -260
-27 -33 c-33 -42 -75 -60 -144 -63 -61 -2 -100 17 -127 61 -15 26 -17 62 -19
291 l-1 262 -60 2 -60 1 1 -261z"/>
<path d="M6919 3684 c-1 -19 -2 -48 -3 -65 0 -17 2 -33 7 -36 4 -2 5 -9 1 -14
-8 -14 -11 -140 -3 -145 4 -2 4 -17 0 -32 -13 -50 1 -224 21 -272 21 -49 69
-92 124 -111 87 -30 218 -7 273 49 15 14 16 13 19 -19 3 -34 3 -34 51 -33 27
1 53 4 59 8 6 3 9 136 8 353 l-1 348 -40 3 c-87 5 -80 25 -79 -260 1 -281 -1
-291 -64 -330 -46 -28 -139 -35 -185 -13 -59 28 -65 55 -65 330 -1 132 -1 247
-1 256 -1 12 -14 15 -61 16 l-60 0 -1 -33z"/>
<path d="M10279 3696 c-3 -100 1 -679 4 -683 8 -7 106 -7 113 0 5 5 9 602 5
688 -1 12 -14 15 -61 16 -54 0 -60 -2 -61 -21z"/>
</g>
</svg>
